<svg xmlns="http://www.w3.org/2000/svg" viewBox="0 0 125.5 112.64"><defs><style>.cls-1,.cls-4{fill:#955af2;}.cls-1{stroke:#955af2;stroke-miterlimit:10;}.cls-2{opacity:0.24;}.cls-3{fill:#c3c8c9;}.cls-5{fill:#fff;}.cls-6{opacity:0.25;}</style></defs><title>contribute</title><g id="Layer_2" data-name="Layer 2"><g id="polys"><path class="cls-1" d="M121.45,105.41H100l10.72-18.56Zm-21.1-.19h20.78l-10.39-18Z" transform="translate(0 -0.25)"/><g class="cls-2"><path class="cls-1" d="M25.48,105.41H4L14.76,86.85Zm-21.1-.19H25.15l-10.39-18Z" transform="translate(0 -0.25)"/></g><path class="cls-3" d="M62.75,106.93A36.95,36.95,0,1,1,99.7,70a37,37,0,0,1-36.95,36.95Zm0-73.24A36.29,36.29,0,1,0,99,70,36.33,36.33,0,0,0,62.75,33.7Z" transform="translate(0 -0.25)"/><path class="cls-3" d="M62.75,107.18A37.2,37.2,0,1,1,99.95,70,37.24,37.24,0,0,1,62.75,107.18Zm0-73.9A36.7,36.7,0,1,0,99.45,70,36.74,36.74,0,0,0,62.75,33.29Zm0,73.24A36.54,36.54,0,1,1,99.29,70,36.58,36.58,0,0,1,62.75,106.52Zm0-72.58a36,36,0,1,0,36,36A36.08,36.08,0,0,0,62.75,33.95Z" transform="translate(0 -0.25)"/><path class="cls-3" d="M110.74,112.64a14.51,14.51,0,1,1,14.51-14.51,14.53,14.53,0,0,1-14.51,14.51Zm0-28.36a13.85,13.85,0,1,0,13.85,13.85,13.87,13.87,0,0,0-13.85-13.85Z" transform="translate(0 -0.25)"/><path class="cls-3" d="M110.74,112.89A14.76,14.76,0,1,1,125.5,98.13,14.78,14.78,0,0,1,110.74,112.89Zm0-29A14.26,14.26,0,1,0,125,98.13,14.28,14.28,0,0,0,110.74,83.87Zm0,28.36a14.1,14.1,0,1,1,14.1-14.1A14.12,14.12,0,0,1,110.74,112.23Zm0-27.7a13.6,13.6,0,1,0,13.6,13.6A13.62,13.62,0,0,0,110.74,84.53Z" transform="translate(0 -0.25)"/><path class="cls-3" d="M14.76,112.64A14.51,14.51,0,1,1,29.27,98.13a14.53,14.53,0,0,1-14.51,14.51Zm0-28.36A13.85,13.85,0,1,0,28.61,98.13,13.87,13.87,0,0,0,14.76,84.28Z" transform="translate(0 -0.25)"/><path class="cls-3" d="M14.76,112.89A14.76,14.76,0,1,1,29.52,98.13,14.78,14.78,0,0,1,14.76,112.89Zm0-29A14.26,14.26,0,1,0,29,98.13,14.28,14.28,0,0,0,14.76,83.87Zm0,28.36a14.1,14.1,0,1,1,14.1-14.1A14.12,14.12,0,0,1,14.76,112.23Zm0-27.7a13.6,13.6,0,1,0,13.6,13.6A13.62,13.62,0,0,0,14.76,84.53Z" transform="translate(0 -0.25)"/><path class="cls-3" d="M62.75,64.69a25,25,0,1,1,25-25,25.05,25.05,0,0,1-25,25Zm0-49.39A24.37,24.37,0,1,0,87.12,39.66,24.39,24.39,0,0,0,62.75,15.3Z" transform="translate(0 -0.25)"/><path class="cls-3" d="M62.75,64.94A25.28,25.28,0,1,1,88,39.66,25.31,25.31,0,0,1,62.75,64.94Zm0-50.05A24.78,24.78,0,1,0,87.53,39.66,24.8,24.8,0,0,0,62.75,14.89Zm0,49.39A24.62,24.62,0,1,1,87.37,39.66,24.64,24.64,0,0,1,62.75,64.28Zm0-48.73A24.12,24.12,0,1,0,86.87,39.66,24.14,24.14,0,0,0,62.75,15.55Z" transform="translate(0 -0.25)"/><path class="cls-4" d="M91.62,91.2H33.88l28.87-50Zm-1.14-.66-27.72-48L35,90.53Z" transform="translate(0 -0.25)"/><path class="cls-4" d="M91.84,91.07l.22.38H33.45L62.53,41.07l.22-.37Zm-.65-.12L62.75,41.69,34.31,90.95Zm-.5-.54.22.38H34.59L62.53,42.39l.22-.37ZM90,90.28,62.75,43,35.46,90.28Z" transform="translate(0 -0.25)"/><path class="cls-5" d="M62.76,1.41A13.6,13.6,0,1,1,49.16,15,13.62,13.62,0,0,1,62.76,1.41Z" transform="translate(0 -0.25)"/><path class="cls-3" d="M62.76,1.41A13.6,13.6,0,1,0,76.36,15,13.61,13.61,0,0,0,62.76,1.41Zm0-.25A13.85,13.85,0,1,1,48.91,15,13.88,13.88,0,0,1,62.75,1.16Z" transform="translate(0 -0.25)"/><path class="cls-3" d="M62.75,1.16A13.85,13.85,0,1,0,76.61,15,13.87,13.87,0,0,0,62.75,1.16Zm0-.25A14.1,14.1,0,1,1,48.66,15,14.12,14.12,0,0,1,62.76.91Z" transform="translate(0 -0.25)"/><path class="cls-3" d="M76.86,15a14.1,14.1,0,1,0-14.1,14.1A14.12,14.12,0,0,0,76.86,15ZM77,15A14.26,14.26,0,1,1,62.76.75,14.27,14.27,0,0,1,77,15Z" transform="translate(0 -0.25)"/><path class="cls-3" d="M62.76.75A14.26,14.26,0,1,0,77,15,14.27,14.27,0,0,0,62.76.75ZM48.24,15A14.52,14.52,0,1,1,62.75,29.52,14.53,14.53,0,0,1,48.24,15Z" transform="translate(0 -0.25)"/><path class="cls-3" d="M48,15A14.76,14.76,0,1,1,62.76,29.77,14.78,14.78,0,0,1,48,15ZM62.75.5A14.51,14.51,0,1,0,77.27,15,14.53,14.53,0,0,0,62.75.5Z" transform="translate(0 -0.25)"/><g class="cls-6"><path class="cls-1" d="M73.47,22.67H52L62.75,4.11Zm-21.1-.19H73.14l-10.39-18Z" transform="translate(0 -0.25)"/></g></g></g></svg>