<?xml version="1.0" encoding="utf-8"?>
<!-- Generator: Adobe Illustrator 20.1.0, SVG Export Plug-In . SVG Version: 6.00 Build 0)  -->
<svg version="1.1" id="Layer_1" xmlns="http://www.w3.org/2000/svg" xmlns:xlink="http://www.w3.org/1999/xlink" x="0px" y="0px"
	 viewBox="0 0 407.2 296" style="enable-background:new 0 0 407.2 296;" xml:space="preserve">
<style type="text/css">
	.st0{fill:#E6E6E6;}
	.st1{fill:#FFFFFF;}
	.st2{fill:#63CE99;}
</style>
<rect x="2" y="7" class="st0" width="405.2" height="288.9"/>
<g>
	<rect x="4" y="18.4" class="st1" width="392.2" height="266.6"/>
</g>
<g>
	<path class="st2" d="M0,0v288.9h400.2V0H0z M396.2,284.9H4V18.4h392.2V284.9z"/>
</g>
<circle class="st1" cx="10.6" cy="9.2" r="3.6"/>
<circle class="st1" cx="21.8" cy="9.2" r="3.6"/>
<circle class="st1" cx="33.1" cy="9.2" r="3.6"/>
<g>
	<path class="st2" d="M25,51.7c-0.3,0.1-0.6,0.2-0.9,0.3S23.5,52,23.2,52c-0.5,0-0.9-0.1-1.3-0.2s-0.7-0.3-1-0.6s-0.5-0.6-0.6-0.9
		s-0.2-0.8-0.2-1.3c0-0.5,0.1-0.9,0.2-1.3s0.4-0.7,0.6-1s0.6-0.5,1-0.6s0.8-0.2,1.3-0.2c0.4,0,0.7,0,1,0.1s0.5,0.1,0.7,0.2v1.4
		c-0.2-0.1-0.5-0.2-0.8-0.3s-0.6-0.1-0.8-0.1c-0.3,0-0.5,0-0.7,0.1s-0.4,0.2-0.5,0.4s-0.3,0.4-0.3,0.6s-0.1,0.5-0.1,0.8
		c0,0.3,0,0.5,0.1,0.8s0.2,0.4,0.3,0.6s0.3,0.3,0.5,0.4s0.4,0.1,0.7,0.1c0.1,0,0.3,0,0.4,0s0.3,0,0.4-0.1s0.3-0.1,0.4-0.1
		s0.3-0.1,0.4-0.1V51.7z"/>
	<path class="st2" d="M31.8,48.9c0,0.5-0.1,0.9-0.2,1.3s-0.3,0.7-0.6,1s-0.6,0.5-0.9,0.6S29.3,52,28.9,52c-0.4,0-0.8-0.1-1.2-0.2
		s-0.6-0.3-0.9-0.6s-0.4-0.6-0.6-1S26,49.5,26,49c0-0.5,0.1-0.9,0.2-1.3s0.3-0.7,0.6-1s0.6-0.5,0.9-0.6s0.8-0.2,1.2-0.2
		c0.4,0,0.8,0.1,1.2,0.2s0.6,0.3,0.9,0.6s0.4,0.6,0.6,1S31.8,48.4,31.8,48.9z M30.3,48.9c0-0.6-0.1-1.1-0.3-1.4s-0.6-0.5-1-0.5
		c-0.2,0-0.5,0-0.6,0.1s-0.3,0.2-0.4,0.4s-0.2,0.4-0.2,0.6s-0.1,0.5-0.1,0.7c0,0.6,0.1,1.1,0.4,1.4s0.6,0.5,1,0.5
		c0.2,0,0.4,0,0.6-0.1s0.3-0.2,0.4-0.4s0.2-0.4,0.2-0.6S30.3,49.2,30.3,48.9z"/>
	<path class="st2" d="M36.5,51.9V48c0-0.7-0.2-1-0.7-1c-0.2,0-0.5,0.1-0.7,0.3s-0.5,0.5-0.7,0.8v3.8H33v-6h1.2l0,0.9
		c0.1-0.2,0.2-0.3,0.4-0.4s0.3-0.2,0.4-0.3s0.3-0.2,0.5-0.2s0.4-0.1,0.6-0.1c0.3,0,0.6,0,0.8,0.1s0.4,0.2,0.6,0.4s0.3,0.4,0.3,0.7
		s0.1,0.5,0.1,0.9v4H36.5z"/>
	<path class="st2" d="M44.3,51.8c-0.3,0.1-0.5,0.1-0.8,0.1S43,52,42.8,52c-0.4,0-0.7,0-1-0.1s-0.5-0.2-0.7-0.4s-0.3-0.4-0.4-0.6
		s-0.1-0.6-0.1-0.9v-2.9h-1.6v-1.1h1.6v-1.5L42,44v1.9h2.3v1.1H42v2.8c0,0.3,0.1,0.6,0.2,0.8s0.4,0.3,0.8,0.3c0.2,0,0.5,0,0.7-0.1
		s0.4-0.1,0.6-0.1V51.8z"/>
	<path class="st2" d="M49.4,48.3c0-0.2,0-0.4,0-0.6s-0.1-0.3-0.1-0.4s-0.1-0.2-0.2-0.2S48.8,47,48.6,47c-0.2,0-0.4,0.1-0.7,0.3
		s-0.5,0.5-0.7,0.9v3.8h-1.5v-6h1.3l0.1,0.9c0.1-0.2,0.2-0.3,0.3-0.4s0.3-0.2,0.4-0.3s0.3-0.2,0.5-0.2s0.4-0.1,0.6-0.1
		c0.3,0,0.6,0.1,0.8,0.2s0.4,0.3,0.6,0.5s0.3,0.5,0.4,0.8s0.1,0.7,0.1,1.1H49.4z"/>
	<path class="st2" d="M57.4,48.9c0,0.5-0.1,0.9-0.2,1.3s-0.3,0.7-0.6,1s-0.6,0.5-0.9,0.6S55,52,54.5,52c-0.4,0-0.8-0.1-1.2-0.2
		s-0.6-0.3-0.9-0.6s-0.4-0.6-0.6-1s-0.2-0.8-0.2-1.3c0-0.5,0.1-0.9,0.2-1.3s0.3-0.7,0.6-1s0.6-0.5,0.9-0.6s0.8-0.2,1.2-0.2
		c0.4,0,0.8,0.1,1.2,0.2s0.6,0.3,0.9,0.6s0.4,0.6,0.6,1S57.4,48.4,57.4,48.9z M55.9,48.9c0-0.6-0.1-1.1-0.3-1.4s-0.6-0.5-1-0.5
		c-0.2,0-0.5,0-0.6,0.1s-0.3,0.2-0.4,0.4s-0.2,0.4-0.2,0.6s-0.1,0.5-0.1,0.7c0,0.6,0.1,1.1,0.4,1.4s0.6,0.5,1,0.5
		c0.2,0,0.4,0,0.6-0.1s0.3-0.2,0.4-0.4s0.2-0.4,0.2-0.6S55.9,49.2,55.9,48.9z"/>
	<path class="st2" d="M60.2,44.7h-1.7v-1.1h3.1v7.2h1.7v1.1h-5.1v-1.1h1.9V44.7z"/>
	<path class="st2" d="M74.6,46.5h-1.2l-0.2-2.9h1.6L74.6,46.5z"/>
	<path class="st2" d="M81.5,50.1c0,0.3-0.1,0.6-0.2,0.9s-0.3,0.4-0.6,0.6s-0.5,0.3-0.8,0.3s-0.6,0.1-1,0.1c-0.4,0-0.8,0-1.2-0.1
		s-0.7-0.1-1-0.2v-1.3c0.4,0.2,0.7,0.3,1.1,0.3s0.7,0.1,1,0.1c0.4,0,0.7-0.1,0.8-0.2s0.3-0.3,0.3-0.5c0-0.1,0-0.2-0.1-0.2
		s-0.1-0.1-0.2-0.2s-0.3-0.1-0.5-0.2s-0.5-0.2-0.8-0.2c-0.3-0.1-0.5-0.2-0.8-0.3s-0.4-0.2-0.5-0.4s-0.3-0.3-0.3-0.5
		s-0.1-0.4-0.1-0.7c0-0.2,0.1-0.5,0.2-0.7s0.3-0.4,0.5-0.6s0.5-0.3,0.8-0.4s0.7-0.1,1.1-0.1c0.4,0,0.7,0,1,0.1s0.5,0.1,0.8,0.1v1.2
		c-0.3-0.1-0.7-0.2-1-0.2s-0.6-0.1-0.9-0.1s-0.5,0.1-0.7,0.2s-0.3,0.3-0.3,0.4c0,0.1,0,0.2,0.1,0.2s0.1,0.1,0.2,0.2s0.2,0.1,0.4,0.2
		s0.4,0.2,0.7,0.2c0.3,0.1,0.6,0.2,0.9,0.3s0.4,0.2,0.6,0.4s0.2,0.3,0.3,0.5S81.5,49.9,81.5,50.1z"/>
	<path class="st2" d="M87.6,50.1c0,0.3-0.1,0.6-0.2,0.9s-0.3,0.4-0.6,0.6s-0.5,0.3-0.8,0.3S85.3,52,85,52c-0.4,0-0.8,0-1.2-0.1
		s-0.7-0.1-1-0.2v-1.3c0.4,0.2,0.7,0.3,1.1,0.3s0.7,0.1,1,0.1c0.4,0,0.7-0.1,0.8-0.2s0.3-0.3,0.3-0.5c0-0.1,0-0.2-0.1-0.2
		s-0.1-0.1-0.2-0.2s-0.3-0.1-0.5-0.2s-0.5-0.2-0.8-0.2c-0.3-0.1-0.5-0.2-0.8-0.3s-0.4-0.2-0.5-0.4s-0.3-0.3-0.3-0.5
		s-0.1-0.4-0.1-0.7c0-0.2,0.1-0.5,0.2-0.7s0.3-0.4,0.5-0.6s0.5-0.3,0.8-0.4s0.7-0.1,1.1-0.1c0.4,0,0.7,0,1,0.1S87,46,87.2,46v1.2
		c-0.3-0.1-0.7-0.2-1-0.2s-0.6-0.1-0.9-0.1s-0.5,0.1-0.7,0.2s-0.3,0.3-0.3,0.4c0,0.1,0,0.2,0.1,0.2s0.1,0.1,0.2,0.2s0.2,0.1,0.4,0.2
		s0.4,0.2,0.7,0.2c0.3,0.1,0.6,0.2,0.9,0.3s0.4,0.2,0.6,0.4s0.2,0.3,0.3,0.5S87.6,49.9,87.6,50.1z"/>
	<path class="st2" d="M92.5,51.9V48c0-0.7-0.2-1-0.7-1c-0.2,0-0.5,0.1-0.7,0.3s-0.5,0.5-0.7,0.8v3.8H89v-8.3h1.4v2l-0.1,1.1
		c0.1-0.1,0.2-0.3,0.4-0.4s0.3-0.2,0.4-0.3s0.3-0.1,0.5-0.2s0.4-0.1,0.6-0.1c0.3,0,0.6,0,0.8,0.1s0.4,0.2,0.6,0.4s0.3,0.4,0.3,0.7
		s0.1,0.5,0.1,0.9v4H92.5z"/>
	<path class="st2" d="M99.2,51.9l0-0.9c-0.1,0.2-0.3,0.3-0.4,0.4s-0.3,0.2-0.4,0.3s-0.3,0.2-0.5,0.2S97.5,52,97.3,52
		c-0.4,0-0.7-0.1-0.9-0.2s-0.5-0.3-0.7-0.6s-0.3-0.6-0.4-0.9s-0.1-0.8-0.1-1.2c0-0.5,0.1-1,0.2-1.4s0.4-0.7,0.6-1s0.6-0.5,1-0.6
		s0.8-0.2,1.2-0.2c0.1,0,0.3,0,0.4,0s0.3,0,0.4,0.1v-2.3h1.4v8.3H99.2z M96.6,49c0,0.3,0,0.6,0.1,0.8s0.1,0.4,0.2,0.6
		s0.2,0.3,0.3,0.3s0.3,0.1,0.4,0.1c0.2,0,0.5-0.1,0.7-0.3s0.5-0.5,0.7-0.8v-2.6c-0.1,0-0.3-0.1-0.4-0.1s-0.3,0-0.5,0
		c-0.2,0-0.4,0-0.6,0.1s-0.3,0.2-0.5,0.4s-0.2,0.4-0.3,0.6S96.6,48.7,96.6,49z"/>
	<path class="st2" d="M102.2,49.3v-1.3h3.6v1.3H102.2z"/>
	<path class="st2" d="M106.6,51.9v-1.1l1.8-1.8c0.3-0.3,0.6-0.6,0.8-0.9s0.4-0.5,0.5-0.7s0.2-0.4,0.2-0.5s0.1-0.3,0.1-0.5
		c0-0.1,0-0.3-0.1-0.4s-0.1-0.2-0.2-0.3s-0.2-0.2-0.3-0.2s-0.3-0.1-0.5-0.1c-0.3,0-0.6,0.1-0.8,0.2s-0.5,0.3-0.7,0.5l-0.8-1
		c0.3-0.3,0.7-0.6,1.1-0.7s0.9-0.3,1.4-0.3c0.4,0,0.7,0,1,0.1s0.6,0.2,0.8,0.4s0.4,0.4,0.5,0.7s0.2,0.6,0.2,1c0,0.3,0,0.6-0.1,0.9
		s-0.2,0.5-0.4,0.8s-0.3,0.5-0.6,0.8s-0.5,0.5-0.8,0.8l-1.1,1.1h3.2v1.3H106.6z"/>
	<path class="st2" d="M112.8,51.9v-1.3h2v-4.9l-1.7,0.9l-0.5-1.2l2.4-1.3h1.2v6.4h1.7v1.3H112.8z"/>
	<path class="st2" d="M120.5,46.5h-1.2l-0.2-2.9h1.6L120.5,46.5z"/>
	<path class="st2" d="M38.3,72.7c-0.3,0.1-0.5,0.1-0.8,0.1s-0.5,0.1-0.7,0.1c-0.4,0-0.7,0-1-0.1s-0.5-0.2-0.7-0.4s-0.3-0.4-0.4-0.6
		s-0.1-0.6-0.1-0.9v-2.9h-1.6v-1.1h1.6v-1.5l1.5-0.4v1.9h2.3v1.1H36v2.8c0,0.3,0.1,0.6,0.2,0.8s0.4,0.3,0.8,0.3c0.2,0,0.5,0,0.7-0.1
		s0.4-0.1,0.6-0.1V72.7z"/>
	<path class="st2" d="M41.5,67.9h-1.7v-1.1h3.1v4.8h1.7v1.1h-5.1v-1.1h1.9V67.9z M43,65.1c0,0.1,0,0.2-0.1,0.4s-0.1,0.2-0.2,0.3
		S42.6,66,42.5,66s-0.2,0.1-0.4,0.1s-0.3,0-0.4-0.1s-0.2-0.1-0.3-0.2s-0.1-0.2-0.2-0.3s-0.1-0.2-0.1-0.4s0-0.2,0.1-0.4
		s0.1-0.2,0.2-0.3s0.2-0.2,0.3-0.2s0.2-0.1,0.4-0.1s0.3,0,0.4,0.1s0.2,0.1,0.3,0.2s0.1,0.2,0.2,0.3S43,65,43,65.1z"/>
	<path class="st2" d="M50.1,72.7c-0.3,0.1-0.5,0.1-0.8,0.1s-0.5,0.1-0.7,0.1c-0.4,0-0.7,0-1-0.1s-0.5-0.2-0.7-0.4s-0.3-0.4-0.4-0.6
		s-0.1-0.6-0.1-0.9v-2.9h-1.6v-1.1h1.6v-1.5l1.5-0.4v1.9h2.3v1.1h-2.3v2.8c0,0.3,0.1,0.6,0.2,0.8s0.4,0.3,0.8,0.3
		c0.2,0,0.5,0,0.7-0.1s0.4-0.1,0.6-0.1V72.7z"/>
	<path class="st2" d="M53.3,65.6h-1.7v-1.1h3.1v7.2h1.7v1.1h-5.1v-1.1h1.9V65.6z"/>
	<path class="st2" d="M62.8,69.3c0,0.1,0,0.2,0,0.4s0,0.3,0,0.4h-3.9c0,0.3,0,0.5,0.1,0.7s0.2,0.4,0.3,0.5s0.3,0.2,0.5,0.3
		s0.4,0.1,0.7,0.1c0.3,0,0.6,0,0.9-0.1s0.7-0.1,1-0.2v1.1c-0.2,0-0.3,0.1-0.5,0.1s-0.4,0.1-0.6,0.1s-0.4,0-0.6,0.1s-0.4,0-0.6,0
		c-0.5,0-0.9-0.1-1.2-0.2s-0.7-0.3-0.9-0.6s-0.4-0.6-0.6-0.9s-0.2-0.8-0.2-1.3c0-0.5,0.1-0.9,0.2-1.3s0.3-0.7,0.6-1s0.5-0.5,0.9-0.7
		s0.7-0.2,1.2-0.2c0.4,0,0.8,0.1,1.1,0.2s0.6,0.3,0.8,0.5s0.4,0.5,0.5,0.8S62.8,68.9,62.8,69.3z M61.4,69.1c0-0.2,0-0.4-0.1-0.6
		S61.1,68.2,61,68s-0.2-0.2-0.4-0.3s-0.3-0.1-0.5-0.1c-0.4,0-0.7,0.1-0.9,0.4s-0.4,0.6-0.4,1H61.4z"/>
	<path class="st2" d="M73.9,67.4h-1.2l-0.2-2.9h1.6L73.9,67.4z"/>
	<path class="st2" d="M81.3,70.4c0,0.4-0.1,0.8-0.2,1.1s-0.4,0.6-0.6,0.8s-0.6,0.4-1,0.4s-0.8,0.1-1.3,0.1c-0.4,0-0.8,0-1.2-0.1
		s-0.7-0.1-1.1-0.2v-1.4c0.2,0.1,0.4,0.1,0.6,0.2s0.4,0.1,0.6,0.1s0.4,0.1,0.6,0.1s0.4,0,0.6,0c0.3,0,0.5,0,0.7-0.1s0.3-0.1,0.5-0.2
		s0.2-0.2,0.3-0.3s0.1-0.2,0.1-0.4c0-0.2-0.1-0.3-0.2-0.5s-0.2-0.2-0.4-0.3s-0.4-0.2-0.6-0.3s-0.5-0.2-0.7-0.3s-0.5-0.2-0.7-0.3
		s-0.4-0.3-0.6-0.4s-0.3-0.4-0.4-0.6S76,67.5,76,67.2c0-0.3,0.1-0.6,0.2-0.9s0.3-0.5,0.5-0.7s0.5-0.4,0.9-0.5s0.8-0.2,1.3-0.2
		c0.2,0,0.3,0,0.5,0s0.3,0,0.5,0.1s0.3,0,0.5,0.1s0.3,0.1,0.4,0.1v1.3c-0.1,0-0.3-0.1-0.4-0.1s-0.3-0.1-0.5-0.1s-0.3-0.1-0.5-0.1
		s-0.3,0-0.5,0c-0.3,0-0.5,0-0.6,0.1s-0.3,0.1-0.4,0.2s-0.2,0.2-0.2,0.3s-0.1,0.2-0.1,0.4c0,0.2,0.1,0.3,0.2,0.4s0.2,0.2,0.4,0.3
		s0.4,0.2,0.6,0.3s0.5,0.2,0.7,0.3s0.5,0.2,0.7,0.3s0.4,0.3,0.6,0.4s0.3,0.4,0.4,0.6S81.3,70.1,81.3,70.4z"/>
	<path class="st2" d="M87.7,69.3c0,0.1,0,0.2,0,0.4s0,0.3,0,0.4h-3.9c0,0.3,0,0.5,0.1,0.7s0.2,0.4,0.3,0.5s0.3,0.2,0.5,0.3
		s0.4,0.1,0.7,0.1c0.3,0,0.6,0,0.9-0.1s0.7-0.1,1-0.2v1.1c-0.2,0-0.3,0.1-0.5,0.1s-0.4,0.1-0.6,0.1s-0.4,0-0.6,0.1s-0.4,0-0.6,0
		c-0.5,0-0.9-0.1-1.2-0.2s-0.7-0.3-0.9-0.6s-0.4-0.6-0.6-0.9s-0.2-0.8-0.2-1.3c0-0.5,0.1-0.9,0.2-1.3s0.3-0.7,0.6-1s0.5-0.5,0.9-0.7
		s0.7-0.2,1.2-0.2c0.4,0,0.8,0.1,1.1,0.2s0.6,0.3,0.8,0.5s0.4,0.5,0.5,0.8S87.7,68.9,87.7,69.3z M86.2,69.1c0-0.2,0-0.4-0.1-0.6
		S86,68.2,85.9,68s-0.2-0.2-0.4-0.3s-0.3-0.1-0.5-0.1c-0.4,0-0.7,0.1-0.9,0.4s-0.4,0.6-0.4,1H86.2z"/>
	<path class="st2" d="M93.8,72.7c-0.3,0.1-0.5,0.1-0.8,0.1s-0.5,0.1-0.7,0.1c-0.4,0-0.7,0-1-0.1s-0.5-0.2-0.7-0.4s-0.3-0.4-0.4-0.6
		s-0.1-0.6-0.1-0.9v-2.9h-1.6v-1.1h1.6v-1.5l1.5-0.4v1.9h2.3v1.1h-2.3v2.8c0,0.3,0.1,0.6,0.2,0.8s0.4,0.3,0.8,0.3
		c0.2,0,0.5,0,0.7-0.1s0.4-0.1,0.6-0.1V72.7z"/>
	<path class="st2" d="M107.3,70.4c0,0.4-0.1,0.8-0.2,1.1s-0.4,0.6-0.6,0.8s-0.6,0.4-1,0.4s-0.8,0.1-1.3,0.1c-0.4,0-0.8,0-1.2-0.1
		s-0.7-0.1-1.1-0.2v-1.4c0.2,0.1,0.4,0.1,0.6,0.2s0.4,0.1,0.6,0.1s0.4,0.1,0.6,0.1s0.4,0,0.6,0c0.3,0,0.5,0,0.7-0.1s0.3-0.1,0.5-0.2
		s0.2-0.2,0.3-0.3s0.1-0.2,0.1-0.4c0-0.2-0.1-0.3-0.2-0.5s-0.2-0.2-0.4-0.3s-0.4-0.2-0.6-0.3s-0.5-0.2-0.7-0.3s-0.5-0.2-0.7-0.3
		s-0.4-0.3-0.6-0.4s-0.3-0.4-0.4-0.6s-0.2-0.5-0.2-0.8c0-0.3,0.1-0.6,0.2-0.9s0.3-0.5,0.5-0.7s0.5-0.4,0.9-0.5s0.8-0.2,1.3-0.2
		c0.2,0,0.3,0,0.5,0s0.3,0,0.5,0.1s0.3,0,0.5,0.1s0.3,0.1,0.4,0.1v1.3c-0.1,0-0.3-0.1-0.4-0.1s-0.3-0.1-0.5-0.1s-0.3-0.1-0.5-0.1
		s-0.3,0-0.5,0c-0.3,0-0.5,0-0.6,0.1s-0.3,0.1-0.4,0.2s-0.2,0.2-0.2,0.3s-0.1,0.2-0.1,0.4c0,0.2,0.1,0.3,0.2,0.4s0.2,0.2,0.4,0.3
		s0.4,0.2,0.6,0.3s0.5,0.2,0.7,0.3s0.5,0.2,0.7,0.3s0.4,0.3,0.6,0.4s0.3,0.4,0.4,0.6S107.3,70.1,107.3,70.4z"/>
	<path class="st2" d="M113.5,70.4c0,0.4-0.1,0.8-0.2,1.1s-0.4,0.6-0.6,0.8s-0.6,0.4-1,0.4s-0.8,0.1-1.3,0.1c-0.4,0-0.8,0-1.2-0.1
		s-0.7-0.1-1.1-0.2v-1.4c0.2,0.1,0.4,0.1,0.6,0.2s0.4,0.1,0.6,0.1s0.4,0.1,0.6,0.1s0.4,0,0.6,0c0.3,0,0.5,0,0.7-0.1s0.3-0.1,0.5-0.2
		s0.2-0.2,0.3-0.3s0.1-0.2,0.1-0.4c0-0.2-0.1-0.3-0.2-0.5s-0.2-0.2-0.4-0.3s-0.4-0.2-0.6-0.3s-0.5-0.2-0.7-0.3s-0.5-0.2-0.7-0.3
		s-0.4-0.3-0.6-0.4s-0.3-0.4-0.4-0.6s-0.2-0.5-0.2-0.8c0-0.3,0.1-0.6,0.2-0.9s0.3-0.5,0.5-0.7s0.5-0.4,0.9-0.5s0.8-0.2,1.3-0.2
		c0.2,0,0.3,0,0.5,0s0.3,0,0.5,0.1s0.3,0,0.5,0.1s0.3,0.1,0.4,0.1v1.3c-0.1,0-0.3-0.1-0.4-0.1s-0.3-0.1-0.5-0.1s-0.3-0.1-0.5-0.1
		s-0.3,0-0.5,0c-0.3,0-0.5,0-0.6,0.1s-0.3,0.1-0.4,0.2s-0.2,0.2-0.2,0.3s-0.1,0.2-0.1,0.4c0,0.2,0.1,0.3,0.2,0.4s0.2,0.2,0.4,0.3
		s0.4,0.2,0.6,0.3s0.5,0.2,0.7,0.3s0.5,0.2,0.7,0.3s0.4,0.3,0.6,0.4s0.3,0.4,0.4,0.6S113.5,70.1,113.5,70.4z"/>
	<path class="st2" d="M118.4,72.7v-3.3h-2.6v3.3h-1.4v-7.7h1.4v3.1h2.6v-3.1h1.4v7.7H118.4z"/>
	<path class="st2" d="M133.1,67.5c0,0.4-0.1,0.8-0.2,1.1s-0.3,0.6-0.6,0.9s-0.6,0.4-1,0.6s-0.8,0.2-1.4,0.2h-0.7v2.5h-1.5v-7.7h2.2
		c0.5,0,0.9,0.1,1.3,0.2s0.7,0.3,1,0.5s0.5,0.5,0.6,0.8S133.1,67.1,133.1,67.5z M131.6,67.6c0-0.2,0-0.4-0.1-0.6s-0.2-0.3-0.3-0.4
		s-0.3-0.2-0.5-0.3s-0.4-0.1-0.7-0.1h-0.8v2.8h0.8c0.2,0,0.5,0,0.7-0.1s0.4-0.2,0.5-0.3s0.2-0.3,0.3-0.5S131.6,67.8,131.6,67.6z"/>
	<path class="st2" d="M137.8,69.1c0-0.2,0-0.4,0-0.6s-0.1-0.3-0.1-0.4s-0.1-0.2-0.2-0.2s-0.2-0.1-0.3-0.1c-0.2,0-0.4,0.1-0.7,0.3
		s-0.5,0.5-0.7,0.9v3.8h-1.5v-6h1.3l0.1,0.9c0.1-0.2,0.2-0.3,0.3-0.4s0.3-0.2,0.4-0.3s0.3-0.2,0.5-0.2s0.4-0.1,0.6-0.1
		c0.3,0,0.6,0.1,0.8,0.2s0.4,0.3,0.6,0.5s0.3,0.5,0.4,0.8s0.1,0.7,0.1,1.1H137.8z"/>
	<path class="st2" d="M145.8,69.7c0,0.5-0.1,0.9-0.2,1.3s-0.3,0.7-0.6,1s-0.6,0.5-0.9,0.6s-0.8,0.2-1.2,0.2c-0.4,0-0.8-0.1-1.2-0.2
		s-0.6-0.3-0.9-0.6s-0.4-0.6-0.6-1s-0.2-0.8-0.2-1.3c0-0.5,0.1-0.9,0.2-1.3s0.3-0.7,0.6-1s0.6-0.5,0.9-0.6s0.8-0.2,1.2-0.2
		c0.4,0,0.8,0.1,1.2,0.2s0.6,0.3,0.9,0.6s0.4,0.6,0.6,1S145.8,69.2,145.8,69.7z M144.4,69.7c0-0.6-0.1-1.1-0.3-1.4s-0.6-0.5-1-0.5
		c-0.2,0-0.5,0-0.6,0.1s-0.3,0.2-0.4,0.4s-0.2,0.4-0.2,0.6s-0.1,0.5-0.1,0.7c0,0.6,0.1,1.1,0.4,1.4s0.6,0.5,1,0.5
		c0.2,0,0.4,0,0.6-0.1s0.3-0.2,0.4-0.4s0.2-0.4,0.2-0.6S144.4,70,144.4,69.7z"/>
	<path class="st2" d="M151.9,72.7c-0.3,0.1-0.5,0.1-0.8,0.1s-0.5,0.1-0.7,0.1c-0.4,0-0.7,0-1-0.1s-0.5-0.2-0.7-0.4s-0.3-0.4-0.4-0.6
		s-0.1-0.6-0.1-0.9v-2.9h-1.6v-1.1h1.6v-1.5l1.5-0.4v1.9h2.3v1.1h-2.3v2.8c0,0.3,0.1,0.6,0.2,0.8s0.4,0.3,0.8,0.3
		c0.2,0,0.5,0,0.7-0.1s0.4-0.1,0.6-0.1V72.7z"/>
	<path class="st2" d="M158.6,69.7c0,0.5-0.1,0.9-0.2,1.3s-0.3,0.7-0.6,1s-0.6,0.5-0.9,0.6s-0.8,0.2-1.2,0.2c-0.4,0-0.8-0.1-1.2-0.2
		s-0.6-0.3-0.9-0.6s-0.4-0.6-0.6-1s-0.2-0.8-0.2-1.3c0-0.5,0.1-0.9,0.2-1.3s0.3-0.7,0.6-1s0.6-0.5,0.9-0.6s0.8-0.2,1.2-0.2
		c0.4,0,0.8,0.1,1.2,0.2s0.6,0.3,0.9,0.6s0.4,0.6,0.6,1S158.6,69.2,158.6,69.7z M157.1,69.7c0-0.6-0.1-1.1-0.3-1.4s-0.6-0.5-1-0.5
		c-0.2,0-0.5,0-0.6,0.1s-0.3,0.2-0.4,0.4s-0.2,0.4-0.2,0.6s-0.1,0.5-0.1,0.7c0,0.6,0.1,1.1,0.4,1.4s0.6,0.5,1,0.5
		c0.2,0,0.4,0,0.6-0.1s0.3-0.2,0.4-0.4s0.2-0.4,0.2-0.6S157.1,70,157.1,69.7z"/>
	<path class="st2" d="M164.5,72.5c-0.3,0.1-0.6,0.2-0.9,0.3s-0.6,0.1-0.9,0.1c-0.5,0-0.9-0.1-1.3-0.2s-0.7-0.3-1-0.6
		s-0.5-0.6-0.6-0.9s-0.2-0.8-0.2-1.3c0-0.5,0.1-0.9,0.2-1.3s0.4-0.7,0.6-1s0.6-0.5,1-0.6s0.8-0.2,1.3-0.2c0.4,0,0.7,0,1,0.1
		s0.5,0.1,0.7,0.2v1.4c-0.2-0.1-0.5-0.2-0.8-0.3s-0.6-0.1-0.8-0.1c-0.3,0-0.5,0-0.7,0.1s-0.4,0.2-0.5,0.4s-0.3,0.4-0.3,0.6
		s-0.1,0.5-0.1,0.8c0,0.3,0,0.5,0.1,0.8s0.2,0.4,0.3,0.6s0.3,0.3,0.5,0.4s0.4,0.1,0.7,0.1c0.1,0,0.3,0,0.4,0s0.3,0,0.4-0.1
		s0.3-0.1,0.4-0.1s0.3-0.1,0.4-0.1V72.5z"/>
	<path class="st2" d="M171.2,69.7c0,0.5-0.1,0.9-0.2,1.3s-0.3,0.7-0.6,1s-0.6,0.5-0.9,0.6s-0.8,0.2-1.2,0.2c-0.4,0-0.8-0.1-1.2-0.2
		s-0.6-0.3-0.9-0.6s-0.4-0.6-0.6-1s-0.2-0.8-0.2-1.3c0-0.5,0.1-0.9,0.2-1.3s0.3-0.7,0.6-1s0.6-0.5,0.9-0.6s0.8-0.2,1.2-0.2
		c0.4,0,0.8,0.1,1.2,0.2s0.6,0.3,0.9,0.6s0.4,0.6,0.6,1S171.2,69.2,171.2,69.7z M169.8,69.7c0-0.6-0.1-1.1-0.3-1.4s-0.6-0.5-1-0.5
		c-0.2,0-0.5,0-0.6,0.1s-0.3,0.2-0.4,0.4s-0.2,0.4-0.2,0.6s-0.1,0.5-0.1,0.7c0,0.6,0.1,1.1,0.4,1.4s0.6,0.5,1,0.5
		c0.2,0,0.4,0,0.6-0.1s0.3-0.2,0.4-0.4s0.2-0.4,0.2-0.6S169.8,70,169.8,69.7z"/>
	<path class="st2" d="M174,65.6h-1.7v-1.1h3.1v7.2h1.7v1.1h-5.1v-1.1h1.9V65.6z"/>
	<path class="st2" d="M190.2,72.7c-0.3,0.1-0.5,0.1-0.8,0.1s-0.5,0.1-0.7,0.1c-0.4,0-0.7,0-1-0.1s-0.5-0.2-0.7-0.4s-0.3-0.4-0.4-0.6
		s-0.1-0.6-0.1-0.9v-2.9h-1.6v-1.1h1.6v-1.5l1.5-0.4v1.9h2.3v1.1h-2.3v2.8c0,0.3,0.1,0.6,0.2,0.8s0.4,0.3,0.8,0.3
		c0.2,0,0.5,0,0.7-0.1s0.4-0.1,0.6-0.1V72.7z"/>
	<path class="st2" d="M196.9,69.7c0,0.5-0.1,0.9-0.2,1.3s-0.3,0.7-0.6,1s-0.6,0.5-0.9,0.6s-0.8,0.2-1.2,0.2c-0.4,0-0.8-0.1-1.2-0.2
		s-0.6-0.3-0.9-0.6s-0.4-0.6-0.6-1s-0.2-0.8-0.2-1.3c0-0.5,0.1-0.9,0.2-1.3s0.3-0.7,0.6-1s0.6-0.5,0.9-0.6s0.8-0.2,1.2-0.2
		c0.4,0,0.8,0.1,1.2,0.2s0.6,0.3,0.9,0.6s0.4,0.6,0.6,1S196.9,69.2,196.9,69.7z M195.4,69.7c0-0.6-0.1-1.1-0.3-1.4s-0.6-0.5-1-0.5
		c-0.2,0-0.5,0-0.6,0.1s-0.3,0.2-0.4,0.4s-0.2,0.4-0.2,0.6s-0.1,0.5-0.1,0.7c0,0.6,0.1,1.1,0.4,1.4s0.6,0.5,1,0.5
		c0.2,0,0.4,0,0.6-0.1s0.3-0.2,0.4-0.4s0.2-0.4,0.2-0.6S195.4,70,195.4,69.7z"/>
	<path class="st2" d="M204.7,72.7v-1.1l1.8-1.8c0.3-0.3,0.6-0.6,0.8-0.9s0.4-0.5,0.5-0.7s0.2-0.4,0.2-0.5s0.1-0.3,0.1-0.5
		c0-0.1,0-0.3-0.1-0.4s-0.1-0.2-0.2-0.3s-0.2-0.2-0.3-0.2s-0.3-0.1-0.5-0.1c-0.3,0-0.6,0.1-0.8,0.2s-0.5,0.3-0.7,0.5l-0.8-1
		c0.3-0.3,0.7-0.6,1.1-0.7s0.9-0.3,1.4-0.3c0.4,0,0.7,0,1,0.1s0.6,0.2,0.8,0.4s0.4,0.4,0.5,0.7s0.2,0.6,0.2,1c0,0.3,0,0.6-0.1,0.9
		s-0.2,0.5-0.4,0.8s-0.3,0.5-0.6,0.8s-0.5,0.5-0.8,0.8l-1.1,1.1h3.2v1.3H204.7z"/>
	<path class="st2" d="M213,67.4h-1.2l-0.2-2.9h1.6L213,67.4z"/>
	<path class="st2" d="M37.1,93.5l0-0.9c-0.1,0.2-0.3,0.3-0.4,0.4s-0.3,0.2-0.4,0.3s-0.3,0.2-0.5,0.2s-0.4,0.1-0.6,0.1
		c-0.4,0-0.7-0.1-0.9-0.2s-0.5-0.3-0.7-0.6s-0.3-0.6-0.4-0.9S33,91.1,33,90.7c0-0.5,0.1-1,0.2-1.4s0.4-0.7,0.6-1s0.6-0.5,1-0.6
		s0.8-0.2,1.2-0.2c0.1,0,0.3,0,0.4,0s0.3,0,0.4,0.1v-2.3h1.4v8.3H37.1z M34.5,90.6c0,0.3,0,0.6,0.1,0.8s0.1,0.4,0.2,0.6
		s0.2,0.3,0.3,0.3s0.3,0.1,0.4,0.1c0.2,0,0.5-0.1,0.7-0.3s0.5-0.5,0.7-0.8v-2.6c-0.1,0-0.3-0.1-0.4-0.1s-0.3,0-0.5,0
		c-0.2,0-0.4,0-0.6,0.1S35,89,34.9,89.2s-0.2,0.4-0.3,0.6S34.5,90.3,34.5,90.6z"/>
	<path class="st2" d="M45,90.1c0,0.1,0,0.2,0,0.4s0,0.3,0,0.4h-3.9c0,0.3,0,0.5,0.1,0.7s0.2,0.4,0.3,0.5s0.3,0.2,0.5,0.3
		s0.4,0.1,0.7,0.1c0.3,0,0.6,0,0.9-0.1s0.7-0.1,1-0.2v1.1c-0.2,0-0.3,0.1-0.5,0.1s-0.4,0.1-0.6,0.1s-0.4,0-0.6,0.1s-0.4,0-0.6,0
		c-0.5,0-0.9-0.1-1.2-0.2s-0.7-0.3-0.9-0.6s-0.4-0.6-0.6-0.9s-0.2-0.8-0.2-1.3c0-0.5,0.1-0.9,0.2-1.3s0.3-0.7,0.6-1s0.5-0.5,0.9-0.7
		s0.7-0.2,1.2-0.2c0.4,0,0.8,0.1,1.1,0.2s0.6,0.3,0.8,0.5s0.4,0.5,0.5,0.8S45,89.7,45,90.1z M43.6,89.9c0-0.2,0-0.4-0.1-0.6
		s-0.1-0.3-0.3-0.4s-0.2-0.2-0.4-0.3s-0.3-0.1-0.5-0.1c-0.4,0-0.7,0.1-0.9,0.4s-0.4,0.6-0.4,1H43.6z"/>
	<path class="st2" d="M51,91.8c0,0.3-0.1,0.6-0.2,0.9s-0.3,0.4-0.6,0.6s-0.5,0.3-0.8,0.3s-0.6,0.1-1,0.1c-0.4,0-0.8,0-1.2-0.1
		s-0.7-0.1-1-0.2v-1.3c0.4,0.2,0.7,0.3,1.1,0.3s0.7,0.1,1,0.1c0.4,0,0.7-0.1,0.8-0.2s0.3-0.3,0.3-0.5c0-0.1,0-0.2-0.1-0.2
		s-0.1-0.1-0.2-0.2s-0.3-0.1-0.5-0.2S48.3,91.1,48,91c-0.3-0.1-0.5-0.2-0.8-0.3s-0.4-0.2-0.5-0.4s-0.3-0.3-0.3-0.5s-0.1-0.4-0.1-0.7
		c0-0.2,0.1-0.5,0.2-0.7s0.3-0.4,0.5-0.6s0.5-0.3,0.8-0.4s0.7-0.1,1.1-0.1c0.4,0,0.7,0,1,0.1s0.5,0.1,0.8,0.1v1.2
		c-0.3-0.1-0.7-0.2-1-0.2s-0.6-0.1-0.9-0.1s-0.5,0.1-0.7,0.2s-0.3,0.3-0.3,0.4c0,0.1,0,0.2,0.1,0.2s0.1,0.1,0.2,0.2s0.2,0.1,0.4,0.2
		s0.4,0.2,0.7,0.2c0.3,0.1,0.6,0.2,0.9,0.3s0.4,0.2,0.6,0.4s0.2,0.3,0.3,0.5S51,91.6,51,91.8z"/>
	<path class="st2" d="M57.1,93.3c-0.3,0.1-0.6,0.2-0.9,0.3s-0.6,0.1-0.9,0.1c-0.5,0-0.9-0.1-1.3-0.2s-0.7-0.3-1-0.6
		s-0.5-0.6-0.6-0.9s-0.2-0.8-0.2-1.3c0-0.5,0.1-0.9,0.2-1.3s0.4-0.7,0.6-1s0.6-0.5,1-0.6s0.8-0.2,1.3-0.2c0.4,0,0.7,0,1,0.1
		s0.5,0.1,0.7,0.2v1.4c-0.2-0.1-0.5-0.2-0.8-0.3s-0.6-0.1-0.8-0.1c-0.3,0-0.5,0-0.7,0.1s-0.4,0.2-0.5,0.4s-0.3,0.4-0.3,0.6
		s-0.1,0.5-0.1,0.8c0,0.3,0,0.5,0.1,0.8s0.2,0.4,0.3,0.6s0.3,0.3,0.5,0.4s0.4,0.1,0.7,0.1c0.1,0,0.3,0,0.4,0s0.3,0,0.4-0.1
		s0.3-0.1,0.4-0.1s0.3-0.1,0.4-0.1V93.3z"/>
	<path class="st2" d="M68.6,88.2h-1.2l-0.2-2.9h1.6L68.6,88.2z"/>
	<path class="st2" d="M74.5,93.5L74.1,92h-2.7L71,93.5h-1.4l2.3-7.7h2l2.3,7.7H74.5z M72.8,87.3l-1,3.6h2L72.8,87.3z"/>
	<path class="st2" d="M87.3,93.5l0-0.9c-0.1,0.2-0.3,0.3-0.4,0.4s-0.3,0.2-0.4,0.3s-0.3,0.2-0.5,0.2s-0.4,0.1-0.6,0.1
		c-0.4,0-0.7-0.1-0.9-0.2s-0.5-0.3-0.7-0.6s-0.3-0.6-0.4-0.9s-0.1-0.8-0.1-1.2c0-0.5,0.1-1,0.2-1.4s0.4-0.7,0.6-1s0.6-0.5,1-0.6
		s0.8-0.2,1.2-0.2c0.1,0,0.3,0,0.4,0s0.3,0,0.4,0.1v-2.3h1.4v8.3H87.3z M84.7,90.6c0,0.3,0,0.6,0.1,0.8s0.1,0.4,0.2,0.6
		s0.2,0.3,0.3,0.3s0.3,0.1,0.4,0.1c0.2,0,0.5-0.1,0.7-0.3s0.5-0.5,0.7-0.8v-2.6c-0.1,0-0.3-0.1-0.4-0.1s-0.3,0-0.5,0
		c-0.2,0-0.4,0-0.6,0.1s-0.3,0.2-0.5,0.4s-0.2,0.4-0.3,0.6S84.7,90.3,84.7,90.6z"/>
	<path class="st2" d="M95.2,90.1c0,0.1,0,0.2,0,0.4s0,0.3,0,0.4h-3.9c0,0.3,0,0.5,0.1,0.7s0.2,0.4,0.3,0.5s0.3,0.2,0.5,0.3
		s0.4,0.1,0.7,0.1c0.3,0,0.6,0,0.9-0.1s0.7-0.1,1-0.2v1.1c-0.2,0-0.3,0.1-0.5,0.1s-0.4,0.1-0.6,0.1s-0.4,0-0.6,0.1s-0.4,0-0.6,0
		c-0.5,0-0.9-0.1-1.2-0.2s-0.7-0.3-0.9-0.6S90.1,92.4,90,92s-0.2-0.8-0.2-1.3c0-0.5,0.1-0.9,0.2-1.3s0.3-0.7,0.6-1s0.5-0.5,0.9-0.7
		s0.7-0.2,1.2-0.2c0.4,0,0.8,0.1,1.1,0.2s0.6,0.3,0.8,0.5s0.4,0.5,0.5,0.8S95.2,89.7,95.2,90.1z M93.7,89.9c0-0.2,0-0.4-0.1-0.6
		s-0.1-0.3-0.3-0.4s-0.2-0.2-0.4-0.3s-0.3-0.1-0.5-0.1c-0.4,0-0.7,0.1-0.9,0.4s-0.4,0.6-0.4,1H93.7z"/>
	<path class="st2" d="M101.4,93.5c-0.3,0.1-0.5,0.1-0.8,0.1s-0.5,0.1-0.7,0.1c-0.4,0-0.7,0-1-0.1s-0.5-0.2-0.7-0.4s-0.3-0.4-0.4-0.6
		s-0.1-0.6-0.1-0.9v-2.9H96v-1.1h1.6v-1.5l1.5-0.4v1.9h2.3v1.1H99v2.8c0,0.3,0.1,0.6,0.2,0.8s0.4,0.3,0.8,0.3c0.2,0,0.5,0,0.7-0.1
		s0.4-0.1,0.6-0.1V93.5z"/>
	<path class="st2" d="M106.4,93.5l0-0.8c-0.1,0.1-0.3,0.3-0.4,0.4s-0.3,0.2-0.5,0.3s-0.3,0.1-0.5,0.2s-0.4,0.1-0.6,0.1
		c-0.3,0-0.6,0-0.8-0.1s-0.4-0.2-0.6-0.4s-0.3-0.4-0.4-0.6s-0.1-0.5-0.1-0.8c0-0.3,0.1-0.5,0.2-0.8s0.3-0.4,0.5-0.6s0.5-0.3,0.9-0.4
		s0.8-0.1,1.3-0.1h0.8v-0.4c0-0.2,0-0.3-0.1-0.4s-0.1-0.2-0.2-0.3s-0.2-0.2-0.4-0.2s-0.3-0.1-0.6-0.1c-0.4,0-0.7,0-1,0.1
		s-0.7,0.2-1,0.3v-1.1c0.3-0.1,0.6-0.2,1-0.3s0.8-0.1,1.2-0.1c0.4,0,0.8,0,1.1,0.1s0.6,0.2,0.8,0.4s0.4,0.4,0.5,0.6s0.1,0.5,0.1,0.9
		v4.1H106.4z M106.2,90.9h-0.9c-0.2,0-0.4,0-0.6,0.1s-0.3,0.1-0.4,0.2s-0.2,0.2-0.2,0.3s-0.1,0.2-0.1,0.3c0,0.2,0.1,0.4,0.2,0.6
		s0.4,0.2,0.6,0.2c0.2,0,0.4-0.1,0.6-0.2s0.5-0.4,0.7-0.6V90.9z"/>
	<path class="st2" d="M110.8,88.7h-1.7v-1.1h3.1v4.8h1.7v1.1h-5.1v-1.1h1.9V88.7z M112.4,86c0,0.1,0,0.2-0.1,0.4s-0.1,0.2-0.2,0.3
		s-0.2,0.2-0.3,0.2s-0.2,0.1-0.4,0.1s-0.3,0-0.4-0.1s-0.2-0.1-0.3-0.2s-0.1-0.2-0.2-0.3s-0.1-0.2-0.1-0.4s0-0.2,0.1-0.4
		s0.1-0.2,0.2-0.3s0.2-0.2,0.3-0.2s0.2-0.1,0.4-0.1s0.3,0,0.4,0.1s0.2,0.1,0.3,0.2s0.1,0.2,0.2,0.3S112.4,85.8,112.4,86z"/>
	<path class="st2" d="M117.1,86.4h-1.7v-1.1h3.1v7.2h1.7v1.1h-5.1v-1.1h1.9V86.4z"/>
	<path class="st2" d="M126.6,90.1c0,0.1,0,0.2,0,0.4s0,0.3,0,0.4h-3.9c0,0.3,0,0.5,0.1,0.7s0.2,0.4,0.3,0.5s0.3,0.2,0.5,0.3
		s0.4,0.1,0.7,0.1c0.3,0,0.6,0,0.9-0.1s0.7-0.1,1-0.2v1.1c-0.2,0-0.3,0.1-0.5,0.1s-0.4,0.1-0.6,0.1s-0.4,0-0.6,0.1s-0.4,0-0.6,0
		c-0.5,0-0.9-0.1-1.2-0.2s-0.7-0.3-0.9-0.6s-0.4-0.6-0.6-0.9s-0.2-0.8-0.2-1.3c0-0.5,0.1-0.9,0.2-1.3s0.3-0.7,0.6-1s0.5-0.5,0.9-0.7
		s0.7-0.2,1.2-0.2c0.4,0,0.8,0.1,1.1,0.2s0.6,0.3,0.8,0.5s0.4,0.5,0.5,0.8S126.6,89.7,126.6,90.1z M125.1,89.9c0-0.2,0-0.4-0.1-0.6
		s-0.1-0.3-0.3-0.4s-0.2-0.2-0.4-0.3s-0.3-0.1-0.5-0.1c-0.4,0-0.7,0.1-0.9,0.4s-0.4,0.6-0.4,1H125.1z"/>
	<path class="st2" d="M131.6,93.5l0-0.9c-0.1,0.2-0.3,0.3-0.4,0.4s-0.3,0.2-0.4,0.3s-0.3,0.2-0.5,0.2s-0.4,0.1-0.6,0.1
		c-0.4,0-0.7-0.1-0.9-0.2s-0.5-0.3-0.7-0.6s-0.3-0.6-0.4-0.9s-0.1-0.8-0.1-1.2c0-0.5,0.1-1,0.2-1.4s0.4-0.7,0.6-1s0.6-0.5,1-0.6
		s0.8-0.2,1.2-0.2c0.1,0,0.3,0,0.4,0s0.3,0,0.4,0.1v-2.3h1.4v8.3H131.6z M129,90.6c0,0.3,0,0.6,0.1,0.8s0.1,0.4,0.2,0.6
		s0.2,0.3,0.3,0.3s0.3,0.1,0.4,0.1c0.2,0,0.5-0.1,0.7-0.3s0.5-0.5,0.7-0.8v-2.6c-0.1,0-0.3-0.1-0.4-0.1s-0.3,0-0.5,0
		c-0.2,0-0.4,0-0.6,0.1s-0.3,0.2-0.5,0.4s-0.2,0.4-0.3,0.6S129,90.3,129,90.6z"/>
	<path class="st2" d="M144.8,93.5l0-0.9c-0.1,0.2-0.3,0.3-0.4,0.4s-0.3,0.2-0.4,0.3s-0.3,0.2-0.5,0.2s-0.4,0.1-0.6,0.1
		c-0.4,0-0.7-0.1-0.9-0.2s-0.5-0.3-0.7-0.6s-0.3-0.6-0.4-0.9s-0.1-0.8-0.1-1.2c0-0.5,0.1-1,0.2-1.4s0.4-0.7,0.6-1s0.6-0.5,1-0.6
		s0.8-0.2,1.2-0.2c0.1,0,0.3,0,0.4,0s0.3,0,0.4,0.1v-2.3h1.4v8.3H144.8z M142.2,90.6c0,0.3,0,0.6,0.1,0.8s0.1,0.4,0.2,0.6
		s0.2,0.3,0.3,0.3s0.3,0.1,0.4,0.1c0.2,0,0.5-0.1,0.7-0.3s0.5-0.5,0.7-0.8v-2.6c-0.1,0-0.3-0.1-0.4-0.1s-0.3,0-0.5,0
		c-0.2,0-0.4,0-0.6,0.1s-0.3,0.2-0.5,0.4s-0.2,0.4-0.3,0.6S142.2,90.3,142.2,90.6z"/>
	<path class="st2" d="M152.7,90.1c0,0.1,0,0.2,0,0.4s0,0.3,0,0.4h-3.9c0,0.3,0,0.5,0.1,0.7s0.2,0.4,0.3,0.5s0.3,0.2,0.5,0.3
		s0.4,0.1,0.7,0.1c0.3,0,0.6,0,0.9-0.1s0.7-0.1,1-0.2v1.1c-0.2,0-0.3,0.1-0.5,0.1s-0.4,0.1-0.6,0.1s-0.4,0-0.6,0.1s-0.4,0-0.6,0
		c-0.5,0-0.9-0.1-1.2-0.2s-0.7-0.3-0.9-0.6s-0.4-0.6-0.6-0.9s-0.2-0.8-0.2-1.3c0-0.5,0.1-0.9,0.2-1.3s0.3-0.7,0.6-1s0.5-0.5,0.9-0.7
		s0.7-0.2,1.2-0.2c0.4,0,0.8,0.1,1.1,0.2s0.6,0.3,0.8,0.5s0.4,0.5,0.5,0.8S152.7,89.7,152.7,90.1z M151.3,89.9c0-0.2,0-0.4-0.1-0.6
		s-0.1-0.3-0.3-0.4s-0.2-0.2-0.4-0.3s-0.3-0.1-0.5-0.1c-0.4,0-0.7,0.1-0.9,0.4s-0.4,0.6-0.4,1H151.3z"/>
	<path class="st2" d="M158.7,91.8c0,0.3-0.1,0.6-0.2,0.9s-0.3,0.4-0.6,0.6s-0.5,0.3-0.8,0.3s-0.6,0.1-1,0.1c-0.4,0-0.8,0-1.2-0.1
		s-0.7-0.1-1-0.2v-1.3c0.4,0.2,0.7,0.3,1.1,0.3s0.7,0.1,1,0.1c0.4,0,0.7-0.1,0.8-0.2s0.3-0.3,0.3-0.5c0-0.1,0-0.2-0.1-0.2
		s-0.1-0.1-0.2-0.2s-0.3-0.1-0.5-0.2s-0.5-0.2-0.8-0.2c-0.3-0.1-0.5-0.2-0.8-0.3s-0.4-0.2-0.5-0.4s-0.3-0.3-0.3-0.5
		s-0.1-0.4-0.1-0.7c0-0.2,0.1-0.5,0.2-0.7s0.3-0.4,0.5-0.6s0.5-0.3,0.8-0.4s0.7-0.1,1.1-0.1c0.4,0,0.7,0,1,0.1s0.5,0.1,0.8,0.1v1.2
		c-0.3-0.1-0.7-0.2-1-0.2s-0.6-0.1-0.9-0.1s-0.5,0.1-0.7,0.2s-0.3,0.3-0.3,0.4c0,0.1,0,0.2,0.1,0.2s0.1,0.1,0.2,0.2s0.2,0.1,0.4,0.2
		s0.4,0.2,0.7,0.2c0.3,0.1,0.6,0.2,0.9,0.3s0.4,0.2,0.6,0.4s0.2,0.3,0.3,0.5S158.7,91.6,158.7,91.8z"/>
	<path class="st2" d="M164.8,93.3c-0.3,0.1-0.6,0.2-0.9,0.3s-0.6,0.1-0.9,0.1c-0.5,0-0.9-0.1-1.3-0.2s-0.7-0.3-1-0.6
		s-0.5-0.6-0.6-0.9s-0.2-0.8-0.2-1.3c0-0.5,0.1-0.9,0.2-1.3s0.4-0.7,0.6-1s0.6-0.5,1-0.6s0.8-0.2,1.3-0.2c0.4,0,0.7,0,1,0.1
		s0.5,0.1,0.7,0.2v1.4c-0.2-0.1-0.5-0.2-0.8-0.3s-0.6-0.1-0.8-0.1c-0.3,0-0.5,0-0.7,0.1s-0.4,0.2-0.5,0.4s-0.3,0.4-0.3,0.6
		s-0.1,0.5-0.1,0.8c0,0.3,0,0.5,0.1,0.8s0.2,0.4,0.3,0.6s0.3,0.3,0.5,0.4s0.4,0.1,0.7,0.1c0.1,0,0.3,0,0.4,0s0.3,0,0.4-0.1
		s0.3-0.1,0.4-0.1s0.3-0.1,0.4-0.1V93.3z"/>
	<path class="st2" d="M170,89.9c0-0.2,0-0.4,0-0.6s-0.1-0.3-0.1-0.4s-0.1-0.2-0.2-0.2s-0.2-0.1-0.3-0.1c-0.2,0-0.4,0.1-0.7,0.3
		s-0.5,0.5-0.7,0.9v3.8h-1.5v-6h1.3l0.1,0.9c0.1-0.2,0.2-0.3,0.3-0.4s0.3-0.2,0.4-0.3s0.3-0.2,0.5-0.2s0.4-0.1,0.6-0.1
		c0.3,0,0.6,0.1,0.8,0.2s0.4,0.3,0.6,0.5s0.3,0.5,0.4,0.8s0.1,0.7,0.1,1.1H170z"/>
	<path class="st2" d="M174.3,88.7h-1.7v-1.1h3.1v4.8h1.7v1.1h-5.1v-1.1h1.9V88.7z M175.9,86c0,0.1,0,0.2-0.1,0.4s-0.1,0.2-0.2,0.3
		s-0.2,0.2-0.3,0.2s-0.2,0.1-0.4,0.1s-0.3,0-0.4-0.1s-0.2-0.1-0.3-0.2s-0.1-0.2-0.2-0.3S174,86.1,174,86s0-0.2,0.1-0.4
		s0.1-0.2,0.2-0.3s0.2-0.2,0.3-0.2s0.2-0.1,0.4-0.1s0.3,0,0.4,0.1s0.2,0.1,0.3,0.2s0.1,0.2,0.2,0.3S175.9,85.8,175.9,86z"/>
	<path class="st2" d="M184,90.5c0,0.5-0.1,1-0.2,1.4s-0.4,0.7-0.6,1s-0.6,0.5-1,0.6s-0.8,0.2-1.2,0.2c-0.1,0-0.3,0-0.4,0
		s-0.3,0-0.4-0.1v2.3h-1.4v-8.3h1.2l0,0.9c0.1-0.2,0.2-0.3,0.4-0.4s0.3-0.2,0.4-0.3s0.3-0.2,0.5-0.2s0.4-0.1,0.6-0.1
		c0.4,0,0.7,0.1,0.9,0.2s0.5,0.3,0.7,0.6s0.3,0.6,0.4,0.9S184,90,184,90.5z M182.5,90.5c0-0.3,0-0.6-0.1-0.8s-0.1-0.4-0.2-0.6
		s-0.2-0.3-0.3-0.3s-0.3-0.1-0.4-0.1c-0.2,0-0.5,0.1-0.7,0.3s-0.5,0.5-0.7,0.8v2.6c0.1,0,0.3,0.1,0.4,0.1s0.3,0,0.5,0
		c0.2,0,0.4,0,0.6-0.1s0.3-0.2,0.5-0.4s0.2-0.4,0.3-0.6S182.5,90.8,182.5,90.5z"/>
	<path class="st2" d="M190.1,93.5c-0.3,0.1-0.5,0.1-0.8,0.1s-0.5,0.1-0.7,0.1c-0.4,0-0.7,0-1-0.1s-0.5-0.2-0.7-0.4s-0.3-0.4-0.4-0.6
		s-0.1-0.6-0.1-0.9v-2.9h-1.6v-1.1h1.6v-1.5l1.5-0.4v1.9h2.3v1.1h-2.3v2.8c0,0.3,0.1,0.6,0.2,0.8s0.4,0.3,0.8,0.3
		c0.2,0,0.5,0,0.7-0.1s0.4-0.1,0.6-0.1V93.5z"/>
	<path class="st2" d="M193.2,88.7h-1.7v-1.1h3.1v4.8h1.7v1.1h-5.1v-1.1h1.9V88.7z M194.8,86c0,0.1,0,0.2-0.1,0.4s-0.1,0.2-0.2,0.3
		s-0.2,0.2-0.3,0.2s-0.2,0.1-0.4,0.1s-0.3,0-0.4-0.1s-0.2-0.1-0.3-0.2s-0.1-0.2-0.2-0.3s-0.1-0.2-0.1-0.4s0-0.2,0.1-0.4
		s0.1-0.2,0.2-0.3s0.2-0.2,0.3-0.2s0.2-0.1,0.4-0.1s0.3,0,0.4,0.1s0.2,0.1,0.3,0.2s0.1,0.2,0.2,0.3S194.8,85.8,194.8,86z"/>
	<path class="st2" d="M203,90.5c0,0.5-0.1,0.9-0.2,1.3s-0.3,0.7-0.6,1s-0.6,0.5-0.9,0.6s-0.8,0.2-1.2,0.2c-0.4,0-0.8-0.1-1.2-0.2
		s-0.6-0.3-0.9-0.6s-0.4-0.6-0.6-1s-0.2-0.8-0.2-1.3c0-0.5,0.1-0.9,0.2-1.3s0.3-0.7,0.6-1s0.6-0.5,0.9-0.6s0.8-0.2,1.2-0.2
		c0.4,0,0.8,0.1,1.2,0.2s0.6,0.3,0.9,0.6s0.4,0.6,0.6,1S203,90,203,90.5z M201.5,90.6c0-0.6-0.1-1.1-0.3-1.4s-0.6-0.5-1-0.5
		c-0.2,0-0.5,0-0.6,0.1s-0.3,0.2-0.4,0.4s-0.2,0.4-0.2,0.6s-0.1,0.5-0.1,0.7c0,0.6,0.1,1.1,0.4,1.4s0.6,0.5,1,0.5
		c0.2,0,0.4,0,0.6-0.1s0.3-0.2,0.4-0.4s0.2-0.4,0.2-0.6S201.5,90.8,201.5,90.6z"/>
	<path class="st2" d="M207.7,93.5v-3.9c0-0.7-0.2-1-0.7-1c-0.2,0-0.5,0.1-0.7,0.3s-0.5,0.5-0.7,0.8v3.8h-1.4v-6h1.2l0,0.9
		c0.1-0.2,0.2-0.3,0.4-0.4s0.3-0.2,0.4-0.3s0.3-0.2,0.5-0.2s0.4-0.1,0.6-0.1c0.3,0,0.6,0,0.8,0.1s0.4,0.2,0.6,0.4s0.3,0.4,0.3,0.7
		s0.1,0.5,0.1,0.9v4H207.7z"/>
	<path class="st2" d="M221.1,93.5l0-0.8c-0.1,0.1-0.3,0.3-0.4,0.4s-0.3,0.2-0.5,0.3s-0.3,0.1-0.5,0.2s-0.4,0.1-0.6,0.1
		c-0.3,0-0.6,0-0.8-0.1s-0.4-0.2-0.6-0.4s-0.3-0.4-0.4-0.6s-0.1-0.5-0.1-0.8c0-0.3,0.1-0.5,0.2-0.8s0.3-0.4,0.5-0.6s0.5-0.3,0.9-0.4
		s0.8-0.1,1.3-0.1h0.8v-0.4c0-0.2,0-0.3-0.1-0.4s-0.1-0.2-0.2-0.3s-0.2-0.2-0.4-0.2s-0.3-0.1-0.6-0.1c-0.4,0-0.7,0-1,0.1
		s-0.7,0.2-1,0.3v-1.1c0.3-0.1,0.6-0.2,1-0.3s0.8-0.1,1.2-0.1c0.4,0,0.8,0,1.1,0.1s0.6,0.2,0.8,0.4s0.4,0.4,0.5,0.6s0.1,0.5,0.1,0.9
		v4.1H221.1z M220.9,90.9H220c-0.2,0-0.4,0-0.6,0.1s-0.3,0.1-0.4,0.2s-0.2,0.2-0.2,0.3s-0.1,0.2-0.1,0.3c0,0.2,0.1,0.4,0.2,0.6
		s0.4,0.2,0.6,0.2c0.2,0,0.4-0.1,0.6-0.2s0.5-0.4,0.7-0.6V90.9z"/>
	<path class="st2" d="M229.2,90.5c0,0.5-0.1,1-0.2,1.4s-0.4,0.7-0.6,1s-0.6,0.5-1,0.6s-0.8,0.2-1.2,0.2c-0.4,0-0.8,0-1.2-0.1
		s-0.7-0.2-1.1-0.3v-8h1.4v1.9l-0.1,1.2c0.2-0.3,0.5-0.5,0.8-0.7s0.6-0.3,1-0.3c0.4,0,0.7,0.1,0.9,0.2s0.5,0.3,0.7,0.6
		s0.3,0.6,0.4,0.9S229.2,90,229.2,90.5z M227.7,90.5c0-0.3,0-0.6-0.1-0.8s-0.1-0.4-0.2-0.6s-0.2-0.3-0.3-0.3s-0.3-0.1-0.4-0.1
		c-0.2,0-0.5,0.1-0.7,0.3s-0.5,0.5-0.7,0.8v2.6c0.1,0,0.3,0.1,0.4,0.1s0.3,0,0.5,0c0.2,0,0.4,0,0.6-0.1s0.3-0.2,0.5-0.4
		s0.2-0.4,0.3-0.6S227.7,90.8,227.7,90.5z"/>
	<path class="st2" d="M235.8,90.5c0,0.5-0.1,0.9-0.2,1.3s-0.3,0.7-0.6,1s-0.6,0.5-0.9,0.6s-0.8,0.2-1.2,0.2c-0.4,0-0.8-0.1-1.2-0.2
		s-0.6-0.3-0.9-0.6s-0.4-0.6-0.6-1s-0.2-0.8-0.2-1.3c0-0.5,0.1-0.9,0.2-1.3s0.3-0.7,0.6-1s0.6-0.5,0.9-0.6s0.8-0.2,1.2-0.2
		c0.4,0,0.8,0.1,1.2,0.2s0.6,0.3,0.9,0.6s0.4,0.6,0.6,1S235.8,90,235.8,90.5z M234.3,90.6c0-0.6-0.1-1.1-0.3-1.4s-0.6-0.5-1-0.5
		c-0.2,0-0.5,0-0.6,0.1s-0.3,0.2-0.4,0.4s-0.2,0.4-0.2,0.6s-0.1,0.5-0.1,0.7c0,0.6,0.1,1.1,0.4,1.4s0.6,0.5,1,0.5
		c0.2,0,0.4,0,0.6-0.1s0.3-0.2,0.4-0.4s0.2-0.4,0.2-0.6S234.3,90.8,234.3,90.6z"/>
	<path class="st2" d="M238.4,87.6v3.9c0,0.3,0.1,0.6,0.2,0.7s0.3,0.2,0.6,0.2c0.2,0,0.5-0.1,0.7-0.3s0.5-0.5,0.7-0.8v-3.8h1.4v6
		h-1.2l0-0.9c-0.1,0.2-0.3,0.3-0.4,0.4s-0.3,0.2-0.4,0.3s-0.3,0.2-0.5,0.2s-0.4,0.1-0.6,0.1c-0.3,0-0.6,0-0.8-0.1s-0.4-0.2-0.6-0.4
		s-0.3-0.4-0.3-0.7s-0.1-0.5-0.1-0.9v-4H238.4z"/>
	<path class="st2" d="M248.3,93.5c-0.3,0.1-0.5,0.1-0.8,0.1s-0.5,0.1-0.7,0.1c-0.4,0-0.7,0-1-0.1s-0.5-0.2-0.7-0.4s-0.3-0.4-0.4-0.6
		s-0.1-0.6-0.1-0.9v-2.9h-1.6v-1.1h1.6v-1.5l1.5-0.4v1.9h2.3v1.1H246v2.8c0,0.3,0.1,0.6,0.2,0.8s0.4,0.3,0.8,0.3
		c0.2,0,0.5,0,0.7-0.1s0.4-0.1,0.6-0.1V93.5z"/>
	<path class="st2" d="M261.5,93.5h-1.6l-0.6-1.9l-0.2-0.7l-0.2,0.7l-0.6,1.9h-1.6l-0.8-6h1.4l0.4,3.4l0.1,0.9l0.2-0.8l0.6-1.8h1.1
		l0.6,1.8l0.3,0.8l0.1-0.9l0.4-3.4h1.3L261.5,93.5z"/>
	<path class="st2" d="M266.8,93.5v-3.9c0-0.7-0.2-1-0.7-1c-0.2,0-0.5,0.1-0.7,0.3s-0.5,0.5-0.7,0.8v3.8h-1.4v-8.3h1.4v2l-0.1,1.1
		c0.1-0.1,0.2-0.3,0.4-0.4s0.3-0.2,0.4-0.3s0.3-0.1,0.5-0.2s0.4-0.1,0.6-0.1c0.3,0,0.6,0,0.8,0.1s0.4,0.2,0.6,0.4s0.3,0.4,0.3,0.7
		s0.1,0.5,0.1,0.9v4H266.8z"/>
	<path class="st2" d="M273.2,92.9c-0.2,0.5-0.4,1-0.6,1.4s-0.5,0.7-0.7,1s-0.6,0.5-0.9,0.6s-0.7,0.2-1.1,0.2c-0.1,0-0.2,0-0.3,0
		s-0.2,0-0.4,0v-1.2c0,0,0.1,0,0.2,0s0.1,0,0.2,0s0.1,0,0.2,0s0.1,0,0.2,0c0.2,0,0.3,0,0.5-0.1s0.3-0.1,0.4-0.3s0.2-0.2,0.3-0.4
		s0.2-0.3,0.3-0.5l-2.4-6h1.6l1.2,3.4l0.4,1.1l0.4-1l1.2-3.4h1.5L273.2,92.9z"/>
	<path class="st2" d="M287.7,93.5h-1.6l-0.6-1.9l-0.2-0.7l-0.2,0.7l-0.6,1.9h-1.6l-0.8-6h1.4l0.4,3.4l0.1,0.9l0.2-0.8l0.6-1.8h1.1
		l0.6,1.8l0.3,0.8l0.1-0.9l0.4-3.4h1.3L287.7,93.5z"/>
	<path class="st2" d="M294.6,90.1c0,0.1,0,0.2,0,0.4s0,0.3,0,0.4h-3.9c0,0.3,0,0.5,0.1,0.7s0.2,0.4,0.3,0.5s0.3,0.2,0.5,0.3
		s0.4,0.1,0.7,0.1c0.3,0,0.6,0,0.9-0.1s0.7-0.1,1-0.2v1.1c-0.2,0-0.3,0.1-0.5,0.1s-0.4,0.1-0.6,0.1s-0.4,0-0.6,0.1s-0.4,0-0.6,0
		c-0.5,0-0.9-0.1-1.2-0.2s-0.7-0.3-0.9-0.6s-0.4-0.6-0.6-0.9s-0.2-0.8-0.2-1.3c0-0.5,0.1-0.9,0.2-1.3s0.3-0.7,0.6-1s0.5-0.5,0.9-0.7
		s0.7-0.2,1.2-0.2c0.4,0,0.8,0.1,1.1,0.2s0.6,0.3,0.8,0.5s0.4,0.5,0.5,0.8S294.6,89.7,294.6,90.1z M293.1,89.9c0-0.2,0-0.4-0.1-0.6
		s-0.1-0.3-0.3-0.4s-0.2-0.2-0.4-0.3s-0.3-0.1-0.5-0.1c-0.4,0-0.7,0.1-0.9,0.4s-0.4,0.6-0.4,1H293.1z"/>
	<path class="st2" d="M307.4,93.5h-1.6l-0.6-1.9L305,91l-0.2,0.7l-0.6,1.9h-1.6l-0.8-6h1.4l0.4,3.4l0.1,0.9l0.2-0.8l0.6-1.8h1.1
		l0.6,1.8l0.3,0.8l0.1-0.9l0.4-3.4h1.3L307.4,93.5z"/>
	<path class="st2" d="M312.8,93.5l0-0.8c-0.1,0.1-0.3,0.3-0.4,0.4s-0.3,0.2-0.5,0.3s-0.3,0.1-0.5,0.2s-0.4,0.1-0.6,0.1
		c-0.3,0-0.6,0-0.8-0.1s-0.4-0.2-0.6-0.4s-0.3-0.4-0.4-0.6s-0.1-0.5-0.1-0.8c0-0.3,0.1-0.5,0.2-0.8s0.3-0.4,0.5-0.6s0.5-0.3,0.9-0.4
		s0.8-0.1,1.3-0.1h0.8v-0.4c0-0.2,0-0.3-0.1-0.4s-0.1-0.2-0.2-0.3s-0.2-0.2-0.4-0.2s-0.3-0.1-0.6-0.1c-0.4,0-0.7,0-1,0.1
		s-0.7,0.2-1,0.3v-1.1c0.3-0.1,0.6-0.2,1-0.3s0.8-0.1,1.2-0.1c0.4,0,0.8,0,1.1,0.1s0.6,0.2,0.8,0.4s0.4,0.4,0.5,0.6s0.1,0.5,0.1,0.9
		v4.1H312.8z M312.6,90.9h-0.9c-0.2,0-0.4,0-0.6,0.1s-0.3,0.1-0.4,0.2s-0.2,0.2-0.2,0.3s-0.1,0.2-0.1,0.3c0,0.2,0.1,0.4,0.2,0.6
		s0.4,0.2,0.6,0.2c0.2,0,0.4-0.1,0.6-0.2s0.5-0.4,0.7-0.6V90.9z"/>
	<path class="st2" d="M319.1,93.5v-3.9c0-0.7-0.2-1-0.7-1c-0.2,0-0.5,0.1-0.7,0.3s-0.5,0.5-0.7,0.8v3.8h-1.4v-6h1.2l0,0.9
		c0.1-0.2,0.2-0.3,0.4-0.4s0.3-0.2,0.4-0.3s0.3-0.2,0.5-0.2s0.4-0.1,0.6-0.1c0.3,0,0.6,0,0.8,0.1s0.4,0.2,0.6,0.4s0.3,0.4,0.3,0.7
		s0.1,0.5,0.1,0.9v4H319.1z"/>
	<path class="st2" d="M326.9,93.5c-0.3,0.1-0.5,0.1-0.8,0.1s-0.5,0.1-0.7,0.1c-0.4,0-0.7,0-1-0.1s-0.5-0.2-0.7-0.4s-0.3-0.4-0.4-0.6
		s-0.1-0.6-0.1-0.9v-2.9h-1.6v-1.1h1.6v-1.5l1.5-0.4v1.9h2.3v1.1h-2.3v2.8c0,0.3,0.1,0.6,0.2,0.8s0.4,0.3,0.8,0.3
		c0.2,0,0.5,0,0.7-0.1s0.4-0.1,0.6-0.1V93.5z"/>
	<path class="st2" d="M340.1,93.5c-0.3,0.1-0.5,0.1-0.8,0.1s-0.5,0.1-0.7,0.1c-0.4,0-0.7,0-1-0.1s-0.5-0.2-0.7-0.4s-0.3-0.4-0.4-0.6
		s-0.1-0.6-0.1-0.9v-2.9h-1.6v-1.1h1.6v-1.5l1.5-0.4v1.9h2.3v1.1h-2.3v2.8c0,0.3,0.1,0.6,0.2,0.8s0.4,0.3,0.8,0.3
		c0.2,0,0.5,0,0.7-0.1s0.4-0.1,0.6-0.1V93.5z"/>
	<path class="st2" d="M345,93.5v-3.9c0-0.7-0.2-1-0.7-1c-0.2,0-0.5,0.1-0.7,0.3s-0.5,0.5-0.7,0.8v3.8h-1.4v-8.3h1.4v2l-0.1,1.1
		c0.1-0.1,0.2-0.3,0.4-0.4s0.3-0.2,0.4-0.3s0.3-0.1,0.5-0.2s0.4-0.1,0.6-0.1c0.3,0,0.6,0,0.8,0.1s0.4,0.2,0.6,0.4s0.3,0.4,0.3,0.7
		s0.1,0.5,0.1,0.9v4H345z"/>
	<path class="st2" d="M349.6,88.7h-1.7v-1.1h3.1v4.8h1.7v1.1h-5.1v-1.1h1.9V88.7z M351.1,86c0,0.1,0,0.2-0.1,0.4s-0.1,0.2-0.2,0.3
		s-0.2,0.2-0.3,0.2s-0.2,0.1-0.4,0.1s-0.3,0-0.4-0.1s-0.2-0.1-0.3-0.2s-0.1-0.2-0.2-0.3s-0.1-0.2-0.1-0.4s0-0.2,0.1-0.4
		s0.1-0.2,0.2-0.3s0.2-0.2,0.3-0.2s0.2-0.1,0.4-0.1s0.3,0,0.4,0.1s0.2,0.1,0.3,0.2s0.2,0.2,0.2,0.3S351.1,85.8,351.1,86z"/>
	<path class="st2" d="M358.8,91.8c0,0.3-0.1,0.6-0.2,0.9s-0.3,0.4-0.6,0.6s-0.5,0.3-0.8,0.3s-0.6,0.1-1,0.1c-0.4,0-0.8,0-1.2-0.1
		s-0.7-0.1-1-0.2v-1.3c0.4,0.2,0.7,0.3,1.1,0.3s0.7,0.1,1,0.1c0.4,0,0.7-0.1,0.8-0.2s0.3-0.3,0.3-0.5c0-0.1,0-0.2-0.1-0.2
		s-0.1-0.1-0.2-0.2s-0.3-0.1-0.5-0.2s-0.5-0.2-0.8-0.2c-0.3-0.1-0.5-0.2-0.8-0.3s-0.4-0.2-0.5-0.4s-0.3-0.3-0.3-0.5
		s-0.1-0.4-0.1-0.7c0-0.2,0.1-0.5,0.2-0.7s0.3-0.4,0.5-0.6s0.5-0.3,0.8-0.4s0.7-0.1,1.1-0.1c0.4,0,0.7,0,1,0.1s0.5,0.1,0.8,0.1v1.2
		c-0.3-0.1-0.7-0.2-1-0.2s-0.6-0.1-0.9-0.1s-0.5,0.1-0.7,0.2s-0.3,0.3-0.3,0.4c0,0.1,0,0.2,0.1,0.2s0.1,0.1,0.2,0.2s0.2,0.1,0.4,0.2
		s0.4,0.2,0.7,0.2c0.3,0.1,0.6,0.2,0.9,0.3s0.4,0.2,0.6,0.4s0.2,0.3,0.3,0.5S358.8,91.6,358.8,91.8z"/>
	<path class="st2" d="M361.8,91.4c0.2,0,0.3,0,0.5,0.1s0.3,0.1,0.4,0.2s0.2,0.2,0.2,0.4s0.1,0.3,0.1,0.5c0,0.2,0,0.3-0.1,0.4
		s-0.1,0.3-0.2,0.4s-0.2,0.2-0.4,0.2s-0.3,0.1-0.5,0.1c-0.2,0-0.3,0-0.4-0.1s-0.3-0.1-0.4-0.2s-0.2-0.2-0.2-0.4s-0.1-0.3-0.1-0.4
		c0-0.2,0-0.3,0.1-0.5s0.1-0.3,0.2-0.4s0.2-0.2,0.4-0.2S361.6,91.4,361.8,91.4z"/>
	<path class="st2" d="M366.5,91.4c0.2,0,0.3,0,0.5,0.1s0.3,0.1,0.4,0.2s0.2,0.2,0.2,0.4s0.1,0.3,0.1,0.5c0,0.2,0,0.3-0.1,0.4
		s-0.1,0.3-0.2,0.4s-0.2,0.2-0.4,0.2s-0.3,0.1-0.5,0.1c-0.2,0-0.3,0-0.4-0.1s-0.3-0.1-0.4-0.2s-0.2-0.2-0.2-0.4s-0.1-0.3-0.1-0.4
		c0-0.2,0-0.3,0.1-0.5s0.1-0.3,0.2-0.4s0.2-0.2,0.4-0.2S366.4,91.4,366.5,91.4z"/>
	<path class="st2" d="M371.3,91.4c0.2,0,0.3,0,0.5,0.1s0.3,0.1,0.4,0.2s0.2,0.2,0.2,0.4s0.1,0.3,0.1,0.5c0,0.2,0,0.3-0.1,0.4
		s-0.1,0.3-0.2,0.4s-0.2,0.2-0.4,0.2s-0.3,0.1-0.5,0.1c-0.2,0-0.3,0-0.4-0.1s-0.3-0.1-0.4-0.2s-0.2-0.2-0.2-0.4s-0.1-0.3-0.1-0.4
		c0-0.2,0-0.3,0.1-0.5s0.1-0.3,0.2-0.4s0.2-0.2,0.4-0.2S371.1,91.4,371.3,91.4z"/>
	<path class="st2" d="M375.8,88.2h-1.2l-0.2-2.9h1.6L375.8,88.2z"/>
	<path class="st2" d="M35.3,109.5h-1.7v-1.1h3.1v4.8h1.7v1.1h-5.1v-1.1h1.9V109.5z M36.9,106.8c0,0.1,0,0.2-0.1,0.4
		s-0.1,0.2-0.2,0.3s-0.2,0.2-0.3,0.2s-0.2,0.1-0.4,0.1s-0.3,0-0.4-0.1s-0.2-0.1-0.3-0.2s-0.1-0.2-0.2-0.3s-0.1-0.2-0.1-0.4
		s0-0.2,0.1-0.4s0.1-0.2,0.2-0.3s0.2-0.2,0.3-0.2s0.2-0.1,0.4-0.1s0.3,0,0.4,0.1s0.2,0.1,0.3,0.2s0.1,0.2,0.2,0.3
		S36.9,106.7,36.9,106.8z"/>
	<path class="st2" d="M44.1,114.4v-4.1c0-0.1,0-0.3,0-0.4s0-0.2,0-0.3s-0.1-0.1-0.1-0.2s-0.1-0.1-0.2-0.1c-0.1,0-0.2,0.1-0.4,0.2
		s-0.2,0.4-0.4,0.8v3.9h-1.2v-4.1c0-0.1,0-0.3,0-0.4s0-0.2,0-0.3s-0.1-0.1-0.1-0.2s-0.1-0.1-0.2-0.1c-0.1,0-0.2,0.1-0.3,0.2
		s-0.3,0.4-0.4,0.8v3.9h-1.2v-6h1.1l0,0.9c0.1-0.2,0.2-0.3,0.3-0.5s0.2-0.2,0.3-0.3s0.2-0.1,0.3-0.2s0.2-0.1,0.4-0.1
		c0.3,0,0.6,0.1,0.8,0.3s0.3,0.4,0.3,0.7c0.1-0.2,0.2-0.3,0.3-0.5s0.2-0.2,0.3-0.3s0.2-0.1,0.3-0.2s0.2-0.1,0.4-0.1
		c0.4,0,0.8,0.2,1,0.5s0.3,0.8,0.3,1.3v4.3H44.1z"/>
	<path class="st2" d="M52,111.3c0,0.5-0.1,1-0.2,1.4s-0.4,0.7-0.6,1s-0.6,0.5-1,0.6s-0.8,0.2-1.2,0.2c-0.1,0-0.3,0-0.4,0
		s-0.3,0-0.4-0.1v2.3h-1.4v-8.3h1.2l0,0.9c0.1-0.2,0.2-0.3,0.4-0.4s0.3-0.2,0.4-0.3s0.3-0.2,0.5-0.2s0.4-0.1,0.6-0.1
		c0.4,0,0.7,0.1,0.9,0.2s0.5,0.3,0.7,0.6s0.3,0.6,0.4,0.9S52,110.8,52,111.3z M50.5,111.3c0-0.3,0-0.6-0.1-0.8s-0.1-0.4-0.2-0.6
		s-0.2-0.3-0.3-0.3s-0.3-0.1-0.4-0.1c-0.2,0-0.5,0.1-0.7,0.3s-0.5,0.5-0.7,0.8v2.6c0.1,0,0.3,0.1,0.4,0.1s0.3,0,0.5,0
		c0.2,0,0.4,0,0.6-0.1s0.3-0.2,0.5-0.4s0.2-0.4,0.3-0.6S50.5,111.7,50.5,111.3z"/>
	<path class="st2" d="M56.8,114.4l0-0.8c-0.1,0.1-0.3,0.3-0.4,0.4s-0.3,0.2-0.5,0.3s-0.3,0.1-0.5,0.2s-0.4,0.1-0.6,0.1
		c-0.3,0-0.6,0-0.8-0.1s-0.4-0.2-0.6-0.4s-0.3-0.4-0.4-0.6s-0.1-0.5-0.1-0.8c0-0.3,0.1-0.5,0.2-0.8s0.3-0.4,0.5-0.6s0.5-0.3,0.9-0.4
		s0.8-0.1,1.3-0.1h0.8v-0.4c0-0.2,0-0.3-0.1-0.4s-0.1-0.2-0.2-0.3s-0.2-0.2-0.4-0.2s-0.3-0.1-0.6-0.1c-0.4,0-0.7,0-1,0.1
		s-0.7,0.2-1,0.3v-1.1c0.3-0.1,0.6-0.2,1-0.3s0.8-0.1,1.2-0.1c0.4,0,0.8,0,1.1,0.1s0.6,0.2,0.8,0.4s0.4,0.4,0.5,0.6s0.1,0.5,0.1,0.9
		v4.1H56.8z M56.6,111.7h-0.9c-0.2,0-0.4,0-0.6,0.1s-0.3,0.1-0.4,0.2s-0.2,0.2-0.2,0.3s-0.1,0.2-0.1,0.3c0,0.2,0.1,0.4,0.2,0.6
		s0.4,0.2,0.6,0.2c0.2,0,0.4-0.1,0.6-0.2s0.5-0.4,0.7-0.6V111.7z"/>
	<path class="st2" d="M64.2,114.1c-0.3,0.1-0.6,0.2-0.9,0.3s-0.6,0.1-0.9,0.1c-0.5,0-0.9-0.1-1.3-0.2s-0.7-0.3-1-0.6
		s-0.5-0.6-0.6-0.9s-0.2-0.8-0.2-1.3c0-0.5,0.1-0.9,0.2-1.3s0.4-0.7,0.6-1s0.6-0.5,1-0.6s0.8-0.2,1.3-0.2c0.4,0,0.7,0,1,0.1
		s0.5,0.1,0.7,0.2v1.4c-0.2-0.1-0.5-0.2-0.8-0.3s-0.6-0.1-0.8-0.1c-0.3,0-0.5,0-0.7,0.1s-0.4,0.2-0.5,0.4s-0.3,0.4-0.3,0.6
		s-0.1,0.5-0.1,0.8c0,0.3,0,0.5,0.1,0.8s0.2,0.4,0.3,0.6s0.3,0.3,0.5,0.4s0.4,0.1,0.7,0.1c0.1,0,0.3,0,0.4,0s0.3,0,0.4-0.1
		s0.3-0.1,0.4-0.1s0.3-0.1,0.4-0.1V114.1z"/>
	<path class="st2" d="M70.6,114.3c-0.3,0.1-0.5,0.1-0.8,0.1s-0.5,0.1-0.7,0.1c-0.4,0-0.7,0-1-0.1s-0.5-0.2-0.7-0.4s-0.3-0.4-0.4-0.6
		s-0.1-0.6-0.1-0.9v-2.9h-1.6v-1.1h1.6v-1.5l1.5-0.4v1.9h2.3v1.1h-2.3v2.8c0,0.3,0.1,0.6,0.2,0.8s0.4,0.3,0.8,0.3
		c0.2,0,0.5,0,0.7-0.1s0.4-0.1,0.6-0.1V114.3z"/>
	<path class="st2" d="M79,114.4v-1.3h2v-4.9l-1.7,0.9l-0.5-1.2l2.4-1.3h1.2v6.4h1.7v1.3H79z"/>
	<path class="st2" d="M87,112.2c0.2,0,0.3,0,0.5,0.1s0.3,0.1,0.4,0.2s0.2,0.2,0.2,0.4s0.1,0.3,0.1,0.5c0,0.2,0,0.3-0.1,0.4
		s-0.1,0.3-0.2,0.4s-0.2,0.2-0.4,0.2s-0.3,0.1-0.5,0.1c-0.2,0-0.3,0-0.4-0.1s-0.3-0.1-0.4-0.2s-0.2-0.2-0.2-0.4s-0.1-0.3-0.1-0.4
		c0-0.2,0-0.3,0.1-0.5s0.1-0.3,0.2-0.4s0.2-0.2,0.4-0.2S86.8,112.2,87,112.2z"/>
	<path class="st2" d="M95.5,110.5c0,0.6-0.1,1.2-0.2,1.7s-0.3,0.9-0.6,1.3s-0.6,0.6-1,0.8s-0.8,0.3-1.3,0.3c-0.4,0-0.8-0.1-1.2-0.2
		s-0.7-0.4-0.9-0.7s-0.5-0.7-0.6-1.2s-0.2-1.1-0.2-1.8c0-0.6,0.1-1.2,0.2-1.7s0.3-0.9,0.6-1.3s0.6-0.6,1-0.8s0.8-0.3,1.3-0.3
		c0.4,0,0.8,0.1,1.2,0.2s0.7,0.4,0.9,0.7s0.5,0.7,0.6,1.2S95.5,109.8,95.5,110.5z M90.9,110.5c0,0.1,0,0.2,0,0.2s0,0.1,0,0.2
		l2.9-2.1c-0.1-0.4-0.3-0.7-0.5-0.9s-0.5-0.3-0.8-0.3c-0.2,0-0.4,0.1-0.6,0.2s-0.4,0.3-0.5,0.5s-0.2,0.5-0.3,0.9
		S90.9,110.1,90.9,110.5z M94,110.6c0-0.1,0-0.1,0-0.2s0-0.1,0-0.2l-2.9,2.1c0.1,0.4,0.3,0.7,0.5,0.8s0.5,0.3,0.8,0.3
		c0.2,0,0.4-0.1,0.6-0.2s0.4-0.3,0.5-0.5s0.2-0.5,0.3-0.9S94,111,94,110.6z"/>
	<path class="st2" d="M107.3,112.4l-0.2,2h-1.1l0.2-2h-1.4l-0.2,2h-1.1l0.2-2h-1v-1.1h1.1l0.2-1.7h-1v-1.1h1.1l0.2-1.8h1.1l-0.2,1.8
		h1.4l0.2-1.8h1.1l-0.2,1.8h1v1.1h-1.1l-0.2,1.7h1v1.1H107.3z M106.4,109.6h-1.4l-0.2,1.7h1.4L106.4,109.6z"/>
	<path class="st2" d="M114.7,114.3c-0.3,0.1-0.5,0.1-0.8,0.1s-0.5,0.1-0.7,0.1c-0.4,0-0.7,0-1-0.1s-0.5-0.2-0.7-0.4
		s-0.3-0.4-0.4-0.6s-0.1-0.6-0.1-0.9v-2.9h-1.6v-1.1h1.6v-1.5l1.5-0.4v1.9h2.3v1.1h-2.3v2.8c0,0.3,0.1,0.6,0.2,0.8s0.4,0.3,0.8,0.3
		c0.2,0,0.5,0,0.7-0.1s0.4-0.1,0.6-0.1V114.3z"/>
	<path class="st2" d="M119.6,114.4v-3.9c0-0.7-0.2-1-0.7-1c-0.2,0-0.5,0.1-0.7,0.3s-0.5,0.5-0.7,0.8v3.8h-1.4v-8.3h1.4v2l-0.1,1.1
		c0.1-0.1,0.2-0.3,0.4-0.4s0.3-0.2,0.4-0.3s0.3-0.1,0.5-0.2s0.4-0.1,0.6-0.1c0.3,0,0.6,0,0.8,0.1s0.4,0.2,0.6,0.4s0.3,0.4,0.3,0.7
		s0.1,0.5,0.1,0.9v4H119.6z"/>
	<path class="st2" d="M124.2,109.5h-1.7v-1.1h3.1v4.8h1.7v1.1h-5.1v-1.1h1.9V109.5z M125.8,106.8c0,0.1,0,0.2-0.1,0.4
		s-0.1,0.2-0.2,0.3s-0.2,0.2-0.3,0.2s-0.2,0.1-0.4,0.1s-0.3,0-0.4-0.1s-0.2-0.1-0.3-0.2s-0.1-0.2-0.2-0.3s-0.1-0.2-0.1-0.4
		s0-0.2,0.1-0.4s0.1-0.2,0.2-0.3s0.2-0.2,0.3-0.2s0.2-0.1,0.4-0.1s0.3,0,0.4,0.1s0.2,0.1,0.3,0.2s0.1,0.2,0.2,0.3
		S125.8,106.7,125.8,106.8z"/>
	<path class="st2" d="M133.4,112.6c0,0.3-0.1,0.6-0.2,0.9s-0.3,0.4-0.6,0.6s-0.5,0.3-0.8,0.3s-0.6,0.1-1,0.1c-0.4,0-0.8,0-1.2-0.1
		s-0.7-0.1-1-0.2V113c0.4,0.2,0.7,0.3,1.1,0.3s0.7,0.1,1,0.1c0.4,0,0.7-0.1,0.8-0.2s0.3-0.3,0.3-0.5c0-0.1,0-0.2-0.1-0.2
		s-0.1-0.1-0.2-0.2s-0.3-0.1-0.5-0.2s-0.5-0.2-0.8-0.2c-0.3-0.1-0.5-0.2-0.8-0.3s-0.4-0.2-0.5-0.4s-0.3-0.3-0.3-0.5
		s-0.1-0.4-0.1-0.7c0-0.2,0.1-0.5,0.2-0.7s0.3-0.4,0.5-0.6s0.5-0.3,0.8-0.4s0.7-0.1,1.1-0.1c0.4,0,0.7,0,1,0.1s0.5,0.1,0.8,0.1v1.2
		c-0.3-0.1-0.7-0.2-1-0.2s-0.6-0.1-0.9-0.1s-0.5,0.1-0.7,0.2s-0.3,0.3-0.3,0.4c0,0.1,0,0.2,0.1,0.2s0.1,0.1,0.2,0.2s0.2,0.1,0.4,0.2
		s0.4,0.2,0.7,0.2c0.3,0.1,0.6,0.2,0.9,0.3s0.4,0.2,0.6,0.4s0.2,0.3,0.3,0.5S133.4,112.4,133.4,112.6z"/>
	<path class="st2" d="M143.6,109.5h-1.7v-1.1h3.1v4.8h1.7v1.1h-5.1v-1.1h1.9V109.5z M145.2,106.8c0,0.1,0,0.2-0.1,0.4
		s-0.1,0.2-0.2,0.3s-0.2,0.2-0.3,0.2s-0.2,0.1-0.4,0.1s-0.3,0-0.4-0.1s-0.2-0.1-0.3-0.2s-0.1-0.2-0.2-0.3s-0.1-0.2-0.1-0.4
		s0-0.2,0.1-0.4s0.1-0.2,0.2-0.3s0.2-0.2,0.3-0.2s0.2-0.1,0.4-0.1s0.3,0,0.4,0.1s0.2,0.1,0.3,0.2s0.1,0.2,0.2,0.3
		S145.2,106.7,145.2,106.8z"/>
	<path class="st2" d="M152.8,112.6c0,0.3-0.1,0.6-0.2,0.9s-0.3,0.4-0.6,0.6s-0.5,0.3-0.8,0.3s-0.6,0.1-1,0.1c-0.4,0-0.8,0-1.2-0.1
		s-0.7-0.1-1-0.2V113c0.4,0.2,0.7,0.3,1.1,0.3s0.7,0.1,1,0.1c0.4,0,0.7-0.1,0.8-0.2s0.3-0.3,0.3-0.5c0-0.1,0-0.2-0.1-0.2
		s-0.1-0.1-0.2-0.2s-0.3-0.1-0.5-0.2s-0.5-0.2-0.8-0.2c-0.3-0.1-0.5-0.2-0.8-0.3s-0.4-0.2-0.5-0.4s-0.3-0.3-0.3-0.5
		s-0.1-0.4-0.1-0.7c0-0.2,0.1-0.5,0.2-0.7s0.3-0.4,0.5-0.6s0.5-0.3,0.8-0.4s0.7-0.1,1.1-0.1c0.4,0,0.7,0,1,0.1s0.5,0.1,0.8,0.1v1.2
		c-0.3-0.1-0.7-0.2-1-0.2s-0.6-0.1-0.9-0.1s-0.5,0.1-0.7,0.2s-0.3,0.3-0.3,0.4c0,0.1,0,0.2,0.1,0.2s0.1,0.1,0.2,0.2s0.2,0.1,0.4,0.2
		s0.4,0.2,0.7,0.2c0.3,0.1,0.6,0.2,0.9,0.3s0.4,0.2,0.6,0.4s0.2,0.3,0.3,0.5S152.8,112.4,152.8,112.6z"/>
	<path class="st2" d="M165.9,114.1c-0.3,0.1-0.6,0.2-0.9,0.3s-0.6,0.1-0.9,0.1c-0.5,0-0.9-0.1-1.3-0.2s-0.7-0.3-1-0.6
		s-0.5-0.6-0.6-0.9s-0.2-0.8-0.2-1.3c0-0.5,0.1-0.9,0.2-1.3s0.4-0.7,0.6-1s0.6-0.5,1-0.6s0.8-0.2,1.3-0.2c0.4,0,0.7,0,1,0.1
		s0.5,0.1,0.7,0.2v1.4c-0.2-0.1-0.5-0.2-0.8-0.3s-0.6-0.1-0.8-0.1c-0.3,0-0.5,0-0.7,0.1s-0.4,0.2-0.5,0.4s-0.3,0.4-0.3,0.6
		s-0.1,0.5-0.1,0.8c0,0.3,0,0.5,0.1,0.8s0.2,0.4,0.3,0.6s0.3,0.3,0.5,0.4s0.4,0.1,0.7,0.1c0.1,0,0.3,0,0.4,0s0.3,0,0.4-0.1
		s0.3-0.1,0.4-0.1s0.3-0.1,0.4-0.1V114.1z"/>
	<path class="st2" d="M171.1,110.7c0-0.2,0-0.4,0-0.6s-0.1-0.3-0.1-0.4s-0.1-0.2-0.2-0.2s-0.2-0.1-0.3-0.1c-0.2,0-0.4,0.1-0.7,0.3
		s-0.5,0.5-0.7,0.9v3.8h-1.5v-6h1.3l0.1,0.9c0.1-0.2,0.2-0.3,0.3-0.4s0.3-0.2,0.4-0.3s0.3-0.2,0.5-0.2s0.4-0.1,0.6-0.1
		c0.3,0,0.6,0.1,0.8,0.2s0.4,0.3,0.6,0.5s0.3,0.5,0.4,0.8s0.1,0.7,0.1,1.1H171.1z"/>
	<path class="st2" d="M175.4,109.5h-1.7v-1.1h3.1v4.8h1.7v1.1h-5.1v-1.1h1.9V109.5z M177,106.8c0,0.1,0,0.2-0.1,0.4
		s-0.1,0.2-0.2,0.3s-0.2,0.2-0.3,0.2s-0.2,0.1-0.4,0.1s-0.3,0-0.4-0.1s-0.2-0.1-0.3-0.2s-0.1-0.2-0.2-0.3s-0.1-0.2-0.1-0.4
		s0-0.2,0.1-0.4s0.1-0.2,0.2-0.3s0.2-0.2,0.3-0.2s0.2-0.1,0.4-0.1s0.3,0,0.4,0.1s0.2,0.1,0.3,0.2s0.1,0.2,0.2,0.3
		S177,106.7,177,106.8z"/>
	<path class="st2" d="M184.1,114.3c-0.3,0.1-0.5,0.1-0.8,0.1s-0.5,0.1-0.7,0.1c-0.4,0-0.7,0-1-0.1s-0.5-0.2-0.7-0.4
		s-0.3-0.4-0.4-0.6s-0.1-0.6-0.1-0.9v-2.9h-1.6v-1.1h1.6v-1.5l1.5-0.4v1.9h2.3v1.1h-2.3v2.8c0,0.3,0.1,0.6,0.2,0.8s0.4,0.3,0.8,0.3
		c0.2,0,0.5,0,0.7-0.1s0.4-0.1,0.6-0.1V114.3z"/>
	<path class="st2" d="M187.3,109.5h-1.7v-1.1h3.1v4.8h1.7v1.1h-5.1v-1.1h1.9V109.5z M188.8,106.8c0,0.1,0,0.2-0.1,0.4
		s-0.1,0.2-0.2,0.3s-0.2,0.2-0.3,0.2s-0.2,0.1-0.4,0.1s-0.3,0-0.4-0.1s-0.2-0.1-0.3-0.2s-0.1-0.2-0.2-0.3s-0.1-0.2-0.1-0.4
		s0-0.2,0.1-0.4s0.1-0.2,0.2-0.3s0.2-0.2,0.3-0.2s0.2-0.1,0.4-0.1s0.3,0,0.4,0.1s0.2,0.1,0.3,0.2s0.1,0.2,0.2,0.3
		S188.8,106.7,188.8,106.8z"/>
	<path class="st2" d="M196.3,114.1c-0.3,0.1-0.6,0.2-0.9,0.3s-0.6,0.1-0.9,0.1c-0.5,0-0.9-0.1-1.3-0.2s-0.7-0.3-1-0.6
		s-0.5-0.6-0.6-0.9s-0.2-0.8-0.2-1.3c0-0.5,0.1-0.9,0.2-1.3s0.4-0.7,0.6-1s0.6-0.5,1-0.6s0.8-0.2,1.3-0.2c0.4,0,0.7,0,1,0.1
		s0.5,0.1,0.7,0.2v1.4c-0.2-0.1-0.5-0.2-0.8-0.3s-0.6-0.1-0.8-0.1c-0.3,0-0.5,0-0.7,0.1s-0.4,0.2-0.5,0.4s-0.3,0.4-0.3,0.6
		s-0.1,0.5-0.1,0.8c0,0.3,0,0.5,0.1,0.8s0.2,0.4,0.3,0.6s0.3,0.3,0.5,0.4s0.4,0.1,0.7,0.1c0.1,0,0.3,0,0.4,0s0.3,0,0.4-0.1
		s0.3-0.1,0.4-0.1s0.3-0.1,0.4-0.1V114.1z"/>
	<path class="st2" d="M201.4,114.4l0-0.8c-0.1,0.1-0.3,0.3-0.4,0.4s-0.3,0.2-0.5,0.3s-0.3,0.1-0.5,0.2s-0.4,0.1-0.6,0.1
		c-0.3,0-0.6,0-0.8-0.1s-0.4-0.2-0.6-0.4s-0.3-0.4-0.4-0.6s-0.1-0.5-0.1-0.8c0-0.3,0.1-0.5,0.2-0.8s0.3-0.4,0.5-0.6s0.5-0.3,0.9-0.4
		s0.8-0.1,1.3-0.1h0.8v-0.4c0-0.2,0-0.3-0.1-0.4s-0.1-0.2-0.2-0.3s-0.2-0.2-0.4-0.2s-0.3-0.1-0.6-0.1c-0.4,0-0.7,0-1,0.1
		s-0.7,0.2-1,0.3v-1.1c0.3-0.1,0.6-0.2,1-0.3s0.8-0.1,1.2-0.1c0.4,0,0.8,0,1.1,0.1s0.6,0.2,0.8,0.4s0.4,0.4,0.5,0.6s0.1,0.5,0.1,0.9
		v4.1H201.4z M201.2,111.7h-0.9c-0.2,0-0.4,0-0.6,0.1s-0.3,0.1-0.4,0.2s-0.2,0.2-0.2,0.3s-0.1,0.2-0.1,0.3c0,0.2,0.1,0.4,0.2,0.6
		s0.4,0.2,0.6,0.2c0.2,0,0.4-0.1,0.6-0.2s0.5-0.4,0.7-0.6V111.7z"/>
	<path class="st2" d="M205.8,107.2h-1.7v-1.1h3.1v7.2h1.7v1.1h-5.1v-1.1h1.9V107.2z"/>
	<path class="st2" d="M37.2,131.6c0-0.2,0-0.4,0-0.6s-0.1-0.3-0.1-0.4s-0.1-0.2-0.2-0.2s-0.2-0.1-0.3-0.1c-0.2,0-0.4,0.1-0.7,0.3
		s-0.5,0.5-0.7,0.9v3.8h-1.5v-6h1.3l0.1,0.9c0.1-0.2,0.2-0.3,0.3-0.4s0.3-0.2,0.4-0.3s0.3-0.2,0.5-0.2s0.4-0.1,0.6-0.1
		c0.3,0,0.6,0.1,0.8,0.2s0.4,0.3,0.6,0.5s0.3,0.5,0.4,0.8s0.1,0.7,0.1,1.1H37.2z"/>
	<path class="st2" d="M45,131.8c0,0.1,0,0.2,0,0.4s0,0.3,0,0.4h-3.9c0,0.3,0,0.5,0.1,0.7s0.2,0.4,0.3,0.5s0.3,0.2,0.5,0.3
		s0.4,0.1,0.7,0.1c0.3,0,0.6,0,0.9-0.1s0.7-0.1,1-0.2v1.1c-0.2,0-0.3,0.1-0.5,0.1s-0.4,0.1-0.6,0.1s-0.4,0-0.6,0.1s-0.4,0-0.6,0
		c-0.5,0-0.9-0.1-1.2-0.2s-0.7-0.3-0.9-0.6s-0.4-0.6-0.6-0.9s-0.2-0.8-0.2-1.3c0-0.5,0.1-0.9,0.2-1.3s0.3-0.7,0.6-1s0.5-0.5,0.9-0.7
		s0.7-0.2,1.2-0.2c0.4,0,0.8,0.1,1.1,0.2s0.6,0.3,0.8,0.5s0.4,0.5,0.5,0.8S45,131.4,45,131.8z M43.6,131.6c0-0.2,0-0.4-0.1-0.6
		s-0.1-0.3-0.3-0.4s-0.2-0.2-0.4-0.3s-0.3-0.1-0.5-0.1c-0.4,0-0.7,0.1-0.9,0.4s-0.4,0.6-0.4,1H43.6z"/>
	<path class="st2" d="M51.6,128.1c-0.2-0.1-0.4-0.1-0.6-0.1c-0.2,0-0.5-0.1-0.7-0.1c-0.2,0-0.3,0-0.5,0.1c-0.1,0-0.3,0.1-0.4,0.2
		s-0.2,0.2-0.2,0.4s-0.1,0.3-0.1,0.5v1h2.3v1.1h-2.3v4h-1.4v-4H46v-1.1h1.7v-0.9c0-0.4,0.1-0.8,0.2-1.1c0.1-0.3,0.3-0.6,0.5-0.7
		s0.5-0.3,0.8-0.4s0.7-0.1,1.1-0.1c0.3,0,0.5,0,0.7,0s0.4,0.1,0.6,0.1V128.1z"/>
	<path class="st2" d="M62.6,129.8h-1.2l-0.2-2.9h1.6L62.6,129.8z"/>
	<path class="st2" d="M70.4,131.3c0,0.7-0.1,1.3-0.2,1.8s-0.4,0.9-0.7,1.2s-0.6,0.6-1,0.7s-0.8,0.2-1.2,0.2c-1,0-1.8-0.3-2.3-1
		s-0.8-1.6-0.8-2.9c0-0.7,0.1-1.3,0.2-1.8s0.4-0.9,0.7-1.2s0.6-0.6,1-0.7s0.8-0.2,1.2-0.2c1,0,1.8,0.3,2.3,1
		C70.2,129.1,70.4,130.1,70.4,131.3z M68.9,131.4c0-0.9-0.1-1.6-0.4-2s-0.6-0.7-1.2-0.7c-0.3,0-0.5,0.1-0.7,0.2s-0.4,0.3-0.5,0.5
		s-0.2,0.5-0.3,0.8s-0.1,0.7-0.1,1.1c0,0.9,0.1,1.6,0.4,2s0.6,0.7,1.2,0.7c0.3,0,0.5-0.1,0.7-0.2s0.4-0.3,0.5-0.5s0.2-0.5,0.3-0.8
		S68.9,131.8,68.9,131.4z"/>
	<path class="st2" d="M72.9,129.2v3.9c0,0.3,0.1,0.6,0.2,0.7s0.3,0.2,0.6,0.2c0.2,0,0.5-0.1,0.7-0.3s0.5-0.5,0.7-0.8v-3.8h1.4v6
		h-1.2l0-0.9c-0.1,0.2-0.3,0.3-0.4,0.4s-0.3,0.2-0.4,0.3s-0.3,0.2-0.5,0.2s-0.4,0.1-0.6,0.1c-0.3,0-0.6,0-0.8-0.1s-0.4-0.2-0.6-0.4
		s-0.3-0.4-0.3-0.7s-0.1-0.5-0.1-0.9v-4H72.9z"/>
	<path class="st2" d="M81.6,131.6c0-0.2,0-0.4,0-0.6s-0.1-0.3-0.1-0.4s-0.1-0.2-0.2-0.2s-0.2-0.1-0.3-0.1c-0.2,0-0.4,0.1-0.7,0.3
		s-0.5,0.5-0.7,0.9v3.8H78v-6h1.3l0.1,0.9c0.1-0.2,0.2-0.3,0.3-0.4s0.3-0.2,0.4-0.3s0.3-0.2,0.5-0.2s0.4-0.1,0.6-0.1
		c0.3,0,0.6,0.1,0.8,0.2s0.4,0.3,0.6,0.5s0.3,0.5,0.4,0.8s0.1,0.7,0.1,1.1H81.6z"/>
	<path class="st2" d="M92.9,128h-1.7v-1.1h3.1v7.2h1.7v1.1H91v-1.1h1.9V128z"/>
	<path class="st2" d="M99.2,130.4h-1.7v-1.1h3.1v4.8h1.7v1.1h-5.1v-1.1h1.9V130.4z M100.8,127.6c0,0.1,0,0.2-0.1,0.4
		c0,0.1-0.1,0.2-0.2,0.3s-0.2,0.2-0.3,0.2s-0.2,0.1-0.4,0.1s-0.3,0-0.4-0.1s-0.2-0.1-0.3-0.2S99,128.1,99,128c0-0.1-0.1-0.2-0.1-0.4
		s0-0.2,0.1-0.4s0.1-0.2,0.2-0.3s0.2-0.2,0.3-0.2s0.2-0.1,0.4-0.1s0.3,0,0.4,0.1s0.2,0.1,0.3,0.2s0.1,0.2,0.2,0.3
		S100.8,127.5,100.8,127.6z"/>
	<path class="st2" d="M107.8,135.1c-0.3,0.1-0.5,0.1-0.8,0.1s-0.5,0.1-0.7,0.1c-0.4,0-0.7,0-1-0.1s-0.5-0.2-0.7-0.4
		s-0.3-0.4-0.4-0.6s-0.1-0.6-0.1-0.9v-2.9h-1.6v-1.1h1.6v-1.5l1.5-0.4v1.9h2.3v1.1h-2.3v2.8c0,0.3,0.1,0.6,0.2,0.8s0.4,0.3,0.8,0.3
		c0.2,0,0.5,0,0.7-0.1s0.4-0.1,0.6-0.1V135.1z"/>
	<path class="st2" d="M114.3,135.1c-0.3,0.1-0.5,0.1-0.8,0.1s-0.5,0.1-0.7,0.1c-0.4,0-0.7,0-1-0.1s-0.5-0.2-0.7-0.4
		s-0.3-0.4-0.4-0.6s-0.1-0.6-0.1-0.9v-2.9h-1.6v-1.1h1.6v-1.5l1.5-0.4v1.9h2.3v1.1h-2.3v2.8c0,0.3,0.1,0.6,0.2,0.8s0.4,0.3,0.8,0.3
		c0.2,0,0.5,0,0.7-0.1s0.4-0.1,0.6-0.1V135.1z"/>
	<path class="st2" d="M117.4,128h-1.7v-1.1h3.1v7.2h1.7v1.1h-5.1v-1.1h1.9V128z"/>
	<path class="st2" d="M126.9,131.8c0,0.1,0,0.2,0,0.4s0,0.3,0,0.4H123c0,0.3,0,0.5,0.1,0.7s0.2,0.4,0.3,0.5s0.3,0.2,0.5,0.3
		s0.4,0.1,0.7,0.1c0.3,0,0.6,0,0.9-0.1s0.7-0.1,1-0.2v1.1c-0.2,0-0.3,0.1-0.5,0.1s-0.4,0.1-0.6,0.1s-0.4,0-0.6,0.1s-0.4,0-0.6,0
		c-0.5,0-0.9-0.1-1.2-0.2s-0.7-0.3-0.9-0.6s-0.4-0.6-0.6-0.9s-0.2-0.8-0.2-1.3c0-0.5,0.1-0.9,0.2-1.3s0.3-0.7,0.6-1s0.5-0.5,0.9-0.7
		s0.7-0.2,1.2-0.2c0.4,0,0.8,0.1,1.1,0.2s0.6,0.3,0.8,0.5s0.4,0.5,0.5,0.8S126.9,131.4,126.9,131.8z M125.5,131.6
		c0-0.2,0-0.4-0.1-0.6s-0.1-0.3-0.3-0.4s-0.2-0.2-0.4-0.3s-0.3-0.1-0.5-0.1c-0.4,0-0.7,0.1-0.9,0.4s-0.4,0.6-0.4,1H125.5z"/>
	<path class="st2" d="M139.8,135c-0.3,0.1-0.6,0.2-0.9,0.3s-0.6,0.1-0.9,0.1c-0.5,0-0.9-0.1-1.3-0.2s-0.7-0.3-1-0.6
		s-0.5-0.6-0.6-0.9s-0.2-0.8-0.2-1.3c0-0.5,0.1-0.9,0.2-1.3s0.4-0.7,0.6-1s0.6-0.5,1-0.6s0.8-0.2,1.3-0.2c0.4,0,0.7,0,1,0.1
		s0.5,0.1,0.7,0.2v1.4c-0.2-0.1-0.5-0.2-0.8-0.3s-0.6-0.1-0.8-0.1c-0.3,0-0.5,0-0.7,0.1s-0.4,0.2-0.5,0.4s-0.3,0.4-0.3,0.6
		s-0.1,0.5-0.1,0.8c0,0.3,0,0.5,0.1,0.8s0.2,0.4,0.3,0.6s0.3,0.3,0.5,0.4s0.4,0.1,0.7,0.1c0.1,0,0.3,0,0.4,0s0.3,0,0.4-0.1
		s0.3-0.1,0.4-0.1s0.3-0.1,0.4-0.1V135z"/>
	<path class="st2" d="M146.6,132.2c0,0.5-0.1,0.9-0.2,1.3s-0.3,0.7-0.6,1s-0.6,0.5-0.9,0.6s-0.8,0.2-1.2,0.2c-0.4,0-0.8-0.1-1.2-0.2
		s-0.6-0.3-0.9-0.6s-0.4-0.6-0.6-1s-0.2-0.8-0.2-1.3c0-0.5,0.1-0.9,0.2-1.3s0.3-0.7,0.6-1s0.6-0.5,0.9-0.6s0.8-0.2,1.2-0.2
		c0.4,0,0.8,0.1,1.2,0.2s0.6,0.3,0.9,0.6s0.4,0.6,0.6,1S146.6,131.7,146.6,132.2z M145.1,132.2c0-0.6-0.1-1.1-0.3-1.4
		s-0.6-0.5-1-0.5c-0.2,0-0.5,0-0.6,0.1s-0.3,0.2-0.4,0.4s-0.2,0.4-0.2,0.6s-0.1,0.5-0.1,0.7c0,0.6,0.1,1.1,0.4,1.4s0.6,0.5,1,0.5
		c0.2,0,0.4,0,0.6-0.1s0.3-0.2,0.4-0.4s0.2-0.4,0.2-0.6S145.1,132.5,145.1,132.2z"/>
	<path class="st2" d="M152.2,135.2v-4.1c0-0.1,0-0.3,0-0.4s0-0.2,0-0.3s-0.1-0.1-0.1-0.2s-0.1-0.1-0.2-0.1c-0.1,0-0.2,0.1-0.4,0.2
		s-0.2,0.4-0.4,0.8v3.9h-1.2v-4.1c0-0.1,0-0.3,0-0.4s0-0.2,0-0.3s-0.1-0.1-0.1-0.2s-0.1-0.1-0.2-0.1c-0.1,0-0.2,0.1-0.3,0.2
		s-0.3,0.4-0.4,0.8v3.9h-1.2v-6h1.1l0,0.9c0.1-0.2,0.2-0.3,0.3-0.5s0.2-0.2,0.3-0.3s0.2-0.1,0.3-0.2s0.2-0.1,0.4-0.1
		c0.3,0,0.6,0.1,0.8,0.3s0.3,0.4,0.3,0.7c0.1-0.2,0.2-0.3,0.3-0.5s0.2-0.2,0.3-0.3s0.2-0.1,0.3-0.2s0.2-0.1,0.4-0.1
		c0.4,0,0.8,0.2,1,0.5s0.3,0.8,0.3,1.3v4.3H152.2z"/>
	<path class="st2" d="M160,132.1c0,0.5-0.1,1-0.2,1.4s-0.4,0.7-0.6,1s-0.6,0.5-1,0.6s-0.8,0.2-1.2,0.2c-0.1,0-0.3,0-0.4,0
		s-0.3,0-0.4-0.1v2.3h-1.4v-8.3h1.2l0,0.9c0.1-0.2,0.2-0.3,0.4-0.4s0.3-0.2,0.4-0.3s0.3-0.2,0.5-0.2s0.4-0.1,0.6-0.1
		c0.4,0,0.7,0.1,0.9,0.2s0.5,0.3,0.7,0.6s0.3,0.6,0.4,0.9S160,131.7,160,132.1z M158.5,132.2c0-0.3,0-0.6-0.1-0.8s-0.1-0.4-0.2-0.6
		s-0.2-0.3-0.3-0.3s-0.3-0.1-0.4-0.1c-0.2,0-0.5,0.1-0.7,0.3s-0.5,0.5-0.7,0.8v2.6c0.1,0,0.3,0.1,0.4,0.1s0.3,0,0.5,0
		c0.2,0,0.4,0,0.6-0.1s0.3-0.2,0.5-0.4s0.2-0.4,0.3-0.6S158.5,132.5,158.5,132.2z"/>
	<path class="st2" d="M162.8,128h-1.7v-1.1h3.1v7.2h1.7v1.1h-5.1v-1.1h1.9V128z"/>
	<path class="st2" d="M169,130.4h-1.7v-1.1h3.1v4.8h1.7v1.1h-5.1v-1.1h1.9V130.4z M170.6,127.6c0,0.1,0,0.2-0.1,0.4
		c0,0.1-0.1,0.2-0.2,0.3s-0.2,0.2-0.3,0.2s-0.2,0.1-0.4,0.1s-0.3,0-0.4-0.1s-0.2-0.1-0.3-0.2s-0.1-0.2-0.2-0.3
		c0-0.1-0.1-0.2-0.1-0.4s0-0.2,0.1-0.4s0.1-0.2,0.2-0.3s0.2-0.2,0.3-0.2s0.2-0.1,0.4-0.1s0.3,0,0.4,0.1s0.2,0.1,0.3,0.2
		s0.1,0.2,0.2,0.3S170.6,127.5,170.6,127.6z"/>
	<path class="st2" d="M177.2,135.2l0-0.8c-0.1,0.1-0.3,0.3-0.4,0.4s-0.3,0.2-0.5,0.3s-0.3,0.1-0.5,0.2s-0.4,0.1-0.6,0.1
		c-0.3,0-0.6,0-0.8-0.1s-0.4-0.2-0.6-0.4s-0.3-0.4-0.4-0.6s-0.1-0.5-0.1-0.8c0-0.3,0.1-0.5,0.2-0.8s0.3-0.4,0.5-0.6s0.5-0.3,0.9-0.4
		s0.8-0.1,1.3-0.1h0.8v-0.4c0-0.2,0-0.3-0.1-0.4s-0.1-0.2-0.2-0.3s-0.2-0.2-0.4-0.2s-0.3-0.1-0.6-0.1c-0.4,0-0.7,0-1,0.1
		s-0.7,0.2-1,0.3v-1.1c0.3-0.1,0.6-0.2,1-0.3s0.8-0.1,1.2-0.1c0.4,0,0.8,0,1.1,0.1s0.6,0.2,0.8,0.4s0.4,0.4,0.5,0.6s0.1,0.5,0.1,0.9
		v4.1H177.2z M177,132.6h-0.9c-0.2,0-0.4,0-0.6,0.1s-0.3,0.1-0.4,0.2s-0.2,0.2-0.2,0.3s-0.1,0.2-0.1,0.3c0,0.2,0.1,0.4,0.2,0.6
		s0.4,0.2,0.6,0.2c0.2,0,0.4-0.1,0.6-0.2s0.5-0.4,0.7-0.6V132.6z"/>
	<path class="st2" d="M183.5,135.2v-3.9c0-0.7-0.2-1-0.7-1c-0.2,0-0.5,0.1-0.7,0.3s-0.5,0.5-0.7,0.8v3.8h-1.4v-6h1.2l0,0.9
		c0.1-0.2,0.2-0.3,0.4-0.4s0.3-0.2,0.4-0.3s0.3-0.2,0.5-0.2s0.4-0.1,0.6-0.1c0.3,0,0.6,0,0.8,0.1s0.4,0.2,0.6,0.4s0.3,0.4,0.3,0.7
		s0.1,0.5,0.1,0.9v4H183.5z"/>
	<path class="st2" d="M191.1,135c-0.3,0.1-0.6,0.2-0.9,0.3s-0.6,0.1-0.9,0.1c-0.5,0-0.9-0.1-1.3-0.2s-0.7-0.3-1-0.6
		s-0.5-0.6-0.6-0.9s-0.2-0.8-0.2-1.3c0-0.5,0.1-0.9,0.2-1.3s0.4-0.7,0.6-1s0.6-0.5,1-0.6s0.8-0.2,1.3-0.2c0.4,0,0.7,0,1,0.1
		s0.5,0.1,0.7,0.2v1.4c-0.2-0.1-0.5-0.2-0.8-0.3s-0.6-0.1-0.8-0.1c-0.3,0-0.5,0-0.7,0.1s-0.4,0.2-0.5,0.4s-0.3,0.4-0.3,0.6
		s-0.1,0.5-0.1,0.8c0,0.3,0,0.5,0.1,0.8s0.2,0.4,0.3,0.6s0.3,0.3,0.5,0.4s0.4,0.1,0.7,0.1c0.1,0,0.3,0,0.4,0s0.3,0,0.4-0.1
		s0.3-0.1,0.4-0.1s0.3-0.1,0.4-0.1V135z"/>
	<path class="st2" d="M197.6,131.8c0,0.1,0,0.2,0,0.4s0,0.3,0,0.4h-3.9c0,0.3,0,0.5,0.1,0.7s0.2,0.4,0.3,0.5s0.3,0.2,0.5,0.3
		s0.4,0.1,0.7,0.1c0.3,0,0.6,0,0.9-0.1s0.7-0.1,1-0.2v1.1c-0.2,0-0.3,0.1-0.5,0.1s-0.4,0.1-0.6,0.1s-0.4,0-0.6,0.1s-0.4,0-0.6,0
		c-0.5,0-0.9-0.1-1.2-0.2s-0.7-0.3-0.9-0.6s-0.4-0.6-0.6-0.9s-0.2-0.8-0.2-1.3c0-0.5,0.1-0.9,0.2-1.3s0.3-0.7,0.6-1s0.5-0.5,0.9-0.7
		s0.7-0.2,1.2-0.2c0.4,0,0.8,0.1,1.1,0.2s0.6,0.3,0.8,0.5s0.4,0.5,0.5,0.8S197.6,131.4,197.6,131.8z M196.1,131.6
		c0-0.2,0-0.4-0.1-0.6s-0.1-0.3-0.3-0.4s-0.2-0.2-0.4-0.3s-0.3-0.1-0.5-0.1c-0.4,0-0.7,0.1-0.9,0.4s-0.4,0.6-0.4,1H196.1z"/>
	<path class="st2" d="M210.1,130.3c0.1,0.1,0.2,0.3,0.2,0.4s0.1,0.3,0.1,0.5c0,0.3-0.1,0.6-0.2,0.9s-0.3,0.5-0.5,0.6
		s-0.5,0.3-0.8,0.4s-0.6,0.1-1,0.1c-0.2,0-0.4,0-0.6-0.1s-0.3-0.1-0.4-0.1c-0.1,0.1-0.1,0.1-0.2,0.2s-0.1,0.2-0.1,0.3
		c0,0.1,0,0.1,0,0.2s0.1,0.1,0.1,0.2s0.1,0.1,0.2,0.1s0.2,0,0.3,0.1l1.4,0.1c0.3,0,0.6,0,0.9,0.1s0.5,0.2,0.7,0.3s0.3,0.3,0.4,0.5
		s0.2,0.4,0.2,0.6c0,0.3-0.1,0.5-0.2,0.8s-0.3,0.5-0.6,0.6s-0.6,0.3-0.9,0.4s-0.8,0.2-1.3,0.2c-0.5,0-0.9,0-1.2-0.1
		s-0.6-0.2-0.8-0.3s-0.4-0.3-0.5-0.5s-0.2-0.4-0.2-0.6c0-0.1,0-0.3,0.1-0.4s0.1-0.2,0.2-0.3s0.2-0.2,0.3-0.3s0.2-0.2,0.4-0.3
		c-0.2-0.1-0.3-0.2-0.4-0.4s-0.1-0.4-0.1-0.6c0-0.1,0-0.3,0.1-0.4s0.1-0.2,0.1-0.3s0.1-0.2,0.2-0.3s0.2-0.2,0.2-0.3
		c-0.1-0.1-0.3-0.3-0.4-0.5s-0.1-0.5-0.1-0.8c0-0.3,0.1-0.6,0.2-0.9s0.3-0.5,0.5-0.7s0.5-0.3,0.8-0.4s0.6-0.1,1-0.1
		c0.2,0,0.3,0,0.5,0s0.3,0,0.4,0.1h2.1v1H210.1z M206.7,136c0,0.2,0.1,0.4,0.3,0.5s0.6,0.2,1,0.2c0.3,0,0.5,0,0.7-0.1
		s0.3-0.1,0.5-0.2s0.2-0.2,0.3-0.3s0.1-0.2,0.1-0.3c0-0.1,0-0.2-0.1-0.3s-0.1-0.1-0.2-0.2s-0.2-0.1-0.3-0.1s-0.2,0-0.4,0l-1.3,0
		c-0.1,0.1-0.2,0.2-0.3,0.2s-0.1,0.1-0.2,0.2s-0.1,0.1-0.1,0.2S206.7,135.9,206.7,136z M206.9,131.2c0,0.3,0.1,0.6,0.3,0.8
		s0.4,0.3,0.8,0.3c0.2,0,0.3,0,0.5-0.1s0.2-0.1,0.3-0.2s0.2-0.2,0.2-0.3s0.1-0.3,0.1-0.4c0-0.3-0.1-0.6-0.3-0.8s-0.4-0.3-0.8-0.3
		c-0.2,0-0.3,0-0.5,0.1s-0.2,0.1-0.3,0.2s-0.2,0.2-0.2,0.3S206.9,131.1,206.9,131.2z"/>
	<path class="st2" d="M213.5,129.2v3.9c0,0.3,0.1,0.6,0.2,0.7s0.3,0.2,0.6,0.2c0.2,0,0.5-0.1,0.7-0.3s0.5-0.5,0.7-0.8v-3.8h1.4v6
		h-1.2l0-0.9c-0.1,0.2-0.3,0.3-0.4,0.4s-0.3,0.2-0.4,0.3s-0.3,0.2-0.5,0.2s-0.4,0.1-0.6,0.1c-0.3,0-0.6,0-0.8-0.1s-0.4-0.2-0.6-0.4
		s-0.3-0.4-0.3-0.7s-0.1-0.5-0.1-0.9v-4H213.5z"/>
	<path class="st2" d="M220.2,130.4h-1.7v-1.1h3.1v4.8h1.7v1.1h-5.1v-1.1h1.9V130.4z M221.7,127.6c0,0.1,0,0.2-0.1,0.4
		c0,0.1-0.1,0.2-0.2,0.3s-0.2,0.2-0.3,0.2s-0.2,0.1-0.4,0.1s-0.3,0-0.4-0.1s-0.2-0.1-0.3-0.2s-0.1-0.2-0.2-0.3
		c0-0.1-0.1-0.2-0.1-0.4s0-0.2,0.1-0.4s0.1-0.2,0.2-0.3s0.2-0.2,0.3-0.2s0.2-0.1,0.4-0.1s0.3,0,0.4,0.1s0.2,0.1,0.3,0.2
		s0.2,0.2,0.2,0.3S221.7,127.5,221.7,127.6z"/>
	<path class="st2" d="M228.3,135.2l0-0.9c-0.1,0.2-0.3,0.3-0.4,0.4s-0.3,0.2-0.4,0.3s-0.3,0.2-0.5,0.2s-0.4,0.1-0.6,0.1
		c-0.4,0-0.7-0.1-0.9-0.2s-0.5-0.3-0.7-0.6s-0.3-0.6-0.4-0.9s-0.1-0.8-0.1-1.2c0-0.5,0.1-1,0.2-1.4s0.4-0.7,0.6-1s0.6-0.5,1-0.6
		s0.8-0.2,1.2-0.2c0.1,0,0.3,0,0.4,0s0.3,0,0.4,0.1v-2.3h1.4v8.3H228.3z M225.7,132.3c0,0.3,0,0.6,0.1,0.8s0.1,0.4,0.2,0.6
		s0.2,0.3,0.3,0.3s0.3,0.1,0.4,0.1c0.2,0,0.5-0.1,0.7-0.3s0.5-0.5,0.7-0.8v-2.6c-0.1,0-0.3-0.1-0.4-0.1s-0.3,0-0.5,0
		c-0.2,0-0.4,0-0.6,0.1s-0.3,0.2-0.5,0.4s-0.2,0.4-0.3,0.6S225.7,132,225.7,132.3z"/>
	<path class="st2" d="M236.2,131.8c0,0.1,0,0.2,0,0.4s0,0.3,0,0.4h-3.9c0,0.3,0,0.5,0.1,0.7s0.2,0.4,0.3,0.5s0.3,0.2,0.5,0.3
		s0.4,0.1,0.7,0.1c0.3,0,0.6,0,0.9-0.1s0.7-0.1,1-0.2v1.1c-0.2,0-0.3,0.1-0.5,0.1s-0.4,0.1-0.6,0.1s-0.4,0-0.6,0.1s-0.4,0-0.6,0
		c-0.5,0-0.9-0.1-1.2-0.2s-0.7-0.3-0.9-0.6s-0.4-0.6-0.6-0.9s-0.2-0.8-0.2-1.3c0-0.5,0.1-0.9,0.2-1.3s0.3-0.7,0.6-1s0.5-0.5,0.9-0.7
		s0.7-0.2,1.2-0.2c0.4,0,0.8,0.1,1.1,0.2s0.6,0.3,0.8,0.5s0.4,0.5,0.5,0.8S236.2,131.4,236.2,131.8z M234.8,131.6
		c0-0.2,0-0.4-0.1-0.6s-0.1-0.3-0.3-0.4s-0.2-0.2-0.4-0.3s-0.3-0.1-0.5-0.1c-0.4,0-0.7,0.1-0.9,0.4s-0.4,0.6-0.4,1H234.8z"/>
	<path class="st2" d="M236.9,136.3c0.2,0,0.5,0,0.7,0s0.4-0.1,0.5-0.2s0.3-0.2,0.4-0.3s0.1-0.3,0.1-0.4c0-0.1,0-0.2-0.1-0.3
		s-0.1-0.2-0.1-0.2s-0.1-0.1-0.2-0.2s-0.1-0.1-0.2-0.2s-0.1-0.1-0.1-0.2s0-0.2,0-0.3c0-0.1,0-0.2,0.1-0.4s0.1-0.2,0.2-0.3
		s0.2-0.2,0.3-0.2s0.3-0.1,0.4-0.1c0.2,0,0.4,0,0.5,0.1s0.3,0.2,0.4,0.4s0.2,0.3,0.2,0.5s0.1,0.4,0.1,0.6c0,0.4-0.1,0.7-0.2,1
		s-0.3,0.6-0.6,0.8s-0.6,0.4-1,0.6s-0.9,0.2-1.4,0.2V136.3z"/>
	<path class="st2" d="M254.6,133.4c0,0.3-0.1,0.6-0.2,0.9s-0.3,0.4-0.6,0.6s-0.5,0.3-0.8,0.3s-0.6,0.1-1,0.1c-0.4,0-0.8,0-1.2-0.1
		s-0.7-0.1-1-0.2v-1.3c0.4,0.2,0.7,0.3,1.1,0.3s0.7,0.1,1,0.1c0.4,0,0.7-0.1,0.8-0.2s0.3-0.3,0.3-0.5c0-0.1,0-0.2-0.1-0.2
		s-0.1-0.1-0.2-0.2s-0.3-0.1-0.5-0.2s-0.5-0.2-0.8-0.2c-0.3-0.1-0.6-0.2-0.8-0.3s-0.4-0.2-0.5-0.4s-0.3-0.3-0.3-0.5
		s-0.1-0.4-0.1-0.7c0-0.2,0.1-0.5,0.2-0.7s0.3-0.4,0.5-0.6s0.5-0.3,0.8-0.4s0.7-0.1,1.1-0.1c0.4,0,0.7,0,1,0.1s0.5,0.1,0.8,0.1v1.2
		c-0.3-0.1-0.7-0.2-1-0.2s-0.6-0.1-0.9-0.1s-0.5,0.1-0.7,0.2s-0.3,0.3-0.3,0.4c0,0.1,0,0.2,0.1,0.2s0.1,0.1,0.2,0.2s0.2,0.1,0.4,0.2
		s0.4,0.2,0.7,0.2c0.3,0.1,0.6,0.2,0.9,0.3s0.4,0.2,0.6,0.4s0.2,0.3,0.3,0.5S254.6,133.2,254.6,133.4z"/>
	<path class="st2" d="M261.1,131.8c0,0.1,0,0.2,0,0.4s0,0.3,0,0.4h-3.9c0,0.3,0,0.5,0.1,0.7s0.2,0.4,0.3,0.5s0.3,0.2,0.5,0.3
		s0.4,0.1,0.7,0.1c0.3,0,0.6,0,0.9-0.1s0.7-0.1,1-0.2v1.1c-0.2,0-0.3,0.1-0.5,0.1s-0.4,0.1-0.6,0.1s-0.4,0-0.6,0.1s-0.4,0-0.6,0
		c-0.5,0-0.9-0.1-1.2-0.2s-0.7-0.3-0.9-0.6s-0.4-0.6-0.6-0.9s-0.2-0.8-0.2-1.3c0-0.5,0.1-0.9,0.2-1.3s0.3-0.7,0.6-1s0.5-0.5,0.9-0.7
		s0.7-0.2,1.2-0.2c0.4,0,0.8,0.1,1.1,0.2s0.6,0.3,0.8,0.5s0.4,0.5,0.5,0.8S261.1,131.4,261.1,131.8z M259.7,131.6
		c0-0.2,0-0.4-0.1-0.6s-0.1-0.3-0.3-0.4s-0.2-0.2-0.4-0.3s-0.3-0.1-0.5-0.1c-0.4,0-0.7,0.1-0.9,0.4s-0.4,0.6-0.4,1H259.7z"/>
	<path class="st2" d="M267.1,135c-0.3,0.1-0.6,0.2-0.9,0.3s-0.6,0.1-0.9,0.1c-0.5,0-0.9-0.1-1.3-0.2s-0.7-0.3-1-0.6
		s-0.5-0.6-0.6-0.9s-0.2-0.8-0.2-1.3c0-0.5,0.1-0.9,0.2-1.3s0.4-0.7,0.6-1s0.6-0.5,1-0.6s0.8-0.2,1.3-0.2c0.4,0,0.7,0,1,0.1
		s0.5,0.1,0.7,0.2v1.4c-0.2-0.1-0.5-0.2-0.8-0.3s-0.6-0.1-0.8-0.1c-0.3,0-0.5,0-0.7,0.1s-0.4,0.2-0.5,0.4s-0.3,0.4-0.3,0.6
		s-0.1,0.5-0.1,0.8c0,0.3,0,0.5,0.1,0.8s0.2,0.4,0.3,0.6s0.3,0.3,0.5,0.4s0.4,0.1,0.7,0.1c0.1,0,0.3,0,0.4,0s0.3,0,0.4-0.1
		s0.3-0.1,0.4-0.1s0.3-0.1,0.4-0.1V135z"/>
	<path class="st2" d="M273.5,135.1c-0.3,0.1-0.5,0.1-0.8,0.1s-0.5,0.1-0.7,0.1c-0.4,0-0.7,0-1-0.1s-0.5-0.2-0.7-0.4
		s-0.3-0.4-0.4-0.6s-0.1-0.6-0.1-0.9v-2.9h-1.6v-1.1h1.6v-1.5l1.5-0.4v1.9h2.3v1.1h-2.3v2.8c0,0.3,0.1,0.6,0.2,0.8s0.4,0.3,0.8,0.3
		c0.2,0,0.5,0,0.7-0.1s0.4-0.1,0.6-0.1V135.1z"/>
	<path class="st2" d="M276.7,130.4H275v-1.1h3.1v4.8h1.7v1.1h-5.1v-1.1h1.9V130.4z M278.3,127.6c0,0.1,0,0.2-0.1,0.4
		c0,0.1-0.1,0.2-0.2,0.3s-0.2,0.2-0.3,0.2s-0.2,0.1-0.4,0.1s-0.3,0-0.4-0.1s-0.2-0.1-0.3-0.2s-0.1-0.2-0.2-0.3
		c0-0.1-0.1-0.2-0.1-0.4s0-0.2,0.1-0.4s0.1-0.2,0.2-0.3s0.2-0.2,0.3-0.2s0.2-0.1,0.4-0.1s0.3,0,0.4,0.1s0.2,0.1,0.3,0.2
		s0.2,0.2,0.2,0.3S278.3,127.5,278.3,127.6z"/>
	<path class="st2" d="M286.5,132.2c0,0.5-0.1,0.9-0.2,1.3s-0.3,0.7-0.6,1s-0.6,0.5-0.9,0.6s-0.8,0.2-1.2,0.2c-0.4,0-0.8-0.1-1.2-0.2
		s-0.6-0.3-0.9-0.6s-0.4-0.6-0.6-1s-0.2-0.8-0.2-1.3c0-0.5,0.1-0.9,0.2-1.3s0.3-0.7,0.6-1s0.6-0.5,0.9-0.6s0.8-0.2,1.2-0.2
		c0.4,0,0.8,0.1,1.2,0.2s0.6,0.3,0.9,0.6s0.4,0.6,0.6,1S286.5,131.7,286.5,132.2z M285,132.2c0-0.6-0.1-1.1-0.3-1.4s-0.6-0.5-1-0.5
		c-0.2,0-0.5,0-0.6,0.1s-0.3,0.2-0.4,0.4s-0.2,0.4-0.2,0.6s-0.1,0.5-0.1,0.7c0,0.6,0.1,1.1,0.4,1.4s0.6,0.5,1,0.5
		c0.2,0,0.4,0,0.6-0.1s0.3-0.2,0.4-0.4s0.2-0.4,0.2-0.6S285,132.5,285,132.2z"/>
	<path class="st2" d="M291.2,135.2v-3.9c0-0.7-0.2-1-0.7-1c-0.2,0-0.5,0.1-0.7,0.3s-0.5,0.5-0.7,0.8v3.8h-1.4v-6h1.2l0,0.9
		c0.1-0.2,0.2-0.3,0.4-0.4s0.3-0.2,0.4-0.3s0.3-0.2,0.5-0.2s0.4-0.1,0.6-0.1c0.3,0,0.6,0,0.8,0.1s0.4,0.2,0.6,0.4s0.3,0.4,0.3,0.7
		s0.1,0.5,0.1,0.9v4H291.2z"/>
	<path class="st2" d="M300.8,135.2v-1.1l1.8-1.8c0.3-0.3,0.6-0.6,0.8-0.9s0.4-0.5,0.5-0.7s0.2-0.4,0.2-0.5s0.1-0.3,0.1-0.5
		c0-0.1,0-0.3-0.1-0.4s-0.1-0.2-0.2-0.3s-0.2-0.2-0.3-0.2s-0.3-0.1-0.5-0.1c-0.3,0-0.6,0.1-0.8,0.2s-0.5,0.3-0.7,0.5l-0.8-1
		c0.3-0.3,0.7-0.6,1.1-0.7s0.9-0.3,1.3-0.3c0.4,0,0.7,0,1,0.1s0.6,0.2,0.8,0.4c0.2,0.2,0.4,0.4,0.5,0.7s0.2,0.6,0.2,1
		c0,0.3,0,0.6-0.1,0.9s-0.2,0.5-0.4,0.8s-0.3,0.5-0.6,0.8s-0.5,0.5-0.8,0.8l-1.1,1.1h3.2v1.3H300.8z"/>
	<path class="st2" d="M308.9,133c0.2,0,0.3,0,0.5,0.1s0.3,0.1,0.4,0.2s0.2,0.2,0.2,0.4s0.1,0.3,0.1,0.5c0,0.2,0,0.3-0.1,0.4
		s-0.1,0.3-0.2,0.4s-0.2,0.2-0.4,0.2s-0.3,0.1-0.5,0.1c-0.2,0-0.3,0-0.4-0.1s-0.3-0.1-0.4-0.2s-0.2-0.2-0.2-0.4s-0.1-0.3-0.1-0.4
		c0-0.2,0-0.3,0.1-0.5s0.1-0.3,0.2-0.4s0.2-0.2,0.4-0.2S308.7,133,308.9,133z"/>
	<path class="st2" d="M311.9,135.2v-1.3h2V129l-1.7,0.9l-0.5-1.2l2.4-1.3h1.2v6.4h1.7v1.3H311.9z"/>
	<path class="st2" d="M319.6,129.8h-1.2l-0.2-2.9h1.6L319.6,129.8z"/>
	<path class="st2" d="M37.1,176.8l0-0.9c-0.1,0.2-0.3,0.3-0.4,0.4s-0.3,0.2-0.4,0.3s-0.3,0.2-0.5,0.2s-0.4,0.1-0.6,0.1
		c-0.4,0-0.7-0.1-0.9-0.2s-0.5-0.3-0.7-0.6s-0.3-0.6-0.4-0.9S33,174.4,33,174c0-0.5,0.1-1,0.2-1.4s0.4-0.7,0.6-1s0.6-0.5,1-0.6
		s0.8-0.2,1.2-0.2c0.1,0,0.3,0,0.4,0s0.3,0,0.4,0.1v-2.3h1.4v8.3H37.1z M34.5,173.9c0,0.3,0,0.6,0.1,0.8s0.1,0.4,0.2,0.6
		s0.2,0.3,0.3,0.3s0.3,0.1,0.4,0.1c0.2,0,0.5-0.1,0.7-0.3s0.5-0.5,0.7-0.8v-2.6c-0.1,0-0.3-0.1-0.4-0.1s-0.3,0-0.5,0
		c-0.2,0-0.4,0-0.6,0.1s-0.3,0.2-0.5,0.4s-0.2,0.4-0.3,0.6S34.5,173.6,34.5,173.9z"/>
	<path class="st2" d="M45,173.4c0,0.1,0,0.2,0,0.4s0,0.3,0,0.4h-3.9c0,0.3,0,0.5,0.1,0.7s0.2,0.4,0.3,0.5s0.3,0.2,0.5,0.3
		s0.4,0.1,0.7,0.1c0.3,0,0.6,0,0.9-0.1s0.7-0.1,1-0.2v1.1c-0.2,0-0.3,0.1-0.5,0.1s-0.4,0.1-0.6,0.1s-0.4,0-0.6,0.1s-0.4,0-0.6,0
		c-0.5,0-0.9-0.1-1.2-0.2s-0.7-0.3-0.9-0.6s-0.4-0.6-0.6-0.9s-0.2-0.8-0.2-1.3c0-0.5,0.1-0.9,0.2-1.3s0.3-0.7,0.6-1s0.5-0.5,0.9-0.7
		s0.7-0.2,1.2-0.2c0.4,0,0.8,0.1,1.1,0.2s0.6,0.3,0.8,0.5s0.4,0.5,0.5,0.8S45,173,45,173.4z M43.6,173.2c0-0.2,0-0.4-0.1-0.6
		s-0.1-0.3-0.3-0.4s-0.2-0.2-0.4-0.3s-0.3-0.1-0.5-0.1c-0.4,0-0.7,0.1-0.9,0.4s-0.4,0.6-0.4,1H43.6z"/>
	<path class="st2" d="M51,175.1c0,0.3-0.1,0.6-0.2,0.9s-0.3,0.4-0.6,0.6s-0.5,0.3-0.8,0.3s-0.6,0.1-1,0.1c-0.4,0-0.8,0-1.2-0.1
		s-0.7-0.1-1-0.2v-1.3c0.4,0.2,0.7,0.3,1.1,0.3s0.7,0.1,1,0.1c0.4,0,0.7-0.1,0.8-0.2s0.3-0.3,0.3-0.5c0-0.1,0-0.2-0.1-0.2
		s-0.1-0.1-0.2-0.2s-0.3-0.1-0.5-0.2s-0.5-0.2-0.8-0.2c-0.3-0.1-0.5-0.2-0.8-0.3s-0.4-0.2-0.5-0.4s-0.3-0.3-0.3-0.5
		s-0.1-0.4-0.1-0.7c0-0.2,0.1-0.5,0.2-0.7s0.3-0.4,0.5-0.6s0.5-0.3,0.8-0.4s0.7-0.1,1.1-0.1c0.4,0,0.7,0,1,0.1s0.5,0.1,0.8,0.1v1.2
		c-0.3-0.1-0.7-0.2-1-0.2s-0.6-0.1-0.9-0.1s-0.5,0.1-0.7,0.2s-0.3,0.3-0.3,0.4c0,0.1,0,0.2,0.1,0.2s0.1,0.1,0.2,0.2s0.2,0.1,0.4,0.2
		s0.4,0.2,0.7,0.2c0.3,0.1,0.6,0.2,0.9,0.3s0.4,0.2,0.6,0.4s0.2,0.3,0.3,0.5S51,174.9,51,175.1z"/>
	<path class="st2" d="M57.1,176.6c-0.3,0.1-0.6,0.2-0.9,0.3s-0.6,0.1-0.9,0.1c-0.5,0-0.9-0.1-1.3-0.2s-0.7-0.3-1-0.6
		s-0.5-0.6-0.6-0.9s-0.2-0.8-0.2-1.3c0-0.5,0.1-0.9,0.2-1.3s0.4-0.7,0.6-1s0.6-0.5,1-0.6s0.8-0.2,1.3-0.2c0.4,0,0.7,0,1,0.1
		s0.5,0.1,0.7,0.2v1.4c-0.2-0.1-0.5-0.2-0.8-0.3s-0.6-0.1-0.8-0.1c-0.3,0-0.5,0-0.7,0.1s-0.4,0.2-0.5,0.4s-0.3,0.4-0.3,0.6
		s-0.1,0.5-0.1,0.8c0,0.3,0,0.5,0.1,0.8s0.2,0.4,0.3,0.6s0.3,0.3,0.5,0.4s0.4,0.1,0.7,0.1c0.1,0,0.3,0,0.4,0s0.3,0,0.4-0.1
		s0.3-0.1,0.4-0.1s0.3-0.1,0.4-0.1V176.6z"/>
	<path class="st2" d="M62.3,173.2c0-0.2,0-0.4,0-0.6s-0.1-0.3-0.1-0.4s-0.1-0.2-0.2-0.2s-0.2-0.1-0.3-0.1c-0.2,0-0.4,0.1-0.7,0.3
		s-0.5,0.5-0.7,0.9v3.8h-1.5v-6H60l0.1,0.9c0.1-0.2,0.2-0.3,0.3-0.4s0.3-0.2,0.4-0.3s0.3-0.2,0.5-0.2s0.4-0.1,0.6-0.1
		c0.3,0,0.6,0.1,0.8,0.2s0.4,0.3,0.6,0.5s0.3,0.5,0.4,0.8s0.1,0.7,0.1,1.1H62.3z"/>
	<path class="st2" d="M66.6,172h-1.7v-1.1H68v4.8h1.7v1.1h-5.1v-1.1h1.9V172z M68.2,169.3c0,0.1,0,0.2-0.1,0.4s-0.1,0.2-0.2,0.3
		s-0.2,0.2-0.3,0.2s-0.2,0.1-0.4,0.1s-0.3,0-0.4-0.1s-0.2-0.1-0.3-0.2s-0.1-0.2-0.2-0.3s-0.1-0.2-0.1-0.4s0-0.2,0.1-0.4
		s0.1-0.2,0.2-0.3s0.2-0.2,0.3-0.2s0.2-0.1,0.4-0.1s0.3,0,0.4,0.1s0.2,0.1,0.3,0.2s0.1,0.2,0.2,0.3S68.2,169.1,68.2,169.3z"/>
	<path class="st2" d="M76.3,173.8c0,0.5-0.1,1-0.2,1.4s-0.4,0.7-0.6,1s-0.6,0.5-1,0.6s-0.8,0.2-1.2,0.2c-0.4,0-0.8,0-1.2-0.1
		s-0.7-0.2-1.1-0.3v-8h1.4v1.9l-0.1,1.2c0.2-0.3,0.5-0.5,0.8-0.7s0.6-0.3,1-0.3c0.4,0,0.7,0.1,0.9,0.2s0.5,0.3,0.7,0.6
		s0.3,0.6,0.4,0.9S76.3,173.3,76.3,173.8z M74.8,173.8c0-0.3,0-0.6-0.1-0.8s-0.1-0.4-0.2-0.6s-0.2-0.3-0.3-0.3s-0.3-0.1-0.4-0.1
		c-0.2,0-0.5,0.1-0.7,0.3s-0.5,0.5-0.7,0.8v2.6c0.1,0,0.3,0.1,0.4,0.1s0.3,0,0.5,0c0.2,0,0.4,0,0.6-0.1s0.3-0.2,0.5-0.4
		s0.2-0.4,0.3-0.6S74.8,174.1,74.8,173.8z"/>
	<path class="st2" d="M82.6,173.4c0,0.1,0,0.2,0,0.4s0,0.3,0,0.4h-3.9c0,0.3,0,0.5,0.1,0.7s0.2,0.4,0.3,0.5s0.3,0.2,0.5,0.3
		s0.4,0.1,0.7,0.1c0.3,0,0.6,0,0.9-0.1s0.7-0.1,1-0.2v1.1c-0.2,0-0.3,0.1-0.5,0.1s-0.4,0.1-0.6,0.1s-0.4,0-0.6,0.1s-0.4,0-0.6,0
		c-0.5,0-0.9-0.1-1.2-0.2s-0.7-0.3-0.9-0.6s-0.4-0.6-0.6-0.9s-0.2-0.8-0.2-1.3c0-0.5,0.1-0.9,0.2-1.3s0.3-0.7,0.6-1s0.5-0.5,0.9-0.7
		s0.7-0.2,1.2-0.2c0.4,0,0.8,0.1,1.1,0.2s0.6,0.3,0.8,0.5s0.4,0.5,0.5,0.8S82.6,173,82.6,173.4z M81.2,173.2c0-0.2,0-0.4-0.1-0.6
		s-0.1-0.3-0.3-0.4s-0.2-0.2-0.4-0.3s-0.3-0.1-0.5-0.1c-0.4,0-0.7,0.1-0.9,0.4s-0.4,0.6-0.4,1H81.2z"/>
	<path class="st2" d="M95.6,175.1c0,0.3-0.1,0.6-0.2,0.9s-0.3,0.4-0.6,0.6s-0.5,0.3-0.8,0.3s-0.6,0.1-1,0.1c-0.4,0-0.8,0-1.2-0.1
		s-0.7-0.1-1-0.2v-1.3c0.4,0.2,0.7,0.3,1.1,0.3s0.7,0.1,1,0.1c0.4,0,0.7-0.1,0.8-0.2s0.3-0.3,0.3-0.5c0-0.1,0-0.2-0.1-0.2
		s-0.1-0.1-0.2-0.2s-0.3-0.1-0.5-0.2s-0.5-0.2-0.8-0.2c-0.3-0.1-0.5-0.2-0.8-0.3s-0.4-0.2-0.5-0.4s-0.3-0.3-0.3-0.5
		s-0.1-0.4-0.1-0.7c0-0.2,0.1-0.5,0.2-0.7s0.3-0.4,0.5-0.6s0.5-0.3,0.8-0.4s0.7-0.1,1.1-0.1c0.4,0,0.7,0,1,0.1s0.5,0.1,0.8,0.1v1.2
		c-0.3-0.1-0.7-0.2-1-0.2s-0.6-0.1-0.9-0.1s-0.5,0.1-0.7,0.2s-0.3,0.3-0.3,0.4c0,0.1,0,0.2,0.1,0.2s0.1,0.1,0.2,0.2s0.2,0.1,0.4,0.2
		s0.4,0.2,0.7,0.2c0.3,0.1,0.6,0.2,0.9,0.3s0.4,0.2,0.6,0.4s0.2,0.3,0.3,0.5S95.6,174.9,95.6,175.1z"/>
	<path class="st2" d="M101.7,175.1c0,0.3-0.1,0.6-0.2,0.9s-0.3,0.4-0.6,0.6s-0.5,0.3-0.8,0.3s-0.6,0.1-1,0.1c-0.4,0-0.8,0-1.2-0.1
		s-0.7-0.1-1-0.2v-1.3c0.4,0.2,0.7,0.3,1.1,0.3s0.7,0.1,1,0.1c0.4,0,0.7-0.1,0.8-0.2s0.3-0.3,0.3-0.5c0-0.1,0-0.2-0.1-0.2
		s-0.1-0.1-0.2-0.2s-0.3-0.1-0.5-0.2s-0.5-0.2-0.8-0.2c-0.3-0.1-0.5-0.2-0.8-0.3s-0.4-0.2-0.5-0.4s-0.3-0.3-0.3-0.5
		s-0.1-0.4-0.1-0.7c0-0.2,0.1-0.5,0.2-0.7s0.3-0.4,0.5-0.6s0.5-0.3,0.8-0.4s0.7-0.1,1.1-0.1c0.4,0,0.7,0,1,0.1s0.5,0.1,0.8,0.1v1.2
		c-0.3-0.1-0.7-0.2-1-0.2s-0.6-0.1-0.9-0.1s-0.5,0.1-0.7,0.2s-0.3,0.3-0.3,0.4c0,0.1,0,0.2,0.1,0.2s0.1,0.1,0.2,0.2s0.2,0.1,0.4,0.2
		s0.4,0.2,0.7,0.2c0.3,0.1,0.6,0.2,0.9,0.3s0.4,0.2,0.6,0.4s0.2,0.3,0.3,0.5S101.7,174.9,101.7,175.1z"/>
	<path class="st2" d="M106.6,176.8V173c0-0.7-0.2-1-0.7-1c-0.2,0-0.5,0.1-0.7,0.3s-0.5,0.5-0.7,0.8v3.8H103v-8.3h1.4v2l-0.1,1.1
		c0.1-0.1,0.2-0.3,0.4-0.4s0.3-0.2,0.4-0.3s0.3-0.1,0.5-0.2s0.4-0.1,0.6-0.1c0.3,0,0.6,0,0.8,0.1s0.4,0.2,0.6,0.4s0.3,0.4,0.3,0.7
		s0.1,0.5,0.1,0.9v4H106.6z"/>
	<path class="st2" d="M113.3,176.8l0-0.9c-0.1,0.2-0.3,0.3-0.4,0.4s-0.3,0.2-0.4,0.3s-0.3,0.2-0.5,0.2s-0.4,0.1-0.6,0.1
		c-0.4,0-0.7-0.1-0.9-0.2s-0.5-0.3-0.7-0.6s-0.3-0.6-0.4-0.9s-0.1-0.8-0.1-1.2c0-0.5,0.1-1,0.2-1.4s0.4-0.7,0.6-1s0.6-0.5,1-0.6
		s0.8-0.2,1.2-0.2c0.1,0,0.3,0,0.4,0s0.3,0,0.4,0.1v-2.3h1.4v8.3H113.3z M110.7,173.9c0,0.3,0,0.6,0.1,0.8s0.1,0.4,0.2,0.6
		s0.2,0.3,0.3,0.3s0.3,0.1,0.4,0.1c0.2,0,0.5-0.1,0.7-0.3s0.5-0.5,0.7-0.8v-2.6c-0.1,0-0.3-0.1-0.4-0.1s-0.3,0-0.5,0
		c-0.2,0-0.4,0-0.6,0.1s-0.3,0.2-0.5,0.4s-0.2,0.4-0.3,0.6S110.7,173.6,110.7,173.9z"/>
	<path class="st2" d="M115.3,179.2v-1.1h6.6v1.1H115.3z"/>
	<path class="st2" d="M127.2,176.6c-0.3,0.1-0.6,0.2-0.9,0.3s-0.6,0.1-0.9,0.1c-0.5,0-0.9-0.1-1.3-0.2s-0.7-0.3-1-0.6
		s-0.5-0.6-0.6-0.9s-0.2-0.8-0.2-1.3c0-0.5,0.1-0.9,0.2-1.3s0.4-0.7,0.6-1s0.6-0.5,1-0.6s0.8-0.2,1.3-0.2c0.4,0,0.7,0,1,0.1
		s0.5,0.1,0.7,0.2v1.4c-0.2-0.1-0.5-0.2-0.8-0.3s-0.6-0.1-0.8-0.1c-0.3,0-0.5,0-0.7,0.1s-0.4,0.2-0.5,0.4s-0.3,0.4-0.3,0.6
		s-0.1,0.5-0.1,0.8c0,0.3,0,0.5,0.1,0.8s0.2,0.4,0.3,0.6s0.3,0.3,0.5,0.4s0.4,0.1,0.7,0.1c0.1,0,0.3,0,0.4,0s0.3,0,0.4-0.1
		s0.3-0.1,0.4-0.1s0.3-0.1,0.4-0.1V176.6z"/>
	<path class="st2" d="M134,173.8c0,0.5-0.1,0.9-0.2,1.3s-0.3,0.7-0.6,1s-0.6,0.5-0.9,0.6s-0.8,0.2-1.2,0.2c-0.4,0-0.8-0.1-1.2-0.2
		s-0.6-0.3-0.9-0.6s-0.4-0.6-0.6-1s-0.2-0.8-0.2-1.3c0-0.5,0.1-0.9,0.2-1.3s0.3-0.7,0.6-1s0.6-0.5,0.9-0.6s0.8-0.2,1.2-0.2
		c0.4,0,0.8,0.1,1.2,0.2s0.6,0.3,0.9,0.6s0.4,0.6,0.6,1S134,173.3,134,173.8z M132.5,173.9c0-0.6-0.1-1.1-0.3-1.4s-0.6-0.5-1-0.5
		c-0.2,0-0.5,0-0.6,0.1s-0.3,0.2-0.4,0.4s-0.2,0.4-0.2,0.6s-0.1,0.5-0.1,0.7c0,0.6,0.1,1.1,0.4,1.4s0.6,0.5,1,0.5
		c0.2,0,0.4,0,0.6-0.1s0.3-0.2,0.4-0.4s0.2-0.4,0.2-0.6S132.5,174.1,132.5,173.9z"/>
	<path class="st2" d="M138.7,176.8V173c0-0.7-0.2-1-0.7-1c-0.2,0-0.5,0.1-0.7,0.3s-0.5,0.5-0.7,0.8v3.8h-1.4v-6h1.2l0,0.9
		c0.1-0.2,0.2-0.3,0.4-0.4s0.3-0.2,0.4-0.3s0.3-0.2,0.5-0.2s0.4-0.1,0.6-0.1c0.3,0,0.6,0,0.8,0.1s0.4,0.2,0.6,0.4s0.3,0.4,0.3,0.7
		s0.1,0.5,0.1,0.9v4H138.7z"/>
	<path class="st2" d="M146.9,169.8c-0.2-0.1-0.4-0.1-0.6-0.1s-0.5-0.1-0.7-0.1c-0.2,0-0.3,0-0.5,0.1s-0.3,0.1-0.4,0.2
		s-0.2,0.2-0.2,0.4s-0.1,0.3-0.1,0.5v1h2.3v1.1h-2.3v4H143v-4h-1.7v-1.1h1.7v-0.9c0-0.4,0.1-0.8,0.2-1.1s0.3-0.6,0.5-0.7
		s0.5-0.3,0.8-0.4s0.7-0.1,1.1-0.1c0.3,0,0.5,0,0.7,0s0.4,0.1,0.6,0.1V169.8z"/>
	<path class="st2" d="M149.7,172H148v-1.1h3.1v4.8h1.7v1.1h-5.1v-1.1h1.9V172z M151.3,169.3c0,0.1,0,0.2-0.1,0.4s-0.1,0.2-0.2,0.3
		s-0.2,0.2-0.3,0.2s-0.2,0.1-0.4,0.1s-0.3,0-0.4-0.1s-0.2-0.1-0.3-0.2s-0.1-0.2-0.2-0.3s-0.1-0.2-0.1-0.4s0-0.2,0.1-0.4
		s0.1-0.2,0.2-0.3s0.2-0.2,0.3-0.2s0.2-0.1,0.4-0.1s0.3,0,0.4,0.1s0.2,0.1,0.3,0.2s0.1,0.2,0.2,0.3S151.3,169.1,151.3,169.3z"/>
	<path class="st2" d="M158.6,171.9c0.1,0.1,0.2,0.3,0.2,0.4s0.1,0.3,0.1,0.5c0,0.3-0.1,0.6-0.2,0.9s-0.3,0.5-0.5,0.6
		s-0.5,0.3-0.8,0.4s-0.6,0.1-1,0.1c-0.2,0-0.4,0-0.6-0.1s-0.3-0.1-0.4-0.1c-0.1,0.1-0.1,0.1-0.2,0.2s-0.1,0.2-0.1,0.3
		c0,0.1,0,0.1,0,0.2s0.1,0.1,0.1,0.2s0.1,0.1,0.2,0.1s0.2,0,0.3,0.1l1.4,0.1c0.3,0,0.6,0,0.9,0.1s0.5,0.2,0.7,0.3s0.3,0.3,0.4,0.5
		s0.1,0.4,0.1,0.6c0,0.3-0.1,0.5-0.2,0.8s-0.3,0.5-0.6,0.6s-0.6,0.3-0.9,0.4s-0.8,0.2-1.3,0.2c-0.5,0-0.9,0-1.2-0.1
		s-0.6-0.2-0.8-0.3s-0.4-0.3-0.5-0.5s-0.2-0.4-0.2-0.6c0-0.1,0-0.3,0.1-0.4s0.1-0.2,0.2-0.3s0.2-0.2,0.3-0.3s0.2-0.2,0.4-0.3
		c-0.2-0.1-0.3-0.2-0.4-0.4s-0.1-0.4-0.1-0.6c0-0.1,0-0.3,0.1-0.4s0.1-0.2,0.1-0.3s0.1-0.2,0.2-0.3s0.2-0.2,0.2-0.3
		c-0.1-0.1-0.3-0.3-0.4-0.5s-0.1-0.5-0.1-0.8c0-0.3,0.1-0.6,0.2-0.9s0.3-0.5,0.5-0.7s0.5-0.3,0.8-0.4s0.6-0.1,1-0.1
		c0.2,0,0.3,0,0.5,0s0.3,0,0.4,0.1h2.1v1H158.6z M155.2,177.6c0,0.2,0.1,0.4,0.3,0.5s0.6,0.2,1,0.2c0.3,0,0.5,0,0.7-0.1
		s0.3-0.1,0.5-0.2s0.2-0.2,0.3-0.3s0.1-0.2,0.1-0.3c0-0.1,0-0.2-0.1-0.3s-0.1-0.1-0.2-0.2s-0.2-0.1-0.3-0.1s-0.3,0-0.4,0l-1.3,0
		c-0.1,0.1-0.2,0.2-0.3,0.2s-0.1,0.1-0.2,0.2s-0.1,0.1-0.1,0.2S155.2,177.6,155.2,177.6z M155.4,172.9c0,0.3,0.1,0.6,0.3,0.8
		s0.4,0.3,0.8,0.3c0.2,0,0.3,0,0.5-0.1s0.2-0.1,0.3-0.2s0.2-0.2,0.2-0.3s0.1-0.3,0.1-0.4c0-0.3-0.1-0.6-0.3-0.8s-0.4-0.3-0.8-0.3
		c-0.2,0-0.3,0-0.5,0.1s-0.2,0.1-0.3,0.2s-0.2,0.2-0.2,0.3S155.4,172.7,155.4,172.9z"/>
	<path class="st2" d="M171,176.8l0-0.9c-0.1,0.2-0.3,0.3-0.4,0.4s-0.3,0.2-0.4,0.3s-0.3,0.2-0.5,0.2s-0.4,0.1-0.6,0.1
		c-0.4,0-0.7-0.1-0.9-0.2s-0.5-0.3-0.7-0.6s-0.3-0.6-0.4-0.9s-0.1-0.8-0.1-1.2c0-0.5,0.1-1,0.2-1.4s0.4-0.7,0.6-1s0.6-0.5,1-0.6
		s0.8-0.2,1.2-0.2c0.1,0,0.3,0,0.4,0s0.3,0,0.4,0.1v-2.3h1.4v8.3H171z M168.4,173.9c0,0.3,0,0.6,0.1,0.8s0.1,0.4,0.2,0.6
		s0.2,0.3,0.3,0.3s0.3,0.1,0.4,0.1c0.2,0,0.5-0.1,0.7-0.3s0.5-0.5,0.7-0.8v-2.6c-0.1,0-0.3-0.1-0.4-0.1s-0.3,0-0.5,0
		c-0.2,0-0.4,0-0.6,0.1s-0.3,0.2-0.5,0.4s-0.2,0.4-0.3,0.6S168.4,173.6,168.4,173.9z"/>
	<path class="st2" d="M179.2,173.8c0,0.5-0.1,0.9-0.2,1.3s-0.3,0.7-0.6,1s-0.6,0.5-0.9,0.6s-0.8,0.2-1.2,0.2c-0.4,0-0.8-0.1-1.2-0.2
		s-0.6-0.3-0.9-0.6s-0.4-0.6-0.6-1s-0.2-0.8-0.2-1.3c0-0.5,0.1-0.9,0.2-1.3s0.3-0.7,0.6-1s0.6-0.5,0.9-0.6s0.8-0.2,1.2-0.2
		c0.4,0,0.8,0.1,1.2,0.2s0.6,0.3,0.9,0.6s0.4,0.6,0.6,1S179.2,173.3,179.2,173.8z M177.7,173.9c0-0.6-0.1-1.1-0.3-1.4
		s-0.6-0.5-1-0.5c-0.2,0-0.5,0-0.6,0.1s-0.3,0.2-0.4,0.4s-0.2,0.4-0.2,0.6s-0.1,0.5-0.1,0.7c0,0.6,0.1,1.1,0.4,1.4s0.6,0.5,1,0.5
		c0.2,0,0.4,0,0.6-0.1s0.3-0.2,0.4-0.4s0.2-0.4,0.2-0.6S177.7,174.1,177.7,173.9z"/>
	<path class="st2" d="M48.5,192.8h-1.7v-1.1H50v4.8h1.7v1.1h-5.1v-1.1h1.9V192.8z M50.1,190.1c0,0.1,0,0.2-0.1,0.4s-0.1,0.2-0.2,0.3
		s-0.2,0.2-0.3,0.2s-0.2,0.1-0.4,0.1s-0.3,0-0.4-0.1s-0.2-0.1-0.3-0.2s-0.1-0.2-0.2-0.3s-0.1-0.2-0.1-0.4s0-0.2,0.1-0.4
		s0.1-0.2,0.2-0.3s0.2-0.2,0.3-0.2s0.2-0.1,0.4-0.1s0.3,0,0.4,0.1s0.2,0.1,0.3,0.2s0.1,0.2,0.2,0.3S50.1,190,50.1,190.1z"/>
	<path class="st2" d="M57.2,197.6c-0.3,0.1-0.5,0.1-0.8,0.1s-0.5,0.1-0.7,0.1c-0.4,0-0.7,0-1-0.1s-0.5-0.2-0.7-0.4s-0.3-0.4-0.4-0.6
		s-0.1-0.6-0.1-0.9v-2.9h-1.6v-1.1h1.6v-1.5l1.5-0.4v1.9h2.3v1.1h-2.3v2.8c0,0.3,0.1,0.6,0.2,0.8s0.4,0.3,0.8,0.3
		c0.2,0,0.5,0,0.7-0.1s0.4-0.1,0.6-0.1V197.6z"/>
	<path class="st2" d="M63.3,195.9c0,0.3-0.1,0.6-0.2,0.9s-0.3,0.4-0.6,0.6s-0.5,0.3-0.8,0.3s-0.6,0.1-1,0.1c-0.4,0-0.8,0-1.2-0.1
		s-0.7-0.1-1-0.2v-1.3c0.4,0.2,0.7,0.3,1.1,0.3s0.7,0.1,1,0.1c0.4,0,0.7-0.1,0.8-0.2s0.3-0.3,0.3-0.5c0-0.1,0-0.2-0.1-0.2
		s-0.1-0.1-0.2-0.2s-0.3-0.1-0.5-0.2s-0.5-0.2-0.8-0.2c-0.3-0.1-0.5-0.2-0.8-0.3s-0.4-0.2-0.5-0.4s-0.3-0.3-0.3-0.5
		s-0.1-0.4-0.1-0.7c0-0.2,0.1-0.5,0.2-0.7s0.3-0.4,0.5-0.6s0.5-0.3,0.8-0.4s0.7-0.1,1.1-0.1c0.4,0,0.7,0,1,0.1s0.5,0.1,0.8,0.1v1.2
		c-0.3-0.1-0.7-0.2-1-0.2s-0.6-0.1-0.9-0.1s-0.5,0.1-0.7,0.2s-0.3,0.3-0.3,0.4c0,0.1,0,0.2,0.1,0.2s0.1,0.1,0.2,0.2s0.2,0.1,0.4,0.2
		s0.4,0.2,0.7,0.2c0.3,0.1,0.6,0.2,0.9,0.3s0.4,0.2,0.6,0.4s0.2,0.3,0.3,0.5S63.3,195.7,63.3,195.9z"/>
	<path class="st2" d="M67.7,200.1c-0.9-0.8-1.7-1.7-2.1-2.6s-0.7-1.9-0.7-3c0-0.6,0.1-1.2,0.2-1.7s0.3-1,0.6-1.5s0.6-0.9,0.9-1.3
		s0.7-0.8,1.2-1.1l0.8,0.8c-0.8,0.7-1.3,1.4-1.7,2.2s-0.6,1.6-0.6,2.5c0,0.9,0.2,1.7,0.6,2.6s1,1.6,1.7,2.2L67.7,200.1z"/>
	<path class="st2" d="M72.1,192.3h-1.2l-0.2-2.9h1.6L72.1,192.3z"/>
	<path class="st2" d="M79.7,192.4c0,0.4-0.1,0.8-0.2,1.1s-0.3,0.6-0.6,0.9s-0.6,0.4-1,0.6s-0.8,0.2-1.4,0.2h-0.7v2.5h-1.5V190h2.2
		c0.5,0,0.9,0.1,1.3,0.2s0.7,0.3,1,0.5s0.5,0.5,0.6,0.8S79.7,192.1,79.7,192.4z M78.2,192.5c0-0.2,0-0.4-0.1-0.6s-0.2-0.3-0.3-0.4
		s-0.3-0.2-0.5-0.3s-0.4-0.1-0.7-0.1h-0.8v2.8h0.8c0.2,0,0.5,0,0.7-0.1s0.4-0.2,0.5-0.3s0.2-0.3,0.3-0.5S78.2,192.8,78.2,192.5z"/>
	<path class="st2" d="M84.4,194c0-0.2,0-0.4,0-0.6s-0.1-0.3-0.1-0.4s-0.1-0.2-0.2-0.2s-0.2-0.1-0.3-0.1c-0.2,0-0.4,0.1-0.7,0.3
		s-0.5,0.5-0.7,0.9v3.8h-1.5v-6h1.3l0.1,0.9c0.1-0.2,0.2-0.3,0.3-0.4s0.3-0.2,0.4-0.3s0.3-0.2,0.5-0.2s0.4-0.1,0.6-0.1
		c0.3,0,0.6,0.1,0.8,0.2s0.4,0.3,0.6,0.5s0.3,0.5,0.4,0.8s0.1,0.7,0.1,1.1H84.4z"/>
	<path class="st2" d="M92.4,194.6c0,0.5-0.1,0.9-0.2,1.3s-0.3,0.7-0.6,1s-0.6,0.5-0.9,0.6s-0.8,0.2-1.2,0.2c-0.4,0-0.8-0.1-1.2-0.2
		s-0.6-0.3-0.9-0.6s-0.4-0.6-0.6-1s-0.2-0.8-0.2-1.3c0-0.5,0.1-0.9,0.2-1.3s0.3-0.7,0.6-1s0.6-0.5,0.9-0.6s0.8-0.2,1.2-0.2
		c0.4,0,0.8,0.1,1.2,0.2s0.6,0.3,0.9,0.6s0.4,0.6,0.6,1S92.4,194.1,92.4,194.6z M90.9,194.7c0-0.6-0.1-1.1-0.3-1.4s-0.6-0.5-1-0.5
		c-0.2,0-0.5,0-0.6,0.1s-0.3,0.2-0.4,0.4s-0.2,0.4-0.2,0.6s-0.1,0.5-0.1,0.7c0,0.6,0.1,1.1,0.4,1.4s0.6,0.5,1,0.5
		c0.2,0,0.4,0,0.6-0.1s0.3-0.2,0.4-0.4s0.2-0.4,0.2-0.6S90.9,194.9,90.9,194.7z"/>
	<path class="st2" d="M98.4,197.6c-0.3,0.1-0.5,0.1-0.8,0.1s-0.5,0.1-0.7,0.1c-0.4,0-0.7,0-1-0.1s-0.5-0.2-0.7-0.4s-0.3-0.4-0.4-0.6
		s-0.1-0.6-0.1-0.9v-2.9h-1.6v-1.1h1.6v-1.5l1.5-0.4v1.9h2.3v1.1h-2.3v2.8c0,0.3,0.1,0.6,0.2,0.8s0.4,0.3,0.8,0.3
		c0.2,0,0.5,0,0.7-0.1s0.4-0.1,0.6-0.1V197.6z"/>
	<path class="st2" d="M105.1,194.6c0,0.5-0.1,0.9-0.2,1.3s-0.3,0.7-0.6,1s-0.6,0.5-0.9,0.6s-0.8,0.2-1.2,0.2c-0.4,0-0.8-0.1-1.2-0.2
		s-0.6-0.3-0.9-0.6s-0.4-0.6-0.6-1s-0.2-0.8-0.2-1.3c0-0.5,0.1-0.9,0.2-1.3s0.3-0.7,0.6-1s0.6-0.5,0.9-0.6s0.8-0.2,1.2-0.2
		c0.4,0,0.8,0.1,1.2,0.2s0.6,0.3,0.9,0.6s0.4,0.6,0.6,1S105.1,194.1,105.1,194.6z M103.7,194.7c0-0.6-0.1-1.1-0.3-1.4
		s-0.6-0.5-1-0.5c-0.2,0-0.5,0-0.6,0.1s-0.3,0.2-0.4,0.4s-0.2,0.4-0.2,0.6s-0.1,0.5-0.1,0.7c0,0.6,0.1,1.1,0.4,1.4s0.6,0.5,1,0.5
		c0.2,0,0.4,0,0.6-0.1s0.3-0.2,0.4-0.4s0.2-0.4,0.2-0.6S103.7,194.9,103.7,194.7z"/>
	<path class="st2" d="M111,197.4c-0.3,0.1-0.6,0.2-0.9,0.3s-0.6,0.1-0.9,0.1c-0.5,0-0.9-0.1-1.3-0.2s-0.7-0.3-1-0.6
		s-0.5-0.6-0.6-0.9s-0.2-0.8-0.2-1.3c0-0.5,0.1-0.9,0.2-1.3s0.4-0.7,0.6-1s0.6-0.5,1-0.6s0.8-0.2,1.3-0.2c0.4,0,0.7,0,1,0.1
		s0.5,0.1,0.7,0.2v1.4c-0.2-0.1-0.5-0.2-0.8-0.3s-0.6-0.1-0.8-0.1c-0.3,0-0.5,0-0.7,0.1s-0.4,0.2-0.5,0.4s-0.3,0.4-0.3,0.6
		s-0.1,0.5-0.1,0.8c0,0.3,0,0.5,0.1,0.8s0.2,0.4,0.3,0.6s0.3,0.3,0.5,0.4s0.4,0.1,0.7,0.1c0.1,0,0.3,0,0.4,0s0.3,0,0.4-0.1
		s0.3-0.1,0.4-0.1s0.3-0.1,0.4-0.1V197.4z"/>
	<path class="st2" d="M117.8,194.6c0,0.5-0.1,0.9-0.2,1.3s-0.3,0.7-0.6,1s-0.6,0.5-0.9,0.6s-0.8,0.2-1.2,0.2c-0.4,0-0.8-0.1-1.2-0.2
		s-0.6-0.3-0.9-0.6s-0.4-0.6-0.6-1s-0.2-0.8-0.2-1.3c0-0.5,0.1-0.9,0.2-1.3s0.3-0.7,0.6-1s0.6-0.5,0.9-0.6s0.8-0.2,1.2-0.2
		c0.4,0,0.8,0.1,1.2,0.2s0.6,0.3,0.9,0.6s0.4,0.6,0.6,1S117.8,194.1,117.8,194.6z M116.3,194.7c0-0.6-0.1-1.1-0.3-1.4
		s-0.6-0.5-1-0.5c-0.2,0-0.5,0-0.6,0.1s-0.3,0.2-0.4,0.4s-0.2,0.4-0.2,0.6s-0.1,0.5-0.1,0.7c0,0.6,0.1,1.1,0.4,1.4s0.6,0.5,1,0.5
		c0.2,0,0.4,0,0.6-0.1s0.3-0.2,0.4-0.4s0.2-0.4,0.2-0.6S116.3,194.9,116.3,194.7z"/>
	<path class="st2" d="M120.6,190.5h-1.7v-1.1h3.1v7.2h1.7v1.1h-5.1v-1.1h1.9V190.5z"/>
	<path class="st2" d="M126.4,192.3h-1.2l-0.2-2.9h1.6L126.4,192.3z"/>
	<path class="st2" d="M129.6,188.9c1,0.8,1.7,1.7,2.1,2.6s0.7,1.9,0.7,3c0,0.6-0.1,1.2-0.2,1.7s-0.3,1-0.6,1.5s-0.6,0.9-0.9,1.3
		s-0.7,0.8-1.2,1.1l-0.8-0.8c0.8-0.7,1.3-1.4,1.7-2.2s0.6-1.6,0.6-2.5c0-0.9-0.2-1.7-0.6-2.6s-1-1.6-1.7-2.2L129.6,188.9z"/>
	<path class="st2" d="M145.4,200c-0.8,0-1.4-0.2-1.8-0.6s-0.6-1-0.6-1.8v-1.5c0-0.4-0.1-0.7-0.3-0.9s-0.5-0.3-0.9-0.3h-0.4v-1.1h0.4
		c0.2,0,0.4,0,0.5-0.1s0.3-0.1,0.4-0.2s0.2-0.2,0.2-0.4s0.1-0.3,0.1-0.5v-1c0-0.4,0-0.8,0.1-1.1s0.2-0.6,0.4-0.8s0.4-0.4,0.7-0.5
		s0.7-0.2,1.1-0.2h0.5v1.1h-0.4c-0.2,0-0.4,0-0.5,0.1s-0.3,0.1-0.4,0.2s-0.2,0.2-0.3,0.4s-0.1,0.4-0.1,0.6v1c0,0.3,0,0.5-0.1,0.8
		s-0.1,0.4-0.2,0.5s-0.2,0.2-0.4,0.3s-0.3,0.1-0.6,0.2c0.4,0,0.7,0.2,0.9,0.5s0.3,0.7,0.3,1.3v1.5c0,0.3,0,0.5,0.1,0.6
		s0.1,0.3,0.3,0.4s0.2,0.2,0.4,0.2s0.3,0.1,0.5,0.1h0.4v1.1H145.4z"/>
	<path class="st2" d="M159.5,195.9c0,0.3-0.1,0.6-0.2,0.9s-0.3,0.4-0.6,0.6s-0.5,0.3-0.8,0.3s-0.6,0.1-1,0.1c-0.4,0-0.8,0-1.2-0.1
		s-0.7-0.1-1-0.2v-1.3c0.4,0.2,0.7,0.3,1.1,0.3s0.7,0.1,1,0.1c0.4,0,0.7-0.1,0.8-0.2s0.3-0.3,0.3-0.5c0-0.1,0-0.2-0.1-0.2
		s-0.1-0.1-0.2-0.2s-0.3-0.1-0.5-0.2s-0.5-0.2-0.8-0.2c-0.3-0.1-0.5-0.2-0.8-0.3s-0.4-0.2-0.5-0.4s-0.3-0.3-0.3-0.5
		s-0.1-0.4-0.1-0.7c0-0.2,0.1-0.5,0.2-0.7s0.3-0.4,0.5-0.6s0.5-0.3,0.8-0.4s0.7-0.1,1.1-0.1c0.4,0,0.7,0,1,0.1s0.5,0.1,0.8,0.1v1.2
		c-0.3-0.1-0.7-0.2-1-0.2s-0.6-0.1-0.9-0.1s-0.5,0.1-0.7,0.2s-0.3,0.3-0.3,0.4c0,0.1,0,0.2,0.1,0.2s0.1,0.1,0.2,0.2s0.2,0.1,0.4,0.2
		s0.4,0.2,0.7,0.2c0.3,0.1,0.6,0.2,0.9,0.3s0.4,0.2,0.6,0.4s0.2,0.3,0.3,0.5S159.5,195.7,159.5,195.9z"/>
	<path class="st2" d="M164.4,197.7v-3.9c0-0.7-0.2-1-0.7-1c-0.2,0-0.5,0.1-0.7,0.3s-0.5,0.5-0.7,0.8v3.8h-1.4v-8.3h1.4v2l-0.1,1.1
		c0.1-0.1,0.2-0.3,0.4-0.4s0.3-0.2,0.4-0.3s0.3-0.1,0.5-0.2s0.4-0.1,0.6-0.1c0.3,0,0.6,0,0.8,0.1s0.4,0.2,0.6,0.4s0.3,0.4,0.3,0.7
		s0.1,0.5,0.1,0.9v4H164.4z"/>
	<path class="st2" d="M172.7,194.6c0,0.5-0.1,0.9-0.2,1.3s-0.3,0.7-0.6,1s-0.6,0.5-0.9,0.6s-0.8,0.2-1.2,0.2c-0.4,0-0.8-0.1-1.2-0.2
		s-0.6-0.3-0.9-0.6s-0.4-0.6-0.6-1s-0.2-0.8-0.2-1.3c0-0.5,0.1-0.9,0.2-1.3s0.3-0.7,0.6-1s0.6-0.5,0.9-0.6s0.8-0.2,1.2-0.2
		c0.4,0,0.8,0.1,1.2,0.2s0.6,0.3,0.9,0.6s0.4,0.6,0.6,1S172.7,194.1,172.7,194.6z M171.2,194.7c0-0.6-0.1-1.1-0.3-1.4
		s-0.6-0.5-1-0.5c-0.2,0-0.5,0-0.6,0.1s-0.3,0.2-0.4,0.4s-0.2,0.4-0.2,0.6s-0.1,0.5-0.1,0.7c0,0.6,0.1,1.1,0.4,1.4s0.6,0.5,1,0.5
		c0.2,0,0.4,0,0.6-0.1s0.3-0.2,0.4-0.4s0.2-0.4,0.2-0.6S171.2,194.9,171.2,194.7z"/>
	<path class="st2" d="M175.3,191.7v3.9c0,0.3,0.1,0.6,0.2,0.7s0.3,0.2,0.6,0.2c0.2,0,0.5-0.1,0.7-0.3s0.5-0.5,0.7-0.8v-3.8h1.4v6
		h-1.2l0-0.9c-0.1,0.2-0.3,0.3-0.4,0.4s-0.3,0.2-0.4,0.3s-0.3,0.2-0.5,0.2s-0.4,0.1-0.6,0.1c-0.3,0-0.6,0-0.8-0.1s-0.4-0.2-0.6-0.4
		s-0.3-0.4-0.3-0.7s-0.1-0.5-0.1-0.9v-4H175.3z"/>
	<path class="st2" d="M182,190.5h-1.7v-1.1h3.1v7.2h1.7v1.1h-5.1v-1.1h1.9V190.5z"/>
	<path class="st2" d="M190.1,197.7l0-0.9c-0.1,0.2-0.3,0.3-0.4,0.4s-0.3,0.2-0.4,0.3s-0.3,0.2-0.5,0.2s-0.4,0.1-0.6,0.1
		c-0.4,0-0.7-0.1-0.9-0.2s-0.5-0.3-0.7-0.6s-0.3-0.6-0.4-0.9s-0.1-0.8-0.1-1.2c0-0.5,0.1-1,0.2-1.4s0.4-0.7,0.6-1s0.6-0.5,1-0.6
		s0.8-0.2,1.2-0.2c0.1,0,0.3,0,0.4,0s0.3,0,0.4,0.1v-2.3h1.4v8.3H190.1z M187.5,194.7c0,0.3,0,0.6,0.1,0.8s0.1,0.4,0.2,0.6
		s0.2,0.3,0.3,0.3s0.3,0.1,0.4,0.1c0.2,0,0.5-0.1,0.7-0.3s0.5-0.5,0.7-0.8v-2.6c-0.1,0-0.3-0.1-0.4-0.1s-0.3,0-0.5,0
		c-0.2,0-0.4,0-0.6,0.1s-0.3,0.2-0.5,0.4s-0.2,0.4-0.3,0.6S187.5,194.4,187.5,194.7z"/>
	<path class="st2" d="M204.4,197.4c-0.3,0.1-0.6,0.2-0.9,0.3s-0.6,0.1-0.9,0.1c-0.5,0-0.9-0.1-1.3-0.2s-0.7-0.3-1-0.6
		s-0.5-0.6-0.6-0.9s-0.2-0.8-0.2-1.3c0-0.5,0.1-0.9,0.2-1.3s0.4-0.7,0.6-1s0.6-0.5,1-0.6s0.8-0.2,1.3-0.2c0.4,0,0.7,0,1,0.1
		s0.5,0.1,0.7,0.2v1.4c-0.2-0.1-0.5-0.2-0.8-0.3s-0.6-0.1-0.8-0.1c-0.3,0-0.5,0-0.7,0.1s-0.4,0.2-0.5,0.4s-0.3,0.4-0.3,0.6
		s-0.1,0.5-0.1,0.8c0,0.3,0,0.5,0.1,0.8s0.2,0.4,0.3,0.6s0.3,0.3,0.5,0.4s0.4,0.1,0.7,0.1c0.1,0,0.3,0,0.4,0s0.3,0,0.4-0.1
		s0.3-0.1,0.4-0.1s0.3-0.1,0.4-0.1V197.4z"/>
	<path class="st2" d="M210.3,197.7v-4.1c0-0.1,0-0.3,0-0.4s0-0.2,0-0.3s-0.1-0.1-0.1-0.2s-0.1-0.1-0.2-0.1c-0.1,0-0.2,0.1-0.4,0.2
		s-0.2,0.4-0.4,0.8v3.9H208v-4.1c0-0.1,0-0.3,0-0.4s0-0.2,0-0.3s-0.1-0.1-0.1-0.2s-0.1-0.1-0.2-0.1c-0.1,0-0.2,0.1-0.3,0.2
		s-0.3,0.4-0.4,0.8v3.9h-1.2v-6h1.1l0,0.9c0.1-0.2,0.2-0.3,0.3-0.5s0.2-0.2,0.3-0.3s0.2-0.1,0.3-0.2s0.2-0.1,0.4-0.1
		c0.3,0,0.6,0.1,0.8,0.3s0.3,0.4,0.3,0.7c0.1-0.2,0.2-0.3,0.3-0.5s0.2-0.2,0.3-0.3s0.2-0.1,0.3-0.2s0.2-0.1,0.4-0.1
		c0.4,0,0.8,0.2,1,0.5s0.3,0.8,0.3,1.3v4.3H210.3z"/>
	<path class="st2" d="M218.2,194.6c0,0.5-0.1,1-0.2,1.4s-0.4,0.7-0.6,1s-0.6,0.5-1,0.6s-0.8,0.2-1.2,0.2c-0.1,0-0.3,0-0.4,0
		s-0.3,0-0.4-0.1v2.3h-1.4v-8.3h1.2l0,0.9c0.1-0.2,0.2-0.3,0.4-0.4s0.3-0.2,0.4-0.3s0.3-0.2,0.5-0.2s0.4-0.1,0.6-0.1
		c0.4,0,0.7,0.1,0.9,0.2s0.5,0.3,0.7,0.6s0.3,0.6,0.4,0.9S218.2,194.1,218.2,194.6z M216.7,194.6c0-0.3,0-0.6-0.1-0.8
		s-0.1-0.4-0.2-0.6s-0.2-0.3-0.3-0.3s-0.3-0.1-0.4-0.1c-0.2,0-0.5,0.1-0.7,0.3s-0.5,0.5-0.7,0.8v2.6c0.1,0,0.3,0.1,0.4,0.1
		s0.3,0,0.5,0c0.2,0,0.4,0,0.6-0.1s0.3-0.2,0.5-0.4s0.2-0.4,0.3-0.6S216.7,195,216.7,194.6z"/>
	<path class="st2" d="M226,197.7v-1.1l1.8-1.8c0.3-0.3,0.6-0.6,0.8-0.9s0.4-0.5,0.5-0.7s0.2-0.4,0.2-0.5s0.1-0.3,0.1-0.5
		c0-0.1,0-0.3-0.1-0.4s-0.1-0.2-0.2-0.3s-0.2-0.2-0.3-0.2s-0.3-0.1-0.5-0.1c-0.3,0-0.6,0.1-0.8,0.2s-0.5,0.3-0.7,0.5l-0.8-1
		c0.3-0.3,0.7-0.6,1.1-0.7s0.9-0.3,1.4-0.3c0.4,0,0.7,0,1,0.1s0.6,0.2,0.8,0.4s0.4,0.4,0.5,0.7s0.2,0.6,0.2,1c0,0.3,0,0.6-0.1,0.9
		s-0.2,0.5-0.4,0.8s-0.3,0.5-0.6,0.8s-0.5,0.5-0.8,0.8l-1.1,1.1h3.2v1.3H226z"/>
	<path class="st2" d="M240.2,189.1c0.8,0,1.4,0.2,1.8,0.6s0.6,1,0.6,1.9v1c0,0.4,0.1,0.7,0.3,0.9s0.5,0.3,0.9,0.3h0.4v1.1h-0.4
		c-0.2,0-0.4,0-0.5,0.1s-0.3,0.1-0.4,0.2s-0.2,0.2-0.2,0.4s-0.1,0.3-0.1,0.5v1.5c0,0.4,0,0.8-0.1,1.1s-0.2,0.6-0.4,0.8
		s-0.4,0.4-0.8,0.5s-0.7,0.2-1.1,0.2h-0.5v-1.1h0.4c0.2,0,0.4,0,0.5-0.1s0.3-0.1,0.4-0.2s0.2-0.2,0.3-0.4s0.1-0.4,0.1-0.6v-1.5
		c0-0.3,0-0.5,0.1-0.8s0.1-0.4,0.2-0.5s0.2-0.2,0.4-0.3s0.3-0.1,0.6-0.2c-0.4-0.1-0.7-0.2-0.9-0.5s-0.3-0.7-0.3-1.3v-1
		c0-0.3,0-0.5-0.1-0.6s-0.1-0.3-0.3-0.4s-0.2-0.2-0.4-0.2s-0.3-0.1-0.5-0.1h-0.4v-1.1H240.2z"/>
	<path class="st2" d="M38.6,215.1c0,0.1,0,0.2,0,0.4s0,0.3,0,0.4h-3.9c0,0.3,0,0.5,0.1,0.7s0.2,0.4,0.3,0.5s0.3,0.2,0.5,0.3
		s0.4,0.1,0.7,0.1c0.3,0,0.6,0,0.9-0.1s0.7-0.1,1-0.2v1.1c-0.2,0-0.3,0.1-0.5,0.1s-0.4,0.1-0.6,0.1s-0.4,0-0.6,0.1s-0.4,0-0.6,0
		c-0.5,0-0.9-0.1-1.2-0.2s-0.7-0.3-0.9-0.6s-0.4-0.6-0.6-0.9s-0.2-0.8-0.2-1.3c0-0.5,0.1-0.9,0.2-1.3s0.3-0.7,0.6-1s0.5-0.5,0.9-0.7
		s0.7-0.2,1.2-0.2c0.4,0,0.8,0.1,1.1,0.2s0.6,0.3,0.8,0.5s0.4,0.5,0.5,0.8S38.6,214.7,38.6,215.1z M37.1,214.9c0-0.2,0-0.4-0.1-0.6
		s-0.1-0.3-0.3-0.4s-0.2-0.2-0.4-0.3s-0.3-0.1-0.5-0.1c-0.4,0-0.7,0.1-0.9,0.4s-0.4,0.6-0.4,1H37.1z"/>
	<path class="st2" d="M43.4,218.5v-3.9c0-0.7-0.2-1-0.7-1c-0.2,0-0.5,0.1-0.7,0.3s-0.5,0.5-0.7,0.8v3.8h-1.4v-6h1.2l0,0.9
		c0.1-0.2,0.2-0.3,0.4-0.4s0.3-0.2,0.4-0.3s0.3-0.2,0.5-0.2s0.4-0.1,0.6-0.1c0.3,0,0.6,0,0.8,0.1s0.4,0.2,0.6,0.4s0.3,0.4,0.3,0.7
		s0.1,0.5,0.1,0.9v4H43.4z"/>
	<path class="st2" d="M50.1,218.5l0-0.9c-0.1,0.2-0.3,0.3-0.4,0.4s-0.3,0.2-0.4,0.3s-0.3,0.2-0.5,0.2s-0.4,0.1-0.6,0.1
		c-0.4,0-0.7-0.1-0.9-0.2s-0.5-0.3-0.7-0.6s-0.3-0.6-0.4-0.9s-0.1-0.8-0.1-1.2c0-0.5,0.1-1,0.2-1.4s0.4-0.7,0.6-1s0.6-0.5,1-0.6
		s0.8-0.2,1.2-0.2c0.1,0,0.3,0,0.4,0s0.3,0,0.4,0.1v-2.3h1.4v8.3H50.1z M47.5,215.6c0,0.3,0,0.6,0.1,0.8s0.1,0.4,0.2,0.6
		s0.2,0.3,0.3,0.3s0.3,0.1,0.4,0.1c0.2,0,0.5-0.1,0.7-0.3s0.5-0.5,0.7-0.8v-2.6c-0.1,0-0.3-0.1-0.4-0.1s-0.3,0-0.5,0
		c-0.2,0-0.4,0-0.6,0.1s-0.3,0.2-0.5,0.4s-0.2,0.4-0.3,0.6S47.5,215.3,47.5,215.6z"/>
	<path class="st2" d="M25.4,235.9c0,0.1,0,0.2,0,0.4s0,0.3,0,0.4h-3.9c0,0.3,0,0.5,0.1,0.7s0.2,0.4,0.3,0.5s0.3,0.2,0.5,0.3
		s0.4,0.1,0.7,0.1c0.3,0,0.6,0,0.9-0.1s0.7-0.1,1-0.2v1.1c-0.2,0-0.3,0.1-0.5,0.1s-0.4,0.1-0.6,0.1s-0.4,0-0.6,0.1s-0.4,0-0.6,0
		c-0.5,0-0.9-0.1-1.2-0.2s-0.7-0.3-0.9-0.6s-0.4-0.6-0.6-0.9S20,237,20,236.5c0-0.5,0.1-0.9,0.2-1.3s0.3-0.7,0.6-1s0.5-0.5,0.9-0.7
		s0.7-0.2,1.2-0.2c0.4,0,0.8,0.1,1.1,0.2s0.6,0.3,0.8,0.5s0.4,0.5,0.5,0.8S25.4,235.5,25.4,235.9z M23.9,235.7c0-0.2,0-0.4-0.1-0.6
		s-0.1-0.3-0.3-0.4s-0.2-0.2-0.4-0.3s-0.3-0.1-0.5-0.1c-0.4,0-0.7,0.1-0.9,0.4s-0.4,0.6-0.4,1H23.9z"/>
	<path class="st2" d="M30.2,239.3v-3.9c0-0.7-0.2-1-0.7-1c-0.2,0-0.5,0.1-0.7,0.3s-0.5,0.5-0.7,0.8v3.8h-1.4v-6h1.2l0,0.9
		c0.1-0.2,0.2-0.3,0.4-0.4s0.3-0.2,0.4-0.3s0.3-0.2,0.5-0.2s0.4-0.1,0.6-0.1c0.3,0,0.6,0,0.8,0.1s0.4,0.2,0.6,0.4s0.3,0.4,0.3,0.7
		s0.1,0.5,0.1,0.9v4H30.2z"/>
	<path class="st2" d="M36.9,239.3l0-0.9c-0.1,0.2-0.3,0.3-0.4,0.4s-0.3,0.2-0.4,0.3s-0.3,0.2-0.5,0.2s-0.4,0.1-0.6,0.1
		c-0.4,0-0.7-0.1-0.9-0.2s-0.5-0.3-0.7-0.6s-0.3-0.6-0.4-0.9s-0.1-0.8-0.1-1.2c0-0.5,0.1-1,0.2-1.4s0.4-0.7,0.6-1s0.6-0.5,1-0.6
		s0.8-0.2,1.2-0.2c0.1,0,0.3,0,0.4,0s0.3,0,0.4,0.1V231h1.4v8.3H36.9z M34.3,236.4c0,0.3,0,0.6,0.1,0.8s0.1,0.4,0.2,0.6
		s0.2,0.3,0.3,0.3s0.3,0.1,0.4,0.1c0.2,0,0.5-0.1,0.7-0.3s0.5-0.5,0.7-0.8v-2.6c-0.1,0-0.3-0.1-0.4-0.1s-0.3,0-0.5,0
		c-0.2,0-0.4,0-0.6,0.1s-0.3,0.2-0.5,0.4s-0.2,0.4-0.3,0.6S34.3,236.1,34.3,236.4z"/>
</g>
<g>
</g>
<g>
</g>
<g>
</g>
<g>
</g>
<g>
</g>
<g>
</g>
</svg>
