<?xml version="1.0" encoding="utf-8"?>
<!-- Generator: Adobe Illustrator 20.1.0, SVG Export Plug-In . SVG Version: 6.00 Build 0)  -->
<svg version="1.1" id="Layer_1" xmlns="http://www.w3.org/2000/svg" xmlns:xlink="http://www.w3.org/1999/xlink" x="0px" y="0px"
	 viewBox="0 0 402.3 330" style="enable-background:new 0 0 402.3 330;" xml:space="preserve">
<style type="text/css">
	.st0{fill:#E6E6E6;}
	.st1{fill:#FFFFFF;}
	.st2{fill:#4197B5;}
</style>
<rect x="7" y="7" class="st0" width="395.3" height="323"/>
<g>
	<rect x="4" y="18.4" class="st1" width="387.3" height="300.6"/>
</g>
<g>
	<path class="st2" d="M22.7,48.1l0-0.9c-0.1,0.2-0.3,0.3-0.4,0.4s-0.3,0.2-0.4,0.3s-0.3,0.2-0.5,0.2s-0.4,0.1-0.6,0.1
		c-0.4,0-0.7-0.1-0.9-0.2s-0.5-0.3-0.7-0.6s-0.3-0.6-0.4-0.9s-0.1-0.8-0.1-1.2c0-0.5,0.1-1,0.2-1.4s0.4-0.7,0.6-1s0.6-0.5,1-0.6
		s0.8-0.2,1.2-0.2c0.1,0,0.3,0,0.4,0s0.3,0,0.4,0.1v-2.3H24v8.3H22.7z M20.1,45.2c0,0.3,0,0.6,0.1,0.8s0.1,0.4,0.2,0.6
		s0.2,0.3,0.3,0.3S21,47,21.1,47c0.2,0,0.5-0.1,0.7-0.3s0.5-0.5,0.7-0.8v-2.6c-0.1,0-0.3-0.1-0.4-0.1s-0.3,0-0.5,0
		c-0.2,0-0.4,0-0.6,0.1s-0.3,0.2-0.5,0.4s-0.2,0.4-0.3,0.6S20.1,44.9,20.1,45.2z"/>
	<path class="st2" d="M30.6,44.7c0,0.1,0,0.2,0,0.4s0,0.3,0,0.4h-3.9c0,0.3,0,0.5,0.1,0.7s0.2,0.4,0.3,0.5s0.3,0.2,0.5,0.3
		s0.4,0.1,0.7,0.1c0.3,0,0.6,0,0.9-0.1s0.7-0.1,1-0.2v1.1C30.1,48,30,48,29.8,48s-0.4,0.1-0.6,0.1s-0.4,0-0.6,0.1s-0.4,0-0.6,0
		c-0.5,0-0.9-0.1-1.2-0.2s-0.7-0.3-0.9-0.6s-0.4-0.6-0.6-0.9s-0.2-0.8-0.2-1.3c0-0.5,0.1-0.9,0.2-1.3s0.3-0.7,0.6-1s0.5-0.5,0.9-0.7
		S27.6,42,28,42c0.4,0,0.8,0.1,1.1,0.2s0.6,0.3,0.8,0.5s0.4,0.5,0.5,0.8S30.6,44.3,30.6,44.7z M29.2,44.5c0-0.2,0-0.4-0.1-0.6
		s-0.1-0.3-0.3-0.4s-0.2-0.2-0.4-0.3s-0.3-0.1-0.5-0.1c-0.4,0-0.7,0.1-0.9,0.4s-0.4,0.6-0.4,1H29.2z"/>
	<path class="st2" d="M36.6,46.3c0,0.3-0.1,0.6-0.2,0.9s-0.3,0.4-0.6,0.6s-0.5,0.3-0.8,0.3s-0.6,0.1-1,0.1c-0.4,0-0.8,0-1.2-0.1
		s-0.7-0.1-1-0.2v-1.3c0.4,0.2,0.7,0.3,1.1,0.3s0.7,0.1,1,0.1c0.4,0,0.7-0.1,0.8-0.2s0.3-0.3,0.3-0.5c0-0.1,0-0.2-0.1-0.2
		s-0.1-0.1-0.2-0.2s-0.3-0.1-0.5-0.2s-0.5-0.2-0.8-0.2c-0.3-0.1-0.5-0.2-0.8-0.3s-0.4-0.2-0.5-0.4s-0.3-0.3-0.3-0.5
		c-0.1-0.2-0.1-0.4-0.1-0.7c0-0.2,0.1-0.5,0.2-0.7c0.1-0.2,0.3-0.4,0.5-0.6s0.5-0.3,0.8-0.4S34,42,34.4,42c0.4,0,0.7,0,1,0.1
		s0.5,0.1,0.8,0.1v1.2c-0.3-0.1-0.7-0.2-1-0.2s-0.6-0.1-0.9-0.1s-0.5,0.1-0.7,0.2s-0.3,0.3-0.3,0.4c0,0.1,0,0.2,0.1,0.2
		s0.1,0.1,0.2,0.2s0.2,0.1,0.4,0.2s0.4,0.2,0.7,0.2c0.3,0.1,0.6,0.2,0.9,0.3s0.4,0.2,0.6,0.4s0.2,0.3,0.3,0.5S36.6,46.1,36.6,46.3z"
		/>
	<path class="st2" d="M42.7,47.9c-0.3,0.1-0.6,0.2-0.9,0.3s-0.6,0.1-0.9,0.1c-0.5,0-0.9-0.1-1.3-0.2s-0.7-0.3-1-0.6
		s-0.5-0.6-0.6-0.9s-0.2-0.8-0.2-1.3c0-0.5,0.1-0.9,0.2-1.3s0.4-0.7,0.6-1s0.6-0.5,1-0.6S40.5,42,41,42c0.4,0,0.7,0,1,0.1
		s0.5,0.1,0.7,0.2v1.4c-0.2-0.1-0.5-0.2-0.8-0.3s-0.6-0.1-0.8-0.1c-0.3,0-0.5,0-0.7,0.1s-0.4,0.2-0.5,0.4s-0.3,0.4-0.3,0.6
		s-0.1,0.5-0.1,0.8c0,0.3,0,0.5,0.1,0.8s0.2,0.4,0.3,0.6s0.3,0.3,0.5,0.4s0.4,0.1,0.7,0.1c0.1,0,0.3,0,0.4,0s0.3,0,0.4-0.1
		s0.3-0.1,0.4-0.1s0.3-0.1,0.4-0.1V47.9z"/>
	<path class="st2" d="M47.9,44.5c0-0.2,0-0.4,0-0.6s-0.1-0.3-0.1-0.4s-0.1-0.2-0.2-0.2s-0.2-0.1-0.3-0.1c-0.2,0-0.4,0.1-0.7,0.3
		s-0.5,0.5-0.7,0.9v3.8h-1.5v-6h1.3l0.1,0.9c0.1-0.2,0.2-0.3,0.3-0.4s0.3-0.2,0.4-0.3s0.3-0.2,0.5-0.2s0.4-0.1,0.6-0.1
		c0.3,0,0.6,0.1,0.8,0.2s0.4,0.3,0.6,0.5s0.3,0.5,0.4,0.8s0.1,0.7,0.1,1.1H47.9z"/>
	<path class="st2" d="M52.2,43.3h-1.7v-1.1h3.1V47h1.7v1.1h-5.1V47h1.9V43.3z M53.8,40.5c0,0.1,0,0.2-0.1,0.4s-0.1,0.2-0.2,0.3
		s-0.2,0.2-0.3,0.2s-0.2,0.1-0.4,0.1s-0.3,0-0.4-0.1s-0.2-0.1-0.3-0.2S52,41,52,40.9s-0.1-0.2-0.1-0.4s0-0.2,0.1-0.4
		s0.1-0.2,0.2-0.3s0.2-0.2,0.3-0.2s0.2-0.1,0.4-0.1s0.3,0,0.4,0.1s0.2,0.1,0.3,0.2s0.1,0.2,0.2,0.3S53.8,40.4,53.8,40.5z"/>
	<path class="st2" d="M61.9,45c0,0.5-0.1,1-0.2,1.4s-0.4,0.7-0.6,1s-0.6,0.5-1,0.6s-0.8,0.2-1.2,0.2c-0.4,0-0.8,0-1.2-0.1
		s-0.7-0.2-1.1-0.3v-8H58v1.9l-0.1,1.2c0.2-0.3,0.5-0.5,0.8-0.7s0.6-0.3,1-0.3c0.4,0,0.7,0.1,0.9,0.2s0.5,0.3,0.7,0.6
		s0.3,0.6,0.4,0.9S61.9,44.5,61.9,45z M60.4,45.1c0-0.3,0-0.6-0.1-0.8s-0.1-0.4-0.2-0.6s-0.2-0.3-0.3-0.3s-0.3-0.1-0.4-0.1
		c-0.2,0-0.5,0.1-0.7,0.3S58.2,44,58,44.3v2.6c0.1,0,0.3,0.1,0.4,0.1s0.3,0,0.5,0c0.2,0,0.4,0,0.6-0.1s0.3-0.2,0.5-0.4
		s0.2-0.4,0.3-0.6S60.4,45.4,60.4,45.1z"/>
	<path class="st2" d="M68.2,44.7c0,0.1,0,0.2,0,0.4s0,0.3,0,0.4h-3.9c0,0.3,0,0.5,0.1,0.7s0.2,0.4,0.3,0.5s0.3,0.2,0.5,0.3
		s0.4,0.1,0.7,0.1c0.3,0,0.6,0,0.9-0.1s0.7-0.1,1-0.2v1.1c-0.2,0-0.3,0.1-0.5,0.1s-0.4,0.1-0.6,0.1s-0.4,0-0.6,0.1s-0.4,0-0.6,0
		c-0.5,0-0.9-0.1-1.2-0.2s-0.7-0.3-0.9-0.6s-0.4-0.6-0.6-0.9s-0.2-0.8-0.2-1.3c0-0.5,0.1-0.9,0.2-1.3s0.3-0.7,0.6-1s0.5-0.5,0.9-0.7
		s0.7-0.2,1.2-0.2c0.4,0,0.8,0.1,1.1,0.2s0.6,0.3,0.8,0.5s0.4,0.5,0.5,0.8S68.2,44.3,68.2,44.7z M66.8,44.5c0-0.2,0-0.4-0.1-0.6
		s-0.1-0.3-0.3-0.4s-0.2-0.2-0.4-0.3s-0.3-0.1-0.5-0.1c-0.4,0-0.7,0.1-0.9,0.4s-0.4,0.6-0.4,1H66.8z"/>
	<path class="st2" d="M81.6,41c-0.2-0.1-0.4-0.1-0.6-0.1s-0.5-0.1-0.7-0.1c-0.2,0-0.3,0-0.5,0.1s-0.3,0.1-0.4,0.2s-0.2,0.2-0.2,0.4
		s-0.1,0.3-0.1,0.5v1h2.3v1.1h-2.3v4h-1.4v-4h-1.7V43h1.7v-0.9c0-0.4,0.1-0.8,0.2-1.1s0.3-0.6,0.5-0.7s0.5-0.3,0.8-0.4
		s0.7-0.1,1.1-0.1c0.3,0,0.5,0,0.7,0s0.4,0.1,0.6,0.1V41z"/>
	<path class="st2" d="M84.4,43.3h-1.7v-1.1h3.1V47h1.7v1.1h-5.1V47h1.9V43.3z M85.9,40.5c0,0.1,0,0.2-0.1,0.4s-0.1,0.2-0.2,0.3
		s-0.2,0.2-0.3,0.2s-0.2,0.1-0.4,0.1s-0.3,0-0.4-0.1s-0.2-0.1-0.3-0.2s-0.1-0.2-0.2-0.3s-0.1-0.2-0.1-0.4s0-0.2,0.1-0.4
		s0.1-0.2,0.2-0.3s0.2-0.2,0.3-0.2s0.2-0.1,0.4-0.1s0.3,0,0.4,0.1s0.2,0.1,0.3,0.2s0.1,0.2,0.2,0.3S85.9,40.4,85.9,40.5z"/>
	<path class="st2" d="M90.6,40.9h-1.7v-1.1h3.1V47h1.7v1.1h-5.1V47h1.9V40.9z"/>
	<path class="st2" d="M100.1,44.7c0,0.1,0,0.2,0,0.4s0,0.3,0,0.4h-3.9c0,0.3,0,0.5,0.1,0.7s0.2,0.4,0.3,0.5s0.3,0.2,0.5,0.3
		s0.4,0.1,0.7,0.1c0.3,0,0.6,0,0.9-0.1s0.7-0.1,1-0.2v1.1c-0.2,0-0.3,0.1-0.5,0.1s-0.4,0.1-0.6,0.1s-0.4,0-0.6,0.1s-0.4,0-0.6,0
		c-0.5,0-0.9-0.1-1.2-0.2s-0.7-0.3-0.9-0.6s-0.4-0.6-0.6-0.9s-0.2-0.8-0.2-1.3c0-0.5,0.1-0.9,0.2-1.3s0.3-0.7,0.6-1s0.5-0.5,0.9-0.7
		s0.7-0.2,1.2-0.2c0.4,0,0.8,0.1,1.1,0.2s0.6,0.3,0.8,0.5s0.4,0.5,0.5,0.8S100.1,44.3,100.1,44.7z M98.7,44.5c0-0.2,0-0.4-0.1-0.6
		s-0.1-0.3-0.3-0.4s-0.2-0.2-0.4-0.3s-0.3-0.1-0.5-0.1c-0.4,0-0.7,0.1-0.9,0.4s-0.4,0.6-0.4,1H98.7z"/>
	<path class="st2" d="M104.5,50.6c-0.9-0.8-1.7-1.7-2.1-2.6s-0.7-1.9-0.7-3c0-0.6,0.1-1.2,0.2-1.7s0.3-1,0.6-1.5s0.6-0.9,0.9-1.3
		s0.7-0.8,1.2-1.1l0.8,0.8c-0.8,0.7-1.3,1.4-1.7,2.2S103,44,103,44.9c0,0.9,0.2,1.7,0.6,2.6s1,1.6,1.7,2.2L104.5,50.6z"/>
	<path class="st2" d="M108.8,42.7h-1.2l-0.2-2.9h1.6L108.8,42.7z"/>
	<path class="st2" d="M110.7,49.4h-1.4l4.1-9.5h1.4L110.7,49.4z"/>
	<path class="st2" d="M120.2,44.7c0,0.1,0,0.2,0,0.4s0,0.3,0,0.4h-3.9c0,0.3,0,0.5,0.1,0.7s0.2,0.4,0.3,0.5s0.3,0.2,0.5,0.3
		s0.4,0.1,0.7,0.1c0.3,0,0.6,0,0.9-0.1s0.7-0.1,1-0.2v1.1c-0.2,0-0.3,0.1-0.5,0.1s-0.4,0.1-0.6,0.1s-0.4,0-0.6,0.1s-0.4,0-0.6,0
		c-0.5,0-0.9-0.1-1.2-0.2s-0.7-0.3-0.9-0.6s-0.4-0.6-0.6-0.9s-0.2-0.8-0.2-1.3c0-0.5,0.1-0.9,0.2-1.3s0.3-0.7,0.6-1s0.5-0.5,0.9-0.7
		s0.7-0.2,1.2-0.2c0.4,0,0.8,0.1,1.1,0.2s0.6,0.3,0.8,0.5s0.4,0.5,0.5,0.8S120.2,44.3,120.2,44.7z M118.8,44.5c0-0.2,0-0.4-0.1-0.6
		s-0.1-0.3-0.3-0.4s-0.2-0.2-0.4-0.3s-0.3-0.1-0.5-0.1c-0.4,0-0.7,0.1-0.9,0.4s-0.4,0.6-0.4,1H118.8z"/>
	<path class="st2" d="M126.4,48c-0.3,0.1-0.5,0.1-0.8,0.1s-0.5,0.1-0.7,0.1c-0.4,0-0.7,0-1-0.1s-0.5-0.2-0.7-0.4s-0.3-0.4-0.4-0.6
		s-0.1-0.6-0.1-0.9v-2.9H121v-1.1h1.6v-1.5l1.5-0.4v1.9h2.3v1.1h-2.3v2.8c0,0.3,0.1,0.6,0.2,0.8s0.4,0.3,0.8,0.3
		c0.2,0,0.5,0,0.7-0.1s0.4-0.1,0.6-0.1V48z"/>
	<path class="st2" d="M132.3,47.9c-0.3,0.1-0.6,0.2-0.9,0.3s-0.6,0.1-0.9,0.1c-0.5,0-0.9-0.1-1.3-0.2s-0.7-0.3-1-0.6
		s-0.5-0.6-0.6-0.9s-0.2-0.8-0.2-1.3c0-0.5,0.1-0.9,0.2-1.3s0.4-0.7,0.6-1s0.6-0.5,1-0.6s0.8-0.2,1.3-0.2c0.4,0,0.7,0,1,0.1
		s0.5,0.1,0.7,0.2v1.4c-0.2-0.1-0.5-0.2-0.8-0.3s-0.6-0.1-0.8-0.1c-0.3,0-0.5,0-0.7,0.1s-0.4,0.2-0.5,0.4s-0.3,0.4-0.3,0.6
		s-0.1,0.5-0.1,0.8c0,0.3,0,0.5,0.1,0.8s0.2,0.4,0.3,0.6s0.3,0.3,0.5,0.4s0.4,0.1,0.7,0.1c0.1,0,0.3,0,0.4,0s0.3,0,0.4-0.1
		s0.3-0.1,0.4-0.1s0.3-0.1,0.4-0.1V47.9z"/>
	<path class="st2" d="M134.5,49.4h-1.4l4.1-9.5h1.4L134.5,49.4z"/>
	<path class="st2" d="M143.6,48.1V44c0-0.1,0-0.3,0-0.4s0-0.2,0-0.3s-0.1-0.1-0.1-0.2s-0.1-0.1-0.2-0.1c-0.1,0-0.2,0.1-0.4,0.2
		s-0.2,0.4-0.4,0.8v3.9h-1.2V44c0-0.1,0-0.3,0-0.4s0-0.2,0-0.3s-0.1-0.1-0.1-0.2s-0.1-0.1-0.2-0.1c-0.1,0-0.2,0.1-0.3,0.2
		s-0.3,0.4-0.4,0.8v3.9H139v-6h1.1l0,0.9c0.1-0.2,0.2-0.3,0.3-0.5s0.2-0.2,0.3-0.3s0.2-0.1,0.3-0.2s0.2-0.1,0.4-0.1
		c0.3,0,0.6,0.1,0.8,0.3s0.3,0.4,0.3,0.7c0.1-0.2,0.2-0.3,0.3-0.5s0.2-0.2,0.3-0.3s0.2-0.1,0.3-0.2s0.2-0.1,0.4-0.1
		c0.4,0,0.8,0.2,1,0.5s0.3,0.8,0.3,1.3v4.3H143.6z"/>
	<path class="st2" d="M149.6,47.4c-0.2,0.5-0.4,1-0.6,1.4s-0.5,0.7-0.7,1s-0.6,0.5-0.9,0.6s-0.7,0.2-1.1,0.2c-0.1,0-0.2,0-0.3,0
		s-0.2,0-0.4,0v-1.2c0,0,0.1,0,0.2,0s0.1,0,0.2,0s0.1,0,0.2,0s0.1,0,0.2,0c0.2,0,0.3,0,0.5-0.1s0.3-0.1,0.4-0.3s0.2-0.2,0.3-0.4
		s0.2-0.3,0.3-0.5l-2.4-6h1.6l1.2,3.4l0.4,1.1l0.4-1l1.2-3.4h1.5L149.6,47.4z"/>
	<path class="st2" d="M156.2,48.1l0-0.8c-0.1,0.1-0.3,0.3-0.4,0.4s-0.3,0.2-0.5,0.3s-0.3,0.1-0.5,0.2s-0.4,0.1-0.6,0.1
		c-0.3,0-0.6,0-0.8-0.1s-0.4-0.2-0.6-0.4s-0.3-0.4-0.4-0.6s-0.1-0.5-0.1-0.8c0-0.3,0.1-0.5,0.2-0.8s0.3-0.4,0.5-0.6s0.5-0.3,0.9-0.4
		s0.8-0.1,1.3-0.1h0.8v-0.4c0-0.2,0-0.3-0.1-0.4s-0.1-0.2-0.2-0.3s-0.2-0.2-0.4-0.2s-0.3-0.1-0.6-0.1c-0.4,0-0.7,0-1,0.1
		s-0.7,0.2-1,0.3v-1.1c0.3-0.1,0.6-0.2,1-0.3s0.8-0.1,1.2-0.1c0.4,0,0.8,0,1.1,0.1s0.6,0.2,0.8,0.4s0.4,0.4,0.5,0.6s0.1,0.5,0.1,0.9
		v4.1H156.2z M156,45.5h-0.9c-0.2,0-0.4,0-0.6,0.1s-0.3,0.1-0.4,0.2s-0.2,0.2-0.2,0.3s-0.1,0.2-0.1,0.3c0,0.2,0.1,0.4,0.2,0.6
		s0.4,0.2,0.6,0.2c0.2,0,0.4-0.1,0.6-0.2s0.5-0.4,0.7-0.6V45.5z"/>
	<path class="st2" d="M164.3,45c0,0.5-0.1,1-0.2,1.4s-0.4,0.7-0.6,1s-0.6,0.5-1,0.6s-0.8,0.2-1.2,0.2c-0.1,0-0.3,0-0.4,0
		s-0.3,0-0.4-0.1v2.3h-1.4v-8.3h1.2l0,0.9c0.1-0.2,0.2-0.3,0.4-0.4s0.3-0.2,0.4-0.3s0.3-0.2,0.5-0.2s0.4-0.1,0.6-0.1
		c0.4,0,0.7,0.1,0.9,0.2s0.5,0.3,0.7,0.6s0.3,0.6,0.4,0.9S164.3,44.5,164.3,45z M162.8,45.1c0-0.3,0-0.6-0.1-0.8s-0.1-0.4-0.2-0.6
		s-0.2-0.3-0.3-0.3s-0.3-0.1-0.4-0.1c-0.2,0-0.5,0.1-0.7,0.3s-0.5,0.5-0.7,0.8v2.6c0.1,0,0.3,0.1,0.4,0.1s0.3,0,0.5,0
		c0.2,0,0.4,0,0.6-0.1s0.3-0.2,0.5-0.4s0.2-0.4,0.3-0.6S162.8,45.4,162.8,45.1z"/>
	<path class="st2" d="M170.8,45c0,0.5-0.1,1-0.2,1.4s-0.4,0.7-0.6,1s-0.6,0.5-1,0.6s-0.8,0.2-1.2,0.2c-0.1,0-0.3,0-0.4,0
		s-0.3,0-0.4-0.1v2.3h-1.4v-8.3h1.2l0,0.9c0.1-0.2,0.2-0.3,0.4-0.4s0.3-0.2,0.4-0.3s0.3-0.2,0.5-0.2s0.4-0.1,0.6-0.1
		c0.4,0,0.7,0.1,0.9,0.2s0.5,0.3,0.7,0.6s0.3,0.6,0.4,0.9S170.8,44.5,170.8,45z M169.3,45.1c0-0.3,0-0.6-0.1-0.8s-0.1-0.4-0.2-0.6
		s-0.2-0.3-0.3-0.3s-0.3-0.1-0.4-0.1c-0.2,0-0.5,0.1-0.7,0.3s-0.5,0.5-0.7,0.8v2.6c0.1,0,0.3,0.1,0.4,0.1s0.3,0,0.5,0
		c0.2,0,0.4,0,0.6-0.1s0.3-0.2,0.5-0.4s0.2-0.4,0.3-0.6S169.3,45.4,169.3,45.1z"/>
	<path class="st2" d="M173.4,45.9c0.2,0,0.3,0,0.5,0.1s0.3,0.1,0.4,0.2s0.2,0.2,0.2,0.4s0.1,0.3,0.1,0.5c0,0.2,0,0.3-0.1,0.4
		s-0.1,0.3-0.2,0.4s-0.2,0.2-0.4,0.2s-0.3,0.1-0.5,0.1c-0.2,0-0.3,0-0.4-0.1s-0.3-0.1-0.4-0.2s-0.2-0.2-0.2-0.4s-0.1-0.3-0.1-0.4
		c0-0.2,0-0.3,0.1-0.5s0.1-0.3,0.2-0.4s0.2-0.2,0.4-0.2S173.3,45.9,173.4,45.9z"/>
	<path class="st2" d="M181.2,47.9c-0.3,0.1-0.6,0.2-0.9,0.3s-0.6,0.1-0.9,0.1c-0.5,0-0.9-0.1-1.3-0.2s-0.7-0.3-1-0.6
		s-0.5-0.6-0.6-0.9s-0.2-0.8-0.2-1.3c0-0.5,0.1-0.9,0.2-1.3s0.4-0.7,0.6-1s0.6-0.5,1-0.6s0.8-0.2,1.3-0.2c0.4,0,0.7,0,1,0.1
		s0.5,0.1,0.7,0.2v1.4c-0.2-0.1-0.5-0.2-0.8-0.3s-0.6-0.1-0.8-0.1c-0.3,0-0.5,0-0.7,0.1s-0.4,0.2-0.5,0.4s-0.3,0.4-0.3,0.6
		s-0.1,0.5-0.1,0.8c0,0.3,0,0.5,0.1,0.8s0.2,0.4,0.3,0.6s0.3,0.3,0.5,0.4s0.4,0.1,0.7,0.1c0.1,0,0.3,0,0.4,0s0.3,0,0.4-0.1
		s0.3-0.1,0.4-0.1s0.3-0.1,0.4-0.1V47.9z"/>
	<path class="st2" d="M187.9,45.1c0,0.5-0.1,0.9-0.2,1.3s-0.3,0.7-0.6,1s-0.6,0.5-0.9,0.6s-0.8,0.2-1.2,0.2c-0.4,0-0.8-0.1-1.2-0.2
		s-0.6-0.3-0.9-0.6s-0.4-0.6-0.6-1s-0.2-0.8-0.2-1.3c0-0.5,0.1-0.9,0.2-1.3s0.3-0.7,0.6-1s0.6-0.5,0.9-0.6s0.8-0.2,1.2-0.2
		c0.4,0,0.8,0.1,1.2,0.2s0.6,0.3,0.9,0.6s0.4,0.6,0.6,1S187.9,44.6,187.9,45.1z M186.5,45.1c0-0.6-0.1-1.1-0.3-1.4s-0.6-0.5-1-0.5
		c-0.2,0-0.5,0-0.6,0.1s-0.3,0.2-0.4,0.4s-0.2,0.4-0.2,0.6s-0.1,0.5-0.1,0.7c0,0.6,0.1,1.1,0.4,1.4s0.6,0.5,1,0.5
		c0.2,0,0.4,0,0.6-0.1s0.3-0.2,0.4-0.4s0.2-0.4,0.2-0.6S186.5,45.4,186.5,45.1z"/>
	<path class="st2" d="M192.7,48.1v-3.9c0-0.7-0.2-1-0.7-1c-0.2,0-0.5,0.1-0.7,0.3s-0.5,0.5-0.7,0.8v3.8h-1.4v-6h1.2l0,0.9
		c0.1-0.2,0.2-0.3,0.4-0.4s0.3-0.2,0.4-0.3s0.3-0.2,0.5-0.2s0.4-0.1,0.6-0.1c0.3,0,0.6,0,0.8,0.1s0.4,0.2,0.6,0.4s0.3,0.4,0.3,0.7
		s0.1,0.5,0.1,0.9v4H192.7z"/>
	<path class="st2" d="M200.8,41c-0.2-0.1-0.4-0.1-0.6-0.1s-0.5-0.1-0.7-0.1c-0.2,0-0.3,0-0.5,0.1s-0.3,0.1-0.4,0.2s-0.2,0.2-0.2,0.4
		s-0.1,0.3-0.1,0.5v1h2.3v1.1h-2.3v4h-1.4v-4h-1.7V43h1.7v-0.9c0-0.4,0.1-0.8,0.2-1.1s0.3-0.6,0.5-0.7s0.5-0.3,0.8-0.4
		s0.7-0.1,1.1-0.1c0.3,0,0.5,0,0.7,0s0.4,0.1,0.6,0.1V41z"/>
	<path class="st2" d="M204,42.7h-1.2l-0.2-2.9h1.6L204,42.7z"/>
	<path class="st2" d="M207.2,39.4c1,0.8,1.7,1.7,2.1,2.6s0.7,1.9,0.7,3c0,0.6-0.1,1.2-0.2,1.7s-0.3,1-0.6,1.5s-0.6,0.9-0.9,1.3
		s-0.7,0.8-1.2,1.1l-0.8-0.8c0.8-0.7,1.3-1.4,1.7-2.2s0.6-1.6,0.6-2.5c0-0.9-0.2-1.7-0.6-2.6s-1-1.6-1.7-2.2L207.2,39.4z"/>
	<path class="st2" d="M222.8,48.1l0-0.9c-0.1,0.2-0.3,0.3-0.4,0.4s-0.3,0.2-0.4,0.3s-0.3,0.2-0.5,0.2s-0.4,0.1-0.6,0.1
		c-0.4,0-0.7-0.1-0.9-0.2s-0.5-0.3-0.7-0.6s-0.3-0.6-0.4-0.9s-0.1-0.8-0.1-1.2c0-0.5,0.1-1,0.2-1.4s0.4-0.7,0.6-1s0.6-0.5,1-0.6
		s0.8-0.2,1.2-0.2c0.1,0,0.3,0,0.4,0s0.3,0,0.4,0.1v-2.3h1.4v8.3H222.8z M220.2,45.2c0,0.3,0,0.6,0.1,0.8s0.1,0.4,0.2,0.6
		s0.2,0.3,0.3,0.3s0.3,0.1,0.4,0.1c0.2,0,0.5-0.1,0.7-0.3s0.5-0.5,0.7-0.8v-2.6c-0.1,0-0.3-0.1-0.4-0.1s-0.3,0-0.5,0
		c-0.2,0-0.4,0-0.6,0.1s-0.3,0.2-0.5,0.4s-0.2,0.4-0.3,0.6S220.2,44.9,220.2,45.2z"/>
	<path class="st2" d="M230.9,45.1c0,0.5-0.1,0.9-0.2,1.3s-0.3,0.7-0.6,1s-0.6,0.5-0.9,0.6s-0.8,0.2-1.2,0.2c-0.4,0-0.8-0.1-1.2-0.2
		s-0.6-0.3-0.9-0.6s-0.4-0.6-0.6-1s-0.2-0.8-0.2-1.3c0-0.5,0.1-0.9,0.2-1.3s0.3-0.7,0.6-1s0.6-0.5,0.9-0.6s0.8-0.2,1.2-0.2
		c0.4,0,0.8,0.1,1.2,0.2s0.6,0.3,0.9,0.6s0.4,0.6,0.6,1S230.9,44.6,230.9,45.1z M229.4,45.1c0-0.6-0.1-1.1-0.3-1.4s-0.6-0.5-1-0.5
		c-0.2,0-0.5,0-0.6,0.1s-0.3,0.2-0.4,0.4s-0.2,0.4-0.2,0.6s-0.1,0.5-0.1,0.7c0,0.6,0.1,1.1,0.4,1.4s0.6,0.5,1,0.5
		c0.2,0,0.4,0,0.6-0.1s0.3-0.2,0.4-0.4s0.2-0.4,0.2-0.6S229.4,45.4,229.4,45.1z"/>
	<path class="st2" d="M34.1,64.1h-1.7V63h3.1v4.8h1.7v1.1h-5.1v-1.1h1.9V64.1z M35.7,61.3c0,0.1,0,0.2-0.1,0.4s-0.1,0.2-0.2,0.3
		s-0.2,0.2-0.3,0.2s-0.2,0.1-0.4,0.1s-0.3,0-0.4-0.1s-0.2-0.1-0.3-0.2s-0.1-0.2-0.2-0.3s-0.1-0.2-0.1-0.4s0-0.2,0.1-0.4
		s0.1-0.2,0.2-0.3s0.2-0.2,0.3-0.2s0.2-0.1,0.4-0.1s0.3,0,0.4,0.1s0.2,0.1,0.3,0.2s0.1,0.2,0.2,0.3S35.7,61.2,35.7,61.3z"/>
	<path class="st2" d="M42.8,68.9C42.5,68.9,42.3,69,42,69S41.5,69,41.3,69c-0.4,0-0.7,0-1-0.1s-0.5-0.2-0.7-0.4s-0.3-0.4-0.4-0.6
		S39,67.3,39,67v-2.9h-1.6V63H39v-1.5l1.5-0.4V63h2.3v1.1h-2.3v2.8c0,0.3,0.1,0.6,0.2,0.8s0.4,0.3,0.8,0.3c0.2,0,0.5,0,0.7-0.1
		s0.4-0.1,0.6-0.1V68.9z"/>
	<path class="st2" d="M55.1,71.2c-0.8,0-1.4-0.2-1.8-0.6s-0.6-1-0.6-1.8v-1.5c0-0.4-0.1-0.7-0.3-0.9s-0.5-0.3-0.9-0.3h-0.4V65h0.4
		c0.2,0,0.4,0,0.5-0.1s0.3-0.1,0.4-0.2s0.2-0.2,0.2-0.4s0.1-0.3,0.1-0.5v-1c0-0.4,0-0.8,0.1-1.1s0.2-0.6,0.4-0.8s0.4-0.4,0.7-0.5
		s0.7-0.2,1.1-0.2h0.5v1.1h-0.4c-0.2,0-0.4,0-0.5,0.1s-0.3,0.1-0.4,0.2s-0.2,0.2-0.3,0.4S54,62.5,54,62.8v1c0,0.3,0,0.5-0.1,0.8
		s-0.1,0.4-0.2,0.5s-0.2,0.2-0.4,0.3s-0.3,0.1-0.6,0.2c0.4,0,0.7,0.2,0.9,0.5s0.3,0.7,0.3,1.3v1.5c0,0.3,0,0.5,0.1,0.6
		s0.1,0.3,0.3,0.4s0.2,0.2,0.4,0.2s0.3,0.1,0.5,0.1h0.4v1.1H55.1z"/>
	<path class="st2" d="M69.2,67.2c0,0.3-0.1,0.6-0.2,0.9s-0.3,0.4-0.6,0.6s-0.5,0.3-0.8,0.3s-0.6,0.1-1,0.1c-0.4,0-0.8,0-1.2-0.1
		s-0.7-0.1-1-0.2v-1.3c0.4,0.2,0.7,0.3,1.1,0.3s0.7,0.1,1,0.1c0.4,0,0.7-0.1,0.8-0.2s0.3-0.3,0.3-0.5c0-0.1,0-0.2-0.1-0.2
		s-0.1-0.1-0.2-0.2s-0.3-0.1-0.5-0.2s-0.5-0.2-0.8-0.2c-0.3-0.1-0.5-0.2-0.8-0.3s-0.4-0.2-0.5-0.4s-0.3-0.3-0.3-0.5
		s-0.1-0.4-0.1-0.7c0-0.2,0.1-0.5,0.2-0.7s0.3-0.4,0.5-0.6s0.5-0.3,0.8-0.4s0.7-0.1,1.1-0.1c0.4,0,0.7,0,1,0.1s0.5,0.1,0.8,0.1v1.2
		c-0.3-0.1-0.7-0.2-1-0.2s-0.6-0.1-0.9-0.1s-0.5,0.1-0.7,0.2s-0.3,0.3-0.3,0.4c0,0.1,0,0.2,0.1,0.2s0.1,0.1,0.2,0.2s0.2,0.1,0.4,0.2
		s0.4,0.2,0.7,0.2c0.3,0.1,0.6,0.2,0.9,0.3s0.4,0.2,0.6,0.4s0.2,0.3,0.3,0.5S69.2,66.9,69.2,67.2z"/>
	<path class="st2" d="M74.1,68.9V65c0-0.7-0.2-1-0.7-1c-0.2,0-0.5,0.1-0.7,0.3s-0.5,0.5-0.7,0.8v3.8h-1.4v-8.3h1.4v2l-0.1,1.1
		c0.1-0.1,0.2-0.3,0.4-0.4s0.3-0.2,0.4-0.3s0.3-0.1,0.5-0.2s0.4-0.1,0.6-0.1c0.3,0,0.6,0,0.8,0.1s0.4,0.2,0.6,0.4s0.3,0.4,0.3,0.7
		s0.1,0.5,0.1,0.9v4H74.1z"/>
	<path class="st2" d="M82.4,65.9c0,0.5-0.1,0.9-0.2,1.3s-0.3,0.7-0.6,1s-0.6,0.5-0.9,0.6S79.9,69,79.5,69c-0.4,0-0.8-0.1-1.2-0.2
		s-0.6-0.3-0.9-0.6s-0.4-0.6-0.6-1s-0.2-0.8-0.2-1.3c0-0.5,0.1-0.9,0.2-1.3s0.3-0.7,0.6-1s0.6-0.5,0.9-0.6s0.8-0.2,1.2-0.2
		c0.4,0,0.8,0.1,1.2,0.2s0.6,0.3,0.9,0.6s0.4,0.6,0.6,1S82.4,65.4,82.4,65.9z M80.9,65.9c0-0.6-0.1-1.1-0.3-1.4s-0.6-0.5-1-0.5
		c-0.2,0-0.5,0-0.6,0.1s-0.3,0.2-0.4,0.4s-0.2,0.4-0.2,0.6s-0.1,0.5-0.1,0.7c0,0.6,0.1,1.1,0.4,1.4s0.6,0.5,1,0.5
		c0.2,0,0.4,0,0.6-0.1s0.3-0.2,0.4-0.4s0.2-0.4,0.2-0.6S80.9,66.2,80.9,65.9z"/>
	<path class="st2" d="M85,63v3.9c0,0.3,0.1,0.6,0.2,0.7s0.3,0.2,0.6,0.2c0.2,0,0.5-0.1,0.7-0.3s0.5-0.5,0.7-0.8V63h1.4v6h-1.2l0-0.9
		c-0.1,0.2-0.3,0.3-0.4,0.4s-0.3,0.2-0.4,0.3S86.1,68.9,86,69S85.6,69,85.4,69c-0.3,0-0.6,0-0.8-0.1s-0.4-0.2-0.6-0.4
		s-0.3-0.4-0.3-0.7s-0.1-0.5-0.1-0.9v-4H85z"/>
	<path class="st2" d="M91.7,61.7H90v-1.1h3.1v7.2h1.7v1.1h-5.1v-1.1h1.9V61.7z"/>
	<path class="st2" d="M99.8,68.9l0-0.9c-0.1,0.2-0.3,0.3-0.4,0.4s-0.3,0.2-0.4,0.3s-0.3,0.2-0.5,0.2S98.1,69,97.9,69
		c-0.4,0-0.7-0.1-0.9-0.2s-0.5-0.3-0.7-0.6s-0.3-0.6-0.4-0.9s-0.1-0.8-0.1-1.2c0-0.5,0.1-1,0.2-1.4s0.4-0.7,0.6-1s0.6-0.5,1-0.6
		s0.8-0.2,1.2-0.2c0.1,0,0.3,0,0.4,0s0.3,0,0.4,0.1v-2.3h1.4v8.3H99.8z M97.2,66c0,0.3,0,0.6,0.1,0.8s0.1,0.4,0.2,0.6
		s0.2,0.3,0.3,0.3s0.3,0.1,0.4,0.1c0.2,0,0.5-0.1,0.7-0.3s0.5-0.5,0.7-0.8v-2.6c-0.1,0-0.3-0.1-0.4-0.1s-0.3,0-0.5,0
		c-0.2,0-0.4,0-0.6,0.1s-0.3,0.2-0.5,0.4s-0.2,0.4-0.3,0.6S97.2,65.7,97.2,66z"/>
	<path class="st2" d="M114.5,65.5c0,0.1,0,0.2,0,0.4s0,0.3,0,0.4h-3.9c0,0.3,0,0.5,0.1,0.7s0.2,0.4,0.3,0.5s0.3,0.2,0.5,0.3
		s0.4,0.1,0.7,0.1c0.3,0,0.6,0,0.9-0.1s0.7-0.1,1-0.2v1.1c-0.2,0-0.3,0.1-0.5,0.1s-0.4,0.1-0.6,0.1s-0.4,0-0.6,0.1s-0.4,0-0.6,0
		c-0.5,0-0.9-0.1-1.2-0.2s-0.7-0.3-0.9-0.6s-0.4-0.6-0.6-0.9s-0.2-0.8-0.2-1.3c0-0.5,0.1-0.9,0.2-1.3s0.3-0.7,0.6-1s0.5-0.5,0.9-0.7
		s0.7-0.2,1.2-0.2c0.4,0,0.8,0.1,1.1,0.2s0.6,0.3,0.8,0.5s0.4,0.5,0.5,0.8S114.5,65.1,114.5,65.5z M113,65.3c0-0.2,0-0.4-0.1-0.6
		s-0.1-0.3-0.3-0.4s-0.2-0.2-0.4-0.3s-0.3-0.1-0.5-0.1c-0.4,0-0.7,0.1-0.9,0.4s-0.4,0.6-0.4,1H113z"/>
	<path class="st2" d="M119.6,68.9l-1.4-2l-1.4,2h-1.7l2.2-3l-2.1-3h1.7l1.3,2l1.3-2h1.6l-2.1,2.9l2.2,3H119.6z"/>
	<path class="st2" d="M124.2,64.1h-1.7V63h3.1v4.8h1.7v1.1h-5.1v-1.1h1.9V64.1z M125.8,61.3c0,0.1,0,0.2-0.1,0.4s-0.1,0.2-0.2,0.3
		s-0.2,0.2-0.3,0.2s-0.2,0.1-0.4,0.1s-0.3,0-0.4-0.1s-0.2-0.1-0.3-0.2s-0.1-0.2-0.2-0.3s-0.1-0.2-0.1-0.4s0-0.2,0.1-0.4
		s0.1-0.2,0.2-0.3s0.2-0.2,0.3-0.2s0.2-0.1,0.4-0.1s0.3,0,0.4,0.1s0.2,0.1,0.3,0.2s0.1,0.2,0.2,0.3S125.8,61.2,125.8,61.3z"/>
	<path class="st2" d="M133.4,67.2c0,0.3-0.1,0.6-0.2,0.9s-0.3,0.4-0.6,0.6s-0.5,0.3-0.8,0.3s-0.6,0.1-1,0.1c-0.4,0-0.8,0-1.2-0.1
		s-0.7-0.1-1-0.2v-1.3c0.4,0.2,0.7,0.3,1.1,0.3s0.7,0.1,1,0.1c0.4,0,0.7-0.1,0.8-0.2s0.3-0.3,0.3-0.5c0-0.1,0-0.2-0.1-0.2
		s-0.1-0.1-0.2-0.2s-0.3-0.1-0.5-0.2s-0.5-0.2-0.8-0.2c-0.3-0.1-0.5-0.2-0.8-0.3s-0.4-0.2-0.5-0.4s-0.3-0.3-0.3-0.5
		s-0.1-0.4-0.1-0.7c0-0.2,0.1-0.5,0.2-0.7s0.3-0.4,0.5-0.6s0.5-0.3,0.8-0.4s0.7-0.1,1.1-0.1c0.4,0,0.7,0,1,0.1s0.5,0.1,0.8,0.1v1.2
		c-0.3-0.1-0.7-0.2-1-0.2s-0.6-0.1-0.9-0.1s-0.5,0.1-0.7,0.2s-0.3,0.3-0.3,0.4c0,0.1,0,0.2,0.1,0.2s0.1,0.1,0.2,0.2s0.2,0.1,0.4,0.2
		s0.4,0.2,0.7,0.2c0.3,0.1,0.6,0.2,0.9,0.3s0.4,0.2,0.6,0.4s0.2,0.3,0.3,0.5S133.4,66.9,133.4,67.2z"/>
	<path class="st2" d="M139.6,68.9c-0.3,0.1-0.5,0.1-0.8,0.1s-0.5,0.1-0.7,0.1c-0.4,0-0.7,0-1-0.1s-0.5-0.2-0.7-0.4s-0.3-0.4-0.4-0.6
		s-0.1-0.6-0.1-0.9v-2.9h-1.6V63h1.6v-1.5l1.5-0.4V63h2.3v1.1h-2.3v2.8c0,0.3,0.1,0.6,0.2,0.8s0.4,0.3,0.8,0.3c0.2,0,0.5,0,0.7-0.1
		s0.4-0.1,0.6-0.1V68.9z"/>
	<path class="st2" d="M148.8,60.4c0.8,0,1.4,0.2,1.8,0.6s0.6,1,0.6,1.9v1c0,0.4,0.1,0.7,0.3,0.9s0.5,0.3,0.9,0.3h0.4v1.1h-0.4
		c-0.2,0-0.4,0-0.5,0.1s-0.3,0.1-0.4,0.2s-0.2,0.2-0.2,0.4s-0.1,0.3-0.1,0.5v1.5c0,0.4,0,0.8-0.1,1.1s-0.2,0.6-0.4,0.8
		s-0.4,0.4-0.8,0.5s-0.7,0.2-1.1,0.2h-0.5v-1.1h0.4c0.2,0,0.4,0,0.5-0.1s0.3-0.1,0.4-0.2s0.2-0.2,0.3-0.4s0.1-0.4,0.1-0.6v-1.5
		c0-0.3,0-0.5,0.1-0.8s0.1-0.4,0.2-0.5s0.2-0.2,0.4-0.3s0.3-0.1,0.6-0.2c-0.4-0.1-0.7-0.2-0.9-0.5s-0.3-0.7-0.3-1.3v-1
		c0-0.3,0-0.5-0.1-0.6s-0.1-0.3-0.3-0.4s-0.2-0.2-0.4-0.2s-0.3-0.1-0.5-0.1h-0.4v-1.1H148.8z"/>
	<path class="st2" d="M34.1,84.9h-1.7v-1.1h3.1v4.8h1.7v1.1h-5.1v-1.1h1.9V84.9z M35.7,82.2c0,0.1,0,0.2-0.1,0.4s-0.1,0.2-0.2,0.3
		S35.2,83,35.1,83s-0.2,0.1-0.4,0.1s-0.3,0-0.4-0.1s-0.2-0.1-0.3-0.2s-0.1-0.2-0.2-0.3s-0.1-0.2-0.1-0.4s0-0.2,0.1-0.4
		s0.1-0.2,0.2-0.3s0.2-0.2,0.3-0.2s0.2-0.1,0.4-0.1s0.3,0,0.4,0.1s0.2,0.1,0.3,0.2s0.1,0.2,0.2,0.3S35.7,82,35.7,82.2z"/>
	<path class="st2" d="M42.8,89.7c-0.3,0.1-0.5,0.1-0.8,0.1s-0.5,0.1-0.7,0.1c-0.4,0-0.7,0-1-0.1s-0.5-0.2-0.7-0.4s-0.3-0.4-0.4-0.6
		S39,88.2,39,87.8v-2.9h-1.6v-1.1H39v-1.5l1.5-0.4v1.9h2.3v1.1h-2.3v2.8c0,0.3,0.1,0.6,0.2,0.8s0.4,0.3,0.8,0.3c0.2,0,0.5,0,0.7-0.1
		s0.4-0.1,0.6-0.1V89.7z"/>
	<path class="st2" d="M48.9,88c0,0.3-0.1,0.6-0.2,0.9s-0.3,0.4-0.6,0.6s-0.5,0.3-0.8,0.3s-0.6,0.1-1,0.1c-0.4,0-0.8,0-1.2-0.1
		s-0.7-0.1-1-0.2v-1.3c0.4,0.2,0.7,0.3,1.1,0.3s0.7,0.1,1,0.1c0.4,0,0.7-0.1,0.8-0.2s0.3-0.3,0.3-0.5c0-0.1,0-0.2-0.1-0.2
		s-0.1-0.1-0.2-0.2s-0.3-0.1-0.5-0.2s-0.5-0.2-0.8-0.2c-0.3-0.1-0.5-0.2-0.8-0.3s-0.4-0.2-0.5-0.4s-0.3-0.3-0.3-0.5
		s-0.1-0.4-0.1-0.7c0-0.2,0.1-0.5,0.2-0.7s0.3-0.4,0.5-0.6s0.5-0.3,0.8-0.4s0.7-0.1,1.1-0.1c0.4,0,0.7,0,1,0.1s0.5,0.1,0.8,0.1V85
		c-0.3-0.1-0.7-0.2-1-0.2s-0.6-0.1-0.9-0.1s-0.5,0.1-0.7,0.2s-0.3,0.3-0.3,0.4c0,0.1,0,0.2,0.1,0.2s0.1,0.1,0.2,0.2s0.2,0.1,0.4,0.2
		s0.4,0.2,0.7,0.2c0.3,0.1,0.6,0.2,0.9,0.3s0.4,0.2,0.6,0.4s0.2,0.3,0.3,0.5S48.9,87.8,48.9,88z"/>
	<path class="st2" d="M53.3,92.2c-0.9-0.8-1.7-1.7-2.1-2.6s-0.7-1.9-0.7-3c0-0.6,0.1-1.2,0.2-1.7s0.3-1,0.6-1.5s0.6-0.9,0.9-1.3
		s0.7-0.8,1.2-1.1l0.8,0.8c-0.8,0.7-1.3,1.4-1.7,2.2s-0.6,1.6-0.6,2.5c0,0.9,0.2,1.7,0.6,2.6s1,1.6,1.7,2.2L53.3,92.2z"/>
	<path class="st2" d="M57.7,84.4h-1.2l-0.2-2.9h1.6L57.7,84.4z"/>
	<path class="st2" d="M64.3,89.7v-4.1c0-0.1,0-0.3,0-0.4s0-0.2,0-0.3s-0.1-0.1-0.1-0.2s-0.1-0.1-0.2-0.1c-0.1,0-0.2,0.1-0.4,0.2
		s-0.2,0.4-0.4,0.8v3.9H62v-4.1c0-0.1,0-0.3,0-0.4s0-0.2,0-0.3s-0.1-0.1-0.1-0.2s-0.1-0.1-0.2-0.1c-0.1,0-0.2,0.1-0.3,0.2
		s-0.3,0.4-0.4,0.8v3.9h-1.2v-6h1.1l0,0.9c0.1-0.2,0.2-0.3,0.3-0.5s0.2-0.2,0.3-0.3s0.2-0.1,0.3-0.2s0.2-0.1,0.4-0.1
		c0.3,0,0.6,0.1,0.8,0.3s0.3,0.4,0.3,0.7c0.1-0.2,0.2-0.3,0.3-0.5s0.2-0.2,0.3-0.3s0.2-0.1,0.3-0.2s0.2-0.1,0.4-0.1
		c0.4,0,0.8,0.2,1,0.5s0.3,0.8,0.3,1.3v4.3H64.3z"/>
	<path class="st2" d="M72.3,86.7c0,0.5-0.1,0.9-0.2,1.3s-0.3,0.7-0.6,1s-0.6,0.5-0.9,0.6s-0.8,0.2-1.2,0.2c-0.4,0-0.8-0.1-1.2-0.2
		s-0.6-0.3-0.9-0.6s-0.4-0.6-0.6-1s-0.2-0.8-0.2-1.3c0-0.5,0.1-0.9,0.2-1.3s0.3-0.7,0.6-1s0.6-0.5,0.9-0.6s0.8-0.2,1.2-0.2
		c0.4,0,0.8,0.1,1.2,0.2s0.6,0.3,0.9,0.6s0.4,0.6,0.6,1S72.3,86.2,72.3,86.7z M70.8,86.8c0-0.6-0.1-1.1-0.3-1.4s-0.6-0.5-1-0.5
		c-0.2,0-0.5,0-0.6,0.1s-0.3,0.2-0.4,0.4s-0.2,0.4-0.2,0.6S68,86.5,68,86.8c0,0.6,0.1,1.1,0.4,1.4s0.6,0.5,1,0.5
		c0.2,0,0.4,0,0.6-0.1s0.3-0.2,0.4-0.4s0.2-0.4,0.2-0.6S70.8,87,70.8,86.8z"/>
	<path class="st2" d="M77.2,89.7l0-0.9c-0.1,0.2-0.3,0.3-0.4,0.4s-0.3,0.2-0.4,0.3s-0.3,0.2-0.5,0.2s-0.4,0.1-0.6,0.1
		c-0.4,0-0.7-0.1-0.9-0.2s-0.5-0.3-0.7-0.6s-0.3-0.6-0.4-0.9s-0.1-0.8-0.1-1.2c0-0.5,0.1-1,0.2-1.4s0.4-0.7,0.6-1s0.6-0.5,1-0.6
		s0.8-0.2,1.2-0.2c0.1,0,0.3,0,0.4,0s0.3,0,0.4,0.1v-2.3h1.4v8.3H77.2z M74.6,86.8c0,0.3,0,0.6,0.1,0.8s0.1,0.4,0.2,0.6
		s0.2,0.3,0.3,0.3s0.3,0.1,0.4,0.1c0.2,0,0.5-0.1,0.7-0.3s0.5-0.5,0.7-0.8V85c-0.1,0-0.3-0.1-0.4-0.1s-0.3,0-0.5,0
		c-0.2,0-0.4,0-0.6,0.1s-0.3,0.2-0.5,0.4s-0.2,0.4-0.3,0.6S74.6,86.5,74.6,86.8z"/>
	<path class="st2" d="M85.1,86.3c0,0.1,0,0.2,0,0.4s0,0.3,0,0.4h-3.9c0,0.3,0,0.5,0.1,0.7s0.2,0.4,0.3,0.5s0.3,0.2,0.5,0.3
		s0.4,0.1,0.7,0.1c0.3,0,0.6,0,0.9-0.1s0.7-0.1,1-0.2v1.1c-0.2,0-0.3,0.1-0.5,0.1s-0.4,0.1-0.6,0.1s-0.4,0-0.6,0.1s-0.4,0-0.6,0
		c-0.5,0-0.9-0.1-1.2-0.2s-0.7-0.3-0.9-0.6s-0.4-0.6-0.6-0.9s-0.2-0.8-0.2-1.3c0-0.5,0.1-0.9,0.2-1.3s0.3-0.7,0.6-1s0.5-0.5,0.9-0.7
		s0.7-0.2,1.2-0.2c0.4,0,0.8,0.1,1.1,0.2s0.6,0.3,0.8,0.5s0.4,0.5,0.5,0.8S85.1,85.9,85.1,86.3z M83.7,86.1c0-0.2,0-0.4-0.1-0.6
		s-0.1-0.3-0.3-0.4s-0.2-0.2-0.4-0.3s-0.3-0.1-0.5-0.1c-0.4,0-0.7,0.1-0.9,0.4s-0.4,0.6-0.4,1H83.7z"/>
	<path class="st2" d="M88.2,84.4H87l-0.2-2.9h1.6L88.2,84.4z"/>
	<path class="st2" d="M91.4,81c1,0.8,1.7,1.7,2.1,2.6s0.7,1.9,0.7,3c0,0.6-0.1,1.2-0.2,1.7s-0.3,1-0.6,1.5s-0.6,0.9-0.9,1.3
		s-0.7,0.8-1.2,1.1l-0.8-0.8c0.8-0.7,1.3-1.4,1.7-2.2s0.6-1.6,0.6-2.5c0-0.9-0.2-1.7-0.6-2.6s-1-1.6-1.7-2.2L91.4,81z"/>
	<path class="st2" d="M107.2,92.1c-0.8,0-1.4-0.2-1.8-0.6s-0.6-1-0.6-1.8v-1.5c0-0.4-0.1-0.7-0.3-0.9s-0.5-0.3-0.9-0.3h-0.4v-1.1
		h0.4c0.2,0,0.4,0,0.5-0.1s0.3-0.1,0.4-0.2s0.2-0.2,0.2-0.4s0.1-0.3,0.1-0.5v-1c0-0.4,0-0.8,0.1-1.1s0.2-0.6,0.4-0.8
		s0.4-0.4,0.7-0.5s0.7-0.2,1.1-0.2h0.5v1.1h-0.4c-0.2,0-0.4,0-0.5,0.1s-0.3,0.1-0.4,0.2s-0.2,0.2-0.3,0.4s-0.1,0.4-0.1,0.6v1
		c0,0.3,0,0.5-0.1,0.8s-0.1,0.4-0.2,0.5s-0.2,0.2-0.4,0.3s-0.3,0.1-0.6,0.2c0.4,0,0.7,0.2,0.9,0.5s0.3,0.7,0.3,1.3v1.5
		c0,0.3,0,0.5,0.1,0.6s0.1,0.3,0.3,0.4s0.2,0.2,0.4,0.2s0.3,0.1,0.5,0.1h0.4v1.1H107.2z"/>
	<path class="st2" d="M121.3,88c0,0.3-0.1,0.6-0.2,0.9s-0.3,0.4-0.6,0.6s-0.5,0.3-0.8,0.3s-0.6,0.1-1,0.1c-0.4,0-0.8,0-1.2-0.1
		s-0.7-0.1-1-0.2v-1.3c0.4,0.2,0.7,0.3,1.1,0.3s0.7,0.1,1,0.1c0.4,0,0.7-0.1,0.8-0.2s0.3-0.3,0.3-0.5c0-0.1,0-0.2-0.1-0.2
		s-0.1-0.1-0.2-0.2s-0.3-0.1-0.5-0.2s-0.5-0.2-0.8-0.2c-0.3-0.1-0.5-0.2-0.8-0.3s-0.4-0.2-0.5-0.4s-0.3-0.3-0.3-0.5
		s-0.1-0.4-0.1-0.7c0-0.2,0.1-0.5,0.2-0.7s0.3-0.4,0.5-0.6s0.5-0.3,0.8-0.4s0.7-0.1,1.1-0.1c0.4,0,0.7,0,1,0.1s0.5,0.1,0.8,0.1V85
		c-0.3-0.1-0.7-0.2-1-0.2s-0.6-0.1-0.9-0.1s-0.5,0.1-0.7,0.2s-0.3,0.3-0.3,0.4c0,0.1,0,0.2,0.1,0.2s0.1,0.1,0.2,0.2s0.2,0.1,0.4,0.2
		s0.4,0.2,0.7,0.2c0.3,0.1,0.6,0.2,0.9,0.3s0.4,0.2,0.6,0.4s0.2,0.3,0.3,0.5S121.3,87.8,121.3,88z"/>
	<path class="st2" d="M126.2,89.7v-3.9c0-0.7-0.2-1-0.7-1c-0.2,0-0.5,0.1-0.7,0.3s-0.5,0.5-0.7,0.8v3.8h-1.4v-8.3h1.4v2l-0.1,1.1
		c0.1-0.1,0.2-0.3,0.4-0.4s0.3-0.2,0.4-0.3s0.3-0.1,0.5-0.2s0.4-0.1,0.6-0.1c0.3,0,0.6,0,0.8,0.1s0.4,0.2,0.6,0.4s0.3,0.4,0.3,0.7
		s0.1,0.5,0.1,0.9v4H126.2z"/>
	<path class="st2" d="M134.5,86.7c0,0.5-0.1,0.9-0.2,1.3s-0.3,0.7-0.6,1s-0.6,0.5-0.9,0.6s-0.8,0.2-1.2,0.2c-0.4,0-0.8-0.1-1.2-0.2
		s-0.6-0.3-0.9-0.6s-0.4-0.6-0.6-1s-0.2-0.8-0.2-1.3c0-0.5,0.1-0.9,0.2-1.3s0.3-0.7,0.6-1s0.6-0.5,0.9-0.6s0.8-0.2,1.2-0.2
		c0.4,0,0.8,0.1,1.2,0.2s0.6,0.3,0.9,0.6s0.4,0.6,0.6,1S134.5,86.2,134.5,86.7z M133.1,86.8c0-0.6-0.1-1.1-0.3-1.4s-0.6-0.5-1-0.5
		c-0.2,0-0.5,0-0.6,0.1s-0.3,0.2-0.4,0.4s-0.2,0.4-0.2,0.6s-0.1,0.5-0.1,0.7c0,0.6,0.1,1.1,0.4,1.4s0.6,0.5,1,0.5
		c0.2,0,0.4,0,0.6-0.1s0.3-0.2,0.4-0.4s0.2-0.4,0.2-0.6S133.1,87,133.1,86.8z"/>
	<path class="st2" d="M137.1,83.8v3.9c0,0.3,0.1,0.6,0.2,0.7s0.3,0.2,0.6,0.2c0.2,0,0.5-0.1,0.7-0.3s0.5-0.5,0.7-0.8v-3.8h1.4v6
		h-1.2l0-0.9c-0.1,0.2-0.3,0.3-0.4,0.4s-0.3,0.2-0.4,0.3s-0.3,0.2-0.5,0.2s-0.4,0.1-0.6,0.1c-0.3,0-0.6,0-0.8-0.1s-0.4-0.2-0.6-0.4
		s-0.3-0.4-0.3-0.7s-0.1-0.5-0.1-0.9v-4H137.1z"/>
	<path class="st2" d="M143.8,82.6h-1.7v-1.1h3.1v7.2h1.7v1.1h-5.1v-1.1h1.9V82.6z"/>
	<path class="st2" d="M152,89.7l0-0.9c-0.1,0.2-0.3,0.3-0.4,0.4s-0.3,0.2-0.4,0.3s-0.3,0.2-0.5,0.2s-0.4,0.1-0.6,0.1
		c-0.4,0-0.7-0.1-0.9-0.2s-0.5-0.3-0.7-0.6s-0.3-0.6-0.4-0.9s-0.1-0.8-0.1-1.2c0-0.5,0.1-1,0.2-1.4s0.4-0.7,0.6-1s0.6-0.5,1-0.6
		s0.8-0.2,1.2-0.2c0.1,0,0.3,0,0.4,0s0.3,0,0.4,0.1v-2.3h1.4v8.3H152z M149.4,86.8c0,0.3,0,0.6,0.1,0.8s0.1,0.4,0.2,0.6
		s0.2,0.3,0.3,0.3s0.3,0.1,0.4,0.1c0.2,0,0.5-0.1,0.7-0.3s0.5-0.5,0.7-0.8V85c-0.1,0-0.3-0.1-0.4-0.1s-0.3,0-0.5,0
		c-0.2,0-0.4,0-0.6,0.1s-0.3,0.2-0.5,0.4s-0.2,0.4-0.3,0.6S149.4,86.5,149.4,86.8z"/>
	<path class="st2" d="M166.2,89.5c-0.3,0.1-0.6,0.2-0.9,0.3s-0.6,0.1-0.9,0.1c-0.5,0-0.9-0.1-1.3-0.2s-0.7-0.3-1-0.6
		s-0.5-0.6-0.6-0.9s-0.2-0.8-0.2-1.3c0-0.5,0.1-0.9,0.2-1.3s0.4-0.7,0.6-1s0.6-0.5,1-0.6s0.8-0.2,1.3-0.2c0.4,0,0.7,0,1,0.1
		s0.5,0.1,0.7,0.2v1.4c-0.2-0.1-0.5-0.2-0.8-0.3s-0.6-0.1-0.8-0.1c-0.3,0-0.5,0-0.7,0.1s-0.4,0.2-0.5,0.4s-0.3,0.4-0.3,0.6
		s-0.1,0.5-0.1,0.8c0,0.3,0,0.5,0.1,0.8s0.2,0.4,0.3,0.6s0.3,0.3,0.5,0.4s0.4,0.1,0.7,0.1c0.1,0,0.3,0,0.4,0s0.3,0,0.4-0.1
		s0.3-0.1,0.4-0.1s0.3-0.1,0.4-0.1V89.5z"/>
	<path class="st2" d="M172.2,89.7v-4.1c0-0.1,0-0.3,0-0.4s0-0.2,0-0.3s-0.1-0.1-0.1-0.2s-0.1-0.1-0.2-0.1c-0.1,0-0.2,0.1-0.4,0.2
		s-0.2,0.4-0.4,0.8v3.9h-1.2v-4.1c0-0.1,0-0.3,0-0.4s0-0.2,0-0.3s-0.1-0.1-0.1-0.2s-0.1-0.1-0.2-0.1c-0.1,0-0.2,0.1-0.3,0.2
		s-0.3,0.4-0.4,0.8v3.9h-1.2v-6h1.1l0,0.9c0.1-0.2,0.2-0.3,0.3-0.5s0.2-0.2,0.3-0.3s0.2-0.1,0.3-0.2s0.2-0.1,0.4-0.1
		c0.3,0,0.6,0.1,0.8,0.3s0.3,0.4,0.3,0.7c0.1-0.2,0.2-0.3,0.3-0.5s0.2-0.2,0.3-0.3s0.2-0.1,0.3-0.2s0.2-0.1,0.4-0.1
		c0.4,0,0.8,0.2,1,0.5s0.3,0.8,0.3,1.3v4.3H172.2z"/>
	<path class="st2" d="M180,86.7c0,0.5-0.1,1-0.2,1.4s-0.4,0.7-0.6,1s-0.6,0.5-1,0.6s-0.8,0.2-1.2,0.2c-0.1,0-0.3,0-0.4,0
		s-0.3,0-0.4-0.1v2.3h-1.4v-8.3h1.2l0,0.9c0.1-0.2,0.2-0.3,0.4-0.4s0.3-0.2,0.4-0.3s0.3-0.2,0.5-0.2s0.4-0.1,0.6-0.1
		c0.4,0,0.7,0.1,0.9,0.2s0.5,0.3,0.7,0.6s0.3,0.6,0.4,0.9S180,86.2,180,86.7z M178.5,86.7c0-0.3,0-0.6-0.1-0.8s-0.1-0.4-0.2-0.6
		s-0.2-0.3-0.3-0.3s-0.3-0.1-0.4-0.1c-0.2,0-0.5,0.1-0.7,0.3s-0.5,0.5-0.7,0.8v2.6c0.1,0,0.3,0.1,0.4,0.1s0.3,0,0.5,0
		c0.2,0,0.4,0,0.6-0.1s0.3-0.2,0.5-0.4s0.2-0.4,0.3-0.6S178.5,87,178.5,86.7z"/>
	<path class="st2" d="M191,84.4h-1.2l-0.2-2.9h1.6L191,84.4z"/>
	<path class="st2" d="M198.7,85.9c0,0.6-0.1,1.2-0.2,1.7s-0.3,0.9-0.6,1.3s-0.6,0.6-1,0.8s-0.8,0.3-1.3,0.3c-0.4,0-0.8-0.1-1.2-0.2
		s-0.7-0.4-0.9-0.7s-0.5-0.7-0.6-1.2s-0.2-1.1-0.2-1.8c0-0.6,0.1-1.2,0.2-1.7s0.3-0.9,0.6-1.3s0.6-0.6,1-0.8s0.8-0.3,1.3-0.3
		c0.4,0,0.8,0.1,1.2,0.2s0.7,0.4,0.9,0.7s0.5,0.7,0.6,1.2S198.7,85.2,198.7,85.9z M194.1,85.9c0,0.1,0,0.2,0,0.2s0,0.1,0,0.2
		l2.9-2.1c-0.1-0.4-0.3-0.7-0.5-0.9s-0.5-0.3-0.8-0.3c-0.2,0-0.4,0.1-0.6,0.2s-0.4,0.3-0.5,0.5s-0.2,0.5-0.3,0.9
		S194.1,85.4,194.1,85.9z M197.2,85.9c0-0.1,0-0.1,0-0.2s0-0.1,0-0.2l-2.9,2.1c0.1,0.4,0.3,0.7,0.5,0.8s0.5,0.3,0.8,0.3
		c0.2,0,0.4-0.1,0.6-0.2s0.4-0.3,0.5-0.5s0.2-0.5,0.3-0.9S197.2,86.4,197.2,85.9z"/>
	<path class="st2" d="M204.9,87.3c0,0.4-0.1,0.7-0.2,1.1s-0.3,0.6-0.6,0.8s-0.5,0.4-0.9,0.5s-0.7,0.2-1.1,0.2
		c-0.9,0-1.6-0.3-2.1-0.8s-0.7-1.4-0.7-2.6c0-0.4,0-0.8,0.1-1.2s0.1-0.7,0.3-1.1s0.3-0.6,0.5-0.9s0.5-0.5,0.8-0.7s0.7-0.3,1.1-0.4
		s0.9-0.1,1.4-0.1h0.9v1.2h-1c-0.4,0-0.8,0-1.1,0.1s-0.5,0.2-0.7,0.4s-0.3,0.4-0.4,0.6s-0.1,0.5-0.2,0.8l0,0.1
		c0.2-0.1,0.4-0.2,0.7-0.2s0.5-0.1,0.8-0.1c0.4,0,0.8,0.1,1.1,0.2s0.6,0.3,0.8,0.5s0.4,0.4,0.5,0.7S204.9,86.9,204.9,87.3z
		 M203.4,87.4c0-0.2,0-0.3-0.1-0.5s-0.1-0.3-0.2-0.4s-0.2-0.2-0.4-0.3s-0.3-0.1-0.6-0.1c-0.1,0-0.2,0-0.4,0s-0.2,0-0.4,0.1
		s-0.2,0.1-0.3,0.1s-0.2,0.1-0.3,0.1c0,0.4,0,0.7,0.1,1s0.1,0.5,0.2,0.7s0.2,0.3,0.4,0.4s0.4,0.1,0.6,0.1c0.2,0,0.4,0,0.5-0.1
		s0.3-0.2,0.4-0.3s0.2-0.3,0.2-0.4S203.4,87.6,203.4,87.4z"/>
	<path class="st2" d="M210.4,88.2v1.6H209v-1.6h-3.6V87l3-4.9h2v4.8h1.2v1.3H210.4z M209,83.5l-2.2,3.5h2.2V83.5z"/>
	<path class="st2" d="M217,88.2v1.6h-1.4v-1.6H212V87l3-4.9h2v4.8h1.2v1.3H217z M215.6,83.5l-2.2,3.5h2.2V83.5z"/>
	<path class="st2" d="M220.8,84.4h-1.2l-0.2-2.9h1.6L220.8,84.4z"/>
	<path class="st2" d="M231.9,81.2c0.8,0,1.4,0.2,1.8,0.6s0.6,1,0.6,1.9v1c0,0.4,0.1,0.7,0.3,0.9s0.5,0.3,0.9,0.3h0.4v1.1h-0.4
		c-0.2,0-0.4,0-0.5,0.1s-0.3,0.1-0.4,0.2s-0.2,0.2-0.2,0.4s-0.1,0.3-0.1,0.5v1.5c0,0.4,0,0.8-0.1,1.1s-0.2,0.6-0.4,0.8
		s-0.4,0.4-0.8,0.5s-0.7,0.2-1.1,0.2h-0.5V91h0.4c0.2,0,0.4,0,0.5-0.1s0.3-0.1,0.4-0.2s0.2-0.2,0.3-0.4s0.1-0.4,0.1-0.6v-1.5
		c0-0.3,0-0.5,0.1-0.8s0.1-0.4,0.2-0.5s0.2-0.2,0.4-0.3s0.3-0.1,0.6-0.2c-0.4-0.1-0.7-0.2-0.9-0.5s-0.3-0.7-0.3-1.3v-1
		c0-0.3,0-0.5-0.1-0.6s-0.1-0.3-0.3-0.4s-0.2-0.2-0.4-0.2s-0.3-0.1-0.5-0.1h-0.4v-1.1H231.9z"/>
	<path class="st2" d="M24.2,107.1c0,0.1,0,0.2,0,0.4s0,0.3,0,0.4h-3.9c0,0.3,0,0.5,0.1,0.7s0.2,0.4,0.3,0.5s0.3,0.2,0.5,0.3
		s0.4,0.1,0.7,0.1c0.3,0,0.6,0,0.9-0.1s0.7-0.1,1-0.2v1.1c-0.2,0-0.3,0.1-0.5,0.1s-0.4,0.1-0.6,0.1s-0.4,0-0.6,0.1s-0.4,0-0.6,0
		c-0.5,0-0.9-0.1-1.2-0.2s-0.7-0.3-0.9-0.6s-0.4-0.6-0.6-0.9s-0.2-0.8-0.2-1.3c0-0.5,0.1-0.9,0.2-1.3s0.3-0.7,0.6-1s0.5-0.5,0.9-0.7
		s0.7-0.2,1.2-0.2c0.4,0,0.8,0.1,1.1,0.2s0.6,0.3,0.8,0.5s0.4,0.5,0.5,0.8S24.2,106.7,24.2,107.1z M22.7,106.9c0-0.2,0-0.4-0.1-0.6
		s-0.1-0.3-0.3-0.4s-0.2-0.2-0.4-0.3s-0.3-0.1-0.5-0.1c-0.4,0-0.7,0.1-0.9,0.4s-0.4,0.6-0.4,1H22.7z"/>
	<path class="st2" d="M29,110.6v-3.9c0-0.7-0.2-1-0.7-1c-0.2,0-0.5,0.1-0.7,0.3s-0.5,0.5-0.7,0.8v3.8h-1.4v-6h1.2l0,0.9
		c0.1-0.2,0.2-0.3,0.4-0.4s0.3-0.2,0.4-0.3s0.3-0.2,0.5-0.2s0.4-0.1,0.6-0.1c0.3,0,0.6,0,0.8,0.1s0.4,0.2,0.6,0.4s0.3,0.4,0.3,0.7
		s0.1,0.5,0.1,0.9v4H29z"/>
	<path class="st2" d="M35.7,110.6l0-0.9c-0.1,0.2-0.3,0.3-0.4,0.4s-0.3,0.2-0.4,0.3s-0.3,0.2-0.5,0.2s-0.4,0.1-0.6,0.1
		c-0.4,0-0.7-0.1-0.9-0.2s-0.5-0.3-0.7-0.6s-0.3-0.6-0.4-0.9s-0.1-0.8-0.1-1.2c0-0.5,0.1-1,0.2-1.4c0.2-0.4,0.4-0.7,0.6-1
		s0.6-0.5,1-0.6s0.8-0.2,1.2-0.2c0.1,0,0.3,0,0.4,0s0.3,0,0.4,0.1v-2.3H37v8.3H35.7z M33.1,107.6c0,0.3,0,0.6,0.1,0.8
		s0.1,0.4,0.2,0.6s0.2,0.3,0.3,0.3s0.3,0.1,0.4,0.1c0.2,0,0.5-0.1,0.7-0.3s0.5-0.5,0.7-0.8v-2.6c-0.1,0-0.3-0.1-0.4-0.1
		s-0.3,0-0.5,0c-0.2,0-0.4,0-0.6,0.1s-0.3,0.2-0.5,0.4s-0.2,0.4-0.3,0.6S33.1,107.3,33.1,107.6z"/>
	<path class="st2" d="M22.7,152.2l0-0.9c-0.1,0.2-0.3,0.3-0.4,0.4s-0.3,0.2-0.4,0.3s-0.3,0.2-0.5,0.2s-0.4,0.1-0.6,0.1
		c-0.4,0-0.7-0.1-0.9-0.2s-0.5-0.3-0.7-0.6s-0.3-0.6-0.4-0.9s-0.1-0.8-0.1-1.2c0-0.5,0.1-1,0.2-1.4s0.4-0.7,0.6-1s0.6-0.5,1-0.6
		s0.8-0.2,1.2-0.2c0.1,0,0.3,0,0.4,0s0.3,0,0.4,0.1v-2.3H24v8.3H22.7z M20.1,149.3c0,0.3,0,0.6,0.1,0.8s0.1,0.4,0.2,0.6
		s0.2,0.3,0.3,0.3s0.3,0.1,0.4,0.1c0.2,0,0.5-0.1,0.7-0.3s0.5-0.5,0.7-0.8v-2.6c-0.1,0-0.3-0.1-0.4-0.1s-0.3,0-0.5,0
		c-0.2,0-0.4,0-0.6,0.1s-0.3,0.2-0.5,0.4s-0.2,0.4-0.3,0.6S20.1,149,20.1,149.3z"/>
	<path class="st2" d="M30.6,148.8c0,0.1,0,0.2,0,0.4s0,0.3,0,0.4h-3.9c0,0.3,0,0.5,0.1,0.7s0.2,0.4,0.3,0.5s0.3,0.2,0.5,0.3
		s0.4,0.1,0.7,0.1c0.3,0,0.6,0,0.9-0.1s0.7-0.1,1-0.2v1.1c-0.2,0-0.3,0.1-0.5,0.1s-0.4,0.1-0.6,0.1s-0.4,0-0.6,0.1s-0.4,0-0.6,0
		c-0.5,0-0.9-0.1-1.2-0.2s-0.7-0.3-0.9-0.6s-0.4-0.6-0.6-0.9s-0.2-0.8-0.2-1.3c0-0.5,0.1-0.9,0.2-1.3s0.3-0.7,0.6-1s0.5-0.5,0.9-0.7
		s0.7-0.2,1.2-0.2c0.4,0,0.8,0.1,1.1,0.2s0.6,0.3,0.8,0.5s0.4,0.5,0.5,0.8S30.6,148.4,30.6,148.8z M29.2,148.6c0-0.2,0-0.4-0.1-0.6
		s-0.1-0.3-0.3-0.4s-0.2-0.2-0.4-0.3s-0.3-0.1-0.5-0.1c-0.4,0-0.7,0.1-0.9,0.4s-0.4,0.6-0.4,1H29.2z"/>
	<path class="st2" d="M36.6,150.5c0,0.3-0.1,0.6-0.2,0.9s-0.3,0.4-0.6,0.6s-0.5,0.3-0.8,0.3s-0.6,0.1-1,0.1c-0.4,0-0.8,0-1.2-0.1
		s-0.7-0.1-1-0.2v-1.3c0.4,0.2,0.7,0.3,1.1,0.3s0.7,0.1,1,0.1c0.4,0,0.7-0.1,0.8-0.2s0.3-0.3,0.3-0.5c0-0.1,0-0.2-0.1-0.2
		s-0.1-0.1-0.2-0.2s-0.3-0.1-0.5-0.2s-0.5-0.2-0.8-0.2c-0.3-0.1-0.5-0.2-0.8-0.3s-0.4-0.2-0.5-0.4s-0.3-0.3-0.3-0.5
		c-0.1-0.2-0.1-0.4-0.1-0.7c0-0.2,0.1-0.5,0.2-0.7c0.1-0.2,0.3-0.4,0.5-0.6s0.5-0.3,0.8-0.4s0.7-0.1,1.1-0.1c0.4,0,0.7,0,1,0.1
		s0.5,0.1,0.8,0.1v1.2c-0.3-0.1-0.7-0.2-1-0.2s-0.6-0.1-0.9-0.1s-0.5,0.1-0.7,0.2s-0.3,0.3-0.3,0.4c0,0.1,0,0.2,0.1,0.2
		s0.1,0.1,0.2,0.2s0.2,0.1,0.4,0.2s0.4,0.2,0.7,0.2c0.3,0.1,0.6,0.2,0.9,0.3s0.4,0.2,0.6,0.4s0.2,0.3,0.3,0.5S36.6,150.2,36.6,150.5
		z"/>
	<path class="st2" d="M42.7,152c-0.3,0.1-0.6,0.2-0.9,0.3s-0.6,0.1-0.9,0.1c-0.5,0-0.9-0.1-1.3-0.2s-0.7-0.3-1-0.6s-0.5-0.6-0.6-0.9
		s-0.2-0.8-0.2-1.3c0-0.5,0.1-0.9,0.2-1.3s0.4-0.7,0.6-1s0.6-0.5,1-0.6s0.8-0.2,1.3-0.2c0.4,0,0.7,0,1,0.1s0.5,0.1,0.7,0.2v1.4
		c-0.2-0.1-0.5-0.2-0.8-0.3s-0.6-0.1-0.8-0.1c-0.3,0-0.5,0-0.7,0.1s-0.4,0.2-0.5,0.4s-0.3,0.4-0.3,0.6s-0.1,0.5-0.1,0.8
		c0,0.3,0,0.5,0.1,0.8s0.2,0.4,0.3,0.6s0.3,0.3,0.5,0.4s0.4,0.1,0.7,0.1c0.1,0,0.3,0,0.4,0s0.3,0,0.4-0.1s0.3-0.1,0.4-0.1
		s0.3-0.1,0.4-0.1V152z"/>
	<path class="st2" d="M47.9,148.6c0-0.2,0-0.4,0-0.6s-0.1-0.3-0.1-0.4s-0.1-0.2-0.2-0.2s-0.2-0.1-0.3-0.1c-0.2,0-0.4,0.1-0.7,0.3
		s-0.5,0.5-0.7,0.9v3.8h-1.5v-6h1.3l0.1,0.9c0.1-0.2,0.2-0.3,0.3-0.4s0.3-0.2,0.4-0.3s0.3-0.2,0.5-0.2s0.4-0.1,0.6-0.1
		c0.3,0,0.6,0.1,0.8,0.2s0.4,0.3,0.6,0.5s0.3,0.5,0.4,0.8s0.1,0.7,0.1,1.1H47.9z"/>
	<path class="st2" d="M52.2,147.4h-1.7v-1.1h3.1v4.8h1.7v1.1h-5.1v-1.1h1.9V147.4z M53.8,144.6c0,0.1,0,0.2-0.1,0.4
		s-0.1,0.2-0.2,0.3s-0.2,0.2-0.3,0.2s-0.2,0.1-0.4,0.1s-0.3,0-0.4-0.1s-0.2-0.1-0.3-0.2S52,145.1,52,145s-0.1-0.2-0.1-0.4
		s0-0.2,0.1-0.4s0.1-0.2,0.2-0.3s0.2-0.2,0.3-0.2s0.2-0.1,0.4-0.1s0.3,0,0.4,0.1s0.2,0.1,0.3,0.2s0.1,0.2,0.2,0.3
		S53.8,144.5,53.8,144.6z"/>
	<path class="st2" d="M61.9,149.1c0,0.5-0.1,1-0.2,1.4s-0.4,0.7-0.6,1s-0.6,0.5-1,0.6s-0.8,0.2-1.2,0.2c-0.4,0-0.8,0-1.2-0.1
		s-0.7-0.2-1.1-0.3v-8H58v1.9l-0.1,1.2c0.2-0.3,0.5-0.5,0.8-0.7s0.6-0.3,1-0.3c0.4,0,0.7,0.1,0.9,0.2s0.5,0.3,0.7,0.6
		s0.3,0.6,0.4,0.9S61.9,148.7,61.9,149.1z M60.4,149.2c0-0.3,0-0.6-0.1-0.8s-0.1-0.4-0.2-0.6s-0.2-0.3-0.3-0.3s-0.3-0.1-0.4-0.1
		c-0.2,0-0.5,0.1-0.7,0.3s-0.5,0.5-0.7,0.8v2.6c0.1,0,0.3,0.1,0.4,0.1s0.3,0,0.5,0c0.2,0,0.4,0,0.6-0.1s0.3-0.2,0.5-0.4
		s0.2-0.4,0.3-0.6S60.4,149.5,60.4,149.2z"/>
	<path class="st2" d="M68.2,148.8c0,0.1,0,0.2,0,0.4s0,0.3,0,0.4h-3.9c0,0.3,0,0.5,0.1,0.7s0.2,0.4,0.3,0.5s0.3,0.2,0.5,0.3
		s0.4,0.1,0.7,0.1c0.3,0,0.6,0,0.9-0.1s0.7-0.1,1-0.2v1.1c-0.2,0-0.3,0.1-0.5,0.1s-0.4,0.1-0.6,0.1s-0.4,0-0.6,0.1s-0.4,0-0.6,0
		c-0.5,0-0.9-0.1-1.2-0.2s-0.7-0.3-0.9-0.6s-0.4-0.6-0.6-0.9s-0.2-0.8-0.2-1.3c0-0.5,0.1-0.9,0.2-1.3s0.3-0.7,0.6-1s0.5-0.5,0.9-0.7
		s0.7-0.2,1.2-0.2c0.4,0,0.8,0.1,1.1,0.2s0.6,0.3,0.8,0.5s0.4,0.5,0.5,0.8S68.2,148.4,68.2,148.8z M66.8,148.6c0-0.2,0-0.4-0.1-0.6
		s-0.1-0.3-0.3-0.4s-0.2-0.2-0.4-0.3s-0.3-0.1-0.5-0.1c-0.4,0-0.7,0.1-0.9,0.4s-0.4,0.6-0.4,1H66.8z"/>
	<path class="st2" d="M80.5,152.2v-4.1c0-0.1,0-0.3,0-0.4s0-0.2,0-0.3s-0.1-0.1-0.1-0.2s-0.1-0.1-0.2-0.1c-0.1,0-0.2,0.1-0.4,0.2
		s-0.2,0.4-0.4,0.8v3.9h-1.2v-4.1c0-0.1,0-0.3,0-0.4s0-0.2,0-0.3s-0.1-0.1-0.1-0.2s-0.1-0.1-0.2-0.1c-0.1,0-0.2,0.1-0.3,0.2
		s-0.3,0.4-0.4,0.8v3.9h-1.2v-6h1.1l0,0.9c0.1-0.2,0.2-0.3,0.3-0.5s0.2-0.2,0.3-0.3s0.2-0.1,0.3-0.2s0.2-0.1,0.4-0.1
		c0.3,0,0.6,0.1,0.8,0.3s0.3,0.4,0.3,0.7c0.1-0.2,0.2-0.3,0.3-0.5s0.2-0.2,0.3-0.3s0.2-0.1,0.3-0.2s0.2-0.1,0.4-0.1
		c0.4,0,0.8,0.2,1,0.5s0.3,0.8,0.3,1.3v4.3H80.5z"/>
	<path class="st2" d="M86.5,151.6c-0.2,0.5-0.4,1-0.6,1.4s-0.5,0.7-0.7,1s-0.6,0.5-0.9,0.6s-0.7,0.2-1.1,0.2c-0.1,0-0.2,0-0.3,0
		s-0.2,0-0.4,0v-1.2c0,0,0.1,0,0.2,0s0.1,0,0.2,0s0.1,0,0.2,0s0.1,0,0.2,0c0.2,0,0.3,0,0.5-0.1s0.3-0.1,0.4-0.3s0.2-0.2,0.3-0.4
		s0.2-0.3,0.3-0.5l-2.4-6h1.6l1.2,3.4l0.4,1.1l0.4-1l1.2-3.4h1.5L86.5,151.6z"/>
	<path class="st2" d="M93,152.2l0-0.8c-0.1,0.1-0.3,0.3-0.4,0.4s-0.3,0.2-0.5,0.3s-0.3,0.1-0.5,0.2s-0.4,0.1-0.6,0.1
		c-0.3,0-0.6,0-0.8-0.1s-0.4-0.2-0.6-0.4s-0.3-0.4-0.4-0.6s-0.1-0.5-0.1-0.8c0-0.3,0.1-0.5,0.2-0.8s0.3-0.4,0.5-0.6s0.5-0.3,0.9-0.4
		s0.8-0.1,1.3-0.1h0.8v-0.4c0-0.2,0-0.3-0.1-0.4s-0.1-0.2-0.2-0.3s-0.2-0.2-0.4-0.2s-0.3-0.1-0.6-0.1c-0.4,0-0.7,0-1,0.1
		s-0.7,0.2-1,0.3v-1.1c0.3-0.1,0.6-0.2,1-0.3s0.8-0.1,1.2-0.1c0.4,0,0.8,0,1.1,0.1s0.6,0.2,0.8,0.4s0.4,0.4,0.5,0.6s0.1,0.5,0.1,0.9
		v4.1H93z M92.8,149.6h-0.9c-0.2,0-0.4,0-0.6,0.1s-0.3,0.1-0.4,0.2s-0.2,0.2-0.2,0.3s-0.1,0.2-0.1,0.3c0,0.2,0.1,0.4,0.2,0.6
		s0.4,0.2,0.6,0.2c0.2,0,0.4-0.1,0.6-0.2s0.5-0.4,0.7-0.6V149.6z"/>
	<path class="st2" d="M101.1,149.1c0,0.5-0.1,1-0.2,1.4s-0.4,0.7-0.6,1s-0.6,0.5-1,0.6s-0.8,0.2-1.2,0.2c-0.1,0-0.3,0-0.4,0
		s-0.3,0-0.4-0.1v2.3h-1.4v-8.3H97l0,0.9c0.1-0.2,0.2-0.3,0.4-0.4s0.3-0.2,0.4-0.3s0.3-0.2,0.5-0.2s0.4-0.1,0.6-0.1
		c0.4,0,0.7,0.1,0.9,0.2s0.5,0.3,0.7,0.6s0.3,0.6,0.4,0.9S101.1,148.7,101.1,149.1z M99.6,149.2c0-0.3,0-0.6-0.1-0.8
		s-0.1-0.4-0.2-0.6s-0.2-0.3-0.3-0.3s-0.3-0.1-0.4-0.1c-0.2,0-0.5,0.1-0.7,0.3s-0.5,0.5-0.7,0.8v2.6c0.1,0,0.3,0.1,0.4,0.1
		s0.3,0,0.5,0c0.2,0,0.4,0,0.6-0.1s0.3-0.2,0.5-0.4s0.2-0.4,0.3-0.6S99.6,149.5,99.6,149.2z"/>
	<path class="st2" d="M107.6,149.1c0,0.5-0.1,1-0.2,1.4s-0.4,0.7-0.6,1s-0.6,0.5-1,0.6s-0.8,0.2-1.2,0.2c-0.1,0-0.3,0-0.4,0
		s-0.3,0-0.4-0.1v2.3h-1.4v-8.3h1.2l0,0.9c0.1-0.2,0.2-0.3,0.4-0.4s0.3-0.2,0.4-0.3s0.3-0.2,0.5-0.2s0.4-0.1,0.6-0.1
		c0.4,0,0.7,0.1,0.9,0.2s0.5,0.3,0.7,0.6s0.3,0.6,0.4,0.9S107.6,148.7,107.6,149.1z M106.1,149.2c0-0.3,0-0.6-0.1-0.8
		s-0.1-0.4-0.2-0.6s-0.2-0.3-0.3-0.3s-0.3-0.1-0.4-0.1c-0.2,0-0.5,0.1-0.7,0.3s-0.5,0.5-0.7,0.8v2.6c0.1,0,0.3,0.1,0.4,0.1
		s0.3,0,0.5,0c0.2,0,0.4,0,0.6-0.1s0.3-0.2,0.5-0.4s0.2-0.4,0.3-0.6S106.1,149.5,106.1,149.2z"/>
	<path class="st2" d="M110.2,150c0.2,0,0.3,0,0.5,0.1s0.3,0.1,0.4,0.2s0.2,0.2,0.2,0.4s0.1,0.3,0.1,0.5c0,0.2,0,0.3-0.1,0.4
		s-0.1,0.3-0.2,0.4s-0.2,0.2-0.4,0.2s-0.3,0.1-0.5,0.1c-0.2,0-0.3,0-0.4-0.1s-0.3-0.1-0.4-0.2s-0.2-0.2-0.2-0.4s-0.1-0.3-0.1-0.4
		c0-0.2,0-0.3,0.1-0.5s0.1-0.3,0.2-0.4s0.2-0.2,0.4-0.2S110.1,150,110.2,150z"/>
	<path class="st2" d="M118,152c-0.3,0.1-0.6,0.2-0.9,0.3s-0.6,0.1-0.9,0.1c-0.5,0-0.9-0.1-1.3-0.2s-0.7-0.3-1-0.6s-0.5-0.6-0.6-0.9
		s-0.2-0.8-0.2-1.3c0-0.5,0.1-0.9,0.2-1.3s0.4-0.7,0.6-1s0.6-0.5,1-0.6s0.8-0.2,1.3-0.2c0.4,0,0.7,0,1,0.1s0.5,0.1,0.7,0.2v1.4
		c-0.2-0.1-0.5-0.2-0.8-0.3s-0.6-0.1-0.8-0.1c-0.3,0-0.5,0-0.7,0.1s-0.4,0.2-0.5,0.4s-0.3,0.4-0.3,0.6s-0.1,0.5-0.1,0.8
		c0,0.3,0,0.5,0.1,0.8s0.2,0.4,0.3,0.6s0.3,0.3,0.5,0.4s0.4,0.1,0.7,0.1c0.1,0,0.3,0,0.4,0s0.3,0,0.4-0.1s0.3-0.1,0.4-0.1
		s0.3-0.1,0.4-0.1V152z"/>
	<path class="st2" d="M124.8,149.2c0,0.5-0.1,0.9-0.2,1.3s-0.3,0.7-0.6,1s-0.6,0.5-0.9,0.6s-0.8,0.2-1.2,0.2c-0.4,0-0.8-0.1-1.2-0.2
		s-0.6-0.3-0.9-0.6s-0.4-0.6-0.6-1s-0.2-0.8-0.2-1.3c0-0.5,0.1-0.9,0.2-1.3s0.3-0.7,0.6-1s0.6-0.5,0.9-0.6s0.8-0.2,1.2-0.2
		c0.4,0,0.8,0.1,1.2,0.2s0.6,0.3,0.9,0.6s0.4,0.6,0.6,1S124.8,148.7,124.8,149.2z M123.3,149.2c0-0.6-0.1-1.1-0.3-1.4
		s-0.6-0.5-1-0.5c-0.2,0-0.5,0-0.6,0.1s-0.3,0.2-0.4,0.4s-0.2,0.4-0.2,0.6s-0.1,0.5-0.1,0.7c0,0.6,0.1,1.1,0.4,1.4s0.6,0.5,1,0.5
		c0.2,0,0.4,0,0.6-0.1s0.3-0.2,0.4-0.4s0.2-0.4,0.2-0.6S123.3,149.5,123.3,149.2z"/>
	<path class="st2" d="M129.5,152.2v-3.9c0-0.7-0.2-1-0.7-1c-0.2,0-0.5,0.1-0.7,0.3s-0.5,0.5-0.7,0.8v3.8h-1.4v-6h1.2l0,0.9
		c0.1-0.2,0.2-0.3,0.4-0.4s0.3-0.2,0.4-0.3s0.3-0.2,0.5-0.2s0.4-0.1,0.6-0.1c0.3,0,0.6,0,0.8,0.1s0.4,0.2,0.6,0.4s0.3,0.4,0.3,0.7
		s0.1,0.5,0.1,0.9v4H129.5z"/>
	<path class="st2" d="M137.7,145.1c-0.2-0.1-0.4-0.1-0.6-0.1s-0.5-0.1-0.7-0.1c-0.2,0-0.3,0-0.5,0.1s-0.3,0.1-0.4,0.2
		s-0.2,0.2-0.2,0.4s-0.1,0.3-0.1,0.5v1h2.3v1.1h-2.3v4h-1.4v-4H132v-1.1h1.7v-0.9c0-0.4,0.1-0.8,0.2-1.1s0.3-0.6,0.5-0.7
		s0.5-0.3,0.8-0.4s0.7-0.1,1.1-0.1c0.3,0,0.5,0,0.7,0s0.4,0.1,0.6,0.1V145.1z"/>
	<path class="st2" d="M149.3,152.2l0-0.9c-0.1,0.2-0.3,0.3-0.4,0.4s-0.3,0.2-0.4,0.3s-0.3,0.2-0.5,0.2s-0.4,0.1-0.6,0.1
		c-0.4,0-0.7-0.1-0.9-0.2s-0.5-0.3-0.7-0.6s-0.3-0.6-0.4-0.9s-0.1-0.8-0.1-1.2c0-0.5,0.1-1,0.2-1.4s0.4-0.7,0.6-1s0.6-0.5,1-0.6
		s0.8-0.2,1.2-0.2c0.1,0,0.3,0,0.4,0s0.3,0,0.4,0.1v-2.3h1.4v8.3H149.3z M146.7,149.3c0,0.3,0,0.6,0.1,0.8s0.1,0.4,0.2,0.6
		s0.2,0.3,0.3,0.3s0.3,0.1,0.4,0.1c0.2,0,0.5-0.1,0.7-0.3s0.5-0.5,0.7-0.8v-2.6c-0.1,0-0.3-0.1-0.4-0.1s-0.3,0-0.5,0
		c-0.2,0-0.4,0-0.6,0.1s-0.3,0.2-0.5,0.4s-0.2,0.4-0.3,0.6S146.7,149,146.7,149.3z"/>
	<path class="st2" d="M157.4,149.2c0,0.5-0.1,0.9-0.2,1.3s-0.3,0.7-0.6,1s-0.6,0.5-0.9,0.6s-0.8,0.2-1.2,0.2c-0.4,0-0.8-0.1-1.2-0.2
		s-0.6-0.3-0.9-0.6s-0.4-0.6-0.6-1s-0.2-0.8-0.2-1.3c0-0.5,0.1-0.9,0.2-1.3s0.3-0.7,0.6-1s0.6-0.5,0.9-0.6s0.8-0.2,1.2-0.2
		c0.4,0,0.8,0.1,1.2,0.2s0.6,0.3,0.9,0.6s0.4,0.6,0.6,1S157.4,148.7,157.4,149.2z M155.9,149.2c0-0.6-0.1-1.1-0.3-1.4
		s-0.6-0.5-1-0.5c-0.2,0-0.5,0-0.6,0.1s-0.3,0.2-0.4,0.4s-0.2,0.4-0.2,0.6s-0.1,0.5-0.1,0.7c0,0.6,0.1,1.1,0.4,1.4s0.6,0.5,1,0.5
		c0.2,0,0.4,0,0.6-0.1s0.3-0.2,0.4-0.4s0.2-0.4,0.2-0.6S155.9,149.5,155.9,149.2z"/>
	<path class="st2" d="M34.1,168.2h-1.7v-1.1h3.1v4.8h1.7v1.1h-5.1v-1.1h1.9V168.2z M35.7,165.5c0,0.1,0,0.2-0.1,0.4
		s-0.1,0.2-0.2,0.3s-0.2,0.2-0.3,0.2s-0.2,0.1-0.4,0.1s-0.3,0-0.4-0.1s-0.2-0.1-0.3-0.2s-0.1-0.2-0.2-0.3s-0.1-0.2-0.1-0.4
		s0-0.2,0.1-0.4s0.1-0.2,0.2-0.3s0.2-0.2,0.3-0.2s0.2-0.1,0.4-0.1s0.3,0,0.4,0.1s0.2,0.1,0.3,0.2s0.1,0.2,0.2,0.3
		S35.7,165.3,35.7,165.5z"/>
	<path class="st2" d="M42.8,173c-0.3,0.1-0.5,0.1-0.8,0.1s-0.5,0.1-0.7,0.1c-0.4,0-0.7,0-1-0.1s-0.5-0.2-0.7-0.4s-0.3-0.4-0.4-0.6
		s-0.1-0.6-0.1-0.9v-2.9h-1.6v-1.1H39v-1.5l1.5-0.4v1.9h2.3v1.1h-2.3v2.8c0,0.3,0.1,0.6,0.2,0.8s0.4,0.3,0.8,0.3
		c0.2,0,0.5,0,0.7-0.1s0.4-0.1,0.6-0.1V173z"/>
	<path class="st2" d="M48.9,171.3c0,0.3-0.1,0.6-0.2,0.9s-0.3,0.4-0.6,0.6s-0.5,0.3-0.8,0.3s-0.6,0.1-1,0.1c-0.4,0-0.8,0-1.2-0.1
		s-0.7-0.1-1-0.2v-1.3c0.4,0.2,0.7,0.3,1.1,0.3s0.7,0.1,1,0.1c0.4,0,0.7-0.1,0.8-0.2s0.3-0.3,0.3-0.5c0-0.1,0-0.2-0.1-0.2
		s-0.1-0.1-0.2-0.2s-0.3-0.1-0.5-0.2s-0.5-0.2-0.8-0.2c-0.3-0.1-0.5-0.2-0.8-0.3s-0.4-0.2-0.5-0.4s-0.3-0.3-0.3-0.5
		s-0.1-0.4-0.1-0.7c0-0.2,0.1-0.5,0.2-0.7s0.3-0.4,0.5-0.6s0.5-0.3,0.8-0.4s0.7-0.1,1.1-0.1c0.4,0,0.7,0,1,0.1s0.5,0.1,0.8,0.1v1.2
		c-0.3-0.1-0.7-0.2-1-0.2s-0.6-0.1-0.9-0.1s-0.5,0.1-0.7,0.2s-0.3,0.3-0.3,0.4c0,0.1,0,0.2,0.1,0.2s0.1,0.1,0.2,0.2s0.2,0.1,0.4,0.2
		s0.4,0.2,0.7,0.2c0.3,0.1,0.6,0.2,0.9,0.3s0.4,0.2,0.6,0.4s0.2,0.3,0.3,0.5S48.9,171.1,48.9,171.3z"/>
	<path class="st2" d="M53.3,175.5c-0.9-0.8-1.7-1.7-2.1-2.6s-0.7-1.9-0.7-3c0-0.6,0.1-1.2,0.2-1.7s0.3-1,0.6-1.5
		c0.3-0.5,0.6-0.9,0.9-1.3s0.7-0.8,1.2-1.1l0.8,0.8c-0.8,0.7-1.3,1.4-1.7,2.2c-0.4,0.8-0.6,1.6-0.6,2.5c0,0.9,0.2,1.7,0.6,2.6
		s1,1.6,1.7,2.2L53.3,175.5z"/>
	<path class="st2" d="M57.7,167.7h-1.2l-0.2-2.9h1.6L57.7,167.7z"/>
	<path class="st2" d="M65.3,170c0,0.5-0.1,1-0.2,1.4s-0.4,0.7-0.6,1s-0.6,0.5-1,0.6s-0.8,0.2-1.2,0.2c-0.1,0-0.3,0-0.4,0
		s-0.3,0-0.4-0.1v2.3h-1.4v-8.3h1.2l0,0.9c0.1-0.2,0.2-0.3,0.4-0.4s0.3-0.2,0.4-0.3s0.3-0.2,0.5-0.2s0.4-0.1,0.6-0.1
		c0.4,0,0.7,0.1,0.9,0.2s0.5,0.3,0.7,0.6s0.3,0.6,0.4,0.9S65.3,169.5,65.3,170z M63.8,170c0-0.3,0-0.6-0.1-0.8s-0.1-0.4-0.2-0.6
		s-0.2-0.3-0.3-0.3s-0.3-0.1-0.4-0.1c-0.2,0-0.5,0.1-0.7,0.3s-0.5,0.5-0.7,0.8v2.6c0.1,0,0.3,0.1,0.4,0.1s0.3,0,0.5,0
		c0.2,0,0.4,0,0.6-0.1s0.3-0.2,0.5-0.4s0.2-0.4,0.3-0.6S63.8,170.3,63.8,170z"/>
	<path class="st2" d="M71.9,170c0,0.5-0.1,0.9-0.2,1.3s-0.3,0.7-0.6,1s-0.6,0.5-0.9,0.6s-0.8,0.2-1.2,0.2c-0.4,0-0.8-0.1-1.2-0.2
		s-0.6-0.3-0.9-0.6s-0.4-0.6-0.6-1s-0.2-0.8-0.2-1.3c0-0.5,0.1-0.9,0.2-1.3s0.3-0.7,0.6-1s0.6-0.5,0.9-0.6s0.8-0.2,1.2-0.2
		c0.4,0,0.8,0.1,1.2,0.2s0.6,0.3,0.9,0.6s0.4,0.6,0.6,1S71.9,169.5,71.9,170z M70.4,170c0-0.6-0.1-1.1-0.3-1.4s-0.6-0.5-1-0.5
		c-0.2,0-0.5,0-0.6,0.1s-0.3,0.2-0.4,0.4s-0.2,0.4-0.2,0.6s-0.1,0.5-0.1,0.7c0,0.6,0.1,1.1,0.4,1.4s0.6,0.5,1,0.5
		c0.2,0,0.4,0,0.6-0.1s0.3-0.2,0.4-0.4s0.2-0.4,0.2-0.6S70.4,170.3,70.4,170z"/>
	<path class="st2" d="M76.7,169.4c0-0.2,0-0.4,0-0.6s-0.1-0.3-0.1-0.4s-0.1-0.2-0.2-0.2s-0.2-0.1-0.3-0.1c-0.2,0-0.4,0.1-0.7,0.3
		s-0.5,0.5-0.7,0.9v3.8h-1.5v-6h1.3l0.1,0.9c0.1-0.2,0.2-0.3,0.3-0.4s0.3-0.2,0.4-0.3s0.3-0.2,0.5-0.2s0.4-0.1,0.6-0.1
		c0.3,0,0.6,0.1,0.8,0.2s0.4,0.3,0.6,0.5s0.3,0.5,0.4,0.8s0.1,0.7,0.1,1.1H76.7z"/>
	<path class="st2" d="M84.4,173c-0.3,0.1-0.5,0.1-0.8,0.1s-0.5,0.1-0.7,0.1c-0.4,0-0.7,0-1-0.1s-0.5-0.2-0.7-0.4s-0.3-0.4-0.4-0.6
		s-0.1-0.6-0.1-0.9v-2.9H79v-1.1h1.6v-1.5l1.5-0.4v1.9h2.3v1.1h-2.3v2.8c0,0.3,0.1,0.6,0.2,0.8s0.4,0.3,0.8,0.3c0.2,0,0.5,0,0.7-0.1
		s0.4-0.1,0.6-0.1V173z"/>
	<path class="st2" d="M88,167.7h-1.2l-0.2-2.9h1.6L88,167.7z"/>
	<path class="st2" d="M91.1,164.3c1,0.8,1.7,1.7,2.1,2.6c0.5,0.9,0.7,1.9,0.7,3c0,0.6-0.1,1.2-0.2,1.7s-0.3,1-0.6,1.5
		s-0.6,0.9-0.9,1.3s-0.7,0.8-1.2,1.1l-0.8-0.8c0.8-0.7,1.3-1.4,1.7-2.2s0.6-1.6,0.6-2.5c0-0.9-0.2-1.7-0.6-2.6
		c-0.4-0.8-1-1.6-1.7-2.2L91.1,164.3z"/>
	<path class="st2" d="M107,175.4c-0.8,0-1.4-0.2-1.8-0.6s-0.6-1-0.6-1.8v-1.5c0-0.4-0.1-0.7-0.3-0.9s-0.5-0.3-0.9-0.3H103v-1.1h0.4
		c0.2,0,0.4,0,0.5-0.1s0.3-0.1,0.4-0.2s0.2-0.2,0.2-0.4s0.1-0.3,0.1-0.5v-1c0-0.4,0-0.8,0.1-1.1s0.2-0.6,0.4-0.8s0.4-0.4,0.7-0.5
		s0.7-0.2,1.1-0.2h0.5v1.1h-0.4c-0.2,0-0.4,0-0.5,0.1s-0.3,0.1-0.4,0.2s-0.2,0.2-0.3,0.4s-0.1,0.4-0.1,0.6v1c0,0.3,0,0.5-0.1,0.8
		s-0.1,0.4-0.2,0.5s-0.2,0.2-0.4,0.3s-0.3,0.1-0.6,0.2c0.4,0,0.7,0.2,0.9,0.5s0.3,0.7,0.3,1.3v1.5c0,0.3,0,0.5,0.1,0.6
		s0.1,0.3,0.3,0.4s0.2,0.2,0.4,0.2s0.3,0.1,0.5,0.1h0.4v1.1H107z"/>
	<path class="st2" d="M121.1,171.3c0,0.3-0.1,0.6-0.2,0.9s-0.3,0.4-0.6,0.6s-0.5,0.3-0.8,0.3s-0.6,0.1-1,0.1c-0.4,0-0.8,0-1.2-0.1
		s-0.7-0.1-1-0.2v-1.3c0.4,0.2,0.7,0.3,1.1,0.3s0.7,0.1,1,0.1c0.4,0,0.7-0.1,0.8-0.2s0.3-0.3,0.3-0.5c0-0.1,0-0.2-0.1-0.2
		s-0.1-0.1-0.2-0.2s-0.3-0.1-0.5-0.2s-0.5-0.2-0.8-0.2c-0.3-0.1-0.5-0.2-0.8-0.3s-0.4-0.2-0.5-0.4s-0.3-0.3-0.3-0.5
		s-0.1-0.4-0.1-0.7c0-0.2,0.1-0.5,0.2-0.7s0.3-0.4,0.5-0.6s0.5-0.3,0.8-0.4s0.7-0.1,1.1-0.1c0.4,0,0.7,0,1,0.1s0.5,0.1,0.8,0.1v1.2
		c-0.3-0.1-0.7-0.2-1-0.2s-0.6-0.1-0.9-0.1s-0.5,0.1-0.7,0.2s-0.3,0.3-0.3,0.4c0,0.1,0,0.2,0.1,0.2s0.1,0.1,0.2,0.2s0.2,0.1,0.4,0.2
		s0.4,0.2,0.7,0.2c0.3,0.1,0.6,0.2,0.9,0.3s0.4,0.2,0.6,0.4s0.2,0.3,0.3,0.5S121.1,171.1,121.1,171.3z"/>
	<path class="st2" d="M126,173v-3.9c0-0.7-0.2-1-0.7-1c-0.2,0-0.5,0.1-0.7,0.3s-0.5,0.5-0.7,0.8v3.8h-1.4v-8.3h1.4v2l-0.1,1.1
		c0.1-0.1,0.2-0.3,0.4-0.4s0.3-0.2,0.4-0.3s0.3-0.1,0.5-0.2s0.4-0.1,0.6-0.1c0.3,0,0.6,0,0.8,0.1s0.4,0.2,0.6,0.4s0.3,0.4,0.3,0.7
		s0.1,0.5,0.1,0.9v4H126z"/>
	<path class="st2" d="M134.3,170c0,0.5-0.1,0.9-0.2,1.3s-0.3,0.7-0.6,1s-0.6,0.5-0.9,0.6s-0.8,0.2-1.2,0.2c-0.4,0-0.8-0.1-1.2-0.2
		s-0.6-0.3-0.9-0.6s-0.4-0.6-0.6-1s-0.2-0.8-0.2-1.3c0-0.5,0.1-0.9,0.2-1.3s0.3-0.7,0.6-1s0.6-0.5,0.9-0.6s0.8-0.2,1.2-0.2
		c0.4,0,0.8,0.1,1.2,0.2s0.6,0.3,0.9,0.6s0.4,0.6,0.6,1S134.3,169.5,134.3,170z M132.8,170c0-0.6-0.1-1.1-0.3-1.4s-0.6-0.5-1-0.5
		c-0.2,0-0.5,0-0.6,0.1s-0.3,0.2-0.4,0.4s-0.2,0.4-0.2,0.6s-0.1,0.5-0.1,0.7c0,0.6,0.1,1.1,0.4,1.4s0.6,0.5,1,0.5
		c0.2,0,0.4,0,0.6-0.1s0.3-0.2,0.4-0.4s0.2-0.4,0.2-0.6S132.8,170.3,132.8,170z"/>
	<path class="st2" d="M136.9,167.1v3.9c0,0.3,0.1,0.6,0.2,0.7s0.3,0.2,0.6,0.2c0.2,0,0.5-0.1,0.7-0.3s0.5-0.5,0.7-0.8v-3.8h1.4v6
		h-1.2l0-0.9c-0.1,0.2-0.3,0.3-0.4,0.4s-0.3,0.2-0.4,0.3s-0.3,0.2-0.5,0.2s-0.4,0.1-0.6,0.1c-0.3,0-0.6,0-0.8-0.1s-0.4-0.2-0.6-0.4
		s-0.3-0.4-0.3-0.7s-0.1-0.5-0.1-0.9v-4H136.9z"/>
	<path class="st2" d="M143.6,165.9h-1.7v-1.1h3.1v7.2h1.7v1.1h-5.1v-1.1h1.9V165.9z"/>
	<path class="st2" d="M151.7,173l0-0.9c-0.1,0.2-0.3,0.3-0.4,0.4s-0.3,0.2-0.4,0.3s-0.3,0.2-0.5,0.2s-0.4,0.1-0.6,0.1
		c-0.4,0-0.7-0.1-0.9-0.2s-0.5-0.3-0.7-0.6s-0.3-0.6-0.4-0.9s-0.1-0.8-0.1-1.2c0-0.5,0.1-1,0.2-1.4s0.4-0.7,0.6-1s0.6-0.5,1-0.6
		s0.8-0.2,1.2-0.2c0.1,0,0.3,0,0.4,0s0.3,0,0.4,0.1v-2.3h1.4v8.3H151.7z M149.1,170.1c0,0.3,0,0.6,0.1,0.8s0.1,0.4,0.2,0.6
		s0.2,0.3,0.3,0.3s0.3,0.1,0.4,0.1c0.2,0,0.5-0.1,0.7-0.3s0.5-0.5,0.7-0.8v-2.6c-0.1,0-0.3-0.1-0.4-0.1s-0.3,0-0.5,0
		c-0.2,0-0.4,0-0.6,0.1s-0.3,0.2-0.5,0.4s-0.2,0.4-0.3,0.6S149.1,169.8,149.1,170.1z"/>
	<path class="st2" d="M166,172.8c-0.3,0.1-0.6,0.2-0.9,0.3s-0.6,0.1-0.9,0.1c-0.5,0-0.9-0.1-1.3-0.2s-0.7-0.3-1-0.6
		s-0.5-0.6-0.6-0.9s-0.2-0.8-0.2-1.3c0-0.5,0.1-0.9,0.2-1.3s0.4-0.7,0.6-1s0.6-0.5,1-0.6s0.8-0.2,1.3-0.2c0.4,0,0.7,0,1,0.1
		s0.5,0.1,0.7,0.2v1.4c-0.2-0.1-0.5-0.2-0.8-0.3s-0.6-0.1-0.8-0.1c-0.3,0-0.5,0-0.7,0.1s-0.4,0.2-0.5,0.4s-0.3,0.4-0.3,0.6
		s-0.1,0.5-0.1,0.8c0,0.3,0,0.5,0.1,0.8s0.2,0.4,0.3,0.6s0.3,0.3,0.5,0.4s0.4,0.1,0.7,0.1c0.1,0,0.3,0,0.4,0s0.3,0,0.4-0.1
		s0.3-0.1,0.4-0.1s0.3-0.1,0.4-0.1V172.8z"/>
	<path class="st2" d="M171.9,173V169c0-0.1,0-0.3,0-0.4s0-0.2,0-0.3s-0.1-0.1-0.1-0.2s-0.1-0.1-0.2-0.1c-0.1,0-0.2,0.1-0.4,0.2
		s-0.2,0.4-0.4,0.8v3.9h-1.2V169c0-0.1,0-0.3,0-0.4s0-0.2,0-0.3s-0.1-0.1-0.1-0.2s-0.1-0.1-0.2-0.1c-0.1,0-0.2,0.1-0.3,0.2
		s-0.3,0.4-0.4,0.8v3.9h-1.2v-6h1.1l0,0.9c0.1-0.2,0.2-0.3,0.3-0.5s0.2-0.2,0.3-0.3s0.2-0.1,0.3-0.2s0.2-0.1,0.4-0.1
		c0.3,0,0.6,0.1,0.8,0.3s0.3,0.4,0.3,0.7c0.1-0.2,0.2-0.3,0.3-0.5s0.2-0.2,0.3-0.3s0.2-0.1,0.3-0.2s0.2-0.1,0.4-0.1
		c0.4,0,0.8,0.2,1,0.5s0.3,0.8,0.3,1.3v4.3H171.9z"/>
	<path class="st2" d="M179.8,170c0,0.5-0.1,1-0.2,1.4s-0.4,0.7-0.6,1s-0.6,0.5-1,0.6s-0.8,0.2-1.2,0.2c-0.1,0-0.3,0-0.4,0
		s-0.3,0-0.4-0.1v2.3h-1.4v-8.3h1.2l0,0.9c0.1-0.2,0.2-0.3,0.4-0.4s0.3-0.2,0.4-0.3s0.3-0.2,0.5-0.2s0.4-0.1,0.6-0.1
		c0.4,0,0.7,0.1,0.9,0.2s0.5,0.3,0.7,0.6s0.3,0.6,0.4,0.9S179.8,169.5,179.8,170z M178.3,170c0-0.3,0-0.6-0.1-0.8s-0.1-0.4-0.2-0.6
		s-0.2-0.3-0.3-0.3s-0.3-0.1-0.4-0.1c-0.2,0-0.5,0.1-0.7,0.3s-0.5,0.5-0.7,0.8v2.6c0.1,0,0.3,0.1,0.4,0.1s0.3,0,0.5,0
		c0.2,0,0.4,0,0.6-0.1s0.3-0.2,0.5-0.4s0.2-0.4,0.3-0.6S178.3,170.3,178.3,170z"/>
	<path class="st2" d="M191.4,169c0.2,0.1,0.4,0.2,0.5,0.3s0.3,0.3,0.5,0.4s0.2,0.4,0.3,0.6s0.1,0.4,0.1,0.7c0,0.3-0.1,0.7-0.2,0.9
		s-0.3,0.5-0.6,0.7s-0.5,0.3-0.9,0.4s-0.7,0.1-1.1,0.1c-0.4,0-0.8,0-1.1-0.1s-0.6-0.2-0.8-0.4s-0.4-0.4-0.5-0.6s-0.2-0.5-0.2-0.8
		c0-0.3,0-0.5,0.1-0.7s0.2-0.4,0.3-0.6s0.3-0.3,0.5-0.5s0.4-0.3,0.6-0.4c-0.2-0.1-0.3-0.2-0.5-0.3s-0.3-0.3-0.4-0.4
		s-0.2-0.3-0.3-0.5s-0.1-0.4-0.1-0.6c0-0.3,0.1-0.5,0.2-0.8s0.3-0.5,0.5-0.6s0.5-0.3,0.8-0.4s0.7-0.2,1.1-0.2c0.4,0,0.8,0,1.1,0.1
		s0.6,0.2,0.8,0.4s0.4,0.3,0.5,0.6s0.2,0.5,0.2,0.7c0,0.2,0,0.5-0.1,0.7s-0.2,0.4-0.3,0.5s-0.2,0.3-0.4,0.4S191.5,168.9,191.4,169z
		 M189.9,169.7c-0.2,0.1-0.3,0.2-0.4,0.3s-0.3,0.2-0.4,0.3s-0.2,0.2-0.2,0.4s-0.1,0.3-0.1,0.5c0,0.3,0.1,0.5,0.3,0.7
		s0.5,0.2,0.9,0.2c0.2,0,0.3,0,0.5-0.1s0.3-0.1,0.4-0.2s0.2-0.2,0.3-0.3s0.1-0.3,0.1-0.4c0-0.2,0-0.3-0.1-0.4s-0.2-0.3-0.3-0.4
		s-0.3-0.2-0.5-0.3S190.1,169.8,189.9,169.7z M190.2,168.4c0.1-0.1,0.3-0.2,0.4-0.2s0.2-0.2,0.3-0.3s0.2-0.2,0.2-0.3
		s0.1-0.3,0.1-0.4c0-0.3-0.1-0.4-0.3-0.6s-0.5-0.2-0.9-0.2c-0.4,0-0.7,0.1-0.8,0.2s-0.3,0.3-0.3,0.6c0,0.1,0,0.3,0.1,0.4
		s0.2,0.2,0.3,0.3s0.3,0.2,0.4,0.3S190.1,168.3,190.2,168.4z"/>
	<path class="st2" d="M199.4,169.2c0,0.6-0.1,1.2-0.2,1.7s-0.3,0.9-0.6,1.3s-0.6,0.6-1,0.8s-0.8,0.3-1.3,0.3c-0.4,0-0.8-0.1-1.2-0.2
		s-0.7-0.4-0.9-0.7s-0.5-0.7-0.6-1.2s-0.2-1.1-0.2-1.8c0-0.6,0.1-1.2,0.2-1.7s0.3-0.9,0.6-1.3s0.6-0.6,1-0.8s0.8-0.3,1.3-0.3
		c0.4,0,0.8,0.1,1.2,0.2s0.7,0.4,0.9,0.7s0.5,0.7,0.6,1.2S199.4,168.5,199.4,169.2z M194.9,169.2c0,0.1,0,0.2,0,0.2s0,0.1,0,0.2
		l2.9-2.1c-0.1-0.4-0.3-0.7-0.5-0.9c-0.2-0.2-0.5-0.3-0.8-0.3c-0.2,0-0.4,0.1-0.6,0.2s-0.4,0.3-0.5,0.5s-0.2,0.5-0.3,0.9
		S194.9,168.7,194.9,169.2z M198,169.2c0-0.1,0-0.1,0-0.2s0-0.1,0-0.2l-2.9,2.1c0.1,0.4,0.3,0.7,0.5,0.8s0.5,0.3,0.8,0.3
		c0.2,0,0.4-0.1,0.6-0.2s0.4-0.3,0.5-0.5s0.2-0.5,0.3-0.9S198,169.7,198,169.2z"/>
	<path class="st2" d="M204,169c0.2,0.1,0.4,0.2,0.5,0.3s0.3,0.3,0.5,0.4s0.2,0.4,0.3,0.6s0.1,0.4,0.1,0.7c0,0.3-0.1,0.7-0.2,0.9
		s-0.3,0.5-0.6,0.7s-0.5,0.3-0.9,0.4s-0.7,0.1-1.1,0.1c-0.4,0-0.8,0-1.1-0.1s-0.6-0.2-0.8-0.4s-0.4-0.4-0.5-0.6s-0.2-0.5-0.2-0.8
		c0-0.3,0-0.5,0.1-0.7s0.2-0.4,0.3-0.6s0.3-0.3,0.5-0.5s0.4-0.3,0.6-0.4c-0.2-0.1-0.3-0.2-0.5-0.3s-0.3-0.3-0.4-0.4
		s-0.2-0.3-0.3-0.5s-0.1-0.4-0.1-0.6c0-0.3,0.1-0.5,0.2-0.8s0.3-0.5,0.5-0.6s0.5-0.3,0.8-0.4s0.7-0.2,1.1-0.2c0.4,0,0.8,0,1.1,0.1
		s0.6,0.2,0.8,0.4s0.4,0.3,0.5,0.6s0.2,0.5,0.2,0.7c0,0.2,0,0.5-0.1,0.7s-0.2,0.4-0.3,0.5s-0.2,0.3-0.4,0.4S204.2,168.9,204,169z
		 M202.6,169.7c-0.2,0.1-0.3,0.2-0.4,0.3s-0.3,0.2-0.4,0.3s-0.2,0.2-0.2,0.4s-0.1,0.3-0.1,0.5c0,0.3,0.1,0.5,0.3,0.7
		s0.5,0.2,0.9,0.2c0.2,0,0.3,0,0.5-0.1s0.3-0.1,0.4-0.2s0.2-0.2,0.3-0.3s0.1-0.3,0.1-0.4c0-0.2,0-0.3-0.1-0.4s-0.2-0.3-0.3-0.4
		s-0.3-0.2-0.5-0.3S202.8,169.8,202.6,169.7z M202.9,168.4c0.1-0.1,0.3-0.2,0.4-0.2s0.2-0.2,0.3-0.3s0.2-0.2,0.2-0.3
		s0.1-0.3,0.1-0.4c0-0.3-0.1-0.4-0.3-0.6s-0.5-0.2-0.9-0.2c-0.4,0-0.7,0.1-0.8,0.2s-0.3,0.3-0.3,0.6c0,0.1,0,0.3,0.1,0.4
		s0.2,0.2,0.3,0.3s0.3,0.2,0.4,0.3S202.7,168.3,202.9,168.4z"/>
	<path class="st2" d="M212,169.2c0,0.6-0.1,1.2-0.2,1.7s-0.3,0.9-0.6,1.3s-0.6,0.6-1,0.8s-0.8,0.3-1.3,0.3c-0.4,0-0.8-0.1-1.2-0.2
		s-0.7-0.4-0.9-0.7s-0.5-0.7-0.6-1.2s-0.2-1.1-0.2-1.8c0-0.6,0.1-1.2,0.2-1.7s0.3-0.9,0.6-1.3s0.6-0.6,1-0.8s0.8-0.3,1.3-0.3
		c0.4,0,0.8,0.1,1.2,0.2s0.7,0.4,0.9,0.7s0.5,0.7,0.6,1.2S212,168.5,212,169.2z M207.5,169.2c0,0.1,0,0.2,0,0.2s0,0.1,0,0.2l2.9-2.1
		c-0.1-0.4-0.3-0.7-0.5-0.9c-0.2-0.2-0.5-0.3-0.8-0.3c-0.2,0-0.4,0.1-0.6,0.2s-0.4,0.3-0.5,0.5s-0.2,0.5-0.3,0.9
		S207.5,168.7,207.5,169.2z M210.6,169.2c0-0.1,0-0.1,0-0.2s0-0.1,0-0.2l-2.9,2.1c0.1,0.4,0.3,0.7,0.5,0.8s0.5,0.3,0.8,0.3
		c0.2,0,0.4-0.1,0.6-0.2s0.4-0.3,0.5-0.5s0.2-0.5,0.3-0.9S210.6,169.7,210.6,169.2z"/>
	<path class="st2" d="M220.7,164.5c0.8,0,1.4,0.2,1.8,0.6s0.6,1,0.6,1.9v1c0,0.4,0.1,0.7,0.3,0.9s0.5,0.3,0.9,0.3h0.4v1.1h-0.4
		c-0.2,0-0.4,0-0.5,0.1s-0.3,0.1-0.4,0.2s-0.2,0.2-0.2,0.4s-0.1,0.3-0.1,0.5v1.5c0,0.4,0,0.8-0.1,1.1s-0.2,0.6-0.4,0.8
		s-0.4,0.4-0.8,0.5s-0.7,0.2-1.1,0.2h-0.5v-1.1h0.4c0.2,0,0.4,0,0.5-0.1s0.3-0.1,0.4-0.2s0.2-0.2,0.3-0.4s0.1-0.4,0.1-0.6v-1.5
		c0-0.3,0-0.5,0.1-0.8s0.1-0.4,0.2-0.5s0.2-0.2,0.4-0.3s0.3-0.1,0.6-0.2c-0.4-0.1-0.7-0.2-0.9-0.5s-0.3-0.7-0.3-1.3v-1
		c0-0.3,0-0.5-0.1-0.6s-0.1-0.3-0.3-0.4s-0.2-0.2-0.4-0.2s-0.3-0.1-0.5-0.1h-0.4v-1.1H220.7z"/>
	<path class="st2" d="M24.2,190.4c0,0.1,0,0.2,0,0.4s0,0.3,0,0.4h-3.9c0,0.3,0,0.5,0.1,0.7s0.2,0.4,0.3,0.5s0.3,0.2,0.5,0.3
		s0.4,0.1,0.7,0.1c0.3,0,0.6,0,0.9-0.1s0.7-0.1,1-0.2v1.1c-0.2,0-0.3,0.1-0.5,0.1s-0.4,0.1-0.6,0.1s-0.4,0-0.6,0.1s-0.4,0-0.6,0
		c-0.5,0-0.9-0.1-1.2-0.2s-0.7-0.3-0.9-0.6s-0.4-0.6-0.6-0.9s-0.2-0.8-0.2-1.3c0-0.5,0.1-0.9,0.2-1.3s0.3-0.7,0.6-1s0.5-0.5,0.9-0.7
		s0.7-0.2,1.2-0.2c0.4,0,0.8,0.1,1.1,0.2s0.6,0.3,0.8,0.5s0.4,0.5,0.5,0.8S24.2,190,24.2,190.4z M22.7,190.2c0-0.2,0-0.4-0.1-0.6
		s-0.1-0.3-0.3-0.4s-0.2-0.2-0.4-0.3s-0.3-0.1-0.5-0.1c-0.4,0-0.7,0.1-0.9,0.4s-0.4,0.6-0.4,1H22.7z"/>
	<path class="st2" d="M29,193.9V190c0-0.7-0.2-1-0.7-1c-0.2,0-0.5,0.1-0.7,0.3s-0.5,0.5-0.7,0.8v3.8h-1.4v-6h1.2l0,0.9
		c0.1-0.2,0.2-0.3,0.4-0.4s0.3-0.2,0.4-0.3s0.3-0.2,0.5-0.2s0.4-0.1,0.6-0.1c0.3,0,0.6,0,0.8,0.1s0.4,0.2,0.6,0.4s0.3,0.4,0.3,0.7
		s0.1,0.5,0.1,0.9v4H29z"/>
	<path class="st2" d="M35.7,193.9l0-0.9c-0.1,0.2-0.3,0.3-0.4,0.4s-0.3,0.2-0.4,0.3s-0.3,0.2-0.5,0.2S34,194,33.8,194
		c-0.4,0-0.7-0.1-0.9-0.2s-0.5-0.3-0.7-0.6s-0.3-0.6-0.4-0.9s-0.1-0.8-0.1-1.2c0-0.5,0.1-1,0.2-1.4c0.2-0.4,0.4-0.7,0.6-1
		s0.6-0.5,1-0.6s0.8-0.2,1.2-0.2c0.1,0,0.3,0,0.4,0s0.3,0,0.4,0.1v-2.3H37v8.3H35.7z M33.1,190.9c0,0.3,0,0.6,0.1,0.8
		s0.1,0.4,0.2,0.6s0.2,0.3,0.3,0.3s0.3,0.1,0.4,0.1c0.2,0,0.5-0.1,0.7-0.3s0.5-0.5,0.7-0.8v-2.6c-0.1,0-0.3-0.1-0.4-0.1
		s-0.3,0-0.5,0c-0.2,0-0.4,0-0.6,0.1s-0.3,0.2-0.5,0.4s-0.2,0.4-0.3,0.6S33.1,190.6,33.1,190.9z"/>
	<path class="st2" d="M22.7,235.5l0-0.9c-0.1,0.2-0.3,0.3-0.4,0.4s-0.3,0.2-0.4,0.3s-0.3,0.2-0.5,0.2s-0.4,0.1-0.6,0.1
		c-0.4,0-0.7-0.1-0.9-0.2s-0.5-0.3-0.7-0.6s-0.3-0.6-0.4-0.9s-0.1-0.8-0.1-1.2c0-0.5,0.1-1,0.2-1.4s0.4-0.7,0.6-1s0.6-0.5,1-0.6
		s0.8-0.2,1.2-0.2c0.1,0,0.3,0,0.4,0s0.3,0,0.4,0.1v-2.3H24v8.3H22.7z M20.1,232.6c0,0.3,0,0.6,0.1,0.8s0.1,0.4,0.2,0.6
		s0.2,0.3,0.3,0.3s0.3,0.1,0.4,0.1c0.2,0,0.5-0.1,0.7-0.3s0.5-0.5,0.7-0.8v-2.6c-0.1,0-0.3-0.1-0.4-0.1s-0.3,0-0.5,0
		c-0.2,0-0.4,0-0.6,0.1s-0.3,0.2-0.5,0.4s-0.2,0.4-0.3,0.6S20.1,232.3,20.1,232.6z"/>
	<path class="st2" d="M30.6,232.1c0,0.1,0,0.2,0,0.4s0,0.3,0,0.4h-3.9c0,0.3,0,0.5,0.1,0.7s0.2,0.4,0.3,0.5s0.3,0.2,0.5,0.3
		s0.4,0.1,0.7,0.1c0.3,0,0.6,0,0.9-0.1s0.7-0.1,1-0.2v1.1c-0.2,0-0.3,0.1-0.5,0.1s-0.4,0.1-0.6,0.1s-0.4,0-0.6,0.1s-0.4,0-0.6,0
		c-0.5,0-0.9-0.1-1.2-0.2s-0.7-0.3-0.9-0.6s-0.4-0.6-0.6-0.9s-0.2-0.8-0.2-1.3c0-0.5,0.1-0.9,0.2-1.3s0.3-0.7,0.6-1s0.5-0.5,0.9-0.7
		s0.7-0.2,1.2-0.2c0.4,0,0.8,0.1,1.1,0.2s0.6,0.3,0.8,0.5s0.4,0.5,0.5,0.8S30.6,231.7,30.6,232.1z M29.2,231.9c0-0.2,0-0.4-0.1-0.6
		s-0.1-0.3-0.3-0.4s-0.2-0.2-0.4-0.3s-0.3-0.1-0.5-0.1c-0.4,0-0.7,0.1-0.9,0.4s-0.4,0.6-0.4,1H29.2z"/>
	<path class="st2" d="M36.6,233.8c0,0.3-0.1,0.6-0.2,0.9s-0.3,0.4-0.6,0.6s-0.5,0.3-0.8,0.3s-0.6,0.1-1,0.1c-0.4,0-0.8,0-1.2-0.1
		s-0.7-0.1-1-0.2v-1.3c0.4,0.2,0.7,0.3,1.1,0.3s0.7,0.1,1,0.1c0.4,0,0.7-0.1,0.8-0.2s0.3-0.3,0.3-0.5c0-0.1,0-0.2-0.1-0.2
		s-0.1-0.1-0.2-0.2s-0.3-0.1-0.5-0.2s-0.5-0.2-0.8-0.2c-0.3-0.1-0.5-0.2-0.8-0.3s-0.4-0.2-0.5-0.4s-0.3-0.3-0.3-0.5
		c-0.1-0.2-0.1-0.4-0.1-0.7c0-0.2,0.1-0.5,0.2-0.7c0.1-0.2,0.3-0.4,0.5-0.6s0.5-0.3,0.8-0.4s0.7-0.1,1.1-0.1c0.4,0,0.7,0,1,0.1
		s0.5,0.1,0.8,0.1v1.2c-0.3-0.1-0.7-0.2-1-0.2s-0.6-0.1-0.9-0.1s-0.5,0.1-0.7,0.2s-0.3,0.3-0.3,0.4c0,0.1,0,0.2,0.1,0.2
		s0.1,0.1,0.2,0.2s0.2,0.1,0.4,0.2s0.4,0.2,0.7,0.2c0.3,0.1,0.6,0.2,0.9,0.3s0.4,0.2,0.6,0.4s0.2,0.3,0.3,0.5S36.6,233.5,36.6,233.8
		z"/>
	<path class="st2" d="M42.7,235.3c-0.3,0.1-0.6,0.2-0.9,0.3s-0.6,0.1-0.9,0.1c-0.5,0-0.9-0.1-1.3-0.2s-0.7-0.3-1-0.6
		s-0.5-0.6-0.6-0.9s-0.2-0.8-0.2-1.3c0-0.5,0.1-0.9,0.2-1.3s0.4-0.7,0.6-1s0.6-0.5,1-0.6s0.8-0.2,1.3-0.2c0.4,0,0.7,0,1,0.1
		s0.5,0.1,0.7,0.2v1.4c-0.2-0.1-0.5-0.2-0.8-0.3s-0.6-0.1-0.8-0.1c-0.3,0-0.5,0-0.7,0.1s-0.4,0.2-0.5,0.4s-0.3,0.4-0.3,0.6
		s-0.1,0.5-0.1,0.8c0,0.3,0,0.5,0.1,0.8s0.2,0.4,0.3,0.6s0.3,0.3,0.5,0.4s0.4,0.1,0.7,0.1c0.1,0,0.3,0,0.4,0s0.3,0,0.4-0.1
		s0.3-0.1,0.4-0.1s0.3-0.1,0.4-0.1V235.3z"/>
	<path class="st2" d="M47.9,231.9c0-0.2,0-0.4,0-0.6s-0.1-0.3-0.1-0.4s-0.1-0.2-0.2-0.2s-0.2-0.1-0.3-0.1c-0.2,0-0.4,0.1-0.7,0.3
		s-0.5,0.5-0.7,0.9v3.8h-1.5v-6h1.3l0.1,0.9c0.1-0.2,0.2-0.3,0.3-0.4s0.3-0.2,0.4-0.3s0.3-0.2,0.5-0.2s0.4-0.1,0.6-0.1
		c0.3,0,0.6,0.1,0.8,0.2s0.4,0.3,0.6,0.5s0.3,0.5,0.4,0.8s0.1,0.7,0.1,1.1H47.9z"/>
	<path class="st2" d="M52.2,230.7h-1.7v-1.1h3.1v4.8h1.7v1.1h-5.1v-1.1h1.9V230.7z M53.8,227.9c0,0.1,0,0.2-0.1,0.4
		s-0.1,0.2-0.2,0.3s-0.2,0.2-0.3,0.2s-0.2,0.1-0.4,0.1s-0.3,0-0.4-0.1s-0.2-0.1-0.3-0.2s-0.1-0.2-0.2-0.3s-0.1-0.2-0.1-0.4
		s0-0.2,0.1-0.4s0.1-0.2,0.2-0.3s0.2-0.2,0.3-0.2s0.2-0.1,0.4-0.1s0.3,0,0.4,0.1s0.2,0.1,0.3,0.2s0.1,0.2,0.2,0.3
		S53.8,227.8,53.8,227.9z"/>
	<path class="st2" d="M61.9,232.4c0,0.5-0.1,1-0.2,1.4s-0.4,0.7-0.6,1s-0.6,0.5-1,0.6s-0.8,0.2-1.2,0.2c-0.4,0-0.8,0-1.2-0.1
		s-0.7-0.2-1.1-0.3v-8H58v1.9l-0.1,1.2c0.2-0.3,0.5-0.5,0.8-0.7s0.6-0.3,1-0.3c0.4,0,0.7,0.1,0.9,0.2s0.5,0.3,0.7,0.6
		s0.3,0.6,0.4,0.9S61.9,232,61.9,232.4z M60.4,232.5c0-0.3,0-0.6-0.1-0.8s-0.1-0.4-0.2-0.6s-0.2-0.3-0.3-0.3s-0.3-0.1-0.4-0.1
		c-0.2,0-0.5,0.1-0.7,0.3s-0.5,0.5-0.7,0.8v2.6c0.1,0,0.3,0.1,0.4,0.1s0.3,0,0.5,0c0.2,0,0.4,0,0.6-0.1s0.3-0.2,0.5-0.4
		s0.2-0.4,0.3-0.6S60.4,232.8,60.4,232.5z"/>
	<path class="st2" d="M68.2,232.1c0,0.1,0,0.2,0,0.4s0,0.3,0,0.4h-3.9c0,0.3,0,0.5,0.1,0.7s0.2,0.4,0.3,0.5s0.3,0.2,0.5,0.3
		s0.4,0.1,0.7,0.1c0.3,0,0.6,0,0.9-0.1s0.7-0.1,1-0.2v1.1c-0.2,0-0.3,0.1-0.5,0.1s-0.4,0.1-0.6,0.1s-0.4,0-0.6,0.1s-0.4,0-0.6,0
		c-0.5,0-0.9-0.1-1.2-0.2s-0.7-0.3-0.9-0.6s-0.4-0.6-0.6-0.9s-0.2-0.8-0.2-1.3c0-0.5,0.1-0.9,0.2-1.3s0.3-0.7,0.6-1s0.5-0.5,0.9-0.7
		s0.7-0.2,1.2-0.2c0.4,0,0.8,0.1,1.1,0.2s0.6,0.3,0.8,0.5s0.4,0.5,0.5,0.8S68.2,231.7,68.2,232.1z M66.8,231.9c0-0.2,0-0.4-0.1-0.6
		s-0.1-0.3-0.3-0.4s-0.2-0.2-0.4-0.3s-0.3-0.1-0.5-0.1c-0.4,0-0.7,0.1-0.9,0.4s-0.4,0.6-0.4,1H66.8z"/>
	<path class="st2" d="M81.6,232.4c0,0.5-0.1,1-0.2,1.4s-0.4,0.7-0.6,1s-0.6,0.5-1,0.6s-0.8,0.2-1.2,0.2c-0.1,0-0.3,0-0.4,0
		s-0.3,0-0.4-0.1v2.3h-1.4v-8.3h1.2l0,0.9c0.1-0.2,0.2-0.3,0.4-0.4s0.3-0.2,0.4-0.3s0.3-0.2,0.5-0.2s0.4-0.1,0.6-0.1
		c0.4,0,0.7,0.1,0.9,0.2s0.5,0.3,0.7,0.6s0.3,0.6,0.4,0.9S81.6,232,81.6,232.4z M80.1,232.5c0-0.3,0-0.6-0.1-0.8s-0.1-0.4-0.2-0.6
		s-0.2-0.3-0.3-0.3s-0.3-0.1-0.4-0.1c-0.2,0-0.5,0.1-0.7,0.3s-0.5,0.5-0.7,0.8v2.6c0.1,0,0.3,0.1,0.4,0.1s0.3,0,0.5,0
		c0.2,0,0.4,0,0.6-0.1s0.3-0.2,0.5-0.4s0.2-0.4,0.3-0.6S80.1,232.8,80.1,232.5z"/>
	<path class="st2" d="M88.2,232.5c0,0.5-0.1,0.9-0.2,1.3s-0.3,0.7-0.6,1s-0.6,0.5-0.9,0.6s-0.8,0.2-1.2,0.2c-0.4,0-0.8-0.1-1.2-0.2
		s-0.6-0.3-0.9-0.6s-0.4-0.6-0.6-1s-0.2-0.8-0.2-1.3c0-0.5,0.1-0.9,0.2-1.3s0.3-0.7,0.6-1s0.6-0.5,0.9-0.6s0.8-0.2,1.2-0.2
		c0.4,0,0.8,0.1,1.2,0.2s0.6,0.3,0.9,0.6s0.4,0.6,0.6,1S88.2,232,88.2,232.5z M86.7,232.5c0-0.6-0.1-1.1-0.3-1.4s-0.6-0.5-1-0.5
		c-0.2,0-0.5,0-0.6,0.1s-0.3,0.2-0.4,0.4s-0.2,0.4-0.2,0.6s-0.1,0.5-0.1,0.7c0,0.6,0.1,1.1,0.4,1.4s0.6,0.5,1,0.5
		c0.2,0,0.4,0,0.6-0.1s0.3-0.2,0.4-0.4s0.2-0.4,0.2-0.6S86.7,232.8,86.7,232.5z"/>
	<path class="st2" d="M93.1,231.9c0-0.2,0-0.4,0-0.6s-0.1-0.3-0.1-0.4s-0.1-0.2-0.2-0.2s-0.2-0.1-0.3-0.1c-0.2,0-0.4,0.1-0.7,0.3
		s-0.5,0.5-0.7,0.9v3.8h-1.5v-6h1.3l0.1,0.9c0.1-0.2,0.2-0.3,0.3-0.4s0.3-0.2,0.4-0.3s0.3-0.2,0.5-0.2s0.4-0.1,0.6-0.1
		c0.3,0,0.6,0.1,0.8,0.2s0.4,0.3,0.6,0.5s0.3,0.5,0.4,0.8s0.1,0.7,0.1,1.1H93.1z"/>
	<path class="st2" d="M100.7,235.4c-0.3,0.1-0.5,0.1-0.8,0.1s-0.5,0.1-0.7,0.1c-0.4,0-0.7,0-1-0.1s-0.5-0.2-0.7-0.4
		s-0.3-0.4-0.4-0.6s-0.1-0.6-0.1-0.9v-2.9h-1.6v-1.1h1.6V228l1.5-0.4v1.9h2.3v1.1h-2.3v2.8c0,0.3,0.1,0.6,0.2,0.8s0.4,0.3,0.8,0.3
		c0.2,0,0.5,0,0.7-0.1s0.4-0.1,0.6-0.1V235.4z"/>
	<path class="st2" d="M105,238c-0.9-0.8-1.7-1.7-2.1-2.6s-0.7-1.9-0.7-3c0-0.6,0.1-1.2,0.2-1.7s0.3-1,0.6-1.5s0.6-0.9,0.9-1.3
		s0.7-0.8,1.2-1.1l0.8,0.8c-0.8,0.7-1.3,1.4-1.7,2.2s-0.6,1.6-0.6,2.5c0,0.9,0.2,1.7,0.6,2.6s1,1.6,1.7,2.2L105,238z"/>
	<path class="st2" d="M110.4,231.5c0.2,0.1,0.4,0.2,0.5,0.3s0.3,0.3,0.5,0.4s0.2,0.4,0.3,0.6s0.1,0.4,0.1,0.7c0,0.3-0.1,0.7-0.2,0.9
		s-0.3,0.5-0.6,0.7s-0.5,0.3-0.9,0.4s-0.7,0.1-1.1,0.1c-0.4,0-0.8,0-1.1-0.1s-0.6-0.2-0.8-0.4s-0.4-0.4-0.5-0.6s-0.2-0.5-0.2-0.8
		c0-0.3,0-0.5,0.1-0.7s0.2-0.4,0.3-0.6s0.3-0.3,0.5-0.5s0.4-0.3,0.6-0.4c-0.2-0.1-0.3-0.2-0.5-0.3s-0.3-0.3-0.4-0.4
		s-0.2-0.3-0.3-0.5s-0.1-0.4-0.1-0.6c0-0.3,0.1-0.5,0.2-0.8s0.3-0.5,0.5-0.6s0.5-0.3,0.8-0.4s0.7-0.2,1.1-0.2c0.4,0,0.8,0,1.1,0.1
		s0.6,0.2,0.8,0.4s0.4,0.3,0.5,0.6s0.2,0.5,0.2,0.7c0,0.2,0,0.5-0.1,0.7s-0.2,0.4-0.3,0.5s-0.2,0.3-0.4,0.4S110.6,231.3,110.4,231.5
		z M109,232.2c-0.2,0.1-0.3,0.2-0.4,0.3s-0.3,0.2-0.4,0.3s-0.2,0.2-0.2,0.4s-0.1,0.3-0.1,0.5c0,0.3,0.1,0.5,0.3,0.7s0.5,0.2,0.9,0.2
		c0.2,0,0.3,0,0.5-0.1s0.3-0.1,0.4-0.2s0.2-0.2,0.3-0.3s0.1-0.3,0.1-0.4c0-0.2,0-0.3-0.1-0.4s-0.2-0.3-0.3-0.4s-0.3-0.2-0.5-0.3
		S109.2,232.3,109,232.2z M109.3,230.9c0.1-0.1,0.3-0.2,0.4-0.2s0.2-0.2,0.3-0.3s0.2-0.2,0.2-0.3s0.1-0.3,0.1-0.4
		c0-0.3-0.1-0.4-0.3-0.6s-0.5-0.2-0.9-0.2c-0.4,0-0.7,0.1-0.8,0.2s-0.3,0.3-0.3,0.6c0,0.1,0,0.3,0.1,0.4s0.2,0.2,0.3,0.3
		s0.3,0.2,0.4,0.3S109.1,230.8,109.3,230.9z"/>
	<path class="st2" d="M118.4,231.6c0,0.6-0.1,1.2-0.2,1.7s-0.3,0.9-0.6,1.3s-0.6,0.6-1,0.8s-0.8,0.3-1.3,0.3c-0.4,0-0.8-0.1-1.2-0.2
		s-0.7-0.4-0.9-0.7s-0.5-0.7-0.6-1.2s-0.2-1.1-0.2-1.8c0-0.6,0.1-1.2,0.2-1.7s0.3-0.9,0.6-1.3s0.6-0.6,1-0.8s0.8-0.3,1.3-0.3
		c0.4,0,0.8,0.1,1.2,0.2s0.7,0.4,0.9,0.7s0.5,0.7,0.6,1.2S118.4,231,118.4,231.6z M113.9,231.7c0,0.1,0,0.2,0,0.2s0,0.1,0,0.2
		l2.9-2.1c-0.1-0.4-0.3-0.7-0.5-0.9s-0.5-0.3-0.8-0.3c-0.2,0-0.4,0.1-0.6,0.2s-0.4,0.3-0.5,0.5s-0.2,0.5-0.3,0.9
		S113.9,231.2,113.9,231.7z M117,231.7c0-0.1,0-0.1,0-0.2s0-0.1,0-0.2l-2.9,2.1c0.1,0.4,0.3,0.7,0.5,0.8s0.5,0.3,0.8,0.3
		c0.2,0,0.4-0.1,0.6-0.2s0.4-0.3,0.5-0.5s0.2-0.5,0.3-0.9S117,232.2,117,231.7z"/>
	<path class="st2" d="M123,231.5c0.2,0.1,0.4,0.2,0.5,0.3s0.3,0.3,0.5,0.4s0.2,0.4,0.3,0.6s0.1,0.4,0.1,0.7c0,0.3-0.1,0.7-0.2,0.9
		s-0.3,0.5-0.6,0.7s-0.5,0.3-0.9,0.4s-0.7,0.1-1.1,0.1c-0.4,0-0.8,0-1.1-0.1s-0.6-0.2-0.8-0.4s-0.4-0.4-0.5-0.6s-0.2-0.5-0.2-0.8
		c0-0.3,0-0.5,0.1-0.7s0.2-0.4,0.3-0.6s0.3-0.3,0.5-0.5s0.4-0.3,0.6-0.4c-0.2-0.1-0.3-0.2-0.5-0.3s-0.3-0.3-0.4-0.4
		s-0.2-0.3-0.3-0.5s-0.1-0.4-0.1-0.6c0-0.3,0.1-0.5,0.2-0.8s0.3-0.5,0.5-0.6s0.5-0.3,0.8-0.4s0.7-0.2,1.1-0.2c0.4,0,0.8,0,1.1,0.1
		s0.6,0.2,0.8,0.4s0.4,0.3,0.5,0.6s0.2,0.5,0.2,0.7c0,0.2,0,0.5-0.1,0.7s-0.2,0.4-0.3,0.5s-0.2,0.3-0.4,0.4S123.2,231.3,123,231.5z
		 M121.6,232.2c-0.2,0.1-0.3,0.2-0.4,0.3s-0.3,0.2-0.4,0.3s-0.2,0.2-0.2,0.4s-0.1,0.3-0.1,0.5c0,0.3,0.1,0.5,0.3,0.7
		s0.5,0.2,0.9,0.2c0.2,0,0.3,0,0.5-0.1s0.3-0.1,0.4-0.2s0.2-0.2,0.3-0.3s0.1-0.3,0.1-0.4c0-0.2,0-0.3-0.1-0.4s-0.2-0.3-0.3-0.4
		s-0.3-0.2-0.5-0.3S121.8,232.3,121.6,232.2z M121.9,230.9c0.1-0.1,0.3-0.2,0.4-0.2s0.2-0.2,0.3-0.3s0.2-0.2,0.2-0.3
		s0.1-0.3,0.1-0.4c0-0.3-0.1-0.4-0.3-0.6s-0.5-0.2-0.9-0.2c-0.4,0-0.7,0.1-0.8,0.2s-0.3,0.3-0.3,0.6c0,0.1,0,0.3,0.1,0.4
		s0.2,0.2,0.3,0.3s0.3,0.2,0.4,0.3S121.7,230.8,121.9,230.9z"/>
	<path class="st2" d="M131.1,231.6c0,0.6-0.1,1.2-0.2,1.7s-0.3,0.9-0.6,1.3s-0.6,0.6-1,0.8s-0.8,0.3-1.3,0.3c-0.4,0-0.8-0.1-1.2-0.2
		s-0.7-0.4-0.9-0.7s-0.5-0.7-0.6-1.2s-0.2-1.1-0.2-1.8c0-0.6,0.1-1.2,0.2-1.7s0.3-0.9,0.6-1.3s0.6-0.6,1-0.8s0.8-0.3,1.3-0.3
		c0.4,0,0.8,0.1,1.2,0.2s0.7,0.4,0.9,0.7s0.5,0.7,0.6,1.2S131.1,231,131.1,231.6z M126.5,231.7c0,0.1,0,0.2,0,0.2s0,0.1,0,0.2
		l2.9-2.1c-0.1-0.4-0.3-0.7-0.5-0.9s-0.5-0.3-0.8-0.3c-0.2,0-0.4,0.1-0.6,0.2s-0.4,0.3-0.5,0.5s-0.2,0.5-0.3,0.9
		S126.5,231.2,126.5,231.7z M129.6,231.7c0-0.1,0-0.1,0-0.2s0-0.1,0-0.2l-2.9,2.1c0.1,0.4,0.3,0.7,0.5,0.8s0.5,0.3,0.8,0.3
		c0.2,0,0.4-0.1,0.6-0.2s0.4-0.3,0.5-0.5s0.2-0.5,0.3-0.9S129.6,232.2,129.6,231.7z"/>
	<path class="st2" d="M132.2,226.8c1,0.8,1.7,1.7,2.1,2.6s0.7,1.9,0.7,3c0,0.6-0.1,1.2-0.2,1.7s-0.3,1-0.6,1.5s-0.6,0.9-0.9,1.3
		s-0.7,0.8-1.2,1.1l-0.8-0.8c0.8-0.7,1.3-1.4,1.7-2.2s0.6-1.6,0.6-2.5c0-0.9-0.2-1.7-0.6-2.6s-1-1.6-1.7-2.2L132.2,226.8z"/>
	<path class="st2" d="M147.7,235.5l0-0.9c-0.1,0.2-0.3,0.3-0.4,0.4s-0.3,0.2-0.4,0.3s-0.3,0.2-0.5,0.2s-0.4,0.1-0.6,0.1
		c-0.4,0-0.7-0.1-0.9-0.2s-0.5-0.3-0.7-0.6s-0.3-0.6-0.4-0.9s-0.1-0.8-0.1-1.2c0-0.5,0.1-1,0.2-1.4s0.4-0.7,0.6-1s0.6-0.5,1-0.6
		s0.8-0.2,1.2-0.2c0.1,0,0.3,0,0.4,0s0.3,0,0.4,0.1v-2.3h1.4v8.3H147.7z M145.1,232.6c0,0.3,0,0.6,0.1,0.8s0.1,0.4,0.2,0.6
		s0.2,0.3,0.3,0.3s0.3,0.1,0.4,0.1c0.2,0,0.5-0.1,0.7-0.3s0.5-0.5,0.7-0.8v-2.6c-0.1,0-0.3-0.1-0.4-0.1s-0.3,0-0.5,0
		c-0.2,0-0.4,0-0.6,0.1s-0.3,0.2-0.5,0.4s-0.2,0.4-0.3,0.6S145.1,232.3,145.1,232.6z"/>
	<path class="st2" d="M155.9,232.5c0,0.5-0.1,0.9-0.2,1.3s-0.3,0.7-0.6,1s-0.6,0.5-0.9,0.6s-0.8,0.2-1.2,0.2c-0.4,0-0.8-0.1-1.2-0.2
		s-0.6-0.3-0.9-0.6s-0.4-0.6-0.6-1s-0.2-0.8-0.2-1.3c0-0.5,0.1-0.9,0.2-1.3s0.3-0.7,0.6-1s0.6-0.5,0.9-0.6s0.8-0.2,1.2-0.2
		c0.4,0,0.8,0.1,1.2,0.2s0.6,0.3,0.9,0.6s0.4,0.6,0.6,1S155.9,232,155.9,232.5z M154.4,232.5c0-0.6-0.1-1.1-0.3-1.4s-0.6-0.5-1-0.5
		c-0.2,0-0.5,0-0.6,0.1s-0.3,0.2-0.4,0.4s-0.2,0.4-0.2,0.6s-0.1,0.5-0.1,0.7c0,0.6,0.1,1.1,0.4,1.4s0.6,0.5,1,0.5
		c0.2,0,0.4,0,0.6-0.1s0.3-0.2,0.4-0.4s0.2-0.4,0.2-0.6S154.4,232.8,154.4,232.5z"/>
	<path class="st2" d="M34.1,251.5h-1.7v-1.1h3.1v4.8h1.7v1.1h-5.1v-1.1h1.9V251.5z M35.7,248.7c0,0.1,0,0.2-0.1,0.4
		s-0.1,0.2-0.2,0.3s-0.2,0.2-0.3,0.2s-0.2,0.1-0.4,0.1s-0.3,0-0.4-0.1s-0.2-0.1-0.3-0.2s-0.1-0.2-0.2-0.3s-0.1-0.2-0.1-0.4
		s0-0.2,0.1-0.4s0.1-0.2,0.2-0.3s0.2-0.2,0.3-0.2s0.2-0.1,0.4-0.1s0.3,0,0.4,0.1s0.2,0.1,0.3,0.2s0.1,0.2,0.2,0.3
		S35.7,248.6,35.7,248.7z"/>
	<path class="st2" d="M42.8,256.3c-0.3,0.1-0.5,0.1-0.8,0.1s-0.5,0.1-0.7,0.1c-0.4,0-0.7,0-1-0.1s-0.5-0.2-0.7-0.4s-0.3-0.4-0.4-0.6
		s-0.1-0.6-0.1-0.9v-2.9h-1.6v-1.1H39v-1.5l1.5-0.4v1.9h2.3v1.1h-2.3v2.8c0,0.3,0.1,0.6,0.2,0.8s0.4,0.3,0.8,0.3
		c0.2,0,0.5,0,0.7-0.1s0.4-0.1,0.6-0.1V256.3z"/>
	<path class="st2" d="M55.1,258.7c-0.8,0-1.4-0.2-1.8-0.6s-0.6-1-0.6-1.8v-1.5c0-0.4-0.1-0.7-0.3-0.9s-0.5-0.3-0.9-0.3h-0.4v-1.1
		h0.4c0.2,0,0.4,0,0.5-0.1s0.3-0.1,0.4-0.2s0.2-0.2,0.2-0.4s0.1-0.3,0.1-0.5v-1c0-0.4,0-0.8,0.1-1.1s0.2-0.6,0.4-0.8
		s0.4-0.4,0.7-0.5s0.7-0.2,1.1-0.2h0.5v1.1h-0.4c-0.2,0-0.4,0-0.5,0.1s-0.3,0.1-0.4,0.2s-0.2,0.2-0.3,0.4s-0.1,0.4-0.1,0.6v1
		c0,0.3,0,0.5-0.1,0.8s-0.1,0.4-0.2,0.5s-0.2,0.2-0.4,0.3s-0.3,0.1-0.6,0.2c0.4,0,0.7,0.2,0.9,0.5s0.3,0.7,0.3,1.3v1.5
		c0,0.3,0,0.5,0.1,0.6s0.1,0.3,0.3,0.4s0.2,0.2,0.4,0.2s0.3,0.1,0.5,0.1h0.4v1.1H55.1z"/>
	<path class="st2" d="M69.2,254.6c0,0.3-0.1,0.6-0.2,0.9s-0.3,0.4-0.6,0.6s-0.5,0.3-0.8,0.3s-0.6,0.1-1,0.1c-0.4,0-0.8,0-1.2-0.1
		s-0.7-0.1-1-0.2v-1.3c0.4,0.2,0.7,0.3,1.1,0.3s0.7,0.1,1,0.1c0.4,0,0.7-0.1,0.8-0.2s0.3-0.3,0.3-0.5c0-0.1,0-0.2-0.1-0.2
		s-0.1-0.1-0.2-0.2s-0.3-0.1-0.5-0.2s-0.5-0.2-0.8-0.2c-0.3-0.1-0.5-0.2-0.8-0.3s-0.4-0.2-0.5-0.4s-0.3-0.3-0.3-0.5
		s-0.1-0.4-0.1-0.7c0-0.2,0.1-0.5,0.2-0.7s0.3-0.4,0.5-0.6s0.5-0.3,0.8-0.4s0.7-0.1,1.1-0.1c0.4,0,0.7,0,1,0.1s0.5,0.1,0.8,0.1v1.2
		c-0.3-0.1-0.7-0.2-1-0.2s-0.6-0.1-0.9-0.1s-0.5,0.1-0.7,0.2s-0.3,0.3-0.3,0.4c0,0.1,0,0.2,0.1,0.2s0.1,0.1,0.2,0.2s0.2,0.1,0.4,0.2
		s0.4,0.2,0.7,0.2c0.3,0.1,0.6,0.2,0.9,0.3s0.4,0.2,0.6,0.4s0.2,0.3,0.3,0.5S69.2,254.3,69.2,254.6z"/>
	<path class="st2" d="M74.1,256.3v-3.9c0-0.7-0.2-1-0.7-1c-0.2,0-0.5,0.1-0.7,0.3s-0.5,0.5-0.7,0.8v3.8h-1.4v-8.3h1.4v2l-0.1,1.1
		c0.1-0.1,0.2-0.3,0.4-0.4s0.3-0.2,0.4-0.3s0.3-0.1,0.5-0.2s0.4-0.1,0.6-0.1c0.3,0,0.6,0,0.8,0.1s0.4,0.2,0.6,0.4s0.3,0.4,0.3,0.7
		s0.1,0.5,0.1,0.9v4H74.1z"/>
	<path class="st2" d="M82.4,253.3c0,0.5-0.1,0.9-0.2,1.3s-0.3,0.7-0.6,1s-0.6,0.5-0.9,0.6s-0.8,0.2-1.2,0.2c-0.4,0-0.8-0.1-1.2-0.2
		s-0.6-0.3-0.9-0.6s-0.4-0.6-0.6-1s-0.2-0.8-0.2-1.3c0-0.5,0.1-0.9,0.2-1.3s0.3-0.7,0.6-1s0.6-0.5,0.9-0.6s0.8-0.2,1.2-0.2
		c0.4,0,0.8,0.1,1.2,0.2s0.6,0.3,0.9,0.6s0.4,0.6,0.6,1S82.4,252.8,82.4,253.3z M80.9,253.3c0-0.6-0.1-1.1-0.3-1.4s-0.6-0.5-1-0.5
		c-0.2,0-0.5,0-0.6,0.1s-0.3,0.2-0.4,0.4s-0.2,0.4-0.2,0.6s-0.1,0.5-0.1,0.7c0,0.6,0.1,1.1,0.4,1.4s0.6,0.5,1,0.5
		c0.2,0,0.4,0,0.6-0.1s0.3-0.2,0.4-0.4s0.2-0.4,0.2-0.6S80.9,253.6,80.9,253.3z"/>
	<path class="st2" d="M85,250.4v3.9c0,0.3,0.1,0.6,0.2,0.7s0.3,0.2,0.6,0.2c0.2,0,0.5-0.1,0.7-0.3s0.5-0.5,0.7-0.8v-3.8h1.4v6h-1.2
		l0-0.9c-0.1,0.2-0.3,0.3-0.4,0.4s-0.3,0.2-0.4,0.3s-0.3,0.2-0.5,0.2s-0.4,0.1-0.6,0.1c-0.3,0-0.6,0-0.8-0.1s-0.4-0.2-0.6-0.4
		s-0.3-0.4-0.3-0.7s-0.1-0.5-0.1-0.9v-4H85z"/>
	<path class="st2" d="M91.7,249.2H90v-1.1h3.1v7.2h1.7v1.1h-5.1v-1.1h1.9V249.2z"/>
	<path class="st2" d="M99.8,256.3l0-0.9c-0.1,0.2-0.3,0.3-0.4,0.4s-0.3,0.2-0.4,0.3s-0.3,0.2-0.5,0.2s-0.4,0.1-0.6,0.1
		c-0.4,0-0.7-0.1-0.9-0.2s-0.5-0.3-0.7-0.6s-0.3-0.6-0.4-0.9s-0.1-0.8-0.1-1.2c0-0.5,0.1-1,0.2-1.4s0.4-0.7,0.6-1s0.6-0.5,1-0.6
		s0.8-0.2,1.2-0.2c0.1,0,0.3,0,0.4,0s0.3,0,0.4,0.1v-2.3h1.4v8.3H99.8z M97.2,253.4c0,0.3,0,0.6,0.1,0.8s0.1,0.4,0.2,0.6
		s0.2,0.3,0.3,0.3s0.3,0.1,0.4,0.1c0.2,0,0.5-0.1,0.7-0.3s0.5-0.5,0.7-0.8v-2.6c-0.1,0-0.3-0.1-0.4-0.1s-0.3,0-0.5,0
		c-0.2,0-0.4,0-0.6,0.1s-0.3,0.2-0.5,0.4s-0.2,0.4-0.3,0.6S97.2,253.1,97.2,253.4z"/>
	<path class="st2" d="M114.6,253.2c0,0.5-0.1,1-0.2,1.4s-0.4,0.7-0.6,1s-0.6,0.5-1,0.6s-0.8,0.2-1.2,0.2c-0.4,0-0.8,0-1.2-0.1
		s-0.7-0.2-1.1-0.3v-8h1.4v1.9l-0.1,1.2c0.2-0.3,0.5-0.5,0.8-0.7s0.6-0.3,1-0.3c0.4,0,0.7,0.1,0.9,0.2s0.5,0.3,0.7,0.6
		s0.3,0.6,0.4,0.9S114.6,252.8,114.6,253.2z M113.1,253.3c0-0.3,0-0.6-0.1-0.8s-0.1-0.4-0.2-0.6s-0.2-0.3-0.3-0.3s-0.3-0.1-0.4-0.1
		c-0.2,0-0.5,0.1-0.7,0.3s-0.5,0.5-0.7,0.8v2.6c0.1,0,0.3,0.1,0.4,0.1s0.3,0,0.5,0c0.2,0,0.4,0,0.6-0.1s0.3-0.2,0.5-0.4
		s0.2-0.4,0.3-0.6S113.1,253.6,113.1,253.3z"/>
	<path class="st2" d="M121,252.9c0,0.1,0,0.2,0,0.4s0,0.3,0,0.4H117c0,0.3,0,0.5,0.1,0.7s0.2,0.4,0.3,0.5s0.3,0.2,0.5,0.3
		s0.4,0.1,0.7,0.1c0.3,0,0.6,0,0.9-0.1s0.7-0.1,1-0.2v1.1c-0.2,0-0.3,0.1-0.5,0.1s-0.4,0.1-0.6,0.1s-0.4,0-0.6,0.1s-0.4,0-0.6,0
		c-0.5,0-0.9-0.1-1.2-0.2s-0.7-0.3-0.9-0.6s-0.4-0.6-0.6-0.9s-0.2-0.8-0.2-1.3c0-0.5,0.1-0.9,0.2-1.3s0.3-0.7,0.6-1s0.5-0.5,0.9-0.7
		s0.7-0.2,1.2-0.2c0.4,0,0.8,0.1,1.1,0.2s0.6,0.3,0.8,0.5s0.4,0.5,0.5,0.8S121,252.5,121,252.9z M119.5,252.7c0-0.2,0-0.4-0.1-0.6
		s-0.1-0.3-0.3-0.4s-0.2-0.2-0.4-0.3s-0.3-0.1-0.5-0.1c-0.4,0-0.7,0.1-0.9,0.4s-0.4,0.6-0.4,1H119.5z"/>
	<path class="st2" d="M121.5,258.7v-1.1h6.6v1.1H121.5z"/>
	<path class="st2" d="M130.6,249.2H129v-1.1h3.1v7.2h1.7v1.1h-5.1v-1.1h1.9V249.2z"/>
	<path class="st2" d="M136.9,251.5h-1.7v-1.1h3.1v4.8h1.7v1.1H135v-1.1h1.9V251.5z M138.5,248.7c0,0.1,0,0.2-0.1,0.4
		s-0.1,0.2-0.2,0.3s-0.2,0.2-0.3,0.2s-0.2,0.1-0.4,0.1s-0.3,0-0.4-0.1s-0.2-0.1-0.3-0.2s-0.1-0.2-0.2-0.3s-0.1-0.2-0.1-0.4
		s0-0.2,0.1-0.4s0.1-0.2,0.2-0.3s0.2-0.2,0.3-0.2s0.2-0.1,0.4-0.1s0.3,0,0.4,0.1s0.2,0.1,0.3,0.2s0.1,0.2,0.2,0.3
		S138.5,248.6,138.5,248.7z"/>
	<path class="st2" d="M146.1,254.6c0,0.3-0.1,0.6-0.2,0.9s-0.3,0.4-0.6,0.6s-0.5,0.3-0.8,0.3s-0.6,0.1-1,0.1c-0.4,0-0.8,0-1.2-0.1
		s-0.7-0.1-1-0.2v-1.3c0.4,0.2,0.7,0.3,1.1,0.3s0.7,0.1,1,0.1c0.4,0,0.7-0.1,0.8-0.2s0.3-0.3,0.3-0.5c0-0.1,0-0.2-0.1-0.2
		s-0.1-0.1-0.2-0.2s-0.3-0.1-0.5-0.2s-0.5-0.2-0.8-0.2c-0.3-0.1-0.5-0.2-0.8-0.3s-0.4-0.2-0.5-0.4s-0.3-0.3-0.3-0.5
		s-0.1-0.4-0.1-0.7c0-0.2,0.1-0.5,0.2-0.7s0.3-0.4,0.5-0.6s0.5-0.3,0.8-0.4s0.7-0.1,1.1-0.1c0.4,0,0.7,0,1,0.1s0.5,0.1,0.8,0.1v1.2
		c-0.3-0.1-0.7-0.2-1-0.2s-0.6-0.1-0.9-0.1s-0.5,0.1-0.7,0.2s-0.3,0.3-0.3,0.4c0,0.1,0,0.2,0.1,0.2s0.1,0.1,0.2,0.2s0.2,0.1,0.4,0.2
		s0.4,0.2,0.7,0.2c0.3,0.1,0.6,0.2,0.9,0.3s0.4,0.2,0.6,0.4s0.2,0.3,0.3,0.5S146.1,254.3,146.1,254.6z"/>
	<path class="st2" d="M152.3,256.3c-0.3,0.1-0.5,0.1-0.8,0.1s-0.5,0.1-0.7,0.1c-0.4,0-0.7,0-1-0.1s-0.5-0.2-0.7-0.4
		s-0.3-0.4-0.4-0.6s-0.1-0.6-0.1-0.9v-2.9h-1.6v-1.1h1.6v-1.5l1.5-0.4v1.9h2.3v1.1H150v2.8c0,0.3,0.1,0.6,0.2,0.8s0.4,0.3,0.8,0.3
		c0.2,0,0.5,0,0.7-0.1s0.4-0.1,0.6-0.1V256.3z"/>
	<path class="st2" d="M158.7,252.9c0,0.1,0,0.2,0,0.4s0,0.3,0,0.4h-3.9c0,0.3,0,0.5,0.1,0.7s0.2,0.4,0.3,0.5s0.3,0.2,0.5,0.3
		s0.4,0.1,0.7,0.1c0.3,0,0.6,0,0.9-0.1s0.7-0.1,1-0.2v1.1c-0.2,0-0.3,0.1-0.5,0.1s-0.4,0.1-0.6,0.1s-0.4,0-0.6,0.1s-0.4,0-0.6,0
		c-0.5,0-0.9-0.1-1.2-0.2s-0.7-0.3-0.9-0.6s-0.4-0.6-0.6-0.9s-0.2-0.8-0.2-1.3c0-0.5,0.1-0.9,0.2-1.3s0.3-0.7,0.6-1s0.5-0.5,0.9-0.7
		s0.7-0.2,1.2-0.2c0.4,0,0.8,0.1,1.1,0.2s0.6,0.3,0.8,0.5s0.4,0.5,0.5,0.8S158.7,252.5,158.7,252.9z M157.3,252.7
		c0-0.2,0-0.4-0.1-0.6s-0.1-0.3-0.3-0.4s-0.2-0.2-0.4-0.3s-0.3-0.1-0.5-0.1c-0.4,0-0.7,0.1-0.9,0.4s-0.4,0.6-0.4,1H157.3z"/>
	<path class="st2" d="M163.6,256.3v-3.9c0-0.7-0.2-1-0.7-1c-0.2,0-0.5,0.1-0.7,0.3s-0.5,0.5-0.7,0.8v3.8H160v-6h1.2l0,0.9
		c0.1-0.2,0.2-0.3,0.4-0.4s0.3-0.2,0.4-0.3s0.3-0.2,0.5-0.2s0.4-0.1,0.6-0.1c0.3,0,0.6,0,0.8,0.1s0.4,0.2,0.6,0.4s0.3,0.4,0.3,0.7
		s0.1,0.5,0.1,0.9v4H163.6z"/>
	<path class="st2" d="M168.2,251.5h-1.7v-1.1h3.1v4.8h1.7v1.1h-5.1v-1.1h1.9V251.5z M169.7,248.7c0,0.1,0,0.2-0.1,0.4
		s-0.1,0.2-0.2,0.3s-0.2,0.2-0.3,0.2s-0.2,0.1-0.4,0.1s-0.3,0-0.4-0.1s-0.2-0.1-0.3-0.2s-0.1-0.2-0.2-0.3s-0.1-0.2-0.1-0.4
		s0-0.2,0.1-0.4s0.1-0.2,0.2-0.3s0.2-0.2,0.3-0.2s0.2-0.1,0.4-0.1s0.3,0,0.4,0.1s0.2,0.1,0.3,0.2s0.1,0.2,0.2,0.3
		S169.7,248.6,169.7,248.7z"/>
	<path class="st2" d="M176.1,256.3v-3.9c0-0.7-0.2-1-0.7-1c-0.2,0-0.5,0.1-0.7,0.3s-0.5,0.5-0.7,0.8v3.8h-1.4v-6h1.2l0,0.9
		c0.1-0.2,0.2-0.3,0.4-0.4s0.3-0.2,0.4-0.3s0.3-0.2,0.5-0.2s0.4-0.1,0.6-0.1c0.3,0,0.6,0,0.8,0.1s0.4,0.2,0.6,0.4s0.3,0.4,0.3,0.7
		s0.1,0.5,0.1,0.9v4H176.1z"/>
	<path class="st2" d="M183.4,251.4c0.1,0.1,0.2,0.3,0.2,0.4s0.1,0.3,0.1,0.5c0,0.3-0.1,0.6-0.2,0.9s-0.3,0.5-0.5,0.6
		s-0.5,0.3-0.8,0.4s-0.6,0.1-1,0.1c-0.2,0-0.4,0-0.6-0.1s-0.3-0.1-0.4-0.1c-0.1,0.1-0.1,0.1-0.2,0.2s-0.1,0.2-0.1,0.3
		c0,0.1,0,0.1,0,0.2s0.1,0.1,0.1,0.2s0.1,0.1,0.2,0.1s0.2,0,0.3,0.1l1.4,0.1c0.3,0,0.6,0,0.9,0.1s0.5,0.2,0.7,0.3s0.3,0.3,0.4,0.5
		s0.1,0.4,0.1,0.6c0,0.3-0.1,0.5-0.2,0.8s-0.3,0.5-0.6,0.6s-0.6,0.3-0.9,0.4s-0.8,0.2-1.3,0.2c-0.5,0-0.9,0-1.2-0.1
		s-0.6-0.2-0.8-0.3s-0.4-0.3-0.5-0.5s-0.2-0.4-0.2-0.6c0-0.1,0-0.3,0.1-0.4s0.1-0.2,0.2-0.3s0.2-0.2,0.3-0.3s0.2-0.2,0.4-0.3
		c-0.2-0.1-0.3-0.2-0.4-0.4s-0.1-0.4-0.1-0.6c0-0.1,0-0.3,0.1-0.4s0.1-0.2,0.1-0.3s0.1-0.2,0.2-0.3s0.2-0.2,0.2-0.3
		c-0.1-0.1-0.3-0.3-0.4-0.5s-0.1-0.5-0.1-0.8c0-0.3,0.1-0.6,0.2-0.9s0.3-0.5,0.5-0.7s0.5-0.3,0.8-0.4s0.6-0.1,1-0.1
		c0.2,0,0.3,0,0.5,0s0.3,0,0.4,0.1h2.1v1H183.4z M180,257.1c0,0.2,0.1,0.4,0.3,0.5s0.6,0.2,1,0.2c0.3,0,0.5,0,0.7-0.1
		s0.3-0.1,0.5-0.2s0.2-0.2,0.3-0.3s0.1-0.2,0.1-0.3c0-0.1,0-0.2-0.1-0.3s-0.1-0.1-0.2-0.2s-0.2-0.1-0.3-0.1s-0.3,0-0.4,0l-1.3,0
		c-0.1,0.1-0.2,0.2-0.3,0.2s-0.1,0.1-0.2,0.2s-0.1,0.1-0.1,0.2S180,257,180,257.1z M180.2,252.3c0,0.3,0.1,0.6,0.3,0.8
		s0.4,0.3,0.8,0.3c0.2,0,0.3,0,0.5-0.1s0.2-0.1,0.3-0.2s0.2-0.2,0.2-0.3s0.1-0.3,0.1-0.4c0-0.3-0.1-0.6-0.3-0.8s-0.4-0.3-0.8-0.3
		c-0.2,0-0.3,0-0.5,0.1s-0.2,0.1-0.3,0.2s-0.2,0.2-0.2,0.3S180.2,252.2,180.2,252.3z"/>
	<path class="st2" d="M193.1,247.8c0.8,0,1.4,0.2,1.8,0.6s0.6,1,0.6,1.9v1c0,0.4,0.1,0.7,0.3,0.9s0.5,0.3,0.9,0.3h0.4v1.1h-0.4
		c-0.2,0-0.4,0-0.5,0.1s-0.3,0.1-0.4,0.2s-0.2,0.2-0.2,0.4s-0.1,0.3-0.1,0.5v1.5c0,0.4,0,0.8-0.1,1.1s-0.2,0.6-0.4,0.8
		s-0.4,0.4-0.8,0.5s-0.7,0.2-1.1,0.2h-0.5v-1.1h0.4c0.2,0,0.4,0,0.5-0.1s0.3-0.1,0.4-0.2s0.2-0.2,0.3-0.4s0.1-0.4,0.1-0.6v-1.5
		c0-0.3,0-0.5,0.1-0.8s0.1-0.4,0.2-0.5s0.2-0.2,0.4-0.3s0.3-0.1,0.6-0.2c-0.4-0.1-0.7-0.2-0.9-0.5s-0.3-0.7-0.3-1.3v-1
		c0-0.3,0-0.5-0.1-0.6s-0.1-0.3-0.3-0.4s-0.2-0.2-0.4-0.2s-0.3-0.1-0.5-0.1h-0.4v-1.1H193.1z"/>
	<path class="st2" d="M24.2,273.7c0,0.1,0,0.2,0,0.4s0,0.3,0,0.4h-3.9c0,0.3,0,0.5,0.1,0.7s0.2,0.4,0.3,0.5s0.3,0.2,0.5,0.3
		s0.4,0.1,0.7,0.1c0.3,0,0.6,0,0.9-0.1s0.7-0.1,1-0.2v1.1c-0.2,0-0.3,0.1-0.5,0.1s-0.4,0.1-0.6,0.1s-0.4,0-0.6,0.1s-0.4,0-0.6,0
		c-0.5,0-0.9-0.1-1.2-0.2s-0.7-0.3-0.9-0.6s-0.4-0.6-0.6-0.9s-0.2-0.8-0.2-1.3c0-0.5,0.1-0.9,0.2-1.3s0.3-0.7,0.6-1s0.5-0.5,0.9-0.7
		s0.7-0.2,1.2-0.2c0.4,0,0.8,0.1,1.1,0.2s0.6,0.3,0.8,0.5s0.4,0.5,0.5,0.8S24.2,273.3,24.2,273.7z M22.7,273.5c0-0.2,0-0.4-0.1-0.6
		s-0.1-0.3-0.3-0.4s-0.2-0.2-0.4-0.3s-0.3-0.1-0.5-0.1c-0.4,0-0.7,0.1-0.9,0.4s-0.4,0.6-0.4,1H22.7z"/>
	<path class="st2" d="M29,277.2v-3.9c0-0.7-0.2-1-0.7-1c-0.2,0-0.5,0.1-0.7,0.3s-0.5,0.5-0.7,0.8v3.8h-1.4v-6h1.2l0,0.9
		c0.1-0.2,0.2-0.3,0.4-0.4s0.3-0.2,0.4-0.3s0.3-0.2,0.5-0.2s0.4-0.1,0.6-0.1c0.3,0,0.6,0,0.8,0.1s0.4,0.2,0.6,0.4s0.3,0.4,0.3,0.7
		s0.1,0.5,0.1,0.9v4H29z"/>
	<path class="st2" d="M35.7,277.2l0-0.9c-0.1,0.2-0.3,0.3-0.4,0.4s-0.3,0.2-0.4,0.3s-0.3,0.2-0.5,0.2s-0.4,0.1-0.6,0.1
		c-0.4,0-0.7-0.1-0.9-0.2s-0.5-0.3-0.7-0.6s-0.3-0.6-0.4-0.9s-0.1-0.8-0.1-1.2c0-0.5,0.1-1,0.2-1.4c0.2-0.4,0.4-0.7,0.6-1
		s0.6-0.5,1-0.6s0.8-0.2,1.2-0.2c0.1,0,0.3,0,0.4,0s0.3,0,0.4,0.1v-2.3H37v8.3H35.7z M33.1,274.2c0,0.3,0,0.6,0.1,0.8
		s0.1,0.4,0.2,0.6s0.2,0.3,0.3,0.3s0.3,0.1,0.4,0.1c0.2,0,0.5-0.1,0.7-0.3s0.5-0.5,0.7-0.8v-2.6c-0.1,0-0.3-0.1-0.4-0.1
		s-0.3,0-0.5,0c-0.2,0-0.4,0-0.6,0.1s-0.3,0.2-0.5,0.4s-0.2,0.4-0.3,0.6S33.1,273.9,33.1,274.2z"/>
</g>
<path class="st2" d="M0,0v323h395.3V0H0z M391.3,319H4V18.4h387.3V319z"/>
<g>
	<circle class="st1" cx="10.6" cy="9.2" r="3.6"/>
	<circle class="st1" cx="21.8" cy="9.2" r="3.6"/>
	<circle class="st1" cx="33.1" cy="9.2" r="3.6"/>
</g>
<g>
</g>
<g>
</g>
<g>
</g>
<g>
</g>
<g>
</g>
<g>
</g>
</svg>
