<svg xmlns="http://www.w3.org/2000/svg" viewBox="0 0 111.72 125"><defs><style>.cls-1{fill:#955af2;stroke:#955af2;stroke-miterlimit:10;}.cls-2{opacity:0.25;}.cls-3{fill:#c3c8c9;}</style></defs><title>free</title><g id="Layer_2" data-name="Layer 2"><g id="polys"><path class="cls-1" d="M66.15,19.61H45.58L55.86,1.79Zm-20.26-.18H65.84l-10-17.27Z"/><g class="cls-2"><path class="cls-1" d="M109.09,44.83H88.51L98.8,27Zm-20.26-.18h19.94l-10-17.27Z"/></g><g class="cls-2"><path class="cls-1" d="M44.64,81.48H24.07L34.35,63.66ZM24.38,81.3H44.33L34.35,64Z"/></g><path class="cls-1" d="M23,94.51H2.44L12.73,76.69ZM2.76,94.32H22.7l-10-17.27Z"/><path class="cls-1" d="M87.62,82.38H67L77.34,64.56Zm-20.26-.18H87.31l-10-17.27Z"/><path class="cls-1" d="M109.09,93.61H88.51L98.8,75.79Zm-20.26-.18h19.94l-10-17.27Z"/><g class="cls-2"><path class="cls-1" d="M66.15,118.72H45.58L55.86,100.9Zm-20.26-.18H65.84l-10-17.27Z"/></g><path class="cls-3" d="M12.95,100.22a13,13,0,0,1-3.37-.45A12.92,12.92,0,1,1,24.12,80.83h0a12.93,12.93,0,0,1-11.17,19.39Zm0-24.8a11.87,11.87,0,1,0,10.3,5.94h0A11.79,11.79,0,0,0,16,75.83,11.94,11.94,0,0,0,12.91,75.42Z"/><path class="cls-3" d="M34.42,87.81A12.92,12.92,0,1,1,45.59,68.43h0A12.92,12.92,0,0,1,34.42,87.81Zm0-24.78A11.87,11.87,0,1,0,44.67,69h0A11.88,11.88,0,0,0,34.37,63Z"/><path class="cls-3" d="M98.82,50.63A12.92,12.92,0,1,1,110,31.25h0A12.92,12.92,0,0,1,98.82,50.63Zm0-24.78a11.87,11.87,0,1,0,10.3,5.93h0A11.88,11.88,0,0,0,98.78,25.85Z"/><path class="cls-3" d="M98.78,100.21A12.92,12.92,0,0,1,87.61,80.83h0a12.92,12.92,0,1,1,11.17,19.38ZM88.52,81.36A11.87,11.87,0,1,0,104.73,77a11.88,11.88,0,0,0-16.21,4.34Z"/><path class="cls-3" d="M77.31,87.82A12.93,12.93,0,0,1,66.14,68.43h0A12.91,12.91,0,1,1,77.31,87.82ZM67.05,69a11.87,11.87,0,1,0,16.21-4.34A11.88,11.88,0,0,0,67.05,69Z"/><g class="cls-2"><path class="cls-1" d="M23.21,44.83H2.64L12.93,27ZM3,44.65H22.9l-10-17.27Z"/></g><path class="cls-3" d="M12.83,50.64a13,13,0,1,1,3.37-.43A13,13,0,0,1,12.83,50.64ZM13,25.84a11.94,11.94,0,0,0-3.09.39,11.79,11.79,0,0,0-7.24,5.49h0A11.87,11.87,0,0,0,15.93,49.19,11.87,11.87,0,0,0,13,25.84Z"/><path class="cls-3" d="M55.86,25.84A12.92,12.92,0,1,1,68.79,12.92,12.94,12.94,0,0,1,55.86,25.84Zm0-24.79A11.87,11.87,0,1,0,67.73,12.92,11.88,11.88,0,0,0,55.86,1.05Z"/><path class="cls-3" d="M55.86,125a12.92,12.92,0,1,1,12.92-12.92A12.94,12.94,0,0,1,55.86,125Zm0-24.79a11.87,11.87,0,1,0,11.87,11.87A11.88,11.88,0,0,0,55.86,100.21Z"/></g></g></svg>