<svg xmlns="http://www.w3.org/2000/svg" viewBox="0 0 125 108.25"><defs><style>.cls-1{fill:#c3c8c9;}.cls-2,.cls-3{fill:#955af2;}.cls-2{opacity:0.3;}</style></defs><title>language</title><g id="Layer_2" data-name="Layer 2"><g id="polys"><path class="cls-1" d="M125,108.25H0L62.5,0ZM1.91,107.15H123.09L62.5,2.21Z"/><rect class="cls-2" x="-19.3" y="63.7" width="113.44" height="1.1" transform="translate(-35.85 51.6) rotate(-49.99)"/><rect class="cls-2" x="-11.71" y="72.36" width="108.24" height="1.11" transform="translate(-36.95 44.34) rotate(-40.01)"/><rect class="cls-2" x="-6.18" y="80.5" width="106.6" height="1.1" transform="translate(-34.22 34.42) rotate(-30)"/><rect class="cls-2" x="-2.31" y="88.64" width="108.24" height="1.1" transform="translate(-27.41 23.14) rotate(-20.03)"/><rect class="cls-2" x="0.09" y="97.3" width="113.44" height="1.1" transform="translate(-16.09 11.32) rotate(-9.97)"/><rect class="cls-3" x="87.03" y="7.53" width="1.1" height="113.44" transform="translate(-20.81 71.33) rotate(-40)"/><rect class="cls-3" x="82.03" y="18.79" width="1.11" height="108.24" transform="translate(-26.35 89.31) rotate(-50)"/><rect class="cls-3" x="77.33" y="27.75" width="1.1" height="106.6" transform="translate(-31.25 107.98) rotate(-60)"/><rect class="cls-3" x="72.63" y="35.07" width="1.1" height="108.24" transform="translate(-35.66 127.46) rotate(-70)"/><rect class="cls-3" x="67.63" y="41.13" width="1.1" height="113.44" transform="translate(-40.02 148.01) rotate(-80)"/></g></g></svg>