<svg xmlns="http://www.w3.org/2000/svg" xmlns:xlink="http://www.w3.org/1999/xlink" viewBox="0 0 126.73 109.86"><defs><style>.cls-1{fill:#abc6d3;}.cls-2{opacity:0.4;fill:url(#linear-gradient);}.cls-3{fill:url(#linear-gradient-2);}</style><linearGradient id="linear-gradient" x1="28" y1="47.45" x2="67.96" y2="116.66" gradientUnits="userSpaceOnUse"><stop offset="0" stop-color="#63ce99"/><stop offset="0.18" stop-color="#54c2b6"/><stop offset="0.34" stop-color="#4bbaca"/><stop offset="0.46" stop-color="#47b7d1"/><stop offset="0.55" stop-color="#4babd5"/><stop offset="0.73" stop-color="#548ae1"/><stop offset="0.95" stop-color="#625af2"/></linearGradient><linearGradient id="linear-gradient-2" x1="31.13" y1="33.07" x2="87.89" y2="131.38" xlink:href="#linear-gradient"/></defs><title>language</title><g id="Layer_2" data-name="Layer 2"><g id="polys"><path class="cls-1" d="M63.37,0,.43,109l-.43.75H126.73ZM3.65,107.65,63.37,4.21l59.72,103.44Z"/><path class="cls-2" d="M2.31,109.76l-.05,0-.14.11,0-.06-.15.09,0-.06-.17.06,0-.07-.18,0L1.36,109l-.67-.56.11-.14,0-.06.14-.11,0-.06L1,108l0-.07.17-.06v-.07l.12,0,73-87,1.61,1.35L10.36,100.16,84.45,38l1.35,1.61L11.71,101.78,94,54.24l1.05,1.82L12.77,103.6l90.88-33.08.72,2L13.48,105.58l100.36-17.7.37,2.07L2.38,109.67Z"/><path class="cls-3" d="M125.22,109.82l-.18,0,0,.07-.17-.06,0,.06-.15-.09,0,.06-.14-.11-.05,0-.07-.09L12.52,90l.37-2.07,100.36,17.7L22.37,72.5l.72-2L114,103.6,31.64,56.06l1.05-1.82L115,101.78,40.93,39.61,42.29,38l74.09,62.17L50.87,22.1l1.61-1.35,73,87,.12,0v.07l.17.06,0,.07.15.09,0,.06.14.11,0,.05.11.14-.67.56Z"/></g></g></svg>