<svg xmlns="http://www.w3.org/2000/svg" viewBox="0 0 125 125"><defs><style>.cls-1{opacity:0.25;}.cls-2{fill:#955af2;}.cls-3{fill:#c3c8c9;}</style></defs><title>platfrom</title><g id="Layer_2" data-name="Layer 2"><g id="polys"><g class="cls-1"><polygon class="cls-2" points="27.51 98.18 26.44 97.86 36.8 62.5 26.44 27.14 27.51 26.82 37.96 62.5 37.92 62.66 27.51 98.18"/><polygon class="cls-2" points="27.13 98.56 26.82 97.49 62.5 87.04 98.18 97.49 97.86 98.56 62.5 88.2 27.13 98.56"/><polygon class="cls-2" points="97.49 98.18 87.04 62.5 87.08 62.34 97.49 26.82 98.56 27.14 88.2 62.5 98.56 97.86 97.49 98.18"/><polygon class="cls-2" points="62.5 37.96 26.82 27.51 27.13 26.44 62.5 36.8 97.86 26.44 98.18 27.51 62.5 37.96"/><path class="cls-2" d="M62.5,109l-.16,0L26.53,98.47,16,62.5l0-.16L26.53,26.53,62.5,16l36,10.54L109,62.5l0,.16L98.47,98.47ZM27.43,97.57,62.5,107.84,97.57,97.57,107.84,62.5,97.57,27.43,62.5,17.16,27.43,27.43,17.15,62.5Z"/><rect class="cls-2" x="37.38" y="61.94" width="50.24" height="1.12"/><rect class="cls-2" x="61.94" y="37.38" width="1.12" height="50.24"/></g><polygon class="cls-2" points="62.01 124.63 40.22 84.78 0.37 62.99 0.9 62.01 41.04 83.96 62.99 124.1 62.01 124.63"/><polygon class="cls-2" points="62.99 124.63 62.01 124.1 83.96 83.96 84.1 83.88 124.09 62.01 124.63 62.99 84.78 84.78 62.99 124.63"/><polygon class="cls-2" points="124.09 62.99 83.96 41.04 62.01 0.9 62.99 0.37 84.78 40.22 124.63 62.01 124.09 62.99"/><polygon class="cls-2" points="0.9 62.99 0.37 62.01 40.22 40.22 62.01 0.37 62.99 0.9 41.04 41.04 40.9 41.12 0.9 62.99"/><path class="cls-3" d="M62.5,125,22.1,102.9,0,62.5l.15-.27,22-40.13.14-.08L62.5,0l40.4,22.1L125,62.5l-.15.27-22,40.14-.14.08ZM22.92,102.08,62.5,123.73l39.58-21.65L123.73,62.5,102.08,22.92,62.5,1.27,22.92,22.92,1.27,62.5Z"/><rect class="cls-2" x="31.57" y="61.94" width="61.86" height="1.12" transform="translate(-25.89 62.5) rotate(-45)"/><rect class="cls-2" x="61.94" y="31.57" width="1.12" height="61.86" transform="translate(-25.89 62.5) rotate(-45)"/></g></g></svg>