<?xml version="1.0" encoding="UTF-8"?>
<svg width="388px" height="31px" viewBox="0 0 388 31" version="1.1" xmlns="http://www.w3.org/2000/svg" xmlns:xlink="http://www.w3.org/1999/xlink">
    <!-- Generator: Sketch 47.1 (45422) - http://www.bohemiancoding.com/sketch -->
    <title>Group 33</title>
    <desc>Created with Sketch.</desc>
    <defs></defs>
    <g id="Welcome" stroke="none" stroke-width="1" fill="none" fill-rule="evenodd">
        <g id="1---home" transform="translate(-237.000000, -3356.000000)" fill="#283C4C">
            <g id="modules" transform="translate(150.000000, 2746.000000)">
                <g id="Group-29" transform="translate(0.000000, 219.000000)">
                    <g id="Group-33" transform="translate(87.000000, 391.000000)">
                        <path d="M10.977183,6.88166045 C10.8544146,6.89282122 10.7679199,6.95141438 10.7176964,7.0574417 C10.667473,7.16346901 10.6200404,7.21648187 10.5753973,7.21648187 C10.5195935,7.22764264 10.491692,7.19974114 10.491692,7.13277652 C10.491692,6.99884728 10.5977177,6.91514276 10.8097723,6.88166045 L10.977183,6.88166045 Z M12.4336562,7.11603545 C12.3890132,7.12719622 12.3248397,7.09092426 12.2411339,7.00721848 C12.1574281,6.92351271 12.0597729,6.89840135 11.9481652,6.93188366 C12.2160237,6.80911519 12.3945933,6.82027579 12.4838795,6.9653658 C12.5173618,7.03233042 12.5006209,7.08255313 12.4336562,7.11603545 Z M6.55754017,14.2644729 C6.51289709,14.2533122 6.47941529,14.2700531 6.45709375,14.3146962 C6.43477221,14.3593392 6.40966085,14.429093 6.38175892,14.5239596 C6.353857,14.6188261 6.32316534,14.6941602 6.28968303,14.749964 C6.25620072,14.8057679 6.20039771,14.8783118 6.12227232,14.9675979 C6.04414693,15.0792056 6.03856663,15.1461693 6.10553125,15.1684908 C6.15017433,15.1796516 6.21992809,15.1405895 6.31479464,15.0513033 C6.40966118,14.9620171 6.47941495,14.8615717 6.52405803,14.749964 C6.5352188,14.7164817 6.5463794,14.6774196 6.55754017,14.6327765 C6.56870094,14.5881334 6.57986155,14.5546516 6.59102232,14.5323301 C6.60218309,14.5100085 6.61055354,14.4848972 6.61613392,14.4569953 C6.62171431,14.4290933 6.62450446,14.4067721 6.62450446,14.390031 L6.62450446,14.3398078 C6.62450446,14.3230666 6.61892416,14.3091159 6.60776339,14.2979551 C6.59660262,14.2867943 6.57986171,14.2756337 6.55754017,14.2644729 Z M20.8711562,20.2745176 C20.8711562,20.0736237 20.5642397,19.8392511 19.9503973,19.5713926 C19.9950404,19.403981 20.0368927,19.2505227 20.0759554,19.1110131 C20.115018,18.9715035 20.1429196,18.8264157 20.1596607,18.6757453 C20.1764019,18.5250749 20.1931428,18.4050984 20.2098839,18.3158122 C20.2266251,18.2265261 20.2294152,18.1009693 20.2182545,17.9391381 C20.2070937,17.777307 20.2015134,17.6684911 20.2015134,17.6126872 C20.2015134,17.5568834 20.1819823,17.4341168 20.1429196,17.2443837 C20.1038569,17.0546506 20.0815357,16.9402544 20.0759554,16.9011917 C20.070375,16.862129 20.0424735,16.7226215 19.99225,16.4826649 C19.9420265,16.2427084 19.9113349,16.0948304 19.9001741,16.0390265 C19.7885664,15.5033096 19.5262922,14.9285385 19.1133437,14.3146962 C18.7003953,13.7008538 18.2986136,13.2823312 17.9079866,13.0591158 C18.1758451,13.2823312 18.4939223,13.7454962 18.8622277,14.4486247 C19.8332147,16.2566695 20.1345509,17.8079933 19.7662455,19.1026426 C19.6434771,19.5490734 19.364462,19.783446 18.929192,19.8057676 C18.5832081,19.8504107 18.3683665,19.7471751 18.2846607,19.4960578 C18.2009549,19.2449404 18.1563125,18.7789853 18.1507321,18.0981783 C18.1451518,17.4173713 18.0809783,16.8202791 17.9582098,16.3068837 C17.8577629,15.8716136 17.748947,15.4865728 17.6317589,15.1517497 C17.5145708,14.8169266 17.405755,14.5630229 17.305308,14.390031 C17.2048611,14.217039 17.1183664,14.0803217 17.0458214,13.9798747 C16.9732764,13.8794278 16.9007325,13.7957233 16.8281875,13.7287587 C16.7556425,13.661794 16.7137902,13.6227319 16.7026295,13.6115712 C16.5463787,12.9196034 16.3733893,12.3448324 16.1836562,11.8872408 C15.9939232,11.4296492 15.8293043,11.1171524 15.6897946,10.9497408 C15.550285,10.7823293 15.4191479,10.5981793 15.2963795,10.3972854 C15.173611,10.1963916 15.0899065,9.97317953 15.0452634,9.72764259 C15.0006203,9.49326642 15.0341021,9.19472029 15.1457098,8.83199527 C15.2573175,8.46927024 15.2824289,8.19304532 15.2210446,8.00331223 C15.1596604,7.81357914 14.911337,7.67407161 14.476067,7.58478545 C14.3086554,7.55130313 14.060332,7.45085771 13.7310893,7.28344616 C13.4018466,7.11603461 13.2037459,7.02674979 13.1367812,7.01558902 C13.0474951,7.00442825 12.9861118,6.85934041 12.9526295,6.58032116 C12.9191471,6.30130191 12.9637896,6.01670654 13.086558,5.72652652 C13.2093265,5.43634649 13.4102174,5.28567836 13.6892366,5.27451759 C14.1021851,5.24103528 14.3867805,5.40844432 14.5430312,5.77674973 C14.699282,6.14505514 14.7216032,6.46871262 14.6099955,6.74773187 C14.4872271,6.95978651 14.4760665,7.10766449 14.5765134,7.19137027 C14.6769603,7.27507604 14.8443694,7.27786619 15.0787455,7.1997408 C15.2238355,7.15509772 15.2963795,6.95420687 15.2963795,6.59706223 L15.2963795,5.97764259 C15.2405756,5.64281949 15.1652415,5.36380442 15.070375,5.14058902 C14.9755084,4.91737361 14.8583221,4.74717442 14.7188125,4.62998634 C14.5793029,4.51279825 14.4481658,4.42909373 14.3253973,4.37887027 C14.2026288,4.3286468 14.0519607,4.28679454 13.8733884,4.25331223 C12.679186,4.34259839 12.1825392,5.09035877 12.383433,6.4966158 C12.383433,6.66402735 12.3778527,6.74773187 12.366692,6.74773187 C12.266245,6.64728494 12.1016261,6.58869178 11.8728304,6.57195062 C11.6440346,6.55520947 11.4598846,6.55799962 11.320375,6.58032116 C11.1808654,6.6026427 11.0943707,6.57474119 11.0608884,6.4966158 C11.0720492,5.86045191 10.9827643,5.35822479 10.7930312,4.98991937 C10.6032982,4.62161396 10.3521846,4.43188372 10.039683,4.42072295 C9.73834224,4.40956218 9.50675973,4.56302046 9.34492857,4.88110241 C9.1830974,5.19918436 9.09102243,5.53121229 9.06870089,5.87719616 C9.05754012,6.04460771 9.07707117,6.25107886 9.12729464,6.4966158 C9.1775181,6.74215274 9.25006202,6.95141404 9.34492857,7.12440598 C9.43979511,7.29739792 9.52628978,7.37273199 9.60441517,7.35041045 C9.71602288,7.31692813 9.8053077,7.23880392 9.87227232,7.11603545 C9.9169154,7.01558851 9.87785329,6.9709461 9.75508482,6.98210687 C9.67695943,6.98210687 9.59046476,6.9011925 9.49559821,6.73936134 C9.40073166,6.57753017 9.3477188,6.39059008 9.33655803,6.17853545 C9.32539726,5.9329985 9.37561997,5.72652735 9.48722767,5.5591158 C9.59883538,5.39170425 9.78856562,5.31358003 10.0564241,5.3247408 C10.2461572,5.3247408 10.3968253,5.44192713 10.508433,5.6763033 C10.6200407,5.91067947 10.6730536,6.12831123 10.6674732,6.32920509 C10.6618928,6.53009895 10.6535224,6.65286558 10.6423616,6.69750866 C10.3968247,6.86492021 10.2238353,7.02674895 10.1233884,7.18299973 C10.0341022,7.31692897 9.88064394,7.44806605 9.66300892,7.57641491 C9.44537391,7.70476377 9.33097773,7.77451753 9.31981696,7.7856783 C9.17472695,7.94192908 9.08823228,8.09259722 9.06033035,8.23768723 C9.03242843,8.38277724 9.07428069,8.48322267 9.18588839,8.53902652 C9.34213917,8.62831268 9.4816467,8.73712855 9.60441517,8.86547741 C9.72718365,8.99382627 9.81646847,9.09985199 9.87227232,9.18355777 C9.92807617,9.26726354 10.0313117,9.33980746 10.1819821,9.4011917 C10.3326525,9.46257593 10.5307532,9.49884789 10.7762902,9.51000866 C11.3008464,9.5323302 11.8700371,9.44862568 12.4838795,9.25889259 C12.506201,9.24773182 12.6345479,9.20866971 12.8689241,9.14170509 C13.1033003,9.07474047 13.2958207,9.0161473 13.4464911,8.96592384 C13.5971615,8.91570037 13.7617804,8.84315646 13.9403527,8.74828991 C14.118925,8.65342336 14.2361113,8.55576809 14.2919152,8.45532116 C14.3923621,8.29907038 14.5039681,8.25442797 14.6267366,8.32139259 C14.6825405,8.3548749 14.7188124,8.40230746 14.7355536,8.4636917 C14.7522947,8.52507593 14.7355538,8.59203955 14.6853304,8.66458455 C14.6351069,8.73712956 14.5430319,8.79014242 14.4091027,8.82362473 C14.1858873,8.89058935 13.8706002,9.01056583 13.4632321,9.18355777 C13.055864,9.3565497 12.8019603,9.46536558 12.7015134,9.51000866 C12.2104395,9.72206329 11.8198184,9.85041022 11.5296384,9.8950533 C11.2506191,9.95085715 10.8097753,9.93969655 10.2070937,9.86157116 C10.095486,9.83924962 10.0452633,9.85041022 10.0564241,9.8950533 C10.0675849,9.93969638 10.16245,10.0457221 10.3410223,10.2131337 C10.6200416,10.4698314 10.9939218,10.592598 11.4626741,10.5814372 C11.6524072,10.5702765 11.853298,10.5312144 12.0653527,10.4642497 C12.2774073,10.3972851 12.4782982,10.3191609 12.6680312,10.2298747 C12.8577643,10.1405886 13.0447044,10.0429333 13.2288571,9.93690598 C13.4130098,9.83087867 13.5804189,9.73601354 13.7310893,9.65230777 C13.8817597,9.56860199 14.0184771,9.50163837 14.1412455,9.45141491 C14.264014,9.40119144 14.3616693,9.38724069 14.4342143,9.40956223 C14.5067593,9.43188377 14.5541918,9.49326709 14.5765134,9.59371402 C14.5765134,9.61603556 14.5709331,9.64114691 14.5597723,9.66904884 C14.5486115,9.69695076 14.5262903,9.72485227 14.492808,9.7527542 C14.4593257,9.78065612 14.4258439,9.80576748 14.3923616,9.82808902 C14.3588793,9.85041056 14.3114467,9.87831206 14.2500625,9.91179437 C14.1886783,9.94527668 14.1384555,9.97038804 14.0993929,9.9871292 C14.0603302,10.0038704 14.0045271,10.0317719 13.9319821,10.0708346 C13.8594371,10.1098972 13.8064243,10.1350086 13.772942,10.1461694 C13.4604404,10.3024202 13.0837701,10.5479534 12.6429196,10.8827765 C12.2020692,11.2175996 11.8309792,11.4575526 11.5296384,11.6026426 C11.2282976,11.7477326 10.9548628,11.7533129 10.7093259,11.6193837 C10.4749497,11.4966152 10.1233907,11.0892532 9.65463839,10.3972854 C9.40910145,10.0513016 9.26959391,9.92853494 9.2361116,10.0289819 C9.22495083,10.0624642 9.21937053,10.1182672 9.21937053,10.1963926 C9.21937053,10.4754118 9.13566601,10.7906989 8.96825446,11.1422631 C8.80084291,11.4938274 8.63622402,11.8035341 8.47439285,12.0713926 C8.31256169,12.3392511 8.19537536,12.6629085 8.12283035,13.0423747 C8.05028535,13.4218409 8.11445881,13.7733999 8.31535267,14.0970622 C8.05865496,14.1640269 7.70988613,14.666254 7.26903571,15.6037587 C6.82818529,16.5412633 6.56312098,17.3280858 6.47383482,17.9642497 C6.45151328,18.1651436 6.44314282,18.5501844 6.44872321,19.1193837 C6.45430359,19.6885829 6.42361194,20.0178207 6.35664732,20.1071069 C6.26736116,20.3749654 6.10553242,20.3917063 5.87115625,20.1573301 C5.5140116,19.8113462 5.31312075,19.2867979 5.26847767,18.5836694 C5.24615613,18.2711678 5.26847734,17.9586709 5.33544196,17.6461694 C5.38008504,17.4341147 5.37450474,17.3336693 5.31870089,17.3448301 L5.2517366,17.4285354 C4.84994888,18.1539855 4.90575189,19.0803155 5.41914732,20.2075533 C5.47495117,20.3414825 5.6144587,20.497731 5.8376741,20.6763033 C6.0608895,20.8548756 6.19481674,20.9664817 6.23945982,21.0111247 C6.46267522,21.2678224 7.04302656,21.7728397 7.98053125,22.5261917 C8.91803593,23.2795437 9.43700396,23.7064367 9.53745089,23.8068837 C9.71602321,23.9742952 9.81367848,24.1863467 9.83041964,24.4430444 C9.84716079,24.6997421 9.76903657,24.939695 9.59604464,25.1629104 C9.4230527,25.3861258 9.16914899,25.5144728 8.83432589,25.5479551 C8.92361205,25.7153666 9.08544079,25.96369 9.31981696,26.2929328 C9.55419313,26.6221755 9.71044157,26.9235118 9.78856696,27.1969506 C9.86669235,27.4703895 9.90575446,27.8638007 9.90575446,28.3771962 C10.4191499,28.1093377 10.458212,27.59595 10.022942,26.8370176 C9.97829888,26.7477314 9.91970572,26.6584466 9.84716071,26.5691604 C9.7746157,26.4798743 9.72160284,26.4129107 9.68812053,26.3682676 C9.65463822,26.3236245 9.64347762,26.2901427 9.65463839,26.2678212 C9.6881207,26.2120173 9.76066462,26.1590044 9.87227232,26.108781 C9.98388002,26.0585575 10.095486,26.0725083 10.2070937,26.1506337 C10.7204892,26.7309937 11.6468192,26.9318846 12.9861116,26.7533122 C14.470494,26.5859007 15.4582074,26.1004145 15.9492812,25.296839 C16.205979,24.8727298 16.3957092,24.7053207 16.5184777,24.7946069 C16.6524069,24.8615715 16.7082099,25.1517472 16.6858884,25.6651426 C16.6747276,25.9441618 16.5463807,26.4575496 16.3008437,27.2053212 C16.2003968,27.4620189 16.166915,27.6712802 16.2003973,27.8331113 C16.2338796,27.9949425 16.3678069,28.0814372 16.602183,28.0925979 C16.6356653,27.8805433 16.7165797,27.4508601 16.8449286,26.8035354 C16.9732774,26.1562108 17.0486115,25.6539837 17.070933,25.296839 C17.0932546,25.0624628 17.0569826,24.6523107 16.9621161,24.0663703 C16.8672495,23.4804298 16.8253973,22.9391406 16.836558,22.4424863 C16.8477188,21.9458321 16.9760657,21.5524208 17.2216027,21.2622408 C17.3890142,21.0613469 17.6736096,20.9609015 18.0753973,20.9609015 C18.0865581,20.547953 18.2790785,20.2521971 18.6529643,20.0736247 C19.0268501,19.8950524 19.4314219,19.8364592 19.866692,19.8978435 C20.301962,19.9592277 20.6367801,20.0847845 20.8711562,20.2745176 Z M10.3577634,6.42965152 C10.3912457,6.23991843 10.3772949,6.07250938 10.3159107,5.92741937 C10.2545265,5.78232936 10.190353,5.69862484 10.1233884,5.6763033 C10.0229415,5.65398176 9.97271875,5.69304387 9.97271875,5.7934908 C9.99504029,5.84929465 10.0229418,5.88277646 10.0564241,5.89393723 C10.1680318,5.89393723 10.2070939,5.97764175 10.1736116,6.1450533 C10.1401293,6.3682687 10.1847717,6.47987473 10.3075402,6.47987473 C10.3410225,6.47987473 10.3577634,6.46313383 10.3577634,6.42965152 Z M17.3722723,9.72764259 C17.3499508,9.63835643 17.3136788,9.57418296 17.2634554,9.53512027 C17.2132319,9.49605757 17.140688,9.46815606 17.0458214,9.45141491 C16.9509549,9.43467375 16.8700405,9.4039821 16.8030759,9.35933902 C16.747272,9.32585671 16.6942592,9.2812143 16.6440357,9.22541045 C16.5938122,9.16960659 16.5547501,9.12496418 16.5268482,9.09148187 C16.4989463,9.05799956 16.4682546,9.0217276 16.4347723,8.98266491 C16.40129,8.94360221 16.3789688,8.92128101 16.367808,8.91570062 C16.3566473,8.91012024 16.3343261,8.91849069 16.3008437,8.94081223 C16.144593,9.11938455 16.1836551,9.36212766 16.4180312,9.66904884 C16.6524074,9.97597002 16.8700392,10.1517495 17.070933,10.1963926 C17.17138,10.2075534 17.2522943,10.1629109 17.3136786,10.062464 C17.3750628,9.96201709 17.3945939,9.85041106 17.3722723,9.72764259 Z M14.3923616,6.16179437 C14.3923616,6.0390259 14.3644601,5.93021003 14.3086562,5.83534348 C14.2528524,5.74047694 14.1914691,5.67072317 14.1245045,5.62608009 C14.0575398,5.58143701 14.0073171,5.5646961 13.9738348,5.57585687 C13.817584,5.58701764 13.7785219,5.62607975 13.8566473,5.69304437 L13.9236116,5.72652652 C14.0798624,5.7711696 14.1803078,5.94415894 14.2249509,6.24549973 C14.2249509,6.27898204 14.2695933,6.26782144 14.3588795,6.21201759 L14.3923616,6.16179437 Z M15.2963795,2.26112473 C15.2963795,2.23880319 15.2824287,2.21090168 15.2545268,2.17741937 C15.2266249,2.14393706 15.1764021,2.10487495 15.1038571,2.06023187 C15.0313121,2.01558879 14.9782993,1.98210699 14.944817,1.95978545 C14.7774054,1.79237389 14.6434782,1.70866937 14.5430312,1.70866937 C14.4425843,1.71983014 14.3784108,1.7616824 14.3505089,1.83422741 C14.322607,1.90677242 14.3170267,1.97931633 14.3337679,2.05186134 C14.350509,2.12440634 14.3477189,2.19416011 14.3253973,2.26112473 C14.3142365,2.30576781 14.2807547,2.36436098 14.2249509,2.43690598 C14.169147,2.50945099 14.1356652,2.5596737 14.1245045,2.58757562 C14.1133437,2.61547755 14.1300846,2.66291011 14.1747277,2.72987473 C14.2193708,2.76335704 14.2640132,2.76335704 14.3086562,2.72987473 C14.3532993,2.69639242 14.4146826,2.64616971 14.492808,2.57920509 C14.5709334,2.51224047 14.6546379,2.46201776 14.7439241,2.42853545 C14.7550849,2.41737468 14.8053076,2.41179437 14.8945937,2.41179437 C14.9838799,2.41179437 15.0675844,2.40063377 15.1457098,2.37831223 C15.2238352,2.35599069 15.2740579,2.31692858 15.2963795,2.26112473 Z M24.7550848,24.7109015 C24.9783002,24.8448308 25.1512896,24.9815481 25.274058,25.1210578 C25.3968265,25.2605674 25.4637901,25.3944946 25.4749509,25.5228435 C25.4861117,25.6511923 25.4721609,25.7767491 25.4330982,25.8995176 C25.3940355,26.0222861 25.3075408,26.1450527 25.1736116,26.2678212 C25.0396824,26.3905896 24.9085453,26.4994055 24.7801964,26.5942721 C24.6518476,26.6891386 24.4844385,26.7923742 24.2779643,26.9039819 C24.07149,27.0155896 23.8957105,27.1076645 23.7506205,27.1802096 C23.6055305,27.2527546 23.4269609,27.3392492 23.2149062,27.4396962 C23.0028516,27.5401431 22.8521835,27.612687 22.7628973,27.6573301 C22.3387881,27.8693847 21.8616723,28.1818816 21.3315357,28.5948301 C20.8013991,29.0077786 20.3800864,29.3649179 20.0675848,29.6662587 C19.8778517,29.844831 19.4983912,29.9536469 18.929192,29.9927096 C18.3599927,30.0317722 17.8633459,29.9508579 17.4392366,29.749964 C17.2383427,29.6495171 17.0737239,29.51838 16.945375,29.3565488 C16.8170261,29.1947177 16.7249512,29.05242 16.6691473,28.9296515 C16.6133435,28.806883 16.4905768,28.6980672 16.3008437,28.6032006 C16.1111107,28.5083341 15.8488365,28.4553212 15.5140134,28.4441604 C15.0229395,28.4329997 14.2975003,28.4274194 13.3376741,28.4274194 C13.1256195,28.4274194 12.8075423,28.4357898 12.383433,28.452531 C11.9593238,28.4692721 11.6356663,28.4832229 11.4124509,28.4943837 C10.921377,28.5055444 10.477743,28.5892489 10.0815357,28.7454997 C9.68532837,28.9017505 9.38678225,29.0691596 9.18588839,29.2477319 C8.98499453,29.4263042 8.74225142,29.5853428 8.45765178,29.7248524 C8.17305214,29.864362 7.87450602,29.9285355 7.56200446,29.9173747 C7.23834213,29.906214 6.61892868,29.7332246 5.70374553,29.3984015 C4.78856238,29.0635784 3.97383839,28.8236255 3.2595491,28.6785354 C3.04749447,28.6338924 2.7628991,28.5808795 2.40575446,28.5194953 C2.04860982,28.458111 1.76959475,28.4078883 1.56870089,28.3688256 C1.36780703,28.3297629 1.14738512,28.2767501 0.907428567,28.2097854 C0.66747201,28.1428208 0.480531915,28.0619065 0.346602674,27.9670399 C0.212673433,27.8721734 0.11780831,27.7633575 0.0620044599,27.640589 C-0.049603241,27.3838913 -0.0105411317,27.0128013 0.17919196,26.5273078 C0.368925051,26.0418143 0.469370475,25.7376878 0.480531246,25.6149194 C0.491692016,25.4363471 0.46937081,25.213135 0.41356696,24.9452765 C0.357763109,24.677418 0.301960096,24.4402552 0.246156246,24.233781 C0.190352395,24.0273067 0.165241039,23.8236257 0.170821424,23.6227319 C0.176401809,23.421838 0.234994973,23.2711699 0.346602674,23.1707229 C0.502853455,23.0367937 0.820930632,22.9586695 1.30084375,22.9363479 C1.78075686,22.9140264 2.11557494,22.8470628 2.30530803,22.7354551 C2.64013113,22.5345612 2.87450379,22.3392507 3.00843303,22.1495176 C3.14236227,21.9597845 3.20932589,21.6751891 3.20932589,21.2957229 C3.44370206,22.1104592 3.26513242,22.7019711 2.6736116,23.0702765 C2.31646696,23.2934919 1.85330195,23.3771964 1.28410267,23.3213926 C0.904636491,23.2879103 0.664683534,23.3437133 0.564236603,23.4888033 C0.419146592,23.6562149 0.447048098,23.974292 0.64794196,24.4430444 C0.6702635,24.510009 0.714905911,24.6104544 0.781870531,24.7443837 C0.848835152,24.8783129 0.896267713,24.9787583 0.924169638,25.0457229 C0.952071564,25.1126876 0.97718292,25.2075527 0.99950446,25.3303212 C1.021826,25.4530896 1.0274063,25.5758563 1.01624553,25.6986247 C1.01624553,25.8660363 0.921380409,26.139471 0.731647317,26.5189372 C0.541914225,26.8984034 0.463790007,27.1662579 0.497272317,27.3225087 C0.530754627,27.5122418 0.737225777,27.6573296 1.11669196,27.7577765 C1.33990736,27.8247411 1.81144282,27.9279767 2.5313125,28.0674863 C3.25118217,28.206996 3.80642215,28.3213921 4.1970491,28.4106783 C4.46490758,28.4776429 4.87784988,28.6004096 5.43588839,28.7789819 C5.99392689,28.9575542 6.45430175,29.0859011 6.81702678,29.1640265 C7.17975181,29.2421519 7.48945853,29.2644731 7.74615625,29.2309908 C8.22606936,29.1640262 8.5859988,29.0077777 8.82595535,28.7622408 C9.06591191,28.5167039 9.19425884,28.2488494 9.211,27.9586694 C9.22774115,27.6684894 9.18588889,27.3420417 9.08544196,26.9793167 C8.98499503,26.6165917 8.8789693,26.326416 8.7673616,26.108781 C8.6557539,25.891146 8.54414788,25.687465 8.43254017,25.4977319 C7.08208699,23.3771856 6.13901607,22.0267526 5.6032991,21.4463926 C4.84436674,20.6204956 4.21379269,20.3972835 3.71155803,20.7767497 C3.58878956,20.8771967 3.50508504,20.7934921 3.46044196,20.5256337 C3.42695965,20.3470613 3.41579905,20.1350099 3.42695982,19.8894729 C3.43812059,19.5658106 3.4939236,19.2756349 3.59437053,19.0189372 C3.69481746,18.7622395 3.82874469,18.4999654 3.99615625,18.2321069 C4.1635678,17.9642484 4.28633443,17.7298757 4.36445982,17.5289819 C4.45374598,17.2946057 4.60162396,16.892824 4.80809821,16.3236247 C5.01457246,15.7544255 5.17919135,15.319162 5.30195982,15.0178212 C5.42472829,14.7164804 5.59213733,14.376082 5.80419196,13.9966158 C6.01624659,13.6171496 6.23387834,13.3158133 6.45709375,13.0925979 C7.68477846,11.4966078 8.37673582,10.4084491 8.5329866,9.82808902 C8.39905736,8.57808277 8.30977254,6.84818935 8.26512946,4.63835687 C8.24280792,3.63388757 8.37673515,2.78847191 8.66691517,2.10208455 C8.9570952,1.41569719 9.54860714,0.832555702 10.4414687,0.352642588 C10.8767388,0.118266416 11.4570901,0.00108008803 12.1825402,0.00108008803 C12.774061,-0.0100806821 13.3655729,0.065253386 13.9570937,0.227084552 C14.5486146,0.388915719 15.0452614,0.620498224 15.4470491,0.921839017 C16.083213,1.39059136 16.5938106,2.06859797 16.9788571,2.9558792 C17.3639037,3.84316042 17.5285226,4.66625486 17.4727187,5.42518723 C17.4169149,6.48546039 17.5843239,7.67964488 17.9749509,9.00777652 C18.3544171,10.2689435 19.0965971,11.4854492 20.2015134,12.6573301 C20.8153557,13.3158155 21.3705957,14.2254046 21.86725,15.3861247 C22.3639043,16.5468448 22.6959322,17.6126824 22.8633437,18.5836694 C22.9526299,19.1305471 22.9805314,19.6020826 22.9470491,19.9982899 C22.9135668,20.3944972 22.8466032,20.704204 22.7461562,20.9274194 C22.6457093,21.1506348 22.5341033,21.2734014 22.4113348,21.2957229 C22.2997271,21.3180445 22.16859,21.4240702 22.0179196,21.6138033 C21.8672492,21.8035364 21.7165811,22.0016371 21.5659107,22.2081113 C21.4152403,22.4145856 21.1892381,22.6015257 20.8878973,22.7689372 C20.5865565,22.9363488 20.2461581,23.014473 19.866692,23.0033122 C19.6657981,22.9921515 19.4900186,22.96425 19.3393482,22.9196069 C19.1886778,22.8749638 19.063121,22.7996297 18.9626741,22.6936024 C18.8622272,22.5875751 18.7868931,22.5010804 18.7366696,22.4341158 C18.6864462,22.3671512 18.6222727,22.252755 18.5441473,22.0909238 C18.4660219,21.9290927 18.4157992,21.8202768 18.3934777,21.7644729 C18.1479407,21.3515245 17.9191484,21.1841154 17.7070937,21.2622408 C17.4950391,21.3403662 17.3387907,21.613801 17.2383437,22.0825533 C17.1378968,22.5513056 17.1769589,23.0925949 17.3555312,23.7064372 C17.5787466,24.4876911 17.5843269,25.5758499 17.3722723,26.9709462 C17.2606646,27.6963962 17.36111,28.2572165 17.6736116,28.6534238 C17.9861132,29.0496312 18.3934752,29.2337811 18.8957098,29.2058792 C19.3979445,29.1779773 19.8722701,28.9798766 20.3187009,28.6115712 C20.9771863,28.0646934 21.4766233,27.6936034 21.8170268,27.4982899 C22.1574303,27.3029764 22.7349915,27.0658136 23.5497277,26.7867944 C24.1412485,26.5859005 24.5709317,26.3822195 24.8387902,26.1757453 C25.1066487,25.969271 25.2098842,25.7767506 25.1485,25.5981783 C25.0871158,25.419606 24.9476082,25.2605674 24.7299732,25.1210578 C24.5123382,24.9815481 24.2249527,24.8504111 23.867808,24.7276426 C23.4995026,24.6048741 23.2232777,24.3370197 23.039125,23.9240712 C22.8549723,23.5111227 22.7712678,23.1065508 22.7880089,22.7103435 C22.8047501,22.3141361 22.8912448,22.0490718 23.0474955,21.9151426 C23.0586563,22.2611265 23.1032987,22.5764135 23.1814241,22.8610131 C23.2595495,23.1456128 23.3404639,23.371615 23.4241696,23.5390265 C23.5078754,23.7064381 23.6222716,23.8654767 23.7673616,24.0161471 C23.9124516,24.1668174 24.0296379,24.2728432 24.1189241,24.3342274 C24.2082103,24.3956116 24.3281867,24.4681556 24.4788571,24.5518613 C24.6295275,24.6355671 24.7216025,24.68858 24.7550848,24.7109015 Z" id=""></path>
                        <path d="M58.2956731,15.8293269 L58.2956731,27.5661058 L46,25.8713942 L46,15.8293269 L58.2956731,15.8293269 Z M58.2956731,2.43389423 L58.2956731,14.3149038 L46,14.3149038 L46,4.12860577 L58.2956731,2.43389423 Z M76,15.8293269 L76,30 L59.6478365,27.7463942 L59.6478365,15.8293269 L76,15.8293269 Z M76,0 L76,14.3149038 L59.6478365,14.3149038 L59.6478365,2.25360577 L76,0 Z" id=""></path>
                        <path d="M121.114183,21.9050481 C120.64543,23.4074594 119.906255,24.9098483 118.896635,26.4122596 C117.346146,28.7680406 115.80169,29.9459135 114.263221,29.9459135 C113.674276,29.9459135 112.832938,29.7536077 111.739183,29.3689904 C110.705524,28.9843731 109.798081,28.7920673 109.016827,28.7920673 C108.28365,28.7920673 107.430293,28.9903826 106.456731,29.3870192 C105.483168,29.7956751 104.689907,30 104.076923,30 C102.249991,30 100.441115,28.4435252 98.6502404,25.3305288 C96.8834046,22.1934939 96,19.1706876 96,16.2620192 C96,13.5216209 96.6790797,11.2740472 98.0372596,9.51923077 C99.3834202,7.78845288 101.090134,6.92307692 103.157452,6.92307692 C104.022841,6.92307692 105.086532,7.10336358 106.348558,7.46394231 C107.598564,7.82452103 108.427883,8.00480769 108.836538,8.00480769 C109.377407,8.00480769 110.236773,7.80048281 111.414663,7.39182692 C112.640631,6.98317103 113.680284,6.77884615 114.533654,6.77884615 C115.963949,6.77884615 117.243985,7.16946725 118.373798,7.95072115 C118.998801,8.38341562 119.623795,8.98437115 120.248798,9.75360577 C119.299274,10.5588983 118.614185,11.2680258 118.19351,11.8810096 C117.412256,13.010823 117.021635,14.2548009 117.021635,15.6129808 C117.021635,17.1033728 117.436294,18.4435037 118.265625,19.6334135 C119.094956,20.8233233 120.044466,21.5805272 121.114183,21.9050481 Z M114.335337,0.757211538 C114.335337,1.49038828 114.161059,2.3076878 113.8125,3.20913462 C113.451921,4.11058143 112.893033,4.93990006 112.135817,5.69711538 C111.486776,6.34615709 110.837744,6.77884507 110.188702,6.99519231 C109.743988,7.12740451 109.118994,7.22956695 108.313702,7.30168269 C108.34976,5.51080835 108.818505,3.96635264 109.719952,2.66826923 C110.609379,1.38220511 112.111768,0.492790925 114.227163,0 C114.239183,0.0360578726 114.254207,0.102162981 114.272236,0.198317308 C114.290265,0.294471635 114.305288,0.360576743 114.317308,0.396634615 C114.317308,0.444711779 114.320312,0.504807332 114.326322,0.576923077 C114.332332,0.649038822 114.335337,0.709134375 114.335337,0.757211538 Z" id=""></path>
                        <path d="M162.47844,14.5128994 C162.232164,11.7031147 159.874185,9.50018168 157.00037,9.50018168 C156.173067,9.50018168 155.387038,9.68380353 154.683137,10.0108303 L153.325182,7.57209936 C154.432945,7.02313882 155.680516,6.71452712 157.00037,6.71452712 C157.75285,6.71452712 158.482469,6.81538684 159.176104,7.00377122 C159.298236,7.78736555 159.760413,8.51063454 160.50051,8.93788607 C161.239971,9.3651376 162.097014,9.40397865 162.835841,9.11886207 C164.231367,10.5033814 165.136988,12.3810868 165.269492,14.4688725 L162.47844,14.5128994 Z M162.835841,20.8815613 C162.097014,20.5965505 161.239971,20.6353916 160.50051,21.0626431 C159.760413,21.4891538 159.298236,22.2124228 159.176104,22.9966521 C158.482469,23.185354 157.75285,23.2854729 157.00037,23.2854729 C155.680516,23.2854729 154.432945,22.9771787 153.325182,22.4277948 L154.683137,19.9890638 C155.387038,20.3166198 156.173067,20.5002417 157.00037,20.5002417 C159.874185,20.5002417 162.232164,18.2967795 162.47844,15.4876298 L165.269492,15.5309159 C165.136988,17.6187016 164.231367,19.4964069 162.835841,20.8815613 L162.835841,20.8815613 Z M162.821659,25.083062 C161.899211,25.6150891 160.720327,25.2989632 160.187559,24.3772556 C159.655003,23.454913 159.971129,22.2758173 160.893471,21.743261 C161.815814,21.2107047 162.994909,21.5260898 163.527466,22.4484324 C164.060022,23.3708809 163.744002,24.5503999 162.821659,25.083062 L162.821659,25.083062 Z M148.988002,17.1139796 C149.605225,16.6167719 150.000833,15.8547676 150.000833,14.9996296 C150.000833,14.1450207 149.605225,13.3830165 148.988002,12.8859146 C149.509552,10.9035394 150.746115,9.21252509 152.406014,8.10402063 L153.839005,10.4995714 C152.424747,11.4943044 151.500393,13.139281 151.500393,14.9996296 C151.500393,16.8611424 152.424747,18.5055898 153.839005,19.5009578 L152.406014,21.8964027 C150.746115,20.7872632 149.509552,19.0963547 148.988002,17.1139796 L148.988002,17.1139796 Z M147.286087,16.9284527 C146.221503,16.9284527 145.357899,16.0647421 145.357899,14.9996296 C145.357899,13.9349404 146.221503,13.0714414 147.286087,13.0714414 C148.35194,13.0714414 149.215439,13.9349404 149.215439,14.9996296 C149.215439,16.0647421 148.35194,16.9284527 147.286087,16.9284527 L147.286087,16.9284527 Z M160.187559,5.62306192 C160.720327,4.70103682 161.899846,4.38501674 162.821659,4.91757302 C163.744637,5.44949429 164.060022,6.62890748 163.527466,7.55146174 C162.995544,8.47369851 161.815814,8.78982442 160.893471,8.25726814 C159.971129,7.72460603 159.655003,6.54551035 160.187559,5.62306192 L160.187559,5.62306192 Z M157.00037,0 C148.715797,0 142,6.71547962 142,14.9996296 C142,23.2842029 148.715797,30 157.00037,30 C165.28505,30 172.000212,23.2842029 172.000212,14.9996296 C172.000212,6.71547962 165.28505,0 157.00037,0 L157.00037,0 Z" id="Fill-1"></path>
                        <path d="M199.618711,9.60437666 L203.827358,9.60437666 L203.827358,5.39572911 L199.618711,5.39572911 L199.618711,9.60437666 Z M204.906451,9.60437666 L209.115099,9.60437666 L209.115099,5.39572911 L204.906451,5.39572911 L204.906451,9.60437666 Z M194.438853,14.8921171 L198.647501,14.8921171 L198.647501,10.6834696 L194.438853,10.6834696 L194.438853,14.8921171 Z M204.906451,14.8921171 L209.115099,14.8921171 L209.115099,10.6834696 L204.906451,10.6834696 L204.906451,14.8921171 Z M199.618711,14.8921171 L203.827358,14.8921171 L203.827358,10.6834696 L199.618711,10.6834696 L199.618711,14.8921171 Z M215.266166,14.8921171 L219.474814,14.8921171 L219.474814,10.6834696 L215.266166,10.6834696 L215.266166,14.8921171 Z M210.086309,4.20864755 L214.294956,4.20864755 L214.294956,0 L210.086309,0 L210.086309,4.20864755 Z M210.086309,9.60437666 L214.294956,9.60437666 L214.294956,5.39572911 L210.086309,5.39572911 L210.086309,9.60437666 Z M210.086309,14.8921171 L214.294956,14.8921171 L214.294956,10.6834696 L210.086309,10.6834696 L210.086309,14.8921171 Z M228.215758,12.4100712 C227.999939,10.6834696 226.920846,9.28062234 225.517946,8.20147651 L224.978373,7.76978646 L224.546736,8.30935937 C223.683409,9.28062234 223.359654,11.0072239 223.46759,12.3021883 C223.575526,13.2734513 223.899227,14.2446614 224.4388,15 C224.007163,15.2158715 223.46759,15.4316901 223.035953,15.6475086 C222.06469,15.9712101 221.09348,16.0791458 220.12227,16.0791458 L192.172679,16.0791458 L192.064743,16.7266016 C191.848924,18.7770104 192.172679,20.9352491 193.035953,22.8777222 L193.467643,23.6331137 L193.467643,23.7409965 C196.057572,28.0575269 200.697857,30 205.769778,30 C215.481985,30 223.46759,25.7914053 227.244548,16.7266016 C229.726594,16.8345373 232.208587,16.1870816 233.395615,13.8129713 L233.71937,13.2734513 L233.179797,12.9496441 C231.776949,12.0863169 229.834476,11.978434 228.215758,12.4100712 L228.215758,12.4100712 Z M200.374102,24.1726337 C199.187021,24.1726337 198.107928,23.2014236 198.107928,22.014395 C198.107928,20.8273134 199.079138,19.8561033 200.374102,19.8561033 C201.669067,19.8561033 202.640277,20.8273134 202.640277,22.014395 C202.640277,23.2014236 201.561184,24.1726337 200.374102,24.1726337 L200.374102,24.1726337 Z" id="Fill-1"></path>
                        <g id="Page-1" transform="translate(304.000000, 0.000000)">
                            <path d="M28.774948,23.0335457 C28.774948,23.5619263 28.3511367,23.9844199 27.8240737,23.9844199 L20.4016574,23.9844199 L20.4016574,20.4044504 L23.0293823,20.4044504 C24.2286613,20.4037126 25.2004599,19.4312815 25.2004599,18.2320025 L25.2004599,6.01832069 L27.8240737,6.01832069 C28.3511367,6.01832069 28.774948,6.44218469 28.774948,6.96713936 L28.774948,23.0335457 Z M19.1855652,27.8309251 C19.1855652,28.3559325 18.7583279,28.7845401 18.2326354,28.7845401 L2.16902247,28.7845401 C1.64259202,28.7841711 1.2160927,28.3573556 1.2160927,27.8309251 L1.2160927,11.766627 C1.2160927,11.2443604 1.64195954,10.816438 2.16970765,10.816438 L4.79469183,10.816438 L4.79469183,18.2320025 C4.79469183,19.4310179 5.76606879,20.4033436 6.96508423,20.4044504 L9.59481198,20.4044504 L9.59481198,23.0335457 C9.59560257,24.2296623 10.5642915,25.1996162 11.7604608,25.2018826 L19.1855652,25.2018826 L19.1855652,27.8309251 Z M18.2319502,9.59897536 L10.8088487,9.59897536 L10.8088487,6.96713936 C10.8096393,6.44265905 11.2352426,6.01795174 11.7597229,6.01832069 L23.9816269,6.01832069 L23.9816269,18.2320025 C23.9816269,18.7604358 23.5537045,19.187673 23.0293823,19.187673 L20.4016574,19.187673 L20.4016574,11.7673122 C20.3986532,10.5705104 19.4288047,9.60118902 18.2319502,9.59897536 L18.2319502,9.59897536 Z M6.01215447,18.2313173 L6.01215447,10.816438 L9.59481198,10.816438 L9.59481198,19.187673 L6.96508423,19.187673 C6.43870649,19.187673 6.01215447,18.7604358 6.01215447,18.23137 L6.01215447,18.2313173 Z M10.8088487,19.187673 L10.8088487,10.816438 L18.2326354,10.816438 C18.7583279,10.816438 19.1855652,11.2443604 19.1855652,11.766627 L19.1855652,19.187673 L10.8088487,19.187673 Z M10.8088487,23.0342309 L10.8088487,20.4044504 L19.1855652,20.4044504 L19.1855652,23.9844199 L11.7597229,23.9844199 C11.2349791,23.9847889 10.8092704,23.5596599 10.8088487,23.0348634 L10.8088487,23.0342309 Z M6.01215447,2.17044511 C6.01289236,1.64564856 6.43891732,1.22083585 6.96371387,1.22157374 C6.96413552,1.22162644 6.96460988,1.22162644 6.96508423,1.22162644 L23.0293823,1.22162644 C23.5537045,1.22162644 23.9816269,1.64612292 23.9816269,2.17044511 L23.9816269,4.80154322 L11.7604608,4.80154322 C10.5651875,4.80344065 9.59670941,5.77191877 9.59481198,6.96713936 L9.59481198,9.59897536 L6.01215447,9.59897536 L6.01215447,2.17044511 Z M27.8247589,4.80154322 L25.2004599,4.80154322 L25.2004599,2.17044511 C25.1978246,0.972589211 24.2272382,0.00226637057 23.0293823,0 L6.96508423,0 C5.76717562,0.00195013281 4.79653655,0.972536504 4.79469183,2.17044511 L4.79469183,9.59897536 L2.16902247,9.59897536 C0.972009862,9.60050384 0.00184514114,10.5702996 4.20912441e-07,11.7673122 L4.20912441e-07,27.8316103 C-0.000737467179,29.0284121 0.968794779,29.9992093 2.16559656,29.9999999 L2.16902247,29.9999999 L18.2319502,29.9999999 C19.4299115,30.0003688 20.4012885,29.0295716 20.4016574,27.8316103 L20.4016574,25.2018826 L27.8247589,25.2018826 C29.0223513,25.2015136 29.9933593,24.2311381 29.9944662,23.0335457 L29.9944662,6.96713936 C29.9918308,5.77060111 29.0212972,4.80191217 27.8247589,4.80154322 L27.8247589,4.80154322 Z" id="Fill-1"></path>
                        </g>
                        <path d="M282.867306,-1.52469238e-05 L279.375349,1.49999238 L282.609359,2.88296461 L286.359309,1.49999238 L282.867306,-1.52469238e-05 Z M271.879031,-1.52469238e-05 L268.362999,1.50002287 L271.620977,2.88301035 L275.370973,1.50002287 L271.879031,-1.52469238e-05 Z M283.500297,3.63297605 L283.500297,10.2419992 L288.11731,8.36699346 L288.11731,1.87497522 L283.500297,3.63297605 Z M277.500297,8.62498666 L282.609313,10.8749752 L282.609313,3.86773293 L277.617272,1.87497522 L277.500297,8.62498666 Z M267.00401,8.7427539 L271.363045,10.0087517 L271.504002,3.86773293 L267.00401,1.99277296 L267.00401,8.7427539 Z M276.754037,2.36772531 L272.629058,4.12575663 L272.629058,10.7587784 L276.754098,8.88378795 L276.754098,2.36772531 L276.754037,2.36772531 Z M266.617028,9.25125406 L263.125025,10.7512464 L266.35905,12.1342644 L270.109031,10.7512464 L266.617043,9.25125406 L266.617028,9.25125406 Z M251.875006,11.0002592 L255.109016,12.3832772 L258.859012,11.0002592 L255.367009,9.50025157 L251.875006,11.0002592 Z M267.250019,12.8842758 L267.250019,19.4932837 L271.867032,17.618278 L271.867032,11.126275 L267.250019,12.8842758 Z M261.249989,17.8762712 L266.359004,20.126275 L266.359004,13.1190327 L261.366993,11.126275 L261.249989,17.8762712 Z M256.00003,13.1332581 L256.00003,19.742266 L260.617043,17.8672603 L260.617043,11.3752573 L256.00003,13.1332581 Z M250,18.1252992 L255.109016,20.375303 L255.109016,13.3672679 L250.117005,11.3752573 L250,18.1252992 Z M257.629027,20.6250019 L260.863037,22.0080351 L264.613048,20.6250019 L261.12103,19.1250095 L257.629027,20.6250019 Z M261.753991,22.7580008 L261.753991,29.3670544 L266.371034,27.4920487 L266.371034,21 L261.753991,22.7580008 Z M255.753991,27.7500114 L260.863006,30 L260.863006,22.9920564 L255.870996,21 L255.753991,27.7500114 Z" id="Page-1"></path>
                        <g id="Page-1" transform="translate(352.000000, 0.000000)">
                            <g id="Group-8">
                                <path d="M31.6054456,17.9460941 C31.1604423,19.0383345 30.3910093,19.8502728 29.4011233,20.4692278 C28.4423233,21.0687425 27.3896713,21.4294396 26.2920379,21.6742934 C24.9629363,21.9708403 23.6137638,22.041441 22.2574953,22.0304633 C21.1657406,22.021616 20.0787662,21.9476124 19.0022132,21.7607246 C17.70206,21.5349856 16.4278266,21.2046771 15.1735454,20.7965183 C13.0701712,20.1120519 11.0466946,19.244426 9.11558548,18.1665365 C7.93363069,17.5068071 6.80001226,16.7741688 5.76181956,15.9029626 C5.09585844,15.3441041 4.47223618,14.7439384 3.99911579,14.0065363 C3.7861745,13.6746299 3.61860052,13.3231944 3.55630955,12.929209 C3.47474935,12.4135217 3.60411148,11.9551198 3.96981113,11.5833562 C4.52092884,11.0231365 5.19351097,10.6786249 5.98161939,10.6275533 C7.05835054,10.5577515 8.13766478,10.5277772 9.21591016,10.4810257 C9.22653941,10.4805522 9.23734681,10.4840142 9.25890221,10.4872395 C9.23696083,10.6917627 9.22612374,10.8972032 9.19132631,11.0985604 C9.05709491,11.8750207 9.33511809,12.4883241 9.9027438,13.0101957 C10.4336125,13.4982464 11.0506731,13.8459832 11.6925254,14.1537445 C13.4531212,14.9978467 15.2873497,15.6360645 17.1927764,16.0676878 C17.6772386,16.1774356 18.1660653,16.2694297 18.6662636,16.257653 C18.7864513,16.254842 18.9103207,16.2329457 19.0245406,16.195574 C19.1748346,16.1463666 19.2142638,16.0375656 19.1427984,15.8971335 C19.1031317,15.8191945 19.0546172,15.7386516 18.9902182,15.6815437 C18.7093447,15.4324882 18.5569426,15.1045467 18.4140416,14.7714272 C18.29038,14.4832246 18.1773775,14.1904356 18.0614355,13.8989782 C17.9032438,13.5012941 17.6403034,13.2170861 17.2259705,13.0675107 C16.5008656,12.8057612 15.7572932,12.6102332 15.0110486,12.4224873 C14.2615974,12.2339129 13.501695,12.0852548 12.7707411,11.8264938 C12.127434,11.5987428 11.4987643,11.3403073 10.9183419,10.9776573 C10.6661793,10.8200927 10.4274962,10.6451887 10.2507181,10.4000094 C10.0594807,10.1347387 9.98659017,9.83280655 9.98151307,9.51282474 C9.97331846,8.99568751 10.0686551,8.4904157 10.1785402,7.98857629 C10.3694807,7.11630482 10.5598571,6.24341197 10.861514,5.40010871 C11.0181916,4.96197568 11.2358537,4.56585986 11.6305314,4.2886646 C12.0934085,3.9635638 12.5994855,3.81517201 13.1687442,3.85860953 C14.0080986,3.9226414 14.8483438,3.97640568 15.6888562,4.02297969 C16.2105208,4.05188872 16.735392,4.09488239 17.255097,4.06552952 C17.6949936,4.04067426 18.134326,3.94107571 18.565256,3.83848861 C19.2133137,3.68417891 19.8653796,3.56585014 20.5316376,3.57117627 C21.4799864,3.57878079 22.3563948,3.82762923 23.0989281,4.43977863 C23.2795363,4.58867343 23.434848,4.77479194 23.576413,4.9627746 C24.1265212,5.69331194 24.5392211,6.50320856 24.9184597,7.33056303 C25.4528022,8.49630403 25.9106022,9.69101324 26.2626145,10.9244848 C26.4024871,11.4145772 26.5226155,11.9088416 26.5720207,12.4185519 C26.608362,12.7936887 26.4957454,13.136129 26.3543586,13.4700771 C26.2263622,13.7722755 26.0721193,14.0633483 25.9336719,14.3612859 C25.8880077,14.4595233 25.8555558,14.5638858 25.8067147,14.6927189 C26.0211999,14.655939 26.1591723,14.5548314 26.2916223,14.4494629 C26.6568172,14.1589523 26.9704691,13.823791 27.2032438,13.4148333 C27.286526,13.2685424 27.399202,13.1382594 27.5037427,13.0047808 C27.6084023,12.8710655 27.7489578,12.8590521 27.9054868,12.8945004 C28.3849313,13.0030646 28.835754,13.189627 29.2805793,13.391783 C29.7528386,13.6063667 30.2183879,13.8352718 30.6274656,14.1589227 C31.2770374,14.6728642 31.7270585,15.3132421 31.8547283,16.1472247 C31.950154,16.7703814 31.8411003,17.3676768 31.6054456,17.9460941 M35.0465317,16.1508642 C35.0174646,15.233291 34.8841239,14.3270803 34.6809806,13.4314331 C34.3738012,12.0772656 33.8648442,10.7969833 33.2454677,9.55809681 C32.2045434,7.47605503 30.7868449,5.68697977 29.009474,4.1815207 C27.3230752,2.75305375 25.4272386,1.68735514 23.3472606,0.937732514 C21.6943825,0.342034926 19.9975623,0.00213932722 18.2355117,0.0160760232 C17.523352,0.0217276346 16.8101827,0.0115488162 16.0993888,0.0469083741 C15.4932543,0.0770601644 14.8827553,0.123042384 14.2866563,0.230570948 C12.7906932,0.500457581 11.3527754,0.964215196 9.98445245,1.63134205 C8.68091447,2.26686722 7.46567647,3.04084208 6.33971823,3.9530299 C5.15292386,4.9144548 4.10956498,6.01205098 3.21768777,7.25040483 C1.90485662,9.07324182 0.99691677,11.0833217 0.433388373,13.2522977 C0.223831817,14.0588803 0.0753489129,14.8741326 0.041857868,15.7083223 C0.0318224308,15.9590645 0.0141564984,16.2095107 -5.93812853e-06,16.4600458 L-5.93812853e-06,18.5904961 C0.00587280912,18.6374252 0.0158785557,18.6842359 0.0169771095,18.7312538 C0.0314067618,19.3527535 0.0620771957,19.9751409 0.196843023,20.5822601 C0.372492865,21.3735448 0.583682406,22.157018 0.777057562,22.9444561 C0.793387415,23.0110918 0.822484245,23.0317158 0.890416435,23.0303251 C1.37624442,23.0203238 1.86275529,23.0263601 2.34793008,23.0039607 C3.05474552,22.9712642 3.74380596,22.8366908 4.40932171,22.591038 C4.69331271,22.4862317 4.97635361,22.3772828 5.26527325,22.2876264 C5.41565635,22.2409044 5.57744067,22.2290686 5.73480107,22.2066101 C6.15780366,22.1463361 6.49072483,22.3087534 6.774508,22.6131119 C7.05986476,22.9190682 7.35724624,23.2139285 7.64937247,23.5135822 C7.97733531,23.8499566 8.38430495,23.9874003 8.8461429,23.9778724 C9.03625208,23.9739666 9.22342189,23.9447025 9.38710641,23.8359312 C9.58549928,23.7041096 9.616526,23.5002669 9.45417757,23.3271974 C9.38208869,23.2503532 9.28767245,23.1940738 9.20228216,23.1299532 C9.09898841,23.0523989 8.98414501,22.9870651 8.89228216,22.89803 C8.36316521,22.384917 7.96254937,21.7801058 7.63898075,21.1222405 C7.51137037,20.8627694 7.44358663,20.5973508 7.4769886,20.299502 C7.54545522,19.688832 8.00174102,19.1556277 8.57634403,19.0573606 C9.14934374,18.9593599 9.64966076,19.1313346 10.0790468,19.5020922 C10.4176983,19.7945261 10.6672482,20.1648989 10.9140962,20.5349463 C11.0351746,20.7164784 11.1607363,20.8968566 11.3532208,21.013913 C11.5384607,21.1265901 11.873668,21.1007288 11.9915993,20.9443775 C12.1209317,20.7729058 12.2667425,20.7830846 12.4088716,20.8754041 C12.6004356,20.9998579 12.7914652,21.1313836 12.9582969,21.2860484 C13.3982825,21.6939113 13.8214039,22.1197647 14.2579751,22.5313854 C15.0663919,23.2936724 16.0184224,23.6668859 17.1379971,23.5390884 C17.7519996,23.4689611 18.3652598,23.3846308 18.9741259,23.279499 C19.5333788,23.1829186 20.0752033,23.1517607 20.6015887,23.4190139 C20.8894395,23.5651865 21.1858115,23.5405679 21.4838462,23.4226238 C21.6963718,23.3385302 21.9154887,23.2665387 22.1371591,23.2108511 C22.4327888,23.1366404 22.716661,23.2341085 22.9996426,23.3065143 C23.4567597,23.4235115 23.9189539,23.4865965 24.3849189,23.379571 C24.676481,23.3125801 24.9599672,23.2111174 25.2491541,23.1328234 C25.355892,23.1039144 25.4686273,23.0971088 25.5913091,23.0782602 C25.5843912,23.1542463 25.58546,23.1992816 25.5755433,23.2417723 C25.5035435,23.5505692 25.4376006,23.8610823 25.3539918,24.166802 C25.2059839,24.7082618 25.0654581,25.2509941 25.0017123,25.8098526 C24.9692901,26.0940606 24.9338989,26.3810796 24.7887413,26.6297801 C24.5620236,27.0182618 24.3204605,27.3988727 24.0696933,27.77253 C23.3940531,28.7793157 22.71004,29.7805978 22.030154,30.7846021 C22.0073813,30.8182455 21.9931892,30.8576884 21.9618061,30.9211285 C22.0797968,30.9067479 22.1680967,30.9011555 22.2542293,30.8845853 C22.7090306,30.7970889 23.1260356,30.6368909 23.4656966,30.303002 C23.7718962,30.0019871 24.0941881,29.7171873 24.4092355,29.4250789 C24.804507,29.0585823 25.224214,28.7262024 25.7223339,28.5063222 C25.9421337,28.4092683 26.1642791,28.317511 26.3865432,28.2261384 C26.6654571,28.1114491 26.8413148,27.9200637 26.8763795,27.610527 C26.8986771,27.4136379 27.0161333,27.2771707 27.1960883,27.2036406 C27.3635732,27.135259 27.5351851,27.0745708 27.7090832,27.0247419 C28.3104078,26.8524122 28.9281216,26.7750946 29.5502891,26.7372791 C30.0989127,26.7039908 30.6478927,26.7095536 31.1949428,26.776071 C31.4487978,26.806933 31.7028013,26.836848 31.9573688,26.8611707 C32.2381236,26.8880084 32.4676322,26.7945053 32.628704,26.5560724 C32.663828,26.5040539 32.7034056,26.4539292 32.7309585,26.3980344 C33.0519738,25.7458503 33.3862607,25.0996137 33.6878286,24.4385823 C34.5592192,22.5287519 35.0065088,20.5175476 35.0659494,18.4235517 C35.0874158,17.6667092 35.0705812,16.9079434 35.0465317,16.1508642" id="Fill-1"></path>
                                <path d="M21.016572,25.316163 C20.9843136,25.140402 20.9126736,25.1027659 20.8004329,25.2133756 C20.7155211,25.297019 20.6404683,25.3971305 20.5629779,25.492473 C20.3887394,25.7067622 20.1827573,25.8091037 19.9433792,25.7386003 C19.8037555,25.6974647 19.6712281,25.6177667 19.5353963,25.5557374 C19.3774902,25.4836215 19.2232135,25.3907148 19.0606487,25.3449133 C18.8202414,25.2771203 18.5760151,25.2797963 18.3481752,25.4279736 C18.1990176,25.5249629 18.1071991,25.7499906 18.1380219,25.9265751 C18.1697928,26.1085116 18.2995575,26.239226 18.4758002,26.2518857 C18.7556164,26.2719903 19.0060993,26.3994454 19.2516799,26.5596648 C19.421991,26.6707549 19.598965,26.7674698 19.7774829,26.8558821 C19.9586281,26.9455981 20.1360084,26.9094372 20.3023109,26.7843837 C20.5789581,26.5763043 20.7991057,26.2964178 20.9465841,25.9342601 C20.9978562,25.8083146 21.0207431,25.6638426 21.0566038,25.5278105 C21.0516472,25.5246542 21.0466906,25.5214635 21.0417341,25.5183071 C21.0335544,25.4508572 21.0287332,25.3824465 21.016572,25.316163" id="Fill-4"></path>
                                <path d="M17.306292,7.31276102 C17.1567783,7.25255972 17.0054928,7.18657443 16.8461565,7.154789 C16.2809573,7.04202765 15.7055315,7.06044091 15.1307274,7.07922563 C14.7080169,7.09307537 14.2850267,7.10894156 13.8621919,7.10825172 C13.54927,7.10774761 13.2576716,7.02770032 13.0111759,6.85516219 C12.879349,6.76285707 12.7544226,6.66330869 12.6272583,6.56617474 C12.3525073,6.35638556 12.0298872,6.40003083 11.844658,6.67028663 C11.7459665,6.81430278 11.7042519,6.96996651 11.6985635,7.13443889 C11.6900465,7.35606138 11.8033475,7.53923888 11.9536072,7.70790333 C12.2368751,8.02589034 12.5643755,8.30848356 12.9273737,8.55984851 C13.0256611,8.62790331 13.1374389,8.68518607 13.2515169,8.73241318 C13.4282291,8.8056152 13.6021748,8.78200164 13.7280958,8.65517829 C13.9132629,8.46868428 14.1563392,8.37505256 14.4184079,8.30792639 C15.0607574,8.14337441 15.7274457,8.10076388 16.387482,8.02313101 C16.6935344,7.9871535 17.0007059,7.94043051 17.2972155,7.86826324 C17.5667443,7.80262287 17.6188721,7.61867594 17.4508013,7.42515092 C17.4124126,7.380975 17.3628959,7.33555208 17.306292,7.31276102" id="Fill-6"></path>
                                <path d="M21.8760944,5.08103854 C21.4649821,4.83376338 21.0056051,4.74212128 20.5342338,4.69780025 C20.0734474,4.65449808 19.6141279,4.69069643 19.1609638,4.76793277 C18.8624593,4.81881989 18.5698801,4.90706573 18.27825,4.99075495 C18.22104,5.00717014 18.1803689,5.07934042 18.1320755,5.12581241 C18.1949806,5.13670871 18.2619988,5.16719003 18.3201005,5.15535977 C18.6727085,5.08347252 19.028049,5.07387812 19.3811748,5.12490674 C19.6527569,5.16419001 19.9247417,5.22000169 20.1864005,5.30046447 C20.3991906,5.36589885 20.4408972,5.54759812 20.2840228,5.70668404 C20.1723065,5.82000552 20.0280591,5.90850608 19.885221,5.9840443 C19.7638116,6.04823339 19.620312,6.07067693 19.4931787,6.12626219 C19.4293819,6.15416803 19.3802831,6.21467785 19.3245113,6.26041399 C19.3888546,6.29799913 19.4494874,6.35797121 19.5182027,6.36898072 C19.7372632,6.40413189 19.9593438,6.42108482 20.0780783,6.43396226 C20.6367746,6.4234905 21.083467,6.36818826 21.511751,6.20689478 C21.7424606,6.12000743 21.9537838,6.00292178 22.1166698,5.81587342 C22.2654331,5.64507044 22.2635922,5.43342758 22.1072642,5.26913408 C22.0393543,5.19778457 21.9607158,5.13192566 21.8760944,5.08103854" id="Fill-8"></path>
                            </g>
                        </g>
                    </g>
                </g>
            </g>
        </g>
    </g>
</svg>