<svg xmlns="http://www.w3.org/2000/svg" viewBox="0 0 938.93 100.47"><defs><style>.cls-1{fill:#405364;}.cls-2{fill:#ee9721;}</style></defs><title>Chef Inspec</title><g id="Layer_2" data-name="Layer 2"><g id="Layer_1-2" data-name="Layer 1"><path class="cls-1" d="M0,50.53H0A49.62,49.62,0,0,1,48.79.07c.61,0,1.23,0,1.84,0a50.09,50.09,0,0,1,38.27,15L75.28,30.74a35.83,35.83,0,0,0-24.82-11A28.73,28.73,0,0,0,22,48.72c0,.42,0,.84,0,1.26v.28A28.83,28.83,0,0,0,49.19,80.71l1,0A35,35,0,0,0,75.72,69.39L89.29,83.12a49.67,49.67,0,0,1-39.65,17.32A49,49,0,0,1,0,52.14c0-.54,0-1.07,0-1.61"/><polygon class="cls-1" points="106.65 1.73 127.99 1.73 127.99 40.33 167.36 40.33 167.36 1.73 188.71 1.73 188.71 98.78 167.36 98.78 167.36 59.85 127.99 59.85 127.99 98.78 106.65 98.78 106.65 1.73"/><polygon class="cls-1" points="211.97 1.73 285.2 1.73 285.2 20.75 233.2 20.75 233.2 40.44 278.97 40.44 278.97 59.41 233.2 59.41 233.2 79.81 285.87 79.81 285.87 98.78 211.97 98.78 211.97 1.73"/><polygon class="cls-1" points="304.89 1.73 378.78 1.73 378.78 21.14 326.23 21.14 326.23 41.82 372.55 41.82 372.55 61.23 326.23 61.23 326.23 98.78 304.89 98.78 304.89 1.73"/><path class="cls-2" d="M431.75,98.73H418.24v-97h13.51Z"/><path class="cls-2" d="M523.24,79.32h.27V1.73h13.57V98.78H519.94L468.68,19.55h-.28V98.78H454.83v-97h17.69Z"/><path class="cls-2" d="M610.16,20.27a21,21,0,0,0-7.64-6.36,23.4,23.4,0,0,0-10.85-2.48,25.27,25.27,0,0,0-6.5.87,17.83,17.83,0,0,0-6,2.82,15.58,15.58,0,0,0-4.35,4.82,13.46,13.46,0,0,0-1.68,6.9,12.68,12.68,0,0,0,1.54,6.5,14,14,0,0,0,4.16,4.42A26.46,26.46,0,0,0,585,40.85q3.56,1.27,7.58,2.61,4.82,1.47,9.78,3.35a35,35,0,0,1,9,5,22.73,22.73,0,0,1,9.11,19.43A28.05,28.05,0,0,1,617.73,84a26.16,26.16,0,0,1-7.3,9,31.11,31.11,0,0,1-10.52,5.29A43.61,43.61,0,0,1,587.65,100a44.81,44.81,0,0,1-17.36-3.48,34.4,34.4,0,0,1-13.87-10.32l10.32-8.71a25.35,25.35,0,0,0,9,8,25,25,0,0,0,12.2,3.08,24.62,24.62,0,0,0,6.7-.94,18.69,18.69,0,0,0,6.09-2.94,16.31,16.31,0,0,0,4.49-5,14.37,14.37,0,0,0,1.74-7.3,13.29,13.29,0,0,0-1.8-7.17,16,16,0,0,0-4.9-4.9,32.23,32.23,0,0,0-7.17-3.41q-4.08-1.41-8.64-2.88a75.07,75.07,0,0,1-9-3.29,30.87,30.87,0,0,1-7.9-5,22.64,22.64,0,0,1-5.63-7.43,25.09,25.09,0,0,1-2.15-11,24.41,24.41,0,0,1,2.88-12.2,26.28,26.28,0,0,1,7.51-8.44,31.38,31.38,0,0,1,10.45-4.89A45.64,45.64,0,0,1,592.34.31a40.67,40.67,0,0,1,15.54,2.95,30.91,30.91,0,0,1,11.66,7.9Z"/><path class="cls-2" d="M643.18,1.84h29.46a59.43,59.43,0,0,1,14.18,1.57,30.73,30.73,0,0,1,10.91,4.84,21.93,21.93,0,0,1,6.95,8.32,27.45,27.45,0,0,1,2.46,12.13,26.9,26.9,0,0,1-2.66,12.41,22.89,22.89,0,0,1-7.36,8.46,33.14,33.14,0,0,1-11.19,4.84A59.53,59.53,0,0,1,672,56H656.68v42.4h-13.5Zm13.5,42.68H671a43,43,0,0,0,9.07-.89,22.78,22.78,0,0,0,7.16-2.72,12.79,12.79,0,0,0,4.63-4.84,15.12,15.12,0,0,0,1.64-7.37,14.35,14.35,0,0,0-1.7-7.29,13.78,13.78,0,0,0-4.64-4.78,20,20,0,0,0-7-2.59,50.16,50.16,0,0,0-8.87-.75H656.68Z"/><path class="cls-2" d="M743.35,86.37h50.5v12h-64V1.76h64V13.63h-50.5V42.57h45.58v11.6H743.35Z"/><path class="cls-2" d="M895.48,83.16a42.71,42.71,0,0,1-14.71,12.48q-9,4.8-21.73,4.8a53.64,53.64,0,0,1-20.19-3.72,46.79,46.79,0,0,1-15.92-10.39A47.68,47.68,0,0,1,812.46,70.4a53.2,53.2,0,0,1-3.78-20.32,52.66,52.66,0,0,1,3.85-20.45,46.31,46.31,0,0,1,10.66-15.79,48.55,48.55,0,0,1,16.14-10.2A55.3,55.3,0,0,1,859.58,0a52.89,52.89,0,0,1,9.85,1A48.79,48.79,0,0,1,879,3.78a39.77,39.77,0,0,1,8.38,4.66,30.54,30.54,0,0,1,6.48,6.41L883.33,23a26.21,26.21,0,0,0-9.92-8,30.67,30.67,0,0,0-13.83-3.18,36.08,36.08,0,0,0-15.06,3,34,34,0,0,0-11.4,8.31,37.57,37.57,0,0,0-7.29,12.21,42.42,42.42,0,0,0-2.57,14.78,44.62,44.62,0,0,0,2.5,15.12,36.28,36.28,0,0,0,7.15,12.22,33.05,33.05,0,0,0,11.34,8.17,36.37,36.37,0,0,0,14.92,3,33.05,33.05,0,0,0,14.72-3.24,28.39,28.39,0,0,0,10.93-9.45Z"/><path class="cls-2" d="M911.6,18.9h-1.89V2h-6.23V.31h14.34V2H911.6Z"/><path class="cls-2" d="M929.79,15.69h0L936,.31h2.89V18.9H937V2.75h0L930.27,18.9h-1L922.55,2.75h-.06V18.9H920.6V.31h2.89Z"/></g></g></svg>