<svg xmlns="http://www.w3.org/2000/svg" xmlns:xlink="http://www.w3.org/1999/xlink" viewBox="0 0 123 106.27"><defs><style>.cls-1{fill:url(#linear-gradient);}.cls-2{fill:#abc6d3;}.cls-3{opacity:0.4;fill:url(#linear-gradient-2);}</style><linearGradient id="linear-gradient" x1="32.49" y1="-8.15" x2="89.4" y2="90.43" gradientUnits="userSpaceOnUse"><stop offset="0" stop-color="#63ce99"/><stop offset="0.18" stop-color="#54c2b6"/><stop offset="0.34" stop-color="#4bbaca"/><stop offset="0.46" stop-color="#47b7d1"/><stop offset="0.55" stop-color="#4babd5"/><stop offset="0.73" stop-color="#548ae1"/><stop offset="0.95" stop-color="#625af2"/></linearGradient><linearGradient id="linear-gradient-2" x1="23.35" y1="27.21" x2="53.28" y2="79.06" xlink:href="#linear-gradient"/></defs><title>bugs</title><g id="Layer_2" data-name="Layer 2"><g id="polys"><path class="cls-1" d="M2.76,23.25H27.41L15.09,1.9Zm3.53-2L15.09,6l8.79,15.23ZM107.95,39.65,95.62,61h24.65Zm0,4.08L116.74,59H99.15ZM49.25,99.38H73.9L61.58,78Zm3.53-2,8.79-15.23,8.79,15.23Z"/><path class="cls-2" d="M46.94,15a14.61,14.61,0,1,1,.48,3.8A14.66,14.66,0,0,1,46.94,15Zm28,.21a13.46,13.46,0,0,0-.44-3.49,13.29,13.29,0,0,0-6.19-8.16h0a13.38,13.38,0,0,0-19.7,14.93,13.38,13.38,0,0,0,26.32-3.29Z"/><path class="cls-2" d="M61.48,30.14A15.08,15.08,0,0,1,46.93,18.89,15,15,0,0,1,48.5,7.46a15.06,15.06,0,1,1,26,15.22,15,15,0,0,1-9.19,7A15.14,15.14,0,0,1,61.48,30.14ZM61.53,1a14.15,14.15,0,0,0-3.58.46A14.08,14.08,0,0,0,47.44,15h0a14.13,14.13,0,0,0,.46,3.67A14.06,14.06,0,1,0,68.61,2.93,14,14,0,0,0,61.53,1Zm0,28a13.88,13.88,0,0,1-12-20.89,13.89,13.89,0,0,1,25.86,7.11h0A13.91,13.91,0,0,1,61.48,29Zm0-26.76a13,13,0,0,0-3.28.42A12.88,12.88,0,0,0,55,26.18a12.88,12.88,0,0,0,19.38-11A13,13,0,0,0,74,11.81,12.89,12.89,0,0,0,61.53,2.19Z"/><path class="cls-2" d="M.5,15A14.57,14.57,0,0,1,22.42,2.5a14.56,14.56,0,0,1-3.67,26.66A14.56,14.56,0,0,1,1,18.76,14.66,14.66,0,0,1,.5,15Zm28,.21A13.46,13.46,0,0,0,28,11.68a13.29,13.29,0,0,0-6.19-8.16h0A13.38,13.38,0,0,0,2.13,18.46a13.38,13.38,0,0,0,24.49,3.37A13.3,13.3,0,0,0,28.45,15.17Z"/><path class="cls-2" d="M15,30.14A15.08,15.08,0,0,1,.5,18.89,15,15,0,0,1,2.07,7.46a15.06,15.06,0,0,1,27.58,3.79A15.06,15.06,0,0,1,18.89,29.64,15.14,15.14,0,0,1,15,30.14ZM15.09,1a14.15,14.15,0,0,0-3.58.46A14.08,14.08,0,0,0,1,15H1a14.13,14.13,0,0,0,.46,3.67,14.06,14.06,0,0,0,25.74,3.54A14.07,14.07,0,0,0,15.09,1Zm0,28a13.88,13.88,0,0,1-12-20.89A13.89,13.89,0,0,1,29,15.17h0A13.91,13.91,0,0,1,15,29Zm0-26.76a13,13,0,0,0-3.28.42A12.88,12.88,0,0,0,8.57,26.18,12.88,12.88,0,0,0,28,15.17a13,13,0,0,0-.42-3.36A12.89,12.89,0,0,0,15.09,2.19Z"/><path class="cls-2" d="M93.36,52.72a14.61,14.61,0,1,1,.48,3.8A14.66,14.66,0,0,1,93.36,52.72Zm28,.21a13.46,13.46,0,0,0-.44-3.49,13.29,13.29,0,0,0-6.19-8.16h0a13.36,13.36,0,1,0,6.63,11.64Z"/><path class="cls-2" d="M107.9,67.9A15.08,15.08,0,0,1,93.36,56.64a15.23,15.23,0,0,1-.5-3.93h0a15,15,0,1,1,15,15.18Zm-14-15.18a14.23,14.23,0,0,0,.46,3.67,14,14,0,1,0-.46-3.67Zm14,14a13.88,13.88,0,1,1,13.45-17.4,14,14,0,0,1,.46,3.62h0a13.91,13.91,0,0,1-13.91,13.78Zm0-26.76a13,13,0,0,0-3.28.42,12.87,12.87,0,1,0,16.14,12.55,13,13,0,0,0-.42-3.36A12.89,12.89,0,0,0,108,39.95Z"/><path class="cls-2" d="M46.94,52.72a14.61,14.61,0,1,1,.48,3.8A14.66,14.66,0,0,1,46.94,52.72Zm28,.21a13.46,13.46,0,0,0-.44-3.49,13.29,13.29,0,0,0-6.19-8.16h0a13.36,13.36,0,1,0,6.63,11.64Z"/><path class="cls-2" d="M61.48,67.9A15.08,15.08,0,0,1,46.93,56.64,15,15,0,0,1,48.5,45.22,15.06,15.06,0,1,1,65.32,67.4,15.15,15.15,0,0,1,61.48,67.9Zm0-29.14a14.15,14.15,0,0,0-3.58.46,14.08,14.08,0,0,0-10.51,13.5h0a14.13,14.13,0,0,0,.46,3.67A14.06,14.06,0,1,0,61.53,38.76Zm0,28a13.86,13.86,0,1,1,13.9-13.78h0a13.91,13.91,0,0,1-13.9,13.78Zm0-26.76a13,13,0,0,0-3.28.42A12.87,12.87,0,1,0,74.39,52.93,13,13,0,0,0,74,49.57a12.89,12.89,0,0,0-12.43-9.62Z"/><path class="cls-2" d="M46.94,91.09a14.61,14.61,0,1,1,.48,3.8A14.66,14.66,0,0,1,46.94,91.09Zm28,.21a13.46,13.46,0,0,0-.44-3.49,13.29,13.29,0,0,0-6.19-8.16h0A13.36,13.36,0,1,0,74.89,91.3Z"/><path class="cls-2" d="M61.48,106.27A15.08,15.08,0,0,1,46.93,95,15,15,0,0,1,48.5,83.6a15.06,15.06,0,1,1,16.82,22.18A15.14,15.14,0,0,1,61.48,106.27Zm0-29.14a14.15,14.15,0,0,0-3.58.46A14.08,14.08,0,0,0,47.44,91.1h0a14.13,14.13,0,0,0,.46,3.67A14.06,14.06,0,1,0,61.53,77.13Zm0,28a13.86,13.86,0,1,1,13.9-13.78h0a13.91,13.91,0,0,1-13.9,13.78Zm0-26.76a13,13,0,0,0-3.28.42A12.87,12.87,0,1,0,74.39,91.3h0A13,13,0,0,0,74,87.94a12.89,12.89,0,0,0-12.44-9.62Z"/><path class="cls-2" d="M.55,91.09A14.57,14.57,0,0,1,22.48,78.63,14.56,14.56,0,1,1,7.77,103.77,14.47,14.47,0,0,1,1,94.89,14.66,14.66,0,0,1,.55,91.09Zm28,.21a13.46,13.46,0,0,0-.44-3.49,13.29,13.29,0,0,0-6.19-8.16h0A13.36,13.36,0,1,0,28.5,91.3Z"/><path class="cls-2" d="M15.1,106.27A15.08,15.08,0,0,1,.55,95,15,15,0,0,1,2.12,83.59,15.06,15.06,0,0,1,29.7,87.39a15.06,15.06,0,0,1-10.76,18.39A15.14,15.14,0,0,1,15.1,106.27Zm0-29.14a14.15,14.15,0,0,0-3.58.46A14.09,14.09,0,0,0,1.05,91.1h0a14.13,14.13,0,0,0,.46,3.67A14.06,14.06,0,0,0,27.26,98.3,14.07,14.07,0,0,0,15.15,77.13Zm0,28a13.88,13.88,0,1,1,13.45-17.4A14,14,0,0,1,29,91.31h0a13.91,13.91,0,0,1-13.9,13.78Zm0-26.76a13,13,0,0,0-3.28.42A12.87,12.87,0,1,0,28,91.3h0a13,13,0,0,0-.42-3.36,12.89,12.89,0,0,0-12.44-9.62Z"/><rect class="cls-2" x="28.38" y="14.07" width="19.93" height="2"/><rect class="cls-2" x="74.8" y="52.83" width="19.93" height="2"/><rect class="cls-2" x="28.43" y="90.2" width="19.93" height="2"/><path class="cls-3" d="M63.5,15.07l5,5-2,2-5-5-5,5-2-2,5-5-5-5,2-2,5,5,5-5,2,2ZM20.13,84.2l-5,5-5-5-2,2,5,5-5,5,2,2,5-5,5,5,2-2-5-5,5-5Z"/></g></g></svg>