<svg xmlns="http://www.w3.org/2000/svg" viewBox="0 0 122 105.27"><defs><style>.cls-1,.cls-3{fill:#c3c8c9;}.cls-2,.cls-5{fill:#955af2;}.cls-2{stroke:#955af2;}.cls-2,.cls-3{stroke-miterlimit:10;}.cls-3{stroke:#c3c8c9;}.cls-4{opacity:0.25;}</style></defs><title>bugs</title><g id="Layer_2" data-name="Layer 2"><g id="polys"><path class="cls-1" d="M46.44,14.46a14.61,14.61,0,1,1,.48,3.8A14.66,14.66,0,0,1,46.44,14.46Zm28,.21a13.46,13.46,0,0,0-.44-3.49A13.29,13.29,0,0,0,67.76,3h0A13.38,13.38,0,0,0,48.07,18a13.38,13.38,0,0,0,26.32-3.29Z"/><path class="cls-2" d="M26.18,22.61H3L14.59,2.53Zm-22.83-.2H25.83L14.59,2.94Z"/><path class="cls-1" d="M0,14.46A14.57,14.57,0,0,1,21.93,2a14.56,14.56,0,0,1-3.67,26.66A14.56,14.56,0,0,1,.48,18.26,14.66,14.66,0,0,1,0,14.46Zm28,.21a13.46,13.46,0,0,0-.44-3.49A13.29,13.29,0,0,0,21.33,3h0A13.38,13.38,0,0,0,1.63,18a13.38,13.38,0,0,0,24.49,3.37A13.3,13.3,0,0,0,28,14.67Z"/><line class="cls-3" x1="47.3" y1="14.57" x2="28.38" y2="14.57"/><g class="cls-4"><path class="cls-2" d="M119,60.37H95.85l11.59-20.08Zm-22.83-.2h22.48L107.45,40.7Z"/></g><path class="cls-1" d="M92.86,52.22a14.61,14.61,0,1,1,.48,3.8A14.66,14.66,0,0,1,92.86,52.22Zm28,.21a13.46,13.46,0,0,0-.44-3.49,13.29,13.29,0,0,0-6.19-8.16h0a13.36,13.36,0,1,0,6.63,11.64Z"/><path class="cls-1" d="M46.44,52.22a14.61,14.61,0,1,1,.48,3.8A14.66,14.66,0,0,1,46.44,52.22Zm28,.21a13.46,13.46,0,0,0-.44-3.49,13.29,13.29,0,0,0-6.19-8.16h0a13.36,13.36,0,1,0,6.63,11.64Z"/><line class="cls-3" x1="93.73" y1="53.33" x2="74.8" y2="53.33"/><path class="cls-2" d="M72.67,98.74H49.48L61.08,78.66Zm-22.83-.2H72.32L61.08,79.07Z"/><path class="cls-1" d="M46.44,90.59a14.61,14.61,0,1,1,.48,3.8A14.66,14.66,0,0,1,46.44,90.59Zm28,.21a13.46,13.46,0,0,0-.44-3.49,13.29,13.29,0,0,0-6.19-8.16h0A13.36,13.36,0,1,0,74.39,90.8Z"/><path class="cls-1" d="M.05,90.59A14.57,14.57,0,0,1,22,78.13,14.56,14.56,0,1,1,7.27,103.27,14.47,14.47,0,0,1,.53,94.39,14.66,14.66,0,0,1,.05,90.59Zm28,.21a13.46,13.46,0,0,0-.44-3.49,13.29,13.29,0,0,0-6.19-8.16h0A13.36,13.36,0,1,0,28,90.8Z"/><line class="cls-3" x1="47.36" y1="90.7" x2="28.43" y2="90.7"/><g class="cls-4"><rect class="cls-5" x="60.38" y="5.76" width="1.25" height="17.62" transform="translate(7.57 47.41) rotate(-45)"/><rect class="cls-5" x="52.2" y="13.95" width="17.62" height="1.25" transform="translate(7.57 47.41) rotate(-45)"/></g><g class="cls-4"><rect class="cls-5" x="14" y="81.89" width="1.25" height="17.62" transform="translate(-59.85 36.91) rotate(-45)"/><rect class="cls-5" x="5.81" y="90.08" width="17.62" height="1.25" transform="translate(-59.85 36.91) rotate(-45)"/></g></g></g></svg>