<svg xmlns="http://www.w3.org/2000/svg" xmlns:xlink="http://www.w3.org/1999/xlink" viewBox="0 0 126.5 113.64"><defs><style>.cls-1{fill:#abc6d3;}.cls-2{opacity:0.4;fill:url(#linear-gradient);}.cls-3{fill:url(#linear-gradient-2);}</style><linearGradient id="linear-gradient" x1="18.83" y1="28.87" x2="78.11" y2="131.53" gradientUnits="userSpaceOnUse"><stop offset="0" stop-color="#63ce99"/><stop offset="0.18" stop-color="#54c2b6"/><stop offset="0.34" stop-color="#4bbaca"/><stop offset="0.46" stop-color="#47b7d1"/><stop offset="0.55" stop-color="#4babd5"/><stop offset="0.73" stop-color="#548ae1"/><stop offset="0.95" stop-color="#625af2"/></linearGradient><linearGradient id="linear-gradient-2" x1="48.66" y1="48.37" x2="92.03" y2="123.5" xlink:href="#linear-gradient"/></defs><title>contribute_1</title><g id="Layer_2" data-name="Layer 2"><g id="polys"><path class="cls-1" d="M88.88,42.62A25.66,25.66,0,0,0,78.07,18.84a15.12,15.12,0,0,0,.44-3.58,15.26,15.26,0,1,0-30.52,0,15.11,15.11,0,0,0,.44,3.58A25.68,25.68,0,0,0,37.62,42.62a37.7,37.7,0,1,0,51.26,0ZM63.25,28.36A13.08,13.08,0,0,1,51,19.76a23.53,23.53,0,0,1,24.58,0A13.09,13.09,0,0,1,63.25,28.36ZM76.13,17.6a25.72,25.72,0,0,0-25.76,0,12.82,12.82,0,0,1-.22-2.33,13.1,13.1,0,1,1,26.2,0A12.8,12.8,0,0,1,76.13,17.6ZM63.25,30.52A15.3,15.3,0,0,0,77.37,21a23.67,23.67,0,0,1,9.49,18.91c0,.31,0,.62,0,1a37.59,37.59,0,0,0-47.19,0c0-.33,0-.64,0-1A23.67,23.67,0,0,1,49.13,21,15.3,15.3,0,0,0,63.25,30.52Zm0,33A23.71,23.71,0,0,1,39.91,43.47a35.44,35.44,0,0,1,46.68,0A23.71,23.71,0,0,1,63.25,63.53Zm0,2.16A25.71,25.71,0,0,0,88.46,45.23a35.19,35.19,0,0,1,10.32,25,35.54,35.54,0,0,1-71.08,0A35.19,35.19,0,0,1,38,45.23,25.71,25.71,0,0,0,63.25,65.69Z"/><path class="cls-1" d="M111.24,83.12A15.26,15.26,0,1,0,126.5,98.38,15.28,15.28,0,0,0,111.24,83.12Zm13.1,15.26a13.1,13.1,0,1,1-13.1-13.1A13.12,13.12,0,0,1,124.34,98.38Z"/><path class="cls-1" d="M15.26,83.12A15.26,15.26,0,1,0,30.52,98.38,15.28,15.28,0,0,0,15.26,83.12Zm13.1,15.26a13.1,13.1,0,1,1-13.1-13.1A13.12,13.12,0,0,1,28.36,98.38Z"/><path class="cls-2" d="M33.08,92.2H93.42L63.25,39.95ZM36.82,90,63.25,44.27,89.67,90ZM63.25,3.22,51.8,23.05H74.7Zm0,4,8,13.79H55.29Zm48,78.72L99.79,105.8h22.9Zm0,4,8,13.79H103.28ZM3.81,105.8h22.9L15.26,86Zm3.49-2,8-13.79,8,13.79Z"/><path class="cls-3" d="M33.08,92.2H93.42L63.25,39.95ZM36.82,90,63.25,44.27,89.67,90ZM111.24,86,99.79,105.8h22.9Zm0,4,8,13.79H103.28Z"/></g></g></svg>