<svg xmlns="http://www.w3.org/2000/svg" xmlns:xlink="http://www.w3.org/1999/xlink" viewBox="0 0 29.6 30"><defs><style>.cls-1{fill:url(#linear-gradient);}</style><linearGradient id="linear-gradient" x1="14.8" x2="14.8" y2="30" gradientUnits="userSpaceOnUse"><stop offset="0" stop-color="#955af2"/><stop offset="0.2" stop-color="#8966ed"/><stop offset="0.57" stop-color="#6886e0"/><stop offset="1" stop-color="#3ab3ce"/></linearGradient></defs><title>search</title><g id="Layer_2" data-name="Layer 2"><g id="polys"><path class="cls-1" d="M29.6,28l-2.25,2c-2.49-2.5-5.11-5-7.62-7.68a1.78,1.78,0,0,0-2.64-.42A11.53,11.53,0,0,1,.95,16.22,11.65,11.65,0,1,1,23,8.84,11.48,11.48,0,0,1,20.6,19.12ZM11.7,1.38A10.17,10.17,0,0,0,1.35,11.58,10.24,10.24,0,0,0,11.68,22a10.17,10.17,0,0,0,10.25-10.3A10.11,10.11,0,0,0,11.7,1.38Z"/></g></g></svg>