<svg xmlns="http://www.w3.org/2000/svg" xmlns:xlink="http://www.w3.org/1999/xlink" viewBox="0 0 454.54 165.52"><defs><style>.cls-1{fill:none;}.cls-2{clip-path:url(#clip-path);}.cls-3{fill:#405464;}.cls-4{fill:#ee9721;}</style><clipPath id="clip-path" transform="translate(0 -0.51)"><rect class="cls-1" width="454.54" height="166.53"/></clipPath></defs><title>Chef Horizontal</title><g id="Layer_2" data-name="Layer 2"><g id="Layer_1-2" data-name="Layer 1"><g id="Chef_Horizontal" data-name="Chef Horizontal"><g class="cls-2"><g class="cls-2"><path class="cls-3" d="M192.06,83.55v-.22a30.36,30.36,0,0,1,29.87-30.84h1.26a30.81,30.81,0,0,1,23.55,9.22l-8.37,9.65a22,22,0,0,0-15.26-6.64c-10.07,0-17.3,8.34-17.3,18.6s7.07,18.77,17.3,18.77c6.83,0,11-2.66,15.68-7l8.35,8.45a30.5,30.5,0,0,1-24.48,10.64,30.15,30.15,0,0,1-30.6-29.69v-1" transform="translate(0 -0.51)"/><polygon class="cls-3" points="262.37 53.03 275.5 53.03 275.5 76.66 299.75 76.66 299.75 53.03 312.88 53.03 312.88 112.73 299.75 112.73 299.75 88.75 275.5 88.75 275.5 112.73 262.37 112.73 262.37 53.03"/><polygon class="cls-3" points="328.91 53.03 373.96 53.03 373.96 64.72 341.96 64.72 341.96 76.82 370.11 76.82 370.11 88.52 341.96 88.52 341.96 101.06 374.39 101.06 374.39 112.73 328.91 112.73 328.91 53.03"/><polygon class="cls-3" points="391.56 53.03 437.02 53.03 437.02 64.97 404.69 64.97 404.69 77.67 433.16 77.67 433.16 89.63 404.69 89.63 404.69 112.73 391.56 112.73 391.56 53.03"/><path class="cls-3" d="M446.9,62.21v-6h2.56a4.33,4.33,0,0,1,1.4.16,1.41,1.41,0,0,1,.7.58,1.76,1.76,0,0,1,.26,1,1.63,1.63,0,0,1-.22.87,1,1,0,0,1-.18.24,1.8,1.8,0,0,1-1,.54,5.51,5.51,0,0,1,.47.52,6.71,6.71,0,0,1,.69,1l.74,1.17h-1.45L450,60.9a7.93,7.93,0,0,0-.64-.88.91.91,0,0,0-.36-.25,1.91,1.91,0,0,0-.62-.07h-.24v2.51Zm1.22-3.47h.9a4.71,4.71,0,0,0,1.09-.07.66.66,0,0,0,.34-.25.85.85,0,0,0,.12-.46.72.72,0,0,0-.16-.49.75.75,0,0,0-.46-.23,8,8,0,0,0-.88,0h-.95Z" transform="translate(0 -0.51)"/><path class="cls-3" d="M449.16,64.58a5.34,5.34,0,0,1-2.09-.42,5,5,0,0,1-.91-.5,5.54,5.54,0,0,1-.8-.65,6.15,6.15,0,0,1-.65-.8,5.39,5.39,0,0,1-.5-5.1,5.79,5.79,0,0,1,.5-.91,5.46,5.46,0,0,1,.65-.79,5,5,0,0,1,.8-.66,5.71,5.71,0,0,1,.91-.5,5.41,5.41,0,0,1,4.18,0,6.28,6.28,0,0,1,.92.5,4.94,4.94,0,0,1,.79.66,5.53,5.53,0,0,1,.66.79,5.73,5.73,0,0,1,.49.91,5.32,5.32,0,0,1,0,4.19,5.32,5.32,0,0,1-.49.91,6.23,6.23,0,0,1-.66.8,5.44,5.44,0,0,1-1.71,1.15,5.31,5.31,0,0,1-2.09.42m0-10.29a4.92,4.92,0,1,0,4.92,4.92,4.92,4.92,0,0,0-4.92-4.92" transform="translate(0 -0.51)"/><path class="cls-3" d="M82.76,134.35a51.27,51.27,0,0,0,49.9-40.15H119.18a38,38,0,1,1,0-21.86h13.48a51.08,51.08,0,1,0-49.9,62" transform="translate(0 -0.51)"/><path class="cls-4" d="M82.24,48A35.29,35.29,0,0,0,47.51,83.27,34.89,34.89,0,0,0,50.29,97L63,91.38A21.35,21.35,0,0,1,82.24,61.93Z" transform="translate(0 -0.51)"/><path class="cls-4" d="M91,103l5,13A35.66,35.66,0,0,0,116.28,94.2H101.09A21.44,21.44,0,0,1,91,103" transform="translate(0 -0.51)"/><path class="cls-3" d="M148.76,94.2H135.5a54,54,0,0,1-52.22,42.92v13a67,67,0,0,0,65.48-56" transform="translate(0 -0.51)"/><path class="cls-3" d="M82.24,29.41v-13A67.41,67.41,0,0,0,20.61,58.52l12.15,4.73A54.3,54.3,0,0,1,82.24,29.41" transform="translate(0 -0.51)"/><path class="cls-3" d="M96,50.61l-5,13a21.46,21.46,0,0,1,10.11,8.76h15.18A35.59,35.59,0,0,0,96,50.61" transform="translate(0 -0.51)"/><path class="cls-3" d="M82.24,118.52V104.6A21.17,21.17,0,0,1,68,98.72l-9.82,9.83a35,35,0,0,0,24,10" transform="translate(0 -0.51)"/><path class="cls-3" d="M164.8,72.34a81.74,81.74,0,0,0-11.55-32.45l-11.13,6.94a68.75,68.75,0,0,1,9.46,25.51Z" transform="translate(0 -0.51)"/><path class="cls-4" d="M164.8,94.2H151.58A70.12,70.12,0,0,1,82.76,153a69.17,69.17,0,0,1-48.87-20.08l-9.27,9.28A82.76,82.76,0,0,0,164.8,94.2" transform="translate(0 -0.51)"/><path class="cls-4" d="M107.5,21.12l-4.73,12.17A54.38,54.38,0,0,1,135.5,72.34h13.27A67.15,67.15,0,0,0,107.5,21.12" transform="translate(0 -0.51)"/><path class="cls-3" d="M18.78,110.83a69.4,69.4,0,0,1-5.67-27H0a82.14,82.14,0,0,0,6.78,32.31Z" transform="translate(0 -0.51)"/><path class="cls-4" d="M57.43,145.17l4.85-12.11A53.62,53.62,0,0,1,28.91,83.79h-13a66.64,66.64,0,0,0,41.57,61.38" transform="translate(0 -0.51)"/><path class="cls-4" d="M35.53,15.3A82.66,82.66,0,0,0,5.81,52.77L18,57.52A70.2,70.2,0,0,1,82.76,13.59,69,69,0,0,1,124,27.14l7.85-10.51A82.79,82.79,0,0,0,35.53,15.3" transform="translate(0 -0.51)"/></g></g></g></g></g></svg>