<?xml version="1.0" encoding="utf-8"?>
<!-- Generator: Adobe Illustrator 20.1.0, SVG Export Plug-In . SVG Version: 6.00 Build 0)  -->
<svg version="1.1" id="Layer_1" xmlns="http://www.w3.org/2000/svg" xmlns:xlink="http://www.w3.org/1999/xlink" x="0px" y="0px"
	 viewBox="0 0 169.2 44" style="enable-background:new 0 0 169.2 44;" xml:space="preserve">
<g>
	<g>
		<g>
			<path style="fill:#616569;" d="M169.1,37l-0.2,0.4l-0.3-0.4h-0.1v0.7h0.1v-0.5l0.2,0.4h0l0.3-0.4v0.5h0.1V37H169.1z M167.8,37
				L167.8,37l0.2,0.1v0.6h0.1v-0.6h0.2V37H167.8z"/>
			<path style="fill:#616569;" d="M137.2,40.5L137.2,40.5c0-2,1.5-3.6,3.6-3.6c1.3,0,2.1,0.4,2.7,1.1l-1,1.1
				c-0.5-0.5-1.1-0.8-1.8-0.8c-1.2,0-2,1-2,2.1v0c0,1.2,0.8,2.2,2,2.2c0.8,0,1.3-0.3,1.8-0.8l1,1c-0.7,0.8-1.5,1.2-2.8,1.2
				C138.7,44,137.2,42.5,137.2,40.5"/>
			<polygon style="fill:#616569;" points="145.6,37 147.1,37 147.1,39.7 149.9,39.7 149.9,37 151.4,37 151.4,43.9 149.9,43.9 
				149.9,41.1 147.1,41.1 147.1,43.9 145.6,43.9 			"/>
			<polygon style="fill:#616569;" points="153.8,37 159.1,37 159.1,38.4 155.4,38.4 155.4,39.8 158.7,39.8 158.7,41.2 155.4,41.2 
				155.4,42.7 159.2,42.7 159.2,44 153.8,44 			"/>
			<polygon style="fill:#616569;" points="161.4,37 166.7,37 166.7,38.4 162.9,38.4 162.9,39.9 166.2,39.9 166.2,41.2 162.9,41.2 
				162.9,43.9 161.4,43.9 			"/>
			<path style="fill:#616569;" d="M132.6,44v-1.7l1.5-2.3h-0.9l-1,1.6h0l-1-1.6h-0.9l1.5,2.3V44H132.6z M128.9,40.8
				c0.4,0,0.5,0.2,0.5,0.4c0,0.2-0.2,0.4-0.5,0.4h-1v-0.9H128.9z M129,42.4c0.3,0,0.5,0.2,0.5,0.5c0,0.3-0.1,0.5-0.5,0.5h-1.1v-1
				H129z M129.2,44c0.8,0,1.2-0.5,1.2-1.1c0-0.5-0.3-0.8-0.7-1v0c0.3-0.2,0.5-0.5,0.5-0.9c0-0.6-0.4-1-1.1-1h-1.9v4H129.2z"/>
		</g>
	</g>
	<g>
		<g>
			<g>
				
					<ellipse transform="matrix(5.068119e-03 -1 1 5.068119e-03 -0.1059 41.4307)" style="fill:#4297B6;" cx="20.8" cy="20.8" rx="7" ry="7"/>
				<path style="fill:#4297B6;" d="M41.5,20.9c-0.1,11.5-9.4,20.7-20.8,20.6c-4.7,0-9.1-1.6-12.6-4.3l6-5.9c1.9,1.2,4.2,2,6.6,2
					c6.9,0,12.5-5.5,12.5-12.4c0-6.9-5.5-12.5-12.4-12.5C14,8.3,8.4,13.8,8.3,20.7c0,2.4,0.7,4.7,1.9,6.7l-6,5.9
					C1.6,29.8,0,25.4,0,20.7C0.1,9.2,9.4,0,20.9,0C32.3,0.1,41.6,9.4,41.5,20.9z"/>
			</g>
		</g>
		<g>
			<path style="fill:#616569;" d="M49.3,32.2V8.5h4.7v23.7H49.3z"/>
			<path style="fill:#616569;" d="M78.5,32.2L65.2,18.4v13.9h-4.7V8.5h1.5l13.1,13.3V8.5h4.7v23.8H78.5z"/>
			<path style="fill:#616569;" d="M93,22.2c-0.8-0.2-2.2-0.6-3.6-1.5c-1.9-1.3-2.9-3.1-3.1-5.4c-0.1-1.9,0.5-3.6,1.7-4.8
				c1.8-1.8,4.3-2.3,5.5-2.3c3.5,0,5.4,1.3,7.1,2.4l0.8,0.5l-2.5,4l-0.8-0.5c-1.5-1-2.5-1.6-4.6-1.6c-0.3,0-1.5,0.2-2.1,0.9
				c-0.2,0.2-0.4,0.6-0.4,1.4c0,1.2,0.9,1.9,3.1,2.4c0.3,0.1,0.5,0.1,0.7,0.2c2.3,0.8,4,1.8,5.3,3.2c1.2,1.4,1.9,2.9,1.9,4.6
				c0,1.7-0.7,3.4-1.9,4.7c-1.4,1.6-3.3,2.4-5.5,2.4c-1.1,0-2.5-0.1-4.2-0.6c-2.1-0.7-4-1.9-5.7-3.6l3.5-3.3
				c2.5,2.7,5.3,2.7,6.4,2.7c2,0,2.6-1.8,2.6-2.4c0-1.3-1.5-2.5-3.9-3.3l-0.1,0L93,22.2z"/>
			<path style="fill:#616569;" d="M115.6,8.5c3.9,0,7.1,3.2,7.1,7.2c0,3.9-3.2,7.1-7.1,7.1h-2.9v9.5h-4.7V8.5H115.6z M115.6,18
				c1.3,0,2.4-1.1,2.4-2.4c0-1.3-1.1-2.4-2.4-2.4h-2.9V18H115.6z"/>
			<g>
				<path style="fill:#616569;" d="M143.6,13.2h-15.8V8.5h15.8V13.2z M127.7,17.6h13.1v4.7h-13.1V17.6z M127.7,27.5h15.7v4.7h-15.7
					V27.5z"/>
			</g>
			<path style="fill:#616569;" d="M165.9,14.2c-4.6-3-11.6-0.2-11.6,6.2c0,6.7,7.4,9.4,11.8,6l3.1,3.5c-2.1,1.8-4.9,2.8-7.9,2.8
				c-6.8,0-12.3-5.5-12.3-12.3s5.5-12.3,12.3-12.3c2.8,0,5.5,1,7.6,2.6L165.9,14.2z"/>
		</g>
	</g>
</g>
<g>
</g>
<g>
</g>
<g>
</g>
<g>
</g>
<g>
</g>
<g>
</g>
</svg>
