<svg xmlns="http://www.w3.org/2000/svg" xmlns:xlink="http://www.w3.org/1999/xlink" viewBox="0 0 501.48 498.39"><defs><style>.cls-1{fill:url(#radial-gradient);}.cls-2{fill:url(#radial-gradient-2);}.cls-3{fill:url(#radial-gradient-3);}.cls-4{fill:url(#radial-gradient-4);}.cls-5{fill:url(#radial-gradient-5);}.cls-6{fill:url(#radial-gradient-6);}.cls-7{fill:url(#radial-gradient-7);}.cls-8{fill:url(#radial-gradient-8);}.cls-9{fill:url(#radial-gradient-9);}.cls-10{fill:url(#radial-gradient-10);}.cls-11{fill:url(#radial-gradient-11);}.cls-12{fill:url(#radial-gradient-12);}.cls-13{fill:url(#radial-gradient-13);}.cls-14{fill:url(#radial-gradient-14);}.cls-15{fill:url(#radial-gradient-15);}.cls-16{fill:url(#radial-gradient-16);}.cls-17{fill:url(#radial-gradient-17);}.cls-18{fill:url(#radial-gradient-18);}.cls-19{fill:url(#radial-gradient-19);}.cls-20{fill:url(#radial-gradient-20);}.cls-21{fill:url(#radial-gradient-21);}.cls-22{fill:url(#radial-gradient-22);}.cls-23{fill:url(#radial-gradient-23);}.cls-24{fill:url(#radial-gradient-24);}.cls-25{fill:url(#radial-gradient-25);}.cls-26{fill:url(#radial-gradient-26);}.cls-27{fill:url(#radial-gradient-27);}.cls-28{fill:url(#radial-gradient-28);}.cls-29{fill:url(#radial-gradient-29);}.cls-30{fill:url(#radial-gradient-30);}.cls-31{fill:url(#radial-gradient-31);}.cls-32{fill:url(#radial-gradient-32);}.cls-33{fill:url(#radial-gradient-33);}.cls-34{fill:url(#radial-gradient-34);}.cls-35{fill:url(#radial-gradient-35);}.cls-36{fill:url(#radial-gradient-36);}.cls-37{fill:url(#radial-gradient-37);}.cls-38{fill:url(#radial-gradient-38);}.cls-39{fill:url(#radial-gradient-39);}.cls-40{fill:url(#radial-gradient-40);}.cls-41{fill:url(#radial-gradient-41);}.cls-42{fill:url(#radial-gradient-42);}.cls-43{fill:url(#radial-gradient-43);}.cls-44{fill:url(#radial-gradient-44);}.cls-45{fill:url(#radial-gradient-45);}.cls-46{fill:url(#radial-gradient-46);}.cls-47{fill:url(#radial-gradient-47);}.cls-48{fill:url(#radial-gradient-48);}.cls-49{fill:url(#radial-gradient-49);}.cls-50{fill:url(#radial-gradient-50);}.cls-51{fill:url(#radial-gradient-51);}.cls-52{fill:url(#radial-gradient-52);}.cls-53{fill:url(#radial-gradient-53);}.cls-54{fill:url(#radial-gradient-54);}.cls-55{fill:url(#radial-gradient-55);}.cls-56{fill:url(#radial-gradient-56);}.cls-57{fill:url(#radial-gradient-57);}.cls-58{fill:url(#radial-gradient-58);}.cls-59{fill:url(#radial-gradient-59);}.cls-60{fill:url(#radial-gradient-60);}.cls-61{fill:url(#radial-gradient-61);}.cls-62{fill:url(#radial-gradient-62);}.cls-63{fill:url(#radial-gradient-63);}.cls-64{fill:url(#radial-gradient-64);}.cls-65{fill:url(#radial-gradient-65);}.cls-66{fill:url(#radial-gradient-66);}.cls-67{fill:url(#radial-gradient-67);}.cls-68{fill:url(#radial-gradient-68);}.cls-69{fill:url(#radial-gradient-69);}.cls-70{fill:url(#radial-gradient-70);}.cls-71{fill:url(#radial-gradient-71);}.cls-72{fill:url(#radial-gradient-72);}.cls-73{fill:url(#radial-gradient-73);}.cls-74{fill:url(#radial-gradient-74);}.cls-75{fill:url(#radial-gradient-75);}.cls-76{fill:url(#radial-gradient-76);}.cls-77{fill:url(#radial-gradient-77);}.cls-78{fill:url(#radial-gradient-78);}.cls-79{fill:url(#radial-gradient-79);}.cls-80{fill:url(#radial-gradient-80);}.cls-81{fill:url(#radial-gradient-81);}.cls-82{fill:url(#radial-gradient-82);}.cls-83{fill:url(#radial-gradient-83);}.cls-84{fill:url(#radial-gradient-84);}.cls-85{fill:url(#radial-gradient-85);}.cls-86{fill:url(#radial-gradient-86);}.cls-87{fill:url(#radial-gradient-87);}.cls-88{fill:url(#radial-gradient-88);}.cls-89{fill:url(#radial-gradient-89);}.cls-90{fill:url(#radial-gradient-90);}.cls-91{fill:url(#radial-gradient-91);}.cls-92{fill:url(#radial-gradient-92);}.cls-93{fill:url(#radial-gradient-93);}.cls-94{fill:url(#radial-gradient-94);}.cls-95{fill:url(#radial-gradient-95);}</style><radialGradient id="radial-gradient" cx="256.73" cy="242.7" r="261.42" gradientUnits="userSpaceOnUse"><stop offset="0.03" stop-color="#3ab3ce" stop-opacity="0.5"/><stop offset="0.19" stop-color="#47b8d1" stop-opacity="0.47"/><stop offset="0.42" stop-color="#6dc7db" stop-opacity="0.37"/><stop offset="0.69" stop-color="#aadeea" stop-opacity="0.22"/><stop offset="1" stop-color="#feffff" stop-opacity="0"/><stop offset="1" stop-color="#fff" stop-opacity="0"/></radialGradient><radialGradient id="radial-gradient-2" cx="256.73" cy="242.7" r="261.42" xlink:href="#radial-gradient"/><radialGradient id="radial-gradient-3" cx="256.73" cy="242.7" r="261.33" xlink:href="#radial-gradient"/><radialGradient id="radial-gradient-4" cx="256.73" cy="242.7" r="261.43" xlink:href="#radial-gradient"/><radialGradient id="radial-gradient-5" cx="256.73" cy="242.7" r="261.43" xlink:href="#radial-gradient"/><radialGradient id="radial-gradient-6" cx="256.73" cy="242.7" r="261.43" xlink:href="#radial-gradient"/><radialGradient id="radial-gradient-7" cx="256.73" cy="242.7" r="261.43" xlink:href="#radial-gradient"/><radialGradient id="radial-gradient-8" cx="256.73" cy="242.7" r="261.43" xlink:href="#radial-gradient"/><radialGradient id="radial-gradient-9" cx="256.73" cy="242.7" r="261.42" gradientTransform="translate(172.87 -222.91) rotate(47.53)" xlink:href="#radial-gradient"/><radialGradient id="radial-gradient-10" cx="256.73" cy="242.7" r="261.43" xlink:href="#radial-gradient"/><radialGradient id="radial-gradient-11" cx="256.73" cy="242.7" r="261.43" gradientTransform="translate(382.52 -140.32) rotate(79.25)" xlink:href="#radial-gradient"/><radialGradient id="radial-gradient-12" cx="256.73" cy="242.7" r="261.42" xlink:href="#radial-gradient"/><radialGradient id="radial-gradient-13" cx="256.73" cy="242.7" r="261.43" xlink:href="#radial-gradient"/><radialGradient id="radial-gradient-14" cx="256.73" cy="242.7" r="261.42" gradientTransform="translate(200.47 -236.21) rotate(34.47)" xlink:href="#radial-gradient"/><radialGradient id="radial-gradient-15" cx="256.73" cy="242.7" r="261.43" xlink:href="#radial-gradient"/><radialGradient id="radial-gradient-16" cx="256.73" cy="242.7" r="261.43" gradientTransform="translate(39.68 -45.18) rotate(5.93)" xlink:href="#radial-gradient"/><radialGradient id="radial-gradient-17" cx="256.73" cy="242.7" r="261.43" xlink:href="#radial-gradient"/><radialGradient id="radial-gradient-18" cx="256.73" cy="242.7" r="261.43" xlink:href="#radial-gradient"/><radialGradient id="radial-gradient-19" cx="256.73" cy="242.7" r="261.43" xlink:href="#radial-gradient"/><radialGradient id="radial-gradient-20" cx="256.73" cy="242.7" r="261.43" xlink:href="#radial-gradient"/><radialGradient id="radial-gradient-21" cx="256.73" cy="242.7" r="261.43" xlink:href="#radial-gradient"/><radialGradient id="radial-gradient-22" cx="256.73" cy="242.7" r="261.42" xlink:href="#radial-gradient"/><radialGradient id="radial-gradient-23" cx="256.73" cy="242.7" r="261.42" gradientTransform="translate(175.99 -56.27) rotate(82.48)" xlink:href="#radial-gradient"/><radialGradient id="radial-gradient-24" cx="256.73" cy="242.7" r="261.43" xlink:href="#radial-gradient"/><radialGradient id="radial-gradient-25" cx="256.73" cy="242.7" r="261.43" xlink:href="#radial-gradient"/><radialGradient id="radial-gradient-26" cx="256.73" cy="242.7" r="261.43" xlink:href="#radial-gradient"/><radialGradient id="radial-gradient-27" cx="256.73" cy="242.7" r="261.43" xlink:href="#radial-gradient"/><radialGradient id="radial-gradient-28" cx="256.73" cy="242.7" r="261.43" xlink:href="#radial-gradient"/><radialGradient id="radial-gradient-29" cx="256.73" cy="242.7" r="261.43" xlink:href="#radial-gradient"/><radialGradient id="radial-gradient-30" cx="256.73" cy="242.7" r="261.43" xlink:href="#radial-gradient"/><radialGradient id="radial-gradient-31" cx="256.73" cy="242.7" r="261.43" gradientTransform="translate(223.46 82.11) rotate(52.53)" xlink:href="#radial-gradient"/><radialGradient id="radial-gradient-32" cx="256.73" cy="242.71" r="261.43" gradientTransform="translate(49.36 -1.91) rotate(16.23)" xlink:href="#radial-gradient"/><radialGradient id="radial-gradient-33" cx="256.73" cy="242.7" r="261.42" xlink:href="#radial-gradient"/><radialGradient id="radial-gradient-34" cx="256.72" cy="242.7" r="261.42" xlink:href="#radial-gradient"/><radialGradient id="radial-gradient-35" cx="256.72" cy="242.7" r="261.42" xlink:href="#radial-gradient"/><radialGradient id="radial-gradient-36" cx="256.72" cy="242.71" r="261.42" xlink:href="#radial-gradient"/><radialGradient id="radial-gradient-37" cx="256.72" cy="242.7" r="261.42" xlink:href="#radial-gradient"/><radialGradient id="radial-gradient-38" cx="256.74" cy="242.71" r="261.43" xlink:href="#radial-gradient"/><radialGradient id="radial-gradient-39" cx="256.72" cy="242.7" r="261.42" xlink:href="#radial-gradient"/><radialGradient id="radial-gradient-40" cx="256.72" cy="242.7" r="261.42" xlink:href="#radial-gradient"/><radialGradient id="radial-gradient-41" cx="256.73" cy="242.71" r="261.43" xlink:href="#radial-gradient"/><radialGradient id="radial-gradient-42" cx="256.72" cy="242.71" r="261.42" xlink:href="#radial-gradient"/><radialGradient id="radial-gradient-43" cx="256.72" cy="242.71" r="261.42" xlink:href="#radial-gradient"/><radialGradient id="radial-gradient-44" cx="256.73" cy="242.71" r="261.42" xlink:href="#radial-gradient"/><radialGradient id="radial-gradient-45" cx="256.73" cy="242.71" r="261.42" xlink:href="#radial-gradient"/><radialGradient id="radial-gradient-46" cx="256.73" cy="242.7" r="261.43" xlink:href="#radial-gradient"/><radialGradient id="radial-gradient-47" cx="256.73" cy="242.71" r="261.42" xlink:href="#radial-gradient"/><radialGradient id="radial-gradient-48" cx="256.73" cy="242.71" r="261.42" xlink:href="#radial-gradient"/><radialGradient id="radial-gradient-49" cx="256.72" cy="242.71" r="261.43" xlink:href="#radial-gradient"/><radialGradient id="radial-gradient-50" cx="256.73" cy="242.71" r="261.42" xlink:href="#radial-gradient"/><radialGradient id="radial-gradient-51" cx="256.73" cy="242.71" r="261.42" xlink:href="#radial-gradient"/><radialGradient id="radial-gradient-52" cx="256.73" cy="242.7" r="261.42" xlink:href="#radial-gradient"/><radialGradient id="radial-gradient-53" cx="256.73" cy="242.7" r="261.42" xlink:href="#radial-gradient"/><radialGradient id="radial-gradient-54" cx="256.73" cy="242.7" r="261.42" xlink:href="#radial-gradient"/><radialGradient id="radial-gradient-55" cx="256.73" cy="242.71" r="261.43" xlink:href="#radial-gradient"/><radialGradient id="radial-gradient-56" cx="256.73" cy="242.7" r="261.42" xlink:href="#radial-gradient"/><radialGradient id="radial-gradient-57" cx="256.73" cy="242.7" r="261.42" xlink:href="#radial-gradient"/><radialGradient id="radial-gradient-58" cx="256.73" cy="242.7" r="261.42" xlink:href="#radial-gradient"/><radialGradient id="radial-gradient-59" cx="256.73" cy="242.7" r="261.42" xlink:href="#radial-gradient"/><radialGradient id="radial-gradient-60" cx="256.73" cy="242.7" r="261.42" xlink:href="#radial-gradient"/><radialGradient id="radial-gradient-61" cx="256.73" cy="242.7" r="261.42" xlink:href="#radial-gradient"/><radialGradient id="radial-gradient-62" cx="256.72" cy="242.7" r="261.42" xlink:href="#radial-gradient"/><radialGradient id="radial-gradient-63" cx="256.73" cy="242.7" r="261.42" xlink:href="#radial-gradient"/><radialGradient id="radial-gradient-64" cx="256.73" cy="242.71" r="261.43" xlink:href="#radial-gradient"/><radialGradient id="radial-gradient-65" cx="256.73" cy="242.71" r="261.43" xlink:href="#radial-gradient"/><radialGradient id="radial-gradient-66" cx="256.73" cy="242.7" r="261.42" xlink:href="#radial-gradient"/><radialGradient id="radial-gradient-67" cx="256.72" cy="242.7" r="261.42" xlink:href="#radial-gradient"/><radialGradient id="radial-gradient-68" cx="256.72" cy="242.7" r="261.42" xlink:href="#radial-gradient"/><radialGradient id="radial-gradient-69" cx="256.73" cy="242.7" r="261.43" xlink:href="#radial-gradient"/><radialGradient id="radial-gradient-70" cx="256.73" cy="242.7" r="261.43" xlink:href="#radial-gradient"/><radialGradient id="radial-gradient-71" cx="256.72" cy="242.71" r="261.42" xlink:href="#radial-gradient"/><radialGradient id="radial-gradient-72" cx="256.72" cy="242.7" r="261.42" xlink:href="#radial-gradient"/><radialGradient id="radial-gradient-73" cx="256.73" cy="242.7" r="261.42" xlink:href="#radial-gradient"/><radialGradient id="radial-gradient-74" cx="256.73" cy="242.7" r="261.42" xlink:href="#radial-gradient"/><radialGradient id="radial-gradient-75" cx="256.72" cy="242.71" r="261.42" xlink:href="#radial-gradient"/><radialGradient id="radial-gradient-76" cx="256.73" cy="242.71" r="261.42" xlink:href="#radial-gradient"/><radialGradient id="radial-gradient-77" cx="256.73" cy="242.71" r="261.42" xlink:href="#radial-gradient"/><radialGradient id="radial-gradient-78" cx="256.73" cy="242.71" r="261.42" xlink:href="#radial-gradient"/><radialGradient id="radial-gradient-79" cx="256.73" cy="242.71" r="261.42" xlink:href="#radial-gradient"/><radialGradient id="radial-gradient-80" cx="256.73" cy="242.71" r="261.42" xlink:href="#radial-gradient"/><radialGradient id="radial-gradient-81" cx="256.73" cy="242.7" r="261.43" xlink:href="#radial-gradient"/><radialGradient id="radial-gradient-82" cx="256.73" cy="242.71" r="261.42" xlink:href="#radial-gradient"/><radialGradient id="radial-gradient-83" cx="256.73" cy="242.71" r="261.42" xlink:href="#radial-gradient"/><radialGradient id="radial-gradient-84" cx="256.72" cy="242.7" r="261.43" xlink:href="#radial-gradient"/><radialGradient id="radial-gradient-85" cx="256.73" cy="242.7" r="261.42" xlink:href="#radial-gradient"/><radialGradient id="radial-gradient-86" cx="256.73" cy="242.7" r="261.42" xlink:href="#radial-gradient"/><radialGradient id="radial-gradient-87" cx="256.73" cy="242.7" r="261.42" xlink:href="#radial-gradient"/><radialGradient id="radial-gradient-88" cx="256.73" cy="242.71" r="261.42" xlink:href="#radial-gradient"/><radialGradient id="radial-gradient-89" cx="256.73" cy="242.71" r="261.43" xlink:href="#radial-gradient"/><radialGradient id="radial-gradient-90" cx="256.73" cy="242.7" r="261.42" xlink:href="#radial-gradient"/><radialGradient id="radial-gradient-91" cx="256.72" cy="242.7" r="261.42" xlink:href="#radial-gradient"/><radialGradient id="radial-gradient-92" cx="256.73" cy="242.7" r="261.42" xlink:href="#radial-gradient"/><radialGradient id="radial-gradient-93" cx="256.73" cy="242.7" r="261.42" xlink:href="#radial-gradient"/><radialGradient id="radial-gradient-94" cx="256.73" cy="242.7" r="261.42" xlink:href="#radial-gradient"/><radialGradient id="radial-gradient-95" cx="256.73" cy="242.71" r="261.42" xlink:href="#radial-gradient"/></defs><title>blue-web</title><g id="Layer_2" data-name="Layer 2"><g id="polys"><path class="cls-1" d="M287,495.3h-.08l-95.4-4.51-25.25-7.64-22-9.23-44.5-27.35L71.37,421,37.22,375.79,28.69,360,6.1,288.93l-3-40.62,1.17-22.22,3.14-22,6.75-27.2,13.69-34.61L83.7,67.46l33-25.43,54-26.15,20.77-6.09L213.2,5.46,235.55,3.1,302.42,8l47.33,15.19,70.51,46.54,15.46,15.86,13.19,16.11L471.54,138l25.91,90.59.94,33.86L482,338.94l-8.68,20-20.47,34.48-43,46.66L362.15,471.5ZM28.57,142.72,15,177.13l-6.73,27.1L5.11,226.18,3.95,248.3l3,40.47L29.47,359.7l8.46,15.63L72,420.45l28.25,25.44,44.38,27.27,21.94,9.19,25.1,7.61,95.22,4.49,75-23.73,47.48-31.31,42.89-46.53,20.39-34.36,8.63-19.83,16.31-76.26-.94-33.71-25.86-90.37-22.52-36.09-13.13-16L419.73,70.42,349.34,24,302.26,8.87l-66.7-4.93L213.33,6.3l-21.71,4.31L171,16.67,117.12,42.75,84.26,68.1Z"/><path class="cls-2" d="M204.55,125.46a.43.43,0,0,1-.3-.12l-48.46-48a.42.42,0,0,1-.11-.41l14.74-57.21.82.21-14.68,57,48.15,47.74,78.9-5.6,30.05-58.32L234.92,3.87l.5-.69,79,57a.43.43,0,0,1,.13.54l-30.33,58.86a.42.42,0,0,1-.35.23l-79.33,5.63Z"/><path class="cls-3" d="M231.24,67.09a.43.43,0,0,1-.42-.45L234.74,3.5l.85.05-3.9,62.66,82.48-6.08.06.85-83,6.11Z"/><path class="cls-4" d="M231.24,67.09a.42.42,0,0,1-.35-.18L191.25,10.36l.7-.49,38.12,54.38L212.44,6.05l.81-.25,18.39,60.74a.42.42,0,0,1-.41.55Z"/><path class="cls-5" d="M156.09,77.42a.42.42,0,0,1-.28-.11L116.54,42.62l.56-.64,39.13,34.56,74-10.17L170.56,16.59l.54-.65,60.4,50.41a.43.43,0,0,1-.21.75L156.15,77.41Z"/><path class="cls-6" d="M295.18,311.78l-.14,0-106-36.41a.42.42,0,0,1-.28-.34L175.6,184.46a.42.42,0,0,1,0-.25l28.53-59.36,26.69-58.36a.42.42,0,0,1,.69-.12L284,119l81.87-10.37a.43.43,0,0,1,.4.17.42.42,0,0,1,0,.43l-25.85,55.22h91l16.9-62.6.82.22-17,62.91a.43.43,0,0,1-.41.31H340.33l13.36,78.91a.43.43,0,0,1-.1.35l-58.09,67.1A.42.42,0,0,1,295.18,311.78ZM189.58,274.63,295,310.86l57.77-66.74-13.38-79-55.82-45.33L231.37,67.4l-26.43,57.81-28.47,59.25Zm95.33-154.92,54.75,44.46,25.58-54.64Z"/><path class="cls-7" d="M313.1,61.06,313,61a.43.43,0,0,1-.3-.32L302.2,9.54l.83-.17,10.33,50.4,36.09-36.5.6.6L313.4,60.94A.42.42,0,0,1,313.1,61.06Z"/><path class="cls-8" d="M366,109.44a.42.42,0,0,1-.42-.35L349.33,23.65l.84-.16,16.12,85L435.2,85.52l.27.81-69.37,23.1Z"/><rect class="cls-9" x="339.1" y="49" width="0.85" height="71.66" transform="translate(47.72 278.02) rotate(-47.53)"/><path class="cls-10" d="M409.71,439.89a.43.43,0,0,1-.23-.06l-88.35-55.29-76.89,42.69a.43.43,0,0,1-.47,0l-68.61-55.74A.43.43,0,0,1,175,371l13.78-96.16a.42.42,0,0,1,.13-.25l78.92-72.69a.43.43,0,0,1,.7.21l27,108.88,79,27.42a.43.43,0,0,1,.14.73L321.87,384l87.62,54.83,28.91-76.72-22.11-75.36a.42.42,0,0,1,0-.16l6.66-65.67L353.4,244.65l-.27-.8,70.16-24a.42.42,0,0,1,.56.44l-6.72,66.25L439.26,362a.42.42,0,0,1,0,.27L410.1,439.61a.43.43,0,0,1-.26.25Zm-233.83-69,68.2,55.41,76.55-42.49L294.78,311.5l-26.9-108.44-78.28,72.1Zm120-58.88,25.48,71.29L373.56,339Z"/><rect class="cls-11" x="233.83" y="160.41" width="84.33" height="0.85" transform="translate(66.5 401.99) rotate(-79.25)"/><path class="cls-12" d="M416.7,287.05a.42.42,0,0,1-.24-.07L353,244.6l-85.1-42a.42.42,0,0,1,0-.76l71.71-37.41a.42.42,0,0,1,.43,0l83,55.08L431.36,165l-65.67-55.66a.42.42,0,0,1,0-.67L420,69.84l.5.69L366.65,109l65.43,55.48,32.77,16.43a.42.42,0,0,1,.2.22l33.3,82.14a.42.42,0,0,1-.28.57L416.82,287ZM269.06,202.24l84.4,41.63,63.32,42.29,80.62-23-33.06-81.56-32.19-16.15-8.29,54.87a.42.42,0,0,1-.66.29L339.8,165.34Z"/><path class="cls-13" d="M497.75,263.84l-74.53-43.18a.42.42,0,0,1-.08-.68l41.13-38.86,5.88-43,.84.12-5.9,43.18a.42.42,0,0,1-.13.25l-40.82,38.57,74,42.89Z"/><rect class="cls-14" x="480.46" y="176.29" width="0.85" height="57.33" transform="matrix(0.82, -0.57, 0.57, 0.82, -31.56, 308.19)"/><path class="cls-15" d="M409.31,439.6,374,339a.43.43,0,0,1,.55-.54L439,361.73a.42.42,0,0,1,.24.22l13.93,30.72-.77.35-13.86-30.55L375.1,339.55l35,99.77Z"/><rect class="cls-16" x="438.76" y="359.94" width="34.29" height="0.85" transform="translate(-34.8 49.04) rotate(-5.93)"/><path class="cls-17" d="M374.4,339.27h-.1a.43.43,0,0,1-.32-.32l-21.13-94.6.83-.19,20.94,93.74,41.75-51.54a.43.43,0,0,1,.6-.06l65.13,51.95-.53.66-64.8-51.68-42,51.89A.43.43,0,0,1,374.4,339.27Z"/><path class="cls-18" d="M192,490.54l-.66-.54,52.31-63.31,1.7-80.2a.43.43,0,0,1,.61-.37l75.42,37.54a.42.42,0,0,1,.19.2L362.9,470.6l-.77.37-41.3-86.6-74.68-37.18-1.69,79.67a.43.43,0,0,1-.1.26Z"/><path class="cls-19" d="M158.59,415.37a.43.43,0,0,1-.24-.07L100,375.88a.42.42,0,0,1-.13-.14c-.13-.21-12.79-21.72-24.82-43.32-24.51-44-22.62-45.5-21.81-46.13C57,283.37,114,208,116.41,204.8l5-63.87L78.39,102.25a.43.43,0,0,1-.14-.38l5.41-34.44.84.13-5.38,34.22,43,38.67a.42.42,0,0,1,.14.35L117.24,205a.42.42,0,0,1-.08.22c-2.43,3.21-59.48,78.71-63.34,81.75-2.2,2.72,27.51,55.55,46.78,88.27l57.79,39.06L175,371.12l-42-89.48a.42.42,0,0,1,.34-.6l55.87-6.52a.42.42,0,0,1,.38.16l56.29,71.24L294.93,311l.49.69L246,346.85a.43.43,0,0,1-.58-.08L189,275.4l-55,6.42,41.84,89.11a.42.42,0,0,1,0,.33L159,415.1a.42.42,0,0,1-.27.25Z"/><path class="cls-20" d="M71.8,420.56l-.72-.46,28.84-44.8a.43.43,0,0,1,.33-.19l75.08-4.42L245.6,346.1l.28.8-70.31,24.6-.12,0-74.92,4.41Z"/><path class="cls-21" d="M286.49,495.09l-42.82-68a.43.43,0,0,1,.51-.62l118.48,43.93-.3.8L245.06,427.68l42.15,67Z"/><path class="cls-22" d="M116.82,205.38a.42.42,0,0,1-.2-.05L47.73,167.71a.43.43,0,0,1-.11-.09l0,0L28.1,142.51l.67-.52,19.06,24.54,30.45-64.78a.42.42,0,0,1,.25-.22L156,76.59a.43.43,0,0,1,.51.61l-33.78,63,81.78-15.55a.43.43,0,0,1,.41.15L268.44,202a.42.42,0,0,1-.41.69l-92-17.83L117,205.36ZM49,167.42l67.9,37.08,59-20.5a.42.42,0,0,1,.22,0L267,201.61,204.38,125.5,122,141.17Zm30-65.14L48.75,166.59l72.85-26.18,33.62-62.69Z"/><rect class="cls-23" x="119.66" y="35.92" width="0.85" height="72.63" transform="translate(32.75 181.84) rotate(-82.48)"/><polygon class="cls-24" points="28.7 142.58 28.17 141.92 78.41 101.6 78.94 102.26 28.7 142.58"/><path class="cls-25" d="M145.14,473.93l-.83-.2L158,415.4l-86.57,5.35-.05-.85,87.15-5.38a.41.41,0,0,1,.35.15.42.42,0,0,1,.09.37Z"/><path class="cls-26" d="M165.25,482.6,158.17,415a.42.42,0,0,1,.13-.35.43.43,0,0,1,.35-.12l85.44,11.9-.12.84-84.91-11.83,7,67.07Z"/><path class="cls-27" d="M37.81,376.73v-.85l62.18-.76,32.73-93.18-79.13,5.12a.44.44,0,0,1-.4-.22L7.42,204.1a.43.43,0,0,1,.09-.52L47.64,167a.43.43,0,0,1,.7.23l9.41,46.14,59-8.86a.43.43,0,0,1,.48.33l16.23,75.23,42-95.57-53.88-43.44.53-.66,54.13,43.64a.42.42,0,0,1,.12.5l-42.69,97.05-33,94.05a.43.43,0,0,1-.4.28ZM8.32,204l45.47,82.2,79-5.11-16.32-75.64-59,8.86A.43.43,0,0,1,57,214l-9.34-45.8Z"/><path class="cls-28" d="M7.81,289.23l0-.85,45.38-2.16,3.82-72L7.7,204.31l.17-.83,49.63,10a.43.43,0,0,1,.34.44L54,286.65a.42.42,0,0,1-.4.4Z"/><path class="cls-29" d="M100.08,375.91,54.81,351.51a.42.42,0,0,1-.22-.36l-1.4-62.07L29.57,359.93l-.81-.27,24.38-73.17a.43.43,0,0,1,.83.12l1.45,64.26,45.06,24.28Z"/><path class="cls-30" d="M38.15,376.54l-.7-.48,16.49-24.12L29.31,360.2l-.27-.81,25.84-8.66a.43.43,0,0,1,.49.64Z"/><rect class="cls-31" x="28.11" y="235.94" width="0.85" height="63.04" transform="translate(-201.1 127.41) rotate(-52.53)"/><rect class="cls-32" x="14.15" y="171.73" width="34.47" height="0.85" transform="translate(-46.86 15.63) rotate(-16.23)"/><circle class="cls-33" cx="170.83" cy="16.26" r="3.52"/><circle class="cls-34" cx="116.82" cy="42.3" r="3.52"/><circle class="cls-35" cx="84.09" cy="67.49" r="3.52"/><circle class="cls-36" cx="28.44" cy="142.25" r="3.52"/><circle class="cls-37" cx="14.83" cy="176.97" r="3.52"/><circle class="cls-38" cx="7.79" cy="203.89" r="3.52"/><circle class="cls-39" cx="3.52" cy="248.28" r="3.52"/><circle class="cls-40" cx="6.36" cy="288.81" r="3.52"/><circle class="cls-41" cx="29.17" cy="359.8" r="3.52"/><circle class="cls-42" cx="37.8" cy="376.3" r="3.52"/><circle class="cls-43" cx="71.45" cy="420.33" r="3.52"/><circle class="cls-44" cx="144.73" cy="473.83" r="3.52"/><circle class="cls-45" cx="191.63" cy="490.27" r="3.52"/><circle class="cls-46" cx="286.85" cy="494.87" r="3.52"/><circle class="cls-47" cx="362.52" cy="470.78" r="3.52"/><circle class="cls-48" cx="409.71" cy="439.46" r="3.52"/><circle class="cls-49" cx="452.78" cy="392.84" r="3.52"/><circle class="cls-50" cx="481.83" cy="338.57" r="3.52"/><circle class="cls-51" cx="472.96" cy="358.6" r="3.52"/><circle class="cls-52" cx="497.96" cy="263.47" r="3.52"/><circle class="cls-53" cx="497.11" cy="228.59" r="3.52"/><circle class="cls-54" cx="470.56" cy="138.15" r="3.52"/><circle class="cls-55" cx="420.22" cy="70.19" r="3.52"/><circle class="cls-56" cx="448.79" cy="101.93" r="3.52"/><circle class="cls-57" cx="431.81" cy="164.85" r="3.52"/><circle class="cls-58" cx="464.66" cy="181.93" r="3.52"/><circle class="cls-59" cx="365.96" cy="109.02" r="3.52"/><circle class="cls-60" cx="339.53" cy="164.85" r="3.52"/><circle class="cls-61" cx="283.88" cy="119.41" r="3.52"/><circle class="cls-62" cx="313.1" cy="60.64" r="3.52"/><path class="cls-63" d="M234.34,67.28a3.53,3.53,0,1,0-2.54,2.54A3.53,3.53,0,0,0,234.34,67.28Z"/><circle class="cls-64" cx="155.43" cy="76.99" r="3.52"/><circle class="cls-65" cx="204.6" cy="125.04" r="3.52"/><circle class="cls-66" cx="175.42" cy="184.85" r="3.52"/><circle class="cls-67" cx="121.99" cy="140.97" r="3.52"/><circle class="cls-68" cx="78.67" cy="101.93" r="3.52"/><circle class="cls-69" cx="47.93" cy="167.34" r="3.52"/><circle class="cls-70" cx="116.47" cy="204.96" r="3.52"/><circle class="cls-71" cx="57.42" cy="213.89" r="3.52"/><circle class="cls-72" cx="52.96" cy="286.63" r="3.52"/><circle class="cls-73" cx="133.33" cy="281.76" r="3.52"/><circle class="cls-74" cx="189.55" cy="275.28" r="3.52"/><circle class="cls-75" cx="55.01" cy="351.14" r="3.52"/><circle class="cls-76" cx="100.28" cy="375.16" r="3.52"/><circle class="cls-77" cx="176.02" cy="370.8" r="3.52"/><circle class="cls-78" cx="158.59" cy="414.95" r="3.52"/><circle class="cls-79" cx="244.04" cy="426.85" r="3.52"/><circle class="cls-80" cx="321.15" cy="384.05" r="3.52"/><circle class="cls-81" cx="374.4" cy="338.85" r="3.52"/><circle class="cls-82" cx="438.85" cy="362.13" r="3.52"/><circle class="cls-83" cx="295.18" cy="310.58" r="3.52"/><circle class="cls-84" cx="416.75" cy="286.63" r="3.52"/><circle class="cls-85" cx="353.27" cy="244.25" r="3.52"/><circle class="cls-86" cx="268.12" cy="202.25" r="3.52"/><circle class="cls-87" cx="423.43" cy="220.41" r="3.52"/><circle class="cls-88" cx="245.74" cy="346.5" r="3.52"/><circle class="cls-89" cx="435.33" cy="85.92" r="3.52"/><circle class="cls-90" cx="349.74" cy="23.57" r="3.52"/><circle class="cls-91" cx="302.61" cy="8.45" r="3.52"/><circle class="cls-92" cx="235.17" cy="3.52" r="3.52"/><circle class="cls-93" cx="212.85" cy="5.93" r="3.52"/><circle class="cls-94" cx="191.59" cy="10.11" r="3.52"/><circle class="cls-95" cx="165.68" cy="482.56" r="3.52"/></g></g></svg>