<svg xmlns="http://www.w3.org/2000/svg" xmlns:xlink="http://www.w3.org/1999/xlink" viewBox="0 0 126.14 126.14"><defs><style>.cls-1{opacity:0.4;fill:url(#linear-gradient);}.cls-2{fill:#abc6d3;}.cls-3{fill:url(#linear-gradient-2);}</style><linearGradient id="linear-gradient" x1="38.22" y1="20.04" x2="87.91" y2="106.1" gradientUnits="userSpaceOnUse"><stop offset="0" stop-color="#63ce99"/><stop offset="0.18" stop-color="#54c2b6"/><stop offset="0.34" stop-color="#4bbaca"/><stop offset="0.46" stop-color="#47b7d1"/><stop offset="0.55" stop-color="#4babd5"/><stop offset="0.73" stop-color="#548ae1"/><stop offset="0.95" stop-color="#625af2"/></linearGradient><linearGradient id="linear-gradient-2" x1="35.7" y1="15.66" x2="90.44" y2="110.48" xlink:href="#linear-gradient"/></defs><title>platform</title><g id="Layer_2" data-name="Layer 2"><g id="polys"><path class="cls-1" d="M99.69,98.59l10.4-35.52L99.69,27.55l.05-.18-.12,0-.19-.64-.64-.19,0-.12-.18.05L63.21,16.08l-.14,0L27.55,26.45l-.18-.05,0,.12-.37.11-.26.08-.19.64-.12,0,.05.18L16,63.07l10.4,35.52-.05.18.12,0,.19.64.64.19,0,.12.18-.05L62.77,110l.3.09L98.59,99.7l.18.05,0-.12.37-.11.26-.08.19-.64.12,0ZM64.13,62V38.75L97,29.11,87.39,62ZM62,62H38.74L29.11,29.11,62,38.74Zm0,2.12V87.39L29.11,97l9.64-32.9Zm2.12,0H87.39L97,97,64.13,87.4Zm25.16-1.06,9.3-31.76,9.3,31.76-9.3,31.76ZM63.07,36.85l-31.76-9.3,31.76-9.3,31.76,9.3ZM36.85,63.07l-9.3,31.76-9.3-31.76,9.3-31.76ZM63.07,89.29l31.76,9.3-31.76,9.3-31.76-9.3Z"/><path class="cls-2" d="M63.07,125.57l-40.4-22.1L.57,63.07l.15-.27,22-40.13.14-.08L63.07.57l40.4,22.1,22.1,40.4-.15.27-22,40.14-.14.08ZM23.49,102.65,63.07,124.3l39.58-21.65L124.3,63.07,102.65,23.49,63.07,1.84,23.49,23.49,1.84,63.07Z"/><path class="cls-2" d="M63.07,126.14l-.24-.13L22.3,103.84,0,63.07,22.3,22.3l.27-.15L63.07,0l.24.13L103.84,22.3l.07.13,22.23,40.64-22.3,40.77Zm-40-23,40,21.89,40-21.89,21.9-40L103.1,23l-40-21.9L23,23l-21.9,40Zm40,21.76-.24-.13L23.12,103l-.07-.13L1.27,63.07,23.12,23.12,63.07,1.27l.24.13L103,23.12l.07.13,21.78,39.82L103,103ZM23.86,102.28l39.21,21.45,39.21-21.45,21.45-39.21L102.28,23.86,63.07,2.41,23.86,23.86,2.41,63.07Z"/><path class="cls-3" d="M125.88,62.38l-40.16-22L63.76.26l-.69.38L62.38.26l-22,40.16L.26,62.38l.38.69-.38.69,40.16,22,22,40.16.69-.38.69.38,22-40.16,40.16-22-.38-.69Zm-62.81-59L83.63,41,63.07,61.57,42.51,41ZM3.41,63.07,41,42.51,61.57,63.07,41,83.63Zm59.66,59.66L42.51,85.13,63.07,64.57,83.63,85.13ZM85.13,83.63,64.57,63.07,85.13,42.51l37.6,20.56Z"/></g></g></svg>